<?xml version="1.0" encoding="UTF-8" standalone="no"?>
<!-- Created with Inkscape (http://www.inkscape.org/) -->

<svg
   width="160mm"
   height="96mm"
   viewBox="0 0 160 96"
   version="1.1"
   id="svg1"
   xml:space="preserve"
   inkscape:version="1.4.2 (ebf0e940d0, 2025-05-08)"
   sodipodi:docname="Set2.svg"
   inkscape:export-filename="Set2final3.svg"
   inkscape:export-xdpi="96"
   inkscape:export-ydpi="96"
   xmlns:inkscape="http://www.inkscape.org/namespaces/inkscape"
   xmlns:sodipodi="http://sodipodi.sourceforge.net/DTD/sodipodi-0.dtd"
   xmlns="http://www.w3.org/2000/svg"
   xmlns:svg="http://www.w3.org/2000/svg"><sodipodi:namedview
     id="namedview1"
     pagecolor="#6d6d6d"
     bordercolor="#000000"
     borderopacity="0.25"
     inkscape:showpageshadow="2"
     inkscape:pageopacity="0.0"
     inkscape:pagecheckerboard="0"
     inkscape:deskcolor="#d1d1d1"
     inkscape:document-units="mm"
     inkscape:zoom="1.5656212"
     inkscape:cx="254.21219"
     inkscape:cy="117.84459"
     inkscape:window-width="1868"
     inkscape:window-height="1052"
     inkscape:window-x="0"
     inkscape:window-y="0"
     inkscape:window-maximized="1"
     inkscape:current-layer="layer1"
     inkscape:export-bgcolor="#ffffff00" /><defs
     id="defs1"><rect
       x="7.3236752"
       y="251.00233"
       width="595.7368"
       height="261.87299"
       id="rect2" /><rect
       x="8.6552525"
       y="249.67075"
       width="581.89929"
       height="43.942051"
       id="rect1" /><rect
       x="7.3236752"
       y="251.00233"
       width="591.22034"
       height="197.73923"
       id="rect26" /><rect
       x="7.3236752"
       y="251.00233"
       width="595.7368"
       height="261.87299"
       id="rect54" /></defs><g
     inkscape:label="Layer 1"
     inkscape:groupmode="layer"
     id="layer1"><path
       style="fill:#ffffff;fill-opacity:1;stroke-width:1.12768"
       d="M 9.4482759,23.024473 V 21.444719 H 6.2787043 3.1091328 v -7.9189 -7.9188984 H 3.743047 4.3769614 V 4.66108 3.7152395 H 6.2686422 8.160323 V 4.66108 5.6069206 h 0.6337925 0.6337923 l 0.00515,1.5847859 0.00515,1.5847859 h 0.6339152 0.633914 l 0.0053,-0.9508715 0.0053,-0.9508716 h 1.891484 1.891483 v 0.9559026 0.9559028 h 0.633793 0.633792 l 0.0052,-1.584786 0.0052,-1.5847861 0.628884,-0.00533 0.628882,-0.00533 V 4.6607834 3.7152296 h 1.901743 1.901743 v 0.9455538 0.945554 l 0.628883,0.00533 0.628885,0.00533 0.0052,1.584786 0.0052,1.584786 h 0.633793 0.633793 V 7.8305493 6.874544 l 1.89671,0.00513 1.896713,0.00513 0.0052,0.9508717 0.0052,0.9508715 h 0.633717 0.633717 V 7.1967376 5.6069206 h 0.633915 0.633915 V 4.66108 3.7152395 h 1.89168 1.89168 V 4.66108 5.6069206 h 0.633793 0.633793 l 0.0052,1.5847859 0.0052,1.5847859 h 0.633915 0.633915 l 0.0052,-0.9508715 0.0052,-0.9508716 h 1.891483 1.891486 v 0.9559026 0.9559028 h 0.633914 0.633914 v 7.9088363 7.908837 h -3.159402 -3.15951 V 23.024473 21.444719 H 31.615572 28.446 v 1.579754 1.579755 H 25.276063 22.10649 v -1.579755 -1.579754 h -3.16957 -3.169571 v 1.579754 1.579755 H 12.607786 9.4482759 Z M 5.9602981,17.589111 c 0.1092508,-0.08091 0.1132675,-0.106182 0.1308599,-0.823285 0.013106,-0.534225 0.022693,-0.681228 0.049024,-0.751678 0.058361,-0.156146 0.022971,-0.151665 1.2956669,-0.164071 1.2404455,-0.01209 1.2289129,-0.01083 1.3017095,-0.14422 0.031053,-0.0569 0.037496,-0.126049 0.042804,-0.459413 0.00513,-0.321997 9.076e-4,-0.399645 -0.023522,-0.432671 -0.027032,-0.03654 -0.060967,-0.04136 -0.3684875,-0.05237 -0.3507168,-0.01255 -0.4129074,-0.02571 -0.5247958,-0.111042 -0.1015488,-0.07746 -0.1311511,-0.154877 -0.1414238,-0.369878 -0.011852,-0.248058 0.014939,-0.346769 0.1236147,-0.455444 0.1065343,-0.106532 0.1667413,-0.121304 0.5560651,-0.136406 0.415603,-0.01612 0.3879581,0.01999 0.3790851,-0.49516 -0.00738,-0.428566 -0.015439,-0.4614 -0.1319596,-0.537745 -0.050972,-0.0334 -0.1919607,-0.0355 -2.3829706,-0.0355 H 3.9371764 l -0.056815,0.04206 c -0.1239791,0.09178 -0.1166769,-0.05129 -0.122647,2.402826 -0.00372,1.528695 0.00137,2.276517 0.015961,2.346814 0.025157,0.121182 0.079749,0.180233 0.1914062,0.207038 0.045759,0.01093 0.4764515,0.01769 1.0091286,0.01569 0.9083141,-0.0034 0.9305805,-0.0044 0.986089,-0.04553 z m 14.3188719,0.02972 c 0.468347,-0.09834 0.961232,-0.554469 1.128351,-1.044192 0.04394,-0.128791 0.04472,-0.1502 0.0506,-1.388575 0.0066,-1.396635 0.0054,-1.41285 -0.124215,-1.682422 -0.204292,-0.424796 -0.656229,-0.793739 -1.068841,-0.872562 -0.08662,-0.01654 -0.618394,-0.02133 -1.881619,-0.01696 -1.980826,0.0069 -1.855335,-0.0034 -1.919374,0.15667 -0.02949,0.07372 -0.03264,0.303853 -0.03224,2.360343 4.23e-4,2.174189 0.0021,2.282427 0.0377,2.360697 0.03564,0.07849 0.08265,0.111527 0.193289,0.135873 0.09644,0.02123 3.512954,0.01285 3.616345,-0.0089 z M 18.659013,15.64867 c -0.225097,-0.0217 -0.253687,-0.08065 -0.253687,-0.522977 0,-0.473311 0.01785,-0.501557 0.332448,-0.52611 0.372779,-0.0291 0.558216,0.02363 0.668336,0.190038 0.05146,0.07777 0.05398,0.09353 0.05398,0.3379 0,0.252309 -9.45e-4,0.257664 -0.06037,0.34216 -0.09011,0.128128 -0.213023,0.181811 -0.429445,0.187566 -0.09585,0.0026 -0.235925,-0.0014 -0.311266,-0.0086 z m 8.998276,1.945941 c 0.100623,-0.05491 0.122347,-0.13166 0.136837,-0.483425 0.01469,-0.356746 0.0016,-0.487253 -0.05173,-0.515796 -0.02015,-0.01083 -0.175808,-0.0252 -0.345918,-0.03202 -0.339881,-0.01366 -0.416928,-0.02924 -0.517954,-0.104739 -0.104085,-0.07778 -0.151242,-0.203702 -0.152507,-0.407209 -0.0015,-0.233672 0.01837,-0.309958 0.10573,-0.406762 0.113989,-0.126325 0.169264,-0.14187 0.55158,-0.155119 0.286123,-0.0099 0.341748,-0.01703 0.372299,-0.0476 0.03103,-0.03106 0.03592,-0.07405 0.03592,-0.316239 0,-0.242198 -0.0049,-0.285187 -0.03592,-0.316239 -0.03055,-0.03057 -0.08618,-0.03767 -0.372299,-0.0476 -0.382316,-0.01325 -0.437591,-0.02879 -0.55158,-0.155121 -0.08771,-0.0972 -0.107355,-0.173595 -0.105201,-0.409083 0.0024,-0.272945 0.101729,-0.427004 0.308346,-0.478766 0.03983,-0.0099 0.205977,-0.02322 0.369208,-0.02941 0.163229,-0.0062 0.314364,-0.02067 0.335856,-0.03217 0.05594,-0.02994 0.0685,-0.150603 0.05363,-0.515734 -0.01441,-0.354122 -0.03572,-0.429916 -0.136294,-0.484794 -0.06364,-0.03473 -0.182959,-0.03656 -2.38128,-0.03656 -2.297212,0 -2.31481,3.06e-4 -2.384725,0.04127 -0.137703,0.0807 -0.130798,-0.04937 -0.130803,2.464195 -3e-6,1.840314 0.0051,2.278235 0.02695,2.340158 0.02932,0.08287 0.0887,0.131677 0.189889,0.156047 0.03569,0.0086 1.088219,0.0142 2.338941,0.01245 2.156014,-0.003 2.27752,-0.0051 2.341031,-0.03974 z m 6.335063,0.0021 c 0.109385,-0.05989 0.128271,-0.145056 0.128271,-0.578315 0,-0.319093 -0.0051,-0.385623 -0.03162,-0.41214 -0.01739,-0.01739 -0.04682,-0.03181 -0.0654,-0.03205 -0.284022,-0.0036 -0.616445,-0.02904 -0.692592,-0.05306 -0.200417,-0.06323 -0.294064,-0.262646 -0.270088,-0.575141 0.01286,-0.167618 0.04663,-0.253458 0.130907,-0.332709 0.100386,-0.09441 0.172778,-0.11137 0.528282,-0.123778 0.239212,-0.0084 0.343454,-0.0195 0.367267,-0.03928 0.02817,-0.0234 0.03325,-0.073 0.03325,-0.324556 0,-0.251546 -0.0051,-0.301157 -0.03325,-0.324555 -0.02394,-0.01989 -0.127271,-0.03065 -0.369269,-0.03843 -0.307921,-0.0099 -0.344248,-0.01505 -0.434458,-0.06147 -0.143188,-0.07369 -0.206565,-0.185234 -0.222386,-0.391411 -0.01842,-0.239909 0.01602,-0.375619 0.122189,-0.481801 0.106137,-0.106137 0.183374,-0.125138 0.566307,-0.139298 0.155742,-0.0058 0.29845,-0.01634 0.31713,-0.0235 0.05223,-0.02004 0.05801,-0.07675 0.05058,-0.495368 -0.006,-0.333577 -0.01204,-0.396182 -0.0431,-0.441938 -0.07608,-0.112035 0.02358,-0.107693 -2.469272,-0.107693 -2.567212,0 -2.389716,-0.01015 -2.465223,0.140869 -0.0394,0.07881 -0.04037,0.126671 -0.04593,2.274043 -0.0036,1.391983 0.0017,2.241112 0.01445,2.323716 0.02522,0.163114 0.06995,0.225186 0.184306,0.255815 0.06605,0.01769 0.66882,0.02283 2.362716,0.02012 2.104278,-0.0034 2.278737,-0.0062 2.336951,-0.03807 z m 2.473475,0.0035 c 0.03174,-0.03509 0.03901,-0.08997 0.04988,-0.37733 0.01426,-0.377021 0.03143,-0.440214 0.147089,-0.541768 0.09233,-0.08106 0.183703,-0.106217 0.38591,-0.106217 0.268354,0 0.388987,0.0578 0.477345,0.228706 0.03685,0.07128 0.04462,0.130377 0.05506,0.418628 0.01597,0.441147 -0.0031,0.419028 0.362398,0.419028 0.205326,0 0.284647,-0.0072 0.313839,-0.02852 0.03516,-0.02567 0.04019,-0.06263 0.05034,-0.370176 0.01038,-0.312533 0.01556,-0.349967 0.06147,-0.439183 0.02932,-0.05697 0.08483,-0.121872 0.133472,-0.156063 0.0749,-0.05263 0.103149,-0.05947 0.28064,-0.06788 0.235693,-0.01117 0.341616,0.0132 0.442471,0.101739 0.122571,0.107615 0.14437,0.184719 0.159993,0.565877 0.01322,0.322444 0.01583,0.338408 0.06025,0.36751 0.03838,0.02515 0.113725,0.02923 0.434516,0.02354 0.432007,-0.0077 0.491275,-0.02366 0.543191,-0.146568 0.02075,-0.04913 0.02601,-0.529286 0.02601,-2.376746 0,-2.178003 -0.0021,-2.318386 -0.0355,-2.369352 -0.08323,-0.127004 -0.06569,-0.124578 -0.948962,-0.131283 -0.705999,-0.0054 -0.815786,-0.002 -0.891206,0.02674 -0.13361,0.05103 -0.159828,0.09921 -0.176744,0.324829 -0.0132,0.176013 -0.02007,0.20067 -0.06968,0.250285 -0.07773,0.07773 -0.197865,0.104062 -0.433585,0.09504 -0.316374,-0.01212 -0.36957,-0.05933 -0.391633,-0.347589 -0.01568,-0.20472 -0.03981,-0.257235 -0.141584,-0.307979 -0.06285,-0.03134 -0.154618,-0.03584 -0.833805,-0.04095 -0.812021,-0.006 -0.94088,0.0043 -1.013895,0.08207 -0.02293,0.02443 -0.05109,0.08517 -0.06258,0.134971 -0.02915,0.126572 -0.02969,4.44912 -5.73e-4,4.584911 0.02411,0.11243 0.07759,0.172211 0.179973,0.20121 0.03874,0.01093 0.234302,0.02076 0.434583,0.02176 0.342205,0.0017 0.366387,-6.59e-4 0.4013,-0.03923 z M 13.018706,14.733675 c 0.209604,-0.03735 0.389949,-0.128437 0.532714,-0.26906 0.217978,-0.21471 0.2664,-0.384059 0.264859,-0.926329 -0.0011,-0.38477 -0.02225,-0.611753 -0.06472,-0.69456 -0.04381,-0.0854 -0.12833,-0.154784 -0.227306,-0.186588 -0.08243,-0.02649 -0.228818,-0.03435 -0.781179,-0.04195 -1.130904,-0.01556 -1.258451,0.02055 -1.322213,0.374333 -0.035,0.194188 -0.03683,0.914089 -0.0027,1.049478 0.06269,0.248423 0.222429,0.458653 0.449492,0.591544 0.204883,0.11991 0.771789,0.170703 1.151019,0.103126 z"
       id="path4" /><text
       xml:space="preserve"
       transform="matrix(0.26458333,0,0,0.26458333,1.0569395,-39.094212)"
       id="text2"
       style="font-size:29.3333px;line-height:1.4;text-align:start;writing-mode:lr-tb;direction:ltr;white-space:pre;shape-inside:url(#rect2);display:inline;fill:#000000"><tspan
         x="7.3242188"
         y="280.87119"
         id="tspan3"><tspan
           style="font-family:Lectus;-inkscape-font-specification:Lectus;fill:#ffffff"
           id="tspan1">2x Pony
</tspan></tspan><tspan
         x="7.3242188"
         y="323.65397"
         id="tspan5"><tspan
           style="font-family:Lectus;-inkscape-font-specification:Lectus;fill:#ffffff"
           id="tspan4">64 Pcs
</tspan></tspan><tspan
         x="7.3242188"
         y="366.43674"
         id="tspan7"><tspan
           style="font-family:Lectus;-inkscape-font-specification:Lectus;fill:#ffffff"
           id="tspan6">5 Color
</tspan></tspan><tspan
         x="7.3242188"
         y="409.21952"
         id="tspan9"><tspan
           style="font-family:Lectus;-inkscape-font-specification:Lectus;fill:#ffffff"
           id="tspan8">103125
</tspan></tspan><tspan
         x="7.3242188"
         y="452.00229"
         id="tspan11"><tspan
           style="font-family:Lectus;-inkscape-font-specification:Lectus;fill:#ffffff"
           id="tspan10">Birthday Surprise
</tspan></tspan><tspan
         x="7.3242188"
         y="494.78507"
         id="tspan13"><tspan
           style="font-family:Lectus;-inkscape-font-specification:Lectus;fill:#ffffff"
           id="tspan12">f-deem.org/sets/0002</tspan></tspan></text><rect
       style="display:inline;fill:none;stroke:#ffffff;stroke-width:2.12872;stroke-linecap:butt;stroke-linejoin:round;stroke-dasharray:none;stroke-dashoffset:0;stroke-opacity:1;paint-order:normal"
       id="rect4"
       width="110.2997"
       height="64.601151"
       x="-156.20877"
       y="4.6731424"
       rx="4.7475715"
       transform="scale(-1,1)" /><path
       style="fill:#ffffff;fill-opacity:1;stroke-width:1.08974"
       d="m 62.350252,67.857561 c 0.01381,-0.348797 0.09616,-3.180633 0.182998,-6.292971 0.104168,-3.733239 0.172832,-5.696884 0.201786,-5.770732 0.05268,-0.134353 0.24229,-0.258464 0.39518,-0.258665 l 0.110915,-1.46e-4 -0.0803,-0.126835 c -0.53406,-0.843558 -0.5995,-1.443102 -0.23932,-2.192559 0.276931,-0.576231 0.447587,-0.791373 1.286807,-1.622248 1.232842,-1.220584 1.376742,-1.413378 1.543826,-2.068389 0.154092,-0.604077 -0.03371,-1.375867 -0.490623,-2.016256 -0.06377,-0.08938 -0.236145,-0.273793 -0.383048,-0.409803 -0.276678,-0.256161 -0.434712,-0.502241 -0.434712,-0.676904 0,-0.22543 0.213715,-0.448417 0.429773,-0.448417 0.04533,0 0.173523,0.02739 0.284878,0.06087 0.111355,0.03348 0.272711,0.08075 0.358569,0.105062 0.228415,0.06465 0.898897,0.381828 1.181293,0.558817 0.784687,0.491795 1.843836,1.482823 2.186756,2.04611 0.828758,1.361336 0.946552,2.410697 0.407415,3.629433 -0.04273,0.09659 -0.09917,0.237085 -0.125413,0.31221 -0.02625,0.07512 -0.07908,0.2244 -0.117407,0.331723 -0.07876,0.220571 -0.176593,0.557747 -0.22079,0.76101 -0.01634,0.07512 -0.03059,0.457072 -0.03168,0.848769 -0.0015,0.556453 0.0091,0.712189 0.04836,0.712227 0.107197,1.08e-4 0.360457,0.162047 0.412655,0.26386 0.06909,0.134769 0.03293,-0.661894 0.433574,9.551273 0.05304,1.352257 0.107448,2.656219 0.120887,2.897693 l 0.02445,0.439044 h -0.449322 -0.44932 l -0.02266,-0.28294 c -0.01246,-0.155616 -0.06654,-1.415674 -0.120179,-2.800127 -0.341211,-8.807168 -0.35117,-9.047088 -0.376578,-9.072496 -0.01003,-0.01003 -0.113956,-0.0015 -0.230851,0.01903 -0.678352,0.119223 -1.720148,0.228357 -3.029076,0.317313 -0.537736,0.03655 -0.81114,0.03761 -1.1312,0.0044 -0.232141,-0.02407 -0.428522,-0.03733 -0.436403,-0.02944 -0.01227,0.01227 -0.128518,3.888203 -0.276824,9.229484 -0.02235,0.804915 -0.05164,1.722518 -0.06509,2.039118 l -0.02445,0.575636 h -0.449977 -0.44998 z m 17.07347,0.526853 c 0.109432,-0.158061 0.220527,-0.348227 0.374491,-0.641028 0.07534,-0.143288 0.155324,-0.271854 0.177731,-0.285703 0.02241,-0.01386 0.08552,-0.107349 0.140255,-0.207789 0.05474,-0.100441 0.176225,-0.314327 0.269983,-0.47531 0.218046,-0.374387 1.017574,-1.944603 1.088036,-2.136826 0.05992,-0.16347 0.226269,-0.564369 0.342345,-0.825057 0.042,-0.09433 0.118293,-0.296292 0.169532,-0.448802 0.157638,-0.469186 0.293486,-0.856247 0.350716,-0.999272 0.03007,-0.07512 0.109965,-0.32099 0.177563,-0.546366 0.06759,-0.225376 0.149561,-0.488803 0.182142,-0.585392 0.03258,-0.09659 0.0844,-0.272208 0.11515,-0.390262 0.03075,-0.118054 0.07191,-0.26733 0.09147,-0.331723 0.101378,-0.333812 0.301895,-1.106778 0.470755,-1.814717 0.09998,-0.419173 0.17653,-0.786904 0.385879,-1.853743 0.0721,-0.367425 0.274483,-1.794858 0.334756,-2.361083 0.09768,-0.917722 0.117156,-2.404491 0.04089,-3.122094 -0.03536,-0.332698 -0.07912,-0.666372 -0.09725,-0.741497 -0.01813,-0.07513 -0.05508,-0.268305 -0.08215,-0.429288 -0.07514,-0.447006 -0.339548,-1.551045 -0.486017,-2.029361 -0.07989,-0.260922 -0.142727,-0.442205 -0.27727,-0.800036 -0.05649,-0.150251 -0.129243,-0.3477 -0.161666,-0.438777 -0.03242,-0.09108 -0.239039,-0.530121 -0.459149,-0.975654 -0.34946,-0.707355 -0.488186,-0.949426 -0.905042,-1.579247 -0.04675,-0.07063 -0.134556,-0.203346 -0.195131,-0.294927 -0.46753,-0.706836 -1.410468,-1.802346 -2.12407,-2.467755 -0.749685,-0.699054 -0.833836,-0.773678 -1.498422,-1.328775 -1.184093,-0.989015 -1.55428,-1.304452 -1.98872,-1.694597 -0.620092,-0.556865 -1.26653,-1.125008 -1.426069,-1.253346 -0.07512,-0.06044 -0.2248,-0.189771 -0.332608,-0.287419 -0.107808,-0.09765 -0.397246,-0.35316 -0.643194,-0.567804 -0.917332,-0.800576 -2.268206,-2.156535 -2.405864,-2.414923 -0.06168,-0.115776 -0.05623,-0.27582 0.01811,-0.531554 0.153378,-0.527619 0.19618,-0.682561 0.189983,-0.687745 -0.05173,-0.04327 -1.224764,-0.606503 -1.355257,-0.650732 -0.09758,-0.03307 -0.238068,-0.08708 -0.31221,-0.120017 -0.144574,-0.06423 -0.668327,-0.231237 -1.003311,-0.319924 -0.112786,-0.02985 -0.297186,-0.07943 -0.409776,-0.110169 -0.628491,-0.17156 -1.58239,-0.377911 -2.253584,-0.487508 -0.673882,-0.110036 -1.324924,-0.159898 -2.087901,-0.159913 -0.970498,-1.7e-5 -1.631755,0.06744 -2.341569,0.238885 -0.78094,0.188621 -0.774657,0.186628 -1.463482,0.464308 -0.341384,0.137621 -1.090906,0.533842 -1.346403,0.711752 l -0.234157,0.163051 -0.0032,0.469249 c -0.0037,0.552552 -0.06696,0.82612 -0.296996,1.285216 -0.345321,0.689151 -1.025605,1.31919 -1.894542,1.754615 -0.696043,0.348788 -1.061237,0.447598 -1.669158,0.451622 -0.556569,0.0037 -1.150996,-0.199222 -1.856458,-0.633695 -0.416738,-0.256656 -1.129883,-0.911669 -1.34704,-1.237236 -0.05011,-0.07512 -0.145006,-0.212695 -0.210881,-0.305712 -0.17526,-0.247467 -0.493278,-0.898083 -0.608938,-1.245794 -0.262696,-0.789748 -0.349669,-1.429308 -0.314411,-2.312085 0.03617,-0.905983 0.147942,-1.372745 0.499907,-2.0879 0.606347,-1.23203 1.55469,-2.06439 3.057573,-2.683629 0.852488,-0.351255 2.22362,-0.643106 3.336738,-0.710243 0.871596,-0.05257 2.313382,0.130157 3.395277,0.4303 0.606876,0.168364 0.905678,0.265807 1.201378,0.391785 0.07048,0.03003 0.153517,0.0546 0.18451,0.0546 0.031,0 0.148938,0.04231 0.262101,0.09402 0.450535,0.20588 0.760568,0.335265 0.803369,0.335265 0.02477,0 0.172637,0.05958 0.32861,0.1324 0.413588,0.193094 0.99871,0.451214 1.200701,0.529673 0.192965,0.07495 1.836956,0.855656 2.302543,1.093437 0.903984,0.461674 1.532687,0.80903 1.955833,1.08059 0.07264,0.04662 0.216838,0.134424 0.320448,0.195131 0.103612,0.06071 0.244104,0.149213 0.31221,0.196682 0.06811,0.04747 0.202855,0.131944 0.299445,0.187724 0.09659,0.05578 0.289771,0.169597 0.429289,0.252927 0.139519,0.08333 0.394164,0.225015 0.565879,0.314856 0.171715,0.08984 0.382457,0.211359 0.468314,0.270037 0.275689,0.188418 0.539438,0.351631 0.568227,0.351631 0.0154,0 0.03978,-0.06586 0.05418,-0.146348 0.0144,-0.08048 0.05803,-0.242938 0.09695,-0.360992 0.06418,-0.194604 0.118842,-0.374497 0.355776,-1.170785 0.04152,-0.139519 0.102958,-0.35026 0.136539,-0.468314 0.228061,-0.80171 0.362128,-1.213184 0.428069,-1.313822 0.09172,-0.139986 0.27922,-0.219883 0.443565,-0.189013 0.07765,0.01459 0.290469,0.03328 0.472915,0.04156 0.182447,0.0083 0.581432,0.03591 0.886632,0.06145 0.435438,0.03643 0.653896,0.036 1.014679,-0.0019 0.509285,-0.05362 1.837487,-0.254733 2.820856,-0.427105 0.281909,-0.04942 1.215525,-0.262644 1.463481,-0.334245 0.381592,-0.110191 1.017345,-0.303703 1.190299,-0.362308 0.09659,-0.03272 0.228302,-0.07389 0.292695,-0.09148 0.337771,-0.09223 0.89766,-0.31561 1.059095,-0.42254 0.100986,-0.06689 0.228895,-0.121718 0.284243,-0.121836 0.176703,-3.83e-4 0.542082,-0.114524 1.056771,-0.330128 0.118056,-0.04945 0.355139,-0.145828 0.526855,-0.214168 0.171715,-0.06834 0.439823,-0.184523 0.595794,-0.258184 0.155972,-0.07366 0.30938,-0.133931 0.340906,-0.133931 0.03153,0 0.202463,-0.06895 0.379859,-0.15321 0.177396,-0.08427 0.480595,-0.217709 0.673775,-0.296543 0.19318,-0.07883 0.428417,-0.177733 0.522749,-0.219777 0.09433,-0.04204 0.296291,-0.117345 0.448801,-0.167335 0.152508,-0.04999 0.338754,-0.117731 0.413879,-0.150536 0.174656,-0.07627 0.966673,-0.319593 1.522021,-0.467602 1.269523,-0.338346 2.821442,-0.260578 4.156286,0.208275 0.128788,0.04524 0.286843,0.09561 0.351237,0.111928 0.06439,0.01633 0.169763,0.0557 0.234157,0.08748 0.0644,0.03179 0.190605,0.08093 0.280472,0.10919 0.181247,0.05701 0.117841,0.08836 0.846395,-0.418461 0.131476,-0.09146 0.282953,-0.195501 0.336613,-0.231198 0.05366,-0.0357 0.191193,-0.127701 0.305625,-0.204454 0.114432,-0.07675 0.265366,-0.174675 0.335407,-0.217604 0.07004,-0.04293 0.204718,-0.136029 0.299281,-0.20689 0.172861,-0.129532 0.559008,-0.389433 0.794298,-0.534607 0.06958,-0.04293 0.203873,-0.136029 0.298435,-0.20689 0.17286,-0.129532 0.55901,-0.389432 0.794298,-0.534607 0.06958,-0.04293 0.203872,-0.136029 0.298436,-0.20689 0.172858,-0.129533 0.559009,-0.389432 0.794297,-0.534607 0.06957,-0.04293 0.203868,-0.13603 0.29844,-0.206891 0.154698,-0.11593 0.374984,-0.264969 0.818964,-0.55412 0.0824,-0.05366 0.32757,-0.220498 0.54483,-0.370748 0.21726,-0.150252 0.46312,-0.317087 0.54637,-0.370749 0.0833,-0.05366 0.3291,-0.220498 0.54636,-0.370748 0.21726,-0.150252 0.46312,-0.317088 0.54637,-0.37075 0.0833,-0.05366 0.32911,-0.220497 0.54638,-0.370747 0.21725,-0.150252 0.46311,-0.317088 0.54636,-0.37075 0.0833,-0.05366 0.32879,-0.220498 0.54565,-0.370747 0.21687,-0.150251 0.45611,-0.310373 0.53165,-0.355828 0.27773,-0.167123 0.27669,-0.150053 0.0389,-0.643371 -0.28882,-0.599153 -0.33753,-0.781784 -0.33585,-1.259045 0.002,-0.63437 0.13988,-1.041464 0.49274,-1.457281 0.20382,-0.240188 0.40514,-0.381894 0.88691,-0.624325 0.28783,-0.144832 0.40628,-0.182619 0.62141,-0.198234 l 0.26578,-0.01928 0.1968,-0.392159 c 0.23389,-0.466083 0.4871,-0.73596 0.83497,-0.889949 0.12753,-0.05645 0.30212,-0.133187 0.38797,-0.170528 0.46366,-0.201657 1.27153,-0.275046 1.73666,-0.157761 0.78721,0.198496 1.54443,0.641873 1.75957,1.030286 0.0433,0.07817 0.12169,0.212383 0.17421,0.29824 0.0526,0.08586 0.11379,0.222128 0.13617,0.302823 0.0362,0.131089 0.0727,0.163007 0.34153,0.299595 0.4776,0.242694 0.67742,0.446212 0.93642,0.953756 l 0.22154,0.434161 7.4e-4,0.682957 c 6.5e-4,0.613589 -0.009,0.712689 -0.0926,0.975655 -0.12103,0.379835 -0.40614,0.948523 -0.58499,1.166777 -0.32217,0.393172 -1.01014,0.826048 -1.56564,0.985114 -0.14963,0.04284 -0.37802,0.0726 -0.55724,0.0726 -0.2595,0 -0.33617,-0.01671 -0.52697,-0.114831 -0.12281,-0.06316 -0.27567,-0.157838 -0.33968,-0.210403 l -0.11641,-0.09557 -0.27256,0.211781 c -0.14991,0.11648 -0.31705,0.221869 -0.37143,0.234197 -0.0544,0.01233 -0.17412,0.04684 -0.26609,0.07668 -0.092,0.02985 -0.21491,0.05488 -0.27318,0.05563 -0.0972,0.0014 -0.1251,0.04234 -0.3378,0.497583 -0.12751,0.272918 -0.25352,0.558503 -0.28002,0.634636 -0.0265,0.07613 -0.16364,0.372519 -0.30477,0.658643 -0.14113,0.286121 -0.25659,0.544585 -0.25659,0.574363 0,0.02979 -0.11416,0.281944 -0.25367,0.560369 -0.13952,0.278423 -0.25367,0.525918 -0.25367,0.549986 0,0.02408 -0.1121,0.283354 -0.24911,0.576193 -0.13699,0.292838 -0.36724,0.795859 -0.51163,1.117825 -0.14439,0.321965 -0.37503,0.822477 -0.51251,1.112246 -0.13749,0.289768 -0.2497,0.549039 -0.24937,0.576156 3.3e-4,0.02711 -0.12233,0.294699 -0.27259,0.594628 -0.15025,0.29993 -0.27318,0.569675 -0.27318,0.599432 0,0.02976 -0.11415,0.285538 -0.25367,0.5684 -0.13951,0.282862 -0.25367,0.530098 -0.25367,0.549413 0,0.03356 -0.22195,0.521655 -0.76558,1.683612 -0.137,0.292837 -0.2491,0.552166 -0.2491,0.576286 0,0.02412 -0.0966,0.236448 -0.21465,0.471841 -0.11805,0.235393 -0.21464,0.451365 -0.21464,0.479936 0,0.02857 0.14488,0.184512 0.32197,0.346532 0.35556,0.325326 2.53377,2.281253 2.99869,2.69268 0.16187,0.143253 0.38099,0.342786 0.48692,0.443405 0.10593,0.100615 0.57222,0.524457 1.0362,0.941865 0.46398,0.417408 0.8635,0.802631 0.88785,0.856052 0.0622,0.136544 0.0551,0.349728 -0.0164,0.488012 -0.062,0.119818 -0.42196,0.303553 -7.83372,3.99814 l -1.257165,0.626671 -0.143161,0.290444 c -0.07875,0.159744 -0.172737,0.387033 -0.208892,0.505087 -0.03614,0.118055 -0.08589,0.26733 -0.110514,0.331723 -0.06966,0.182255 -0.05469,0.977478 0.0228,1.209812 0.194766,0.583669 0.269676,0.733526 0.84868,1.697638 0.09092,0.151362 0.200042,0.312244 0.410372,0.604906 0.0771,0.107317 0.20533,0.293771 0.28489,0.41433 0.23121,0.350388 0.50017,0.739486 0.67124,0.971099 0.0872,0.118054 0.18879,0.265139 0.22574,0.326854 0.037,0.06171 0.1303,0.193799 0.2074,0.293519 0.0771,0.09972 0.16314,0.224843 0.1912,0.278052 0.028,0.05321 0.11043,0.17577 0.18306,0.272359 0.18615,0.247545 0.46614,0.658207 0.55877,0.819551 0.0431,0.07512 0.15297,0.244691 0.2441,0.376815 0.0911,0.132123 0.21836,0.331395 0.28275,0.442828 0.0643,0.111432 0.1542,0.249197 0.19956,0.306143 0.0453,0.05695 0.12089,0.173785 0.16782,0.259643 0.0791,0.144781 0.21213,0.362389 0.41985,0.687073 0.0466,0.07286 0.13443,0.216819 0.19514,0.319903 0.0937,0.159158 0.49182,0.786665 0.61771,0.973681 0.17997,0.26736 0.43403,0.631835 0.56441,0.809714 0.0865,0.118054 0.18732,0.258548 0.22397,0.312209 0.0366,0.05366 0.12011,0.162685 0.18549,0.242275 0.0654,0.0796 0.18033,0.225783 0.25546,0.324871 0.0752,0.09909 0.21644,0.271054 0.31404,0.382143 0.0976,0.111092 0.20296,0.239691 0.23415,0.28578 0.24414,0.360762 2.0291,2.226151 2.61282,2.730532 0.0965,0.08341 0.36087,0.318497 0.5874,0.522408 0.22654,0.203912 0.66563,0.5862 0.97575,0.84953 0.31013,0.263328 0.8273,0.706445 1.14926,0.9847 0.32198,0.278258 0.83127,0.71528 1.13177,0.971164 0.71497,0.608821 2.3259,2.185487 2.76802,2.70917 l 0.34841,0.412672 0.13662,-0.05708 c 0.13127,-0.05484 0.48679,-0.361372 0.64956,-0.560048 0.11611,-0.141711 0.2884,-0.430858 0.58288,-0.978202 0.082,-0.15243 0.22322,-0.475894 0.26408,-0.604905 0.0957,-0.302187 0.43084,-1.663039 0.63434,-2.575728 0.11728,-0.525986 0.3223,-1.368449 0.40838,-1.678125 0.0179,-0.0644 0.0622,-0.196107 0.0985,-0.292696 0.0363,-0.09659 0.0798,-0.228302 0.0967,-0.292696 0.0308,-0.118157 0.7126,-1.477544 0.87448,-1.743776 0.048,-0.07903 0.11539,-0.175625 0.14964,-0.214643 0.0342,-0.03903 0.0891,-0.123627 0.12201,-0.18802 0.16922,-0.331637 1.20782,-1.460405 1.77327,-1.927205 0.66787,-0.551348 0.93223,-0.724163 1.76682,-1.154973 0.68941,-0.355871 1.19274,-0.485319 2.01108,-0.517221 0.46837,-0.01826 0.61121,-0.0087 0.9875,0.06624 0.24195,0.04818 0.53117,0.122253 0.6427,0.16461 0.11153,0.04236 0.26426,0.0952 0.33939,0.117428 0.20521,0.06072 0.604,0.270921 0.97565,0.514272 0.49009,0.320915 0.50704,0.334385 0.58836,0.467731 0.20207,0.331384 -0.0551,0.728482 -0.4384,0.677066 -0.11629,-0.0156 -0.17776,4.23e-4 -0.27658,0.07211 -0.0699,0.0507 -0.17974,0.121439 -0.24413,0.157221 -0.28707,0.159518 -0.74431,0.57293 -1.03239,0.933427 -0.14606,0.182775 -0.54818,0.893783 -0.54818,0.969271 0,0.008 0.11856,0.02649 0.26344,0.04092 0.40228,0.04007 1.30017,0.240163 1.68788,0.376146 0.17984,0.06307 0.72489,0.300452 0.8976,0.390917 0.0751,0.03935 0.30532,0.159366 0.51152,0.266703 0.38263,0.199163 0.67037,0.385538 1.09213,0.707384 0.26764,0.204232 1.28401,1.245146 1.56237,1.600073 0.39051,0.497973 0.71252,0.975516 0.93418,1.385429 0.0464,0.08586 0.11685,0.191604 0.15649,0.234993 0.0784,0.08576 0.89477,1.737823 0.89477,1.810605 0,0.02448 0.0526,0.148897 0.11708,0.276458 0.0644,0.127564 0.11707,0.258306 0.11707,0.29054 0,0.03223 0.0334,0.133716 0.0743,0.225514 0.15112,0.339393 0.34023,0.895068 0.48845,1.435256 0.31056,1.131849 0.45191,1.777096 0.45191,2.062918 0,0.420414 -0.36255,0.640543 -0.70247,0.42651 -0.18066,-0.11376 -0.34895,-0.178047 -0.70247,-0.268353 -0.74406,-0.190075 -1.38784,-0.233013 -1.65257,-0.110224 -0.10483,0.04865 -0.1092,0.06027 -0.0781,0.209407 0.0433,0.207168 0.0278,0.746025 -0.0275,0.962337 -0.0241,0.09418 -0.0633,0.254639 -0.0871,0.356595 l -0.0433,0.185374 h -0.48466 c -0.48444,0 -0.48467,-4.2e-5 -0.45825,-0.08781 0.0246,-0.08176 0.0927,-0.330506 0.17861,-0.653689 0.0414,-0.155504 0.0499,-0.50945 0.0145,-0.601737 -0.013,-0.03397 -0.0996,-0.09533 -0.19236,-0.136365 -0.48894,-0.216284 -0.32758,-0.86197 0.21542,-0.86197 0.0923,0 0.23974,-0.04075 0.35031,-0.09677 0.34823,-0.17646 0.52318,-0.221679 0.93819,-0.242494 0.4119,-0.02066 0.95245,0.0391 1.45373,0.160707 0.2478,0.06011 0.25202,0.05615 0.1838,-0.172936 -0.0223,-0.07499 -0.10222,-0.364638 -0.17764,-0.643675 -0.2275,-0.842295 -0.38289,-1.316691 -0.56601,-1.727951 -0.0409,-0.0918 -0.0743,-0.193279 -0.0743,-0.225514 0,-0.03223 -0.0526,-0.162977 -0.11708,-0.290539 -0.0644,-0.127562 -0.11707,-0.251403 -0.11707,-0.2752 0,-0.07265 -0.58332,-1.258955 -0.66055,-1.343379 -0.0398,-0.04348 -0.11904,-0.166868 -0.17611,-0.274191 -0.23368,-0.439438 -0.57812,-0.949678 -0.90367,-1.338707 -0.0665,-0.07935 -0.13667,-0.173585 -0.15611,-0.209394 -0.12717,-0.234156 -1.22597,-1.29724 -1.61592,-1.563385 -0.0536,-0.03663 -0.17393,-0.120609 -0.26727,-0.186634 -0.25191,-0.178172 -1.29278,-0.689893 -1.6166,-0.794759 -0.27553,-0.08923 -0.72925,-0.206199 -1.16017,-0.299092 -0.11805,-0.02544 -0.45173,-0.05524 -0.7415,-0.06621 -0.57956,-0.02193 -0.70463,-0.05999 -0.79937,-0.243194 -0.0828,-0.160211 -0.0743,-0.443052 0.0188,-0.625696 0.0429,-0.08415 0.0781,-0.180273 0.0781,-0.21361 0,-0.129032 0.56375,-1.182509 0.77328,-1.445003 0.374,-0.468556 0.77749,-0.827739 1.141,-1.015723 0.0633,-0.03272 0.11507,-0.07616 0.11507,-0.09651 0,-0.04482 -0.2096,-0.157134 -0.37075,-0.198652 -0.0644,-0.01659 -0.19611,-0.0596 -0.29269,-0.0956 -0.81081,-0.30211 -1.70237,-0.313939 -2.56498,-0.03403 -0.16819,0.05458 -0.97184,0.4575 -1.22271,0.613026 -0.23095,0.143185 -0.93755,0.709481 -1.21215,0.971467 -0.42159,0.402225 -1.1763,1.274428 -1.37502,1.589082 -0.0462,0.07313 -0.13179,0.204848 -0.19023,0.292697 -0.20927,0.314603 -0.65111,1.226958 -0.76882,1.587579 -0.0659,0.202043 -0.13705,0.420035 -0.158,0.484428 -0.0532,0.16373 -0.22256,0.879497 -0.35281,1.491558 -0.0604,0.283746 -0.12859,0.573516 -0.15157,0.643931 -0.023,0.07042 -0.11101,0.426579 -0.19562,0.791474 -0.19792,0.853602 -0.29434,1.197945 -0.40984,1.463482 -0.0513,0.118054 -0.14064,0.332397 -0.19844,0.476318 -0.0578,0.14392 -0.13126,0.283404 -0.16326,0.309963 -0.0321,0.02656 -0.11913,0.163451 -0.19363,0.304205 -0.0746,0.140753 -0.18183,0.334945 -0.23851,0.431534 -0.14256,0.242985 -0.68375,0.764794 -0.9144,0.881675 l -0.19091,0.09675 0.12531,0.183991 c 0.23323,0.342383 0.25735,0.381246 0.3451,0.555938 0.0482,0.09592 0.1201,0.20997 0.15979,0.25342 0.0781,0.08534 0.85565,1.660425 0.85565,1.732997 0,0.02418 0.0501,0.144452 0.11137,0.26726 0.0613,0.122808 0.12228,0.280363 0.13562,0.350122 l 0.0241,0.126835 h -0.4598 -0.45981 l -0.12107,-0.263427 c -0.0666,-0.144884 -0.16911,-0.377577 -0.22778,-0.517096 -0.15819,-0.376147 -0.51631,-1.082878 -0.56349,-1.112042 -0.0226,-0.01397 -0.0939,-0.125104 -0.15852,-0.246961 -0.15838,-0.298836 -0.34393,-0.581914 -0.79795,-1.217362 -0.28439,-0.398036 -0.77449,-0.947453 -1.42585,-1.59841 -0.91772,-0.91716 -1.14714,-1.12636 -2.73044,-2.489802 -2.14365,-1.845993 -2.19874,-1.89411 -3.13816,-2.74073 -1.10786,-0.998429 -2.9896,-3.122736 -3.71192,-4.190422 -0.0853,-0.126095 -0.22994,-0.336838 -0.3214,-0.468314 -0.2858,-0.410842 -0.66571,-0.999002 -0.84839,-1.31344 -0.0644,-0.110839 -0.15423,-0.248118 -0.19966,-0.305064 -0.0454,-0.05695 -0.12999,-0.191348 -0.18794,-0.298669 -0.16207,-0.300146 -0.30701,-0.541221 -0.39293,-0.65356 -0.0429,-0.05612 -0.13074,-0.192729 -0.19514,-0.303568 -0.0644,-0.110839 -0.19162,-0.309625 -0.28275,-0.441748 -0.0911,-0.132123 -0.20096,-0.30169 -0.2441,-0.376815 -0.0926,-0.161343 -0.37262,-0.572005 -0.55877,-0.819549 -0.0727,-0.09659 -0.155,-0.219152 -0.18305,-0.272361 -0.028,-0.05321 -0.11409,-0.178333 -0.19119,-0.278052 -0.0771,-0.09972 -0.17044,-0.231803 -0.2074,-0.293519 -0.037,-0.06171 -0.13855,-0.208799 -0.22575,-0.326854 -0.0872,-0.118055 -0.23687,-0.328795 -0.33262,-0.468314 -0.0958,-0.139518 -0.248801,-0.361242 -0.340136,-0.492719 -0.09131,-0.131477 -0.234245,-0.342218 -0.317579,-0.468314 -0.08338,-0.126096 -0.184245,-0.27317 -0.224236,-0.326831 -0.04,-0.05365 -0.108987,-0.159032 -0.153335,-0.234157 -0.04435,-0.07513 -0.14892,-0.250744 -0.23239,-0.390261 -0.32137,-0.537247 -0.700449,-1.344544 -0.824629,-1.756202 -0.07326,-0.242826 -0.07226,-1.323192 0.0014,-1.561046 0.02992,-0.09659 0.07665,-0.245865 0.103841,-0.331723 0.02719,-0.08586 0.112466,-0.287322 0.189505,-0.4477 0.07704,-0.160378 0.140672,-0.318433 0.141409,-0.351236 7.37e-4,-0.0328 0.07838,-0.200134 0.172526,-0.371849 0.404781,-0.738236 0.924083,-1.821718 1.056819,-2.204979 0.317125,-0.915603 0.486355,-1.497001 0.567985,-1.951308 0.0213,-0.118054 0.065,-0.36392 0.0974,-0.546366 0.1289,-0.726239 0.11506,-2.280109 -0.0268,-3.005017 -0.1631,-0.833709 -0.28153,-1.292049 -0.473992,-1.834229 -0.04193,-0.118054 -0.100891,-0.28489 -0.131084,-0.370749 -0.05894,-0.167513 -0.302469,-0.717698 -0.388721,-0.878088 -0.02889,-0.05366 -0.113345,-0.212901 -0.187733,-0.353866 -0.28298,-0.536208 -0.740657,-1.186522 -1.013617,-1.440249 -0.104058,-0.09672 -0.216173,-0.228742 -0.249138,-0.293368 -0.181868,-0.356525 -1.73337,-1.738233 -2.388764,-2.127343 -0.09038,-0.05366 -0.252698,-0.156234 -0.3607,-0.227939 -0.256386,-0.170223 -0.730233,-0.396441 -0.830791,-0.396626 -0.04354,-8e-5 -0.131839,-0.03495 -0.196233,-0.07749 -0.234825,-0.155129 -0.457988,-0.260995 -0.663444,-0.31473 -0.0644,-0.01683 -0.213668,-0.0651 -0.331723,-0.107252 -1.285565,-0.458967 -2.59751,-0.533021 -3.785538,-0.213676 -0.657391,0.176708 -1.334424,0.383868 -1.519078,0.464813 -0.0735,0.03222 -0.257905,0.09927 -0.409774,0.148994 -0.151869,0.04973 -0.355154,0.126271 -0.451744,0.170101 -0.09659,0.04383 -0.280988,0.120511 -0.409775,0.1704 l -0.234157,0.09071 0.839062,0.02666 c 0.957771,0.03042 1.564969,0.08146 2.263518,0.19026 0.908237,0.141455 2.254219,0.492154 3.063554,0.798216 0.150252,0.05682 0.339291,0.128258 0.420089,0.158751 0.521216,0.196707 1.772412,0.914509 2.272718,1.303841 1.079636,0.840161 1.572526,1.391433 1.992181,2.228145 0.676169,1.348157 0.940603,2.504043 0.905471,3.957941 -0.01621,0.670965 -0.02991,0.789573 -0.144041,1.246908 -0.06937,0.277976 -0.177284,0.606758 -0.239813,0.730628 -0.06253,0.12387 -0.114183,0.256451 -0.114787,0.294626 -0.0017,0.110483 -0.505166,0.970663 -0.846323,1.446091 -0.270863,0.377468 -0.961993,1.194214 -1.357236,1.603921 -0.403593,0.418362 -1.106607,1.050911 -1.256349,1.130421 -0.27335,0.145144 -0.636741,-0.08515 -0.636741,-0.403538 0,-0.180023 0.100712,-0.305889 0.616464,-0.770392 0.761187,-0.685558 1.858127,-1.958643 2.212933,-2.568283 0.0644,-0.110643 0.174154,-0.288949 0.243913,-0.396233 0.06975,-0.107285 0.126835,-0.220227 0.126835,-0.250981 0,-0.03075 0.04393,-0.142616 0.09763,-0.248585 0.121207,-0.239192 0.182508,-0.42462 0.296694,-0.897467 0.07731,-0.320151 0.08968,-0.474605 0.0907,-1.131759 0.0011,-0.733949 -0.03963,-1.115166 -0.171098,-1.600074 -0.14196,-0.523616 -0.179919,-0.647272 -0.353549,-1.151703 -0.08603,-0.249963 -0.394797,-0.845517 -0.555693,-1.071858 -0.307048,-0.431941 -1.26007,-1.302539 -1.892824,-1.729117 -0.578069,-0.389713 -1.590968,-0.914517 -1.941338,-1.005849 -0.0644,-0.01678 -0.213669,-0.06469 -0.331723,-0.106445 -0.195486,-0.06915 -0.397437,-0.131556 -0.95614,-0.295451 -0.672966,-0.197413 -1.819317,-0.408952 -2.712319,-0.500509 -0.765538,-0.07849 -2.991882,-0.0658 -3.531869,0.02014 -0.509937,0.08115 -0.764193,0.133474 -0.975654,0.200785 -0.08586,0.02733 -0.261475,0.06241 -0.390262,0.07793 -0.128786,0.01554 -0.268867,0.04678 -0.311291,0.06944 -0.04243,0.02266 -0.130233,0.05448 -0.195131,0.07074 -0.06489,0.01625 -0.214586,0.0677 -0.33264,0.114347 -0.118054,0.04664 -0.267329,0.09932 -0.331723,0.117078 -0.06439,0.01775 -0.213668,0.07044 -0.331722,0.11708 -0.118055,0.04664 -0.26733,0.09875 -0.331723,0.115819 -0.0644,0.01706 -0.196106,0.05683 -0.292696,0.08838 -0.09659,0.03155 -0.307331,0.09721 -0.468314,0.145939 -0.160983,0.04873 -0.336601,0.103057 -0.390262,0.120738 -0.440556,0.145198 -1.709462,0.427634 -2.439136,0.542909 -2.006355,0.31697 -2.497694,0.369789 -3.133275,0.336829 -0.272887,-0.01416 -0.690071,-0.03613 -0.927076,-0.04884 l -0.430918,-0.02311 -0.08456,0.268026 c -0.07561,0.239681 -0.174092,0.569946 -0.347558,1.165628 -0.06471,0.222202 -0.186968,0.631903 -0.291152,0.975655 -0.06387,0.210749 -0.171343,0.575715 -0.333268,1.131759 -0.06332,0.217427 -0.183603,0.620644 -0.291057,0.975654 -0.03898,0.128787 -0.100082,0.334642 -0.135772,0.457456 l -0.06489,0.223298 0.235299,0.264529 c 0.525745,0.591049 1.573286,1.570641 2.658998,2.486523 0.227374,0.191805 0.589784,0.507917 0.805358,0.70247 0.215575,0.194554 0.592339,0.529352 0.837254,0.743996 0.244914,0.214644 0.543775,0.47807 0.664135,0.585391 0.12036,0.107328 0.389961,0.335626 0.599113,0.507341 0.209151,0.171715 0.481341,0.400019 0.604863,0.50734 0.123524,0.107327 0.433937,0.37075 0.689809,0.585392 0.78571,0.659114 1.987385,1.887916 2.554625,2.6123 0.203309,0.259631 0.663892,0.910128 0.771868,1.090132 0.03696,0.06161 0.161169,0.254791 0.276023,0.429287 0.367855,0.558869 1.18875,2.253937 1.448279,2.990558 0.02647,0.07513 0.07934,0.2244 0.117481,0.331723 0.330595,0.930134 0.728642,2.760337 0.819062,3.766025 0.07823,0.870135 0.0438,2.423133 -0.07875,3.551381 -0.04526,0.416699 -0.254386,1.866902 -0.312342,2.165953 -0.212941,1.09875 -0.302311,1.51736 -0.470749,2.204978 -0.107785,0.44002 -0.211682,0.852722 -0.23088,0.917115 -0.0192,0.0644 -0.06426,0.22245 -0.100136,0.351236 -0.142624,0.511992 -0.354081,1.217064 -0.474024,1.580559 -0.03187,0.09659 -0.07191,0.228304 -0.08898,0.292697 -0.01706,0.0644 -0.06919,0.213668 -0.115819,0.331722 -0.04664,0.118054 -0.09932,0.26733 -0.117078,0.331723 -0.01775,0.0644 -0.07044,0.213668 -0.117078,0.331722 -0.04664,0.118054 -0.09842,0.267329 -0.115095,0.331722 -0.01667,0.0644 -0.06611,0.196107 -0.10986,0.292697 -0.04376,0.09659 -0.143911,0.333674 -0.22256,0.526853 -0.166832,0.409778 -1.156867,2.402227 -1.40591,2.829398 -0.09386,0.160983 -0.223086,0.390336 -0.287183,0.509675 -0.0641,0.119338 -0.141604,0.237778 -0.172236,0.263202 -0.03064,0.02542 -0.08742,0.116571 -0.126191,0.202552 l -0.07049,0.156329 h -0.541661 -0.541607 z m 21.607068,-28.79206 c 0.21465,-0.115679 1.74,-0.884107 3.38971,-1.707619 l 2.99943,-1.497295 -0.76869,-0.699835 c -0.42279,-0.384911 -0.95461,-0.866673 -1.18181,-1.070585 -0.56415,-0.506315 -2.6279,-2.36294 -3.8357,-3.450749 -0.54626,-0.491994 -1.02371,-0.920381 -1.06099,-0.95197 -0.0545,-0.04617 -0.0479,-0.0085 0.0336,0.192063 0.0557,0.137225 0.13343,0.328529 0.17258,0.425118 0.18655,0.460248 0.38955,1.229386 0.5562,2.107413 0.0766,0.40346 0.085,0.572995 0.0834,1.678125 -9.7e-4,0.959045 -0.0159,1.310837 -0.0661,1.600074 -0.0354,0.203912 -0.0836,0.483616 -0.10714,0.621566 -0.0236,0.13795 -0.0523,0.265973 -0.0637,0.284495 -0.0114,0.01852 -0.0532,0.169079 -0.093,0.334574 -0.0637,0.265412 -0.21776,0.751617 -0.4108,1.296065 -0.09,0.253999 -0.2363,0.597964 -0.40938,0.962885 l -0.15128,0.318954 0.26165,-0.116476 c 0.14391,-0.06407 0.43726,-0.211123 0.65191,-0.326803 z M 54.921373,35.592833 c 0.826843,-0.161092 1.477498,-0.538877 2.083922,-1.20997 0.372507,-0.412232 0.469829,-0.630249 0.548771,-1.229324 0.04847,-0.36775 -0.104756,-1.007817 -0.31521,-1.316817 -0.156327,-0.229526 -0.603031,-0.672241 -0.760419,-0.75363 -0.592797,-0.306545 -1.217261,-0.135907 -1.57855,0.431348 -0.301368,0.473174 -0.297665,1.238612 0.0091,1.862203 0.04979,0.101246 0.09052,0.229437 0.09052,0.284876 0,0.234038 -0.21443,0.448162 -0.448801,0.448162 -0.199075,0 -0.325409,-0.10649 -0.472243,-0.398065 -0.181827,-0.361059 -0.237688,-0.552778 -0.295225,-1.013216 -0.14035,-1.123169 0.441975,-2.20497 1.372795,-2.550282 0.569364,-0.211222 1.102751,-0.171751 1.693839,0.12534 0.248376,0.124839 0.842441,0.575829 0.842441,0.639549 0,0.01395 0.06791,0.11107 0.15091,0.21583 0.08301,0.104756 0.188727,0.265109 0.234949,0.356333 0.09173,0.181036 0.124462,0.197777 0.202605,0.103623 0.05474,-0.06596 1.091454,-0.594795 1.518949,-0.774826 0.139518,-0.05875 0.315136,-0.133899 0.390261,-0.166988 0.07512,-0.03308 0.189278,-0.07455 0.253671,-0.09214 1.421567,-0.388283 1.976681,-0.464174 3.395277,-0.464174 0.963501,0 1.434703,0.0328 2.244004,0.156182 0.567829,0.08657 1.681912,0.319132 2.126926,0.44399 0.107317,0.03011 0.300502,0.08427 0.429289,0.120356 0.369704,0.10359 1.005915,0.297304 1.104974,0.336443 0.166387,0.06574 0.04919,-0.04013 -0.180946,-0.163438 -0.330832,-0.177281 -0.572984,-0.321218 -0.650845,-0.386872 -0.07562,-0.06376 -0.318096,-0.208465 -0.62442,-0.372633 -0.107317,-0.05752 -0.227479,-0.133103 -0.267016,-0.167966 -0.09591,-0.08456 -0.330196,-0.21882 -0.962308,-0.551415 -0.289769,-0.152467 -0.570758,-0.301249 -0.624419,-0.330628 -0.222497,-0.121813 -2.074546,-0.996979 -2.109834,-0.996979 -0.02108,0 -0.174051,-0.06814 -0.339924,-0.151429 -0.165873,-0.08329 -0.382581,-0.178845 -0.481574,-0.212352 -0.09899,-0.03351 -0.292173,-0.112822 -0.429288,-0.176253 -0.137115,-0.06343 -0.389794,-0.171111 -0.561509,-0.239288 -0.171715,-0.06818 -0.404798,-0.166585 -0.517961,-0.218684 -0.113165,-0.0521 -0.231111,-0.09473 -0.262103,-0.09473 -0.03099,0 -0.114022,-0.02457 -0.184511,-0.0546 -0.297693,-0.126828 -0.493365,-0.1907 -1.259917,-0.411263 -0.599663,-0.172543 -1.59046,-0.339002 -2.317924,-0.389421 -0.886972,-0.06147 -2.029302,0.08924 -3.184766,0.420177 -0.815934,0.233693 -1.460518,0.54282 -1.947074,0.933765 -0.489901,0.393634 -0.947802,0.902263 -1.150768,1.278254 -0.04599,0.08519 -0.09899,0.181224 -0.117807,0.213422 -0.121951,0.208745 -0.285015,0.720652 -0.354298,1.112245 -0.210349,1.188916 0.08014,2.755266 0.663745,3.579024 0.06527,0.09212 0.159911,0.228955 0.210326,0.30408 0.120201,0.179113 0.740666,0.779897 0.939698,0.909893 0.08586,0.05608 0.231134,0.155123 0.322836,0.220102 0.272302,0.192951 0.445099,0.266938 0.906489,0.388134 0.174901,0.04594 0.440116,0.04757 0.663444,0.0041 z M 102.3753,29.825712 c 9.6e-4,-0.02729 0.11812,-0.299503 0.2602,-0.604906 0.14207,-0.305401 0.37038,-0.79637 0.50735,-1.091041 0.13696,-0.29467 0.24903,-0.553957 0.24903,-0.576193 0,-0.02224 0.11415,-0.26823 0.25367,-0.546656 0.13952,-0.278423 0.25367,-0.533052 0.25367,-0.565841 0,-0.03279 0.12293,-0.305013 0.27319,-0.604943 0.15024,-0.299929 0.27318,-0.566752 0.27318,-0.592941 0,-0.02618 0.11219,-0.285458 0.24933,-0.576156 0.13713,-0.290697 0.36754,-0.791968 0.51201,-1.113934 0.14448,-0.321966 0.37473,-0.823237 0.51167,-1.113934 0.13696,-0.290698 0.249,-0.549985 0.249,-0.576193 0,-0.0262 0.11416,-0.275454 0.25368,-0.553877 0.13952,-0.278426 0.25366,-0.527965 0.25366,-0.554536 0,-0.02657 0.1207,-0.303419 0.26821,-0.61522 0.69551,-1.470097 0.75492,-1.615491 0.68188,-1.668891 -0.0371,-0.02711 -0.091,-0.04929 -0.11977,-0.04929 -0.0634,0 -0.41024,-0.172965 -0.57474,-0.286598 -0.21132,-0.145984 -0.45386,-0.391329 -0.59434,-0.601217 -0.0837,-0.125098 -0.15463,-0.194261 -0.1821,-0.177643 -0.0247,0.01498 -0.1316,0.08959 -0.23743,0.165832 -0.10584,0.07623 -0.24961,0.173739 -0.31951,0.216668 -0.07,0.04293 -0.30455,0.200984 -0.52141,0.351235 -0.21686,0.150252 -0.46241,0.317087 -0.54565,0.37075 -0.0833,0.05365 -0.32912,0.220497 -0.54637,0.370747 -0.21725,0.150252 -0.46312,0.317088 -0.54636,0.37075 -0.0833,0.05366 -0.32913,0.220498 -0.54639,0.370747 -0.21725,0.150252 -0.46311,0.317088 -0.54636,0.37075 -0.0833,0.05366 -0.32911,0.220498 -0.54637,0.370748 -0.21726,0.15025 -0.46242,0.317087 -0.54482,0.370748 -0.44398,0.28915 -0.66427,0.438191 -0.81897,0.554121 -0.0946,0.07086 -0.22886,0.163961 -0.298433,0.20689 -0.235288,0.145174 -0.621439,0.405074 -0.794302,0.534606 -0.09459,0.07086 -0.228853,0.163963 -0.298429,0.206891 -0.235293,0.145175 -0.621441,0.405074 -0.794301,0.534606 -0.09457,0.07086 -0.228859,0.163963 -0.298435,0.20689 -0.23529,0.145176 -0.621438,0.405076 -0.794298,0.534607 -0.09457,0.07086 -0.229239,0.163963 -0.299281,0.206891 -0.108581,0.06655 -0.317603,0.204301 -0.660544,0.435317 -0.04293,0.02892 -0.19549,0.13148 -0.339024,0.227915 -0.302619,0.203318 -0.333388,0.239586 -0.230873,0.272122 0.04134,0.01312 0.190309,0.0978 0.331031,0.188185 0.140723,0.09038 0.329042,0.208229 0.418485,0.261891 0.671623,0.402932 2.236635,1.796681 2.686467,2.392474 0.175365,0.232271 0.700001,0.723084 0.867269,0.811364 0.09517,0.05025 0.457988,0.366905 1.883328,1.643899 l 0.51042,0.457294 0.12494,-0.24265 c 0.0687,-0.133457 0.12579,-0.264982 0.12684,-0.292278 z m 6.39261,-12.258243 c 0.319,-0.162742 0.54976,-0.51601 0.61131,-0.935853 0.034,-0.232046 0.1192,-0.383278 0.25557,-0.453801 0.22772,-0.117758 0.4963,-0.03753 0.60992,0.182181 0.0502,0.09723 0.058,0.180609 0.0365,0.398158 -0.015,0.151348 -0.0432,0.305154 -0.0628,0.341793 -0.0283,0.05286 0.007,0.104113 0.16906,0.248213 0.2022,0.179358 0.20738,0.181323 0.41937,0.159264 0.39985,-0.04161 0.69014,-0.173985 1.04887,-0.478317 0.27937,-0.236997 0.38881,-0.373196 0.52782,-0.656821 0.18661,-0.380712 0.23736,-0.628592 0.23573,-1.151272 -9.7e-4,-0.468263 -0.007,-0.497319 -0.12338,-0.724509 -0.12107,-0.235224 -0.33805,-0.450179 -0.58026,-0.574847 -0.15721,-0.08093 -0.47825,-0.09189 -0.80238,-0.02739 -0.21578,0.04294 -0.28063,0.04287 -0.38512,-4.16e-4 -0.23724,-0.09827 -0.33601,-0.388161 -0.21317,-0.625699 0.0622,-0.120428 0.31077,-0.271629 0.44643,-0.271629 0.0942,0 0.0995,-0.04346 0.0236,-0.190336 -0.0571,-0.110388 -0.31913,-0.343968 -0.48358,-0.431019 -0.27302,-0.144529 -0.88812,-0.313801 -1.14343,-0.314663 -0.23163,-7.82e-4 -0.71426,0.106336 -0.90084,0.199933 -0.0797,0.03995 -0.16971,0.07264 -0.20019,0.07264 -0.096,0 -0.37008,0.300725 -0.4892,0.53671 -0.15014,0.297423 -0.20481,0.901708 -0.1068,1.180443 0.12126,0.344826 0.0543,0.644371 -0.16999,0.760349 -0.23241,0.120188 -0.53392,0.0221 -0.6136,-0.199612 -0.10453,-0.290854 -0.14323,-0.440674 -0.165,-0.63879 l -0.0236,-0.214644 -0.12891,0.01024 c -0.23747,0.01888 -0.68514,0.303782 -0.92474,0.588522 -0.11711,0.139185 -0.21035,0.475957 -0.21242,0.767274 -0.002,0.242034 0.10629,0.628573 0.26132,0.935176 l 0.11767,0.2327 0.0294,-0.135199 c 0.0161,-0.07436 0.0974,-0.270958 0.1806,-0.436885 0.12383,-0.24696 0.17929,-0.315982 0.30576,-0.380505 0.085,-0.04335 0.19998,-0.07882 0.25556,-0.07882 0.23783,0 0.44867,0.214789 0.44821,0.45662 -1.9e-4,0.102456 -0.0349,0.171821 -0.20593,0.411644 -0.095,0.133119 -0.12978,0.461669 -0.0661,0.62317 0.12277,0.31128 0.51358,0.705581 0.78151,0.788482 0.47265,0.146249 0.98236,0.157584 1.23731,0.02752 z M 85.986204,68.461012 c 0,-0.06477 1.298259,-2.619141 1.481935,-2.915752 0.106335,-0.171715 0.301455,-0.522497 0.433604,-0.779513 0.274521,-0.533918 0.393423,-0.704128 0.547558,-0.783834 0.304369,-0.157396 0.658996,0.0612 0.658996,0.406215 0,0.06762 -0.05811,0.201222 -0.140874,0.323904 -0.07748,0.114845 -0.24496,0.41077 -0.372178,0.65761 -0.127215,0.246841 -0.318064,0.589295 -0.424108,0.761011 -0.106043,0.171715 -0.425122,0.773206 -0.709061,1.336646 l -0.516252,1.024437 h -0.479811 c -0.263894,0 -0.479809,-0.01383 -0.479809,-0.03072 z m 12.710707,-0.09612 c -0.05742,-0.140325 -0.193939,-0.671889 -0.258096,-1.004923 -0.098,-0.508695 -0.129913,-1.018234 -0.109838,-1.753548 0.0177,-0.648347 0.036,-0.82256 0.121207,-1.153901 0.129615,-0.504041 0.322801,-0.950017 0.667753,-1.541535 0.09391,-0.160983 0.205848,-0.354162 0.248835,-0.429287 0.193442,-0.338107 0.737548,-0.844394 1.625278,-1.512326 0.16866,-0.126898 0.93235,-0.512258 1.22846,-0.619881 0.34706,-0.126145 0.80283,-0.162441 0.9679,-0.07707 0.2208,0.114175 0.3013,0.382307 0.1833,0.610495 -0.0746,0.144198 -0.21393,0.216143 -0.48718,0.251511 -0.2851,0.0369 -0.59412,0.139 -0.87904,0.290431 -0.54442,0.289349 -1.29758,0.884687 -1.64026,1.296542 -0.367222,0.441348 -0.410227,0.506633 -0.65768,0.998473 -0.396393,0.787852 -0.471505,1.131731 -0.471196,2.157114 2.9e-4,0.959727 0.07961,1.458268 0.374015,2.351483 0.04068,0.123506 0.07401,0.233267 0.07401,0.243914 0,0.01068 -0.210505,0.01935 -0.467794,0.01935 H 98.748807 Z M 90.201031,35.96089 c -0.306367,-0.14178 -0.599853,-0.444503 -0.792092,-0.817019 -0.153136,-0.296745 -0.161189,-0.329608 -0.162583,-0.663446 -8.07e-4,-0.193179 0.02187,-0.430262 0.0504,-0.526852 0.0716,-0.242423 0.723365,-1.557466 0.833791,-1.682303 0.13205,-0.149283 0.413671,-0.362153 0.636364,-0.48101 0.107316,-0.05728 0.265377,-0.146874 0.351235,-0.199099 0.203176,-0.123585 0.410642,-0.122281 0.682958,0.0043 0.292563,0.135985 0.372886,0.21999 0.554346,0.579762 0.22907,0.454166 0.269062,0.612959 0.292964,1.163255 0.02796,0.643654 -0.01867,0.872804 -0.29166,1.433382 -0.184401,0.37866 -0.260276,0.488871 -0.493032,0.716153 -0.18558,0.181213 -0.373578,0.318138 -0.577764,0.4208 -0.269311,0.135407 -0.333952,0.152138 -0.586476,0.151799 -0.221281,-2.98e-4 -0.331096,-0.02226 -0.49845,-0.09971 z m 46.441139,-4.1513 c -0.68704,-0.210296 -1.04889,-0.802489 -1.05232,-1.722195 -9.6e-4,-0.42367 0.0451,-0.731346 0.1625,-1.07063 0.0878,-0.253856 0.64926,-1.382831 0.7666,-1.541534 0.0397,-0.05366 0.1229,-0.176593 0.18494,-0.273183 0.062,-0.09659 0.24476,-0.340203 0.40603,-0.541363 0.1613,-0.20116 0.32098,-0.40729 0.35488,-0.458067 0.0339,-0.05078 0.18832,-0.237427 0.34318,-0.414778 0.15485,-0.177352 0.42673,-0.498075 0.60418,-0.712719 0.44369,-0.536741 0.65597,-0.645811 0.98737,-0.507339 0.077,0.03219 0.17747,0.05863 0.22316,0.05874 0.13944,3.46e-4 0.29757,0.126498 0.41549,0.331517 0.47463,0.825074 0.66333,1.472037 0.66202,2.269649 -6.7e-4,0.399702 -0.0739,0.825598 -0.23041,1.340272 -0.0523,0.171826 -0.48117,1.03106 -0.59833,1.19863 -0.0483,0.06898 -0.1349,0.200689 -0.1926,0.292696 -0.16914,0.269709 -0.70208,0.857074 -0.97225,1.071554 -0.30065,0.238684 -1.02884,0.610399 -1.31511,0.671311 -0.23121,0.0492 -0.6009,0.05286 -0.74933,0.0074 z m 12.9762,-0.174799 c -0.54618,-0.111078 -1.29546,-0.653836 -1.73666,-1.258017 -0.36296,-0.497039 -0.77367,-1.339582 -0.96729,-1.984427 -0.0451,-0.150252 -0.10887,-0.362778 -0.14168,-0.472281 -0.38092,-1.272004 -0.21367,-3.44336 0.2851,-3.701291 0.16849,-0.08712 0.44188,-0.176638 0.54145,-0.177279 0.1045,-6.72e-4 1.09828,0.490002 1.34211,0.662664 0.0932,0.06607 0.23402,0.162678 0.3127,0.21469 0.0787,0.05201 0.1548,0.113555 0.16914,0.136759 0.0144,0.0232 0.0904,0.08359 0.16915,0.134194 0.30031,0.193128 1.1841,1.11858 1.61187,1.687842 0.1366,0.181789 0.63826,1.174643 0.73574,1.456162 0.19157,0.553184 0.25004,1.264167 0.14121,1.717151 -0.0799,0.332595 -0.34299,0.814739 -0.55697,1.020689 -0.24224,0.233147 -0.80676,0.515504 -1.14805,0.574219 -0.31018,0.05336 -0.45108,0.0513 -0.75782,-0.01107 z M 49.864374,26.894308 c -0.361432,-0.2204 -0.235762,-0.720184 0.379403,-1.508869 0.205045,-0.262881 0.746275,-0.785912 1.033555,-0.998799 0.184968,-0.13707 0.865113,-0.48113 1.146365,-0.579904 0.881468,-0.309566 1.315247,-0.373356 2.305422,-0.339026 0.767092,0.0266 0.88736,0.0581 0.991629,0.259731 0.117034,0.226318 0.03764,0.496243 -0.178888,0.608217 -0.101847,0.05267 -0.219561,0.05806 -0.78962,0.03621 -0.871295,-0.0334 -1.346652,0.04177 -2.172438,0.34358 -0.377493,0.137966 -0.492131,0.205249 -0.883647,0.518624 -0.460919,0.368929 -0.885134,0.865891 -1.097913,1.286192 -0.223322,0.441121 -0.441507,0.55233 -0.733868,0.374048 z"
       id="path5" /><path
       style="font-size:29.3333px;line-height:1.4;font-family:Lectus;-inkscape-font-specification:Lectus;white-space:pre;fill:#ffffff"
       d="m 9.9882782,280.87119 q -1.1028633,0 -1.8906228,-0.77344 -0.7734367,-0.78776 -0.7734367,-1.89062 v -7.99218 q 0,-2.20572 1.5611962,-3.76692 1.5468731,-1.57552 3.7669231,-1.57552 h 2.664059 q 1.102863,0 1.890623,-0.77344 0.773437,-0.78776 0.773437,-1.89062 0,-1.10286 -0.773437,-1.89062 -0.78776,-0.77344 -1.890623,-0.77344 H 9.9882782 q -1.1028633,0 -1.8906228,-0.77343 -0.7734367,-0.78776 -0.7734367,-1.89063 0,-1.10286 0.7734367,-1.89062 0.7877595,-0.77344 1.8906228,-0.77344 h 7.9921788 q 2.205726,0 3.766922,1.5612 1.575519,1.5612 1.575519,3.76692 v 5.32812 q 0,2.22005 -1.575519,3.78125 -1.546873,1.56119 -3.766922,1.56119 h -2.66406 q -1.102863,0 -1.890623,0.77344 -0.773436,0.78776 -0.773436,1.89062 0,1.10287 0.773436,1.89063 0.78776,0.77343 1.890623,0.77343 h 5.328119 q 1.102863,0 1.890623,0.78776 0.787759,0.77344 0.787759,1.8763 0,1.10286 -0.787759,1.89062 -0.78776,0.77344 -1.890623,0.77344 z m 20.5247158,0 q -1.102864,0 -1.890623,-0.77344 -0.773437,-0.78776 -0.773437,-1.89062 0,-1.47526 0.687499,-2.66406 h -0.02864 l 2.664059,-5.32812 -2.664059,-5.34244 h 0.02864 q -0.687499,-1.17448 -0.687499,-2.66406 0,-1.10286 0.773437,-1.89062 0.787759,-0.77344 1.890623,-0.77344 1.102863,0 1.8763,0.77344 0.787759,0.78776 0.787759,1.89062 v 1.33203 q 0,1.10286 0.773437,1.89062 0.787759,0.77344 1.890622,0.77344 1.102864,0 1.890623,-0.77344 0.773437,-0.78776 0.773437,-1.89062 v -1.33203 q 0,-1.10286 0.787759,-1.89062 0.773437,-0.77344 1.8763,-0.77344 1.102864,0 1.890623,0.77344 0.78776,0.78776 0.78776,1.89062 0,1.48958 -0.701822,2.66406 h 0.02864 l -2.664059,5.34244 2.664059,5.32812 h -0.02864 q 0.701822,1.1888 0.701822,2.66406 0,1.10286 -0.78776,1.89062 -0.787759,0.77344 -1.890623,0.77344 -1.102863,0 -1.8763,-0.77344 -0.787759,-0.78776 -0.787759,-1.89062 v -1.33203 q 0,-1.10286 -0.773437,-1.89062 -0.787759,-0.77344 -1.890623,-0.77344 -1.102863,0 -1.890622,0.77344 -0.773437,0.78776 -0.773437,1.89062 v 1.33203 q 0,1.10286 -0.787759,1.89062 -0.773437,0.77344 -1.8763,0.77344 z m 46.377549,-15.99868 q 1.102864,0 1.890623,-0.77344 0.773437,-0.78776 0.773437,-1.89062 0,-1.10286 -0.773437,-1.89062 -0.787759,-0.77344 -1.890623,-0.77344 -1.102863,0 -1.890622,0.77344 -0.773437,0.78776 -0.773437,1.89062 0,1.10286 0.773437,1.89062 0.787759,0.77344 1.890622,0.77344 z m -5.328119,15.99868 q -1.102863,0 -1.890622,-0.77344 -0.773437,-0.78776 -0.773437,-1.89062 v -21.3268 q 0,-1.10286 0.773437,-1.89062 0.787759,-0.77344 1.890622,-0.77344 h 7.992179 q 2.220049,0 3.766923,1.5612 1.575519,1.5612 1.575519,3.76692 v 5.32812 q 0,2.22005 -1.575519,3.78125 -1.561197,1.56119 -3.766923,1.56119 h -2.66406 q -1.102863,0 -1.890622,0.77344 -0.773437,0.78776 -0.773437,1.89062 v 5.32812 q 0,1.10286 -0.78776,1.89062 -0.773436,0.77344 -1.8763,0.77344 z m 25.852835,-5.32812 q 1.102863,0 1.890623,-0.77343 0.773438,-0.78776 0.773438,-1.89063 v -5.32812 q 0,-1.10286 -0.773438,-1.89062 -0.78776,-0.78776 -1.890623,-0.78776 -1.102864,0 -1.890623,0.78776 -0.773437,0.78776 -0.773437,1.89062 v 5.32812 q 0,1.10287 0.773437,1.89063 0.787759,0.77343 1.890623,0.77343 z m -2.66406,5.32812 q -2.205726,0 -3.766922,-1.5612 -1.561197,-1.54687 -1.561197,-3.76692 v -10.67056 q 0,-2.20573 1.561197,-3.76692 1.561196,-1.5612 3.766922,-1.5612 h 5.328121 q 2.20572,0 3.76692,1.5612 1.57552,1.56119 1.57552,3.76692 v 10.67056 q 0,2.22005 -1.57552,3.76692 -1.5612,1.5612 -3.76692,1.5612 z m 17.860661,0 q -1.10286,0 -1.89062,-0.77344 -0.77344,-0.78776 -0.77344,-1.89062 v -15.98436 q 0,-1.10286 0.77344,-1.89062 0.78776,-0.78776 1.89062,-0.78776 h 7.99218 q 2.20572,0 3.76692,1.5612 1.57552,1.56119 1.57552,3.76692 v 13.33462 q 0,1.10286 -0.78776,1.89062 -0.78776,0.77344 -1.89062,0.77344 -1.10287,0 -1.8763,-0.77344 -0.78776,-0.78776 -0.78776,-1.89062 v -10.65624 q 0,-1.10286 -0.77344,-1.89062 -0.78776,-0.78776 -1.89062,-0.78776 -1.10287,0 -1.89062,0.78776 -0.77344,0.78776 -0.77344,1.89062 v 10.65624 q 0,1.10286 -0.78776,1.89062 -0.77344,0.77344 -1.8763,0.77344 z m 31.18095,5.32812 q -1.10286,0 -1.8763,-0.78776 -0.78776,-0.77344 -0.78776,-1.8763 0,-1.10286 -0.77344,-1.89062 -0.78776,-0.77344 -1.89062,-0.77344 h -2.66406 q -2.20573,0 -3.76692,-1.5612 -1.5612,-1.54687 -1.5612,-3.76692 v -13.33462 q 0,-1.10286 0.77344,-1.89062 0.78776,-0.77344 1.89062,-0.77344 1.10286,0 1.8763,0.77344 0.78776,0.78776 0.78776,1.89062 v 10.67056 q 0,1.10287 0.77344,1.89063 0.78776,0.77343 1.89062,0.77343 1.10286,0 1.89062,-0.77343 0.77344,-0.78776 0.77344,-1.89063 v -10.67056 q 0,-1.10286 0.78776,-1.89062 0.77344,-0.77344 1.8763,-0.77344 1.10286,0 1.89062,0.77344 0.78776,0.78776 0.78776,1.89062 v 15.99868 q 0,0 0,0 v 5.32812 q 0,1.10286 -0.78776,1.8763 -0.78776,0.78776 -1.89062,0.78776 z M 15.316397,318.32585 q 1.102863,0 1.890623,-0.77344 0.773437,-0.78776 0.773437,-1.89062 0,-1.10287 -0.773437,-1.89062 -0.78776,-0.77344 -1.890623,-0.77344 -1.102863,0 -1.890623,0.77344 -0.773436,0.78775 -0.773436,1.89062 0,1.10286 0.773436,1.89062 0.78776,0.77344 1.890623,0.77344 z m -2.664059,5.32812 q -2.205727,0 -3.7669231,-1.5612 -1.5611962,-1.54687 -1.5611962,-3.76692 v -15.99868 q 0,-2.20573 1.5611962,-3.76692 1.5468731,-1.5612 3.7669231,-1.5612 h 7.992178 q 1.102863,0 1.890623,0.77344 0.787759,0.78776 0.787759,1.89062 0,1.10286 -0.787759,1.89062 -0.78776,0.77344 -1.890623,0.77344 h -5.328119 q -1.102863,0 -1.890623,0.77343 -0.773436,0.78776 -0.773436,1.89063 0,1.10286 0.773436,1.89062 0.78776,0.77344 1.890623,0.77344 h 2.66406 q 2.220049,0 3.766922,1.57552 1.575519,1.56119 1.575519,3.76692 v 5.32812 q 0,2.22005 -1.575519,3.76692 -1.561196,1.5612 -3.766922,1.5612 z m 28.516893,0 q -1.102863,0 -1.8763,-0.77344 -0.787759,-0.78776 -0.787759,-1.89062 v -5.32812 q 0,-1.10287 -0.773437,-1.89062 -0.787759,-0.77344 -1.890623,-0.77344 h -5.328118 q -1.102864,0 -1.890623,-0.78776 -0.773437,-0.77344 -0.773437,-1.8763 v -10.67056 q 0,-1.10286 0.773437,-1.89062 0.787759,-0.77344 1.890623,-0.77344 1.102863,0 1.8763,0.77344 0.787759,0.78776 0.787759,1.89062 v 5.32812 q 0,1.10286 0.773437,1.89062 0.787759,0.77344 1.890622,0.77344 1.102864,0 1.890623,-0.77344 0.773437,-0.78776 0.773437,-1.89062 v -5.32812 q 0,-1.10286 0.787759,-1.89062 0.773437,-0.77344 1.8763,-0.77344 1.102864,0 1.890623,0.77344 0.78776,0.78776 0.78776,1.89062 v 21.3268 q 0,1.10286 -0.78776,1.89062 -0.787759,0.77344 -1.890623,0.77344 z m 35.721312,-15.99868 q 1.102864,0 1.890623,-0.77344 0.773437,-0.78776 0.773437,-1.89062 0,-1.10287 -0.773437,-1.89063 -0.787759,-0.77343 -1.890623,-0.77343 -1.102863,0 -1.890622,0.77343 -0.773437,0.78776 -0.773437,1.89063 0,1.10286 0.773437,1.89062 0.787759,0.77344 1.890622,0.77344 z m -5.328119,15.99868 q -1.102863,0 -1.890622,-0.77344 -0.773437,-0.78776 -0.773437,-1.89062 v -21.3268 q 0,-1.10286 0.773437,-1.89062 0.787759,-0.77344 1.890622,-0.77344 h 7.992179 q 2.220049,0 3.766923,1.5612 1.575519,1.56119 1.575519,3.76692 v 5.32812 q 0,2.22005 -1.575519,3.78124 -1.561197,1.5612 -3.766923,1.5612 h -2.66406 q -1.102863,0 -1.890622,0.77344 -0.773437,0.78775 -0.773437,1.89062 v 5.32812 q 0,1.10286 -0.78776,1.89062 -0.773436,0.77344 -1.8763,0.77344 z m 23.188775,0 q -2.205726,0 -3.766922,-1.5612 -1.561197,-1.54687 -1.561197,-3.76692 v -10.67056 q 0,-2.20573 1.561197,-3.76693 1.561196,-1.56119 3.766922,-1.56119 h 7.992181 q 1.10286,0 1.89062,0.77343 0.78776,0.78776 0.78776,1.89063 0,1.10286 -0.78776,1.89062 -0.78776,0.77344 -1.89062,0.77344 h -5.328121 q -1.102864,0 -1.890623,0.78776 -0.773437,0.78776 -0.773437,1.89062 v 5.32812 q 0,1.10286 0.773437,1.89062 0.787759,0.77344 1.890623,0.77344 h 5.328121 q 1.10286,0 1.89062,0.78776 0.78776,0.77343 0.78776,1.8763 0,1.10286 -0.78776,1.89062 -0.78776,0.77344 -1.89062,0.77344 z m 17.860661,0 q -1.10286,0 -1.89062,-0.77344 -0.77344,-0.78776 -0.77344,-1.89062 0,-1.10287 0.77344,-1.8763 0.78776,-0.78776 1.89062,-0.78776 h 6.66015 q 0.55859,0 0.94531,-0.38672 0.38672,-0.38672 0.38672,-0.94531 0,-0.54427 -0.38672,-0.94531 -0.38672,-0.38672 -0.94531,-0.38672 h -3.99609 q -2.22005,0 -3.76692,-1.5612 -1.5612,-1.56119 -1.5612,-3.76692 v -2.67838 q 0,-2.20573 1.5612,-3.76693 1.56119,-1.56119 3.76692,-1.56119 h 7.99218 q 1.10286,0 1.89062,0.77343 0.78776,0.78776 0.78776,1.89063 0,1.10286 -0.78776,1.89062 -0.78776,0.77344 -1.89062,0.77344 h -6.66015 q -0.55859,0 -0.94531,0.40104 -0.38672,0.38672 -0.38672,0.93099 0,0.55859 0.38672,0.94531 0.38672,0.40104 0.94531,0.40104 h 3.99609 q 2.22005,0 3.76692,1.5612 1.57552,1.56119 1.57552,3.76692 v 2.66406 q 0,2.22005 -1.57552,3.76692 -1.5612,1.5612 -3.76692,1.5612 z M 9.9882782,366.43674 q -1.1028633,0 -1.8906228,-0.77343 -0.7734367,-0.78776 -0.7734367,-1.89063 0,-1.10286 0.7734367,-1.8763 0.7877595,-0.78776 1.8906228,-0.78776 h 5.3281188 q 1.102863,0 1.890623,-0.77343 0.773437,-0.78776 0.773437,-1.89063 0,-1.10286 -0.773437,-1.89062 -0.78776,-0.77344 -1.890623,-0.77344 H 9.9882782 q -1.1028633,0 -1.8906228,-0.78775 -0.7734367,-0.77344 -0.7734367,-1.8763 v -10.67057 q 0,-1.10286 0.7734367,-1.89062 0.7877595,-0.77343 1.8906228,-0.77343 H 20.644516 q 1.102863,0 1.890623,0.77343 0.787759,0.78776 0.787759,1.89062 0,1.10287 -0.787759,1.89063 -0.78776,0.77343 -1.890623,0.77343 h -5.328119 q -1.102863,0 -1.890623,0.77344 -0.773436,0.78776 -0.773436,1.89062 0,1.10287 0.773436,1.89063 0.78776,0.77343 1.890623,0.77343 h 2.66406 q 2.220049,0 3.766922,1.57552 1.575519,1.5612 1.575519,3.76692 v 5.32812 q 0,2.22005 -1.575519,3.76693 -1.561196,1.56119 -3.766922,1.56119 z m 43.7134898,0 q -2.205726,0 -3.766922,-1.56119 -1.561196,-1.54688 -1.561196,-3.76693 v -15.99868 q 0,-2.20572 1.561196,-3.76692 1.546873,-1.56119 3.766922,-1.56119 h 7.992179 q 1.102863,0 1.890623,0.77343 0.787759,0.78776 0.787759,1.89062 0,1.10287 -0.787759,1.89063 -0.78776,0.77343 -1.890623,0.77343 h -5.328119 q -1.102863,0 -1.890623,0.77344 -0.773437,0.78776 -0.773437,1.89062 v 10.67056 q 0,1.10287 0.773437,1.89063 0.78776,0.77343 1.890623,0.77343 h 5.328119 q 1.102863,0 1.890623,0.78776 0.787759,0.77344 0.787759,1.8763 0,1.10287 -0.787759,1.89063 -0.78776,0.77343 -1.890623,0.77343 z m 23.188775,-5.32812 q 1.102864,0 1.890623,-0.77343 0.773437,-0.78776 0.773437,-1.89063 v -5.32811 q 0,-1.10287 -0.773437,-1.89063 -0.787759,-0.78776 -1.890623,-0.78776 -1.102863,0 -1.890622,0.78776 -0.773437,0.78776 -0.773437,1.89063 v 5.32811 q 0,1.10287 0.773437,1.89063 0.787759,0.77343 1.890622,0.77343 z m -2.664059,5.32812 q -2.205727,0 -3.766923,-1.56119 -1.561196,-1.54688 -1.561196,-3.76693 v -10.67056 q 0,-2.20572 1.561196,-3.76692 1.561196,-1.5612 3.766923,-1.5612 h 5.328119 q 2.205726,0 3.766923,1.5612 1.575519,1.5612 1.575519,3.76692 v 10.67056 q 0,2.22005 -1.575519,3.76693 -1.561197,1.56119 -3.766923,1.56119 z m 17.860656,0 q -1.102863,0 -1.890623,-0.77343 -0.773437,-0.78776 -0.773437,-1.89063 0,-1.10286 0.773437,-1.8763 0.78776,-0.78776 1.890623,-0.78776 1.102863,0 1.8763,-0.77343 0.787759,-0.78776 0.787759,-1.89063 V 347.774 q 0,-1.10286 -0.787759,-1.89062 -0.773437,-0.77344 -1.8763,-0.77344 -1.102863,0 -1.890623,-0.77343 -0.773437,-0.78776 -0.773437,-1.89063 0,-1.10286 0.773437,-1.89062 0.78776,-0.77343 1.890623,-0.77343 h 5.328119 q 1.102863,0 1.890623,0.77343 0.773438,0.78776 0.773438,1.89062 v 15.99868 q 0,1.10287 0.78776,1.89063 0.77343,0.77343 1.8763,0.77343 1.10286,0 1.89062,0.78776 0.78776,0.77344 0.78776,1.8763 0,1.10287 -0.78776,1.89063 -0.78776,0.77343 -1.89062,0.77343 z m 25.85284,-5.32812 q 1.10286,0 1.89062,-0.77343 0.77344,-0.78776 0.77344,-1.89063 v -5.32811 q 0,-1.10287 -0.77344,-1.89063 -0.78776,-0.78776 -1.89062,-0.78776 -1.10287,0 -1.89062,0.78776 -0.77344,0.78776 -0.77344,1.89063 v 5.32811 q 0,1.10287 0.77344,1.89063 0.78775,0.77343 1.89062,0.77343 z m -2.66406,5.32812 q -2.20573,0 -3.76692,-1.56119 -1.5612,-1.54688 -1.5612,-3.76693 v -10.67056 q 0,-2.20572 1.5612,-3.76692 1.56119,-1.5612 3.76692,-1.5612 h 5.32812 q 2.20572,0 3.76692,1.5612 1.57552,1.5612 1.57552,3.76692 v 10.67056 q 0,2.22005 -1.57552,3.76693 -1.5612,1.56119 -3.76692,1.56119 z m 17.86065,0 q -1.10286,0 -1.89062,-0.77343 -0.77344,-0.78776 -0.77344,-1.89063 v -13.33462 q 0,-2.20572 1.5612,-3.76692 1.56119,-1.5612 3.76692,-1.5612 h 7.99218 q 1.10286,0 1.89062,0.77344 0.78776,0.78776 0.78776,1.89062 0,1.10287 -0.78776,1.89063 -0.78776,0.77343 -1.89062,0.77343 h -5.32812 q -1.10286,0 -1.89062,0.78776 -0.77344,0.78776 -0.77344,1.89063 v 10.65623 q 0,1.10287 -0.78776,1.89063 -0.77344,0.77343 -1.8763,0.77343 z M 9.9882782,409.21952 q -1.1028633,0 -1.8906228,-0.77344 -0.7734367,-0.78776 -0.7734367,-1.89062 0,-1.10286 0.7734367,-1.8763 0.7877595,-0.78776 1.8906228,-0.78776 1.1028638,0 1.8762998,-0.77344 0.78776,-0.78776 0.78776,-1.89062 v -5.32812 q 0,-1.10286 -0.78776,-1.89062 -0.773436,-0.78776 -1.8762998,-0.78776 -1.1028633,0 -1.8906228,-0.77344 -0.7734367,-0.78776 -0.7734367,-1.89062 0,-1.10286 0.7734367,-1.89062 0.7877595,-0.77344 1.8906228,-0.77344 1.1028638,0 1.8762998,-0.77344 0.78776,-0.78776 0.78776,-1.89062 0,-1.10286 0.773436,-1.89062 0.78776,-0.77344 1.890623,-0.77344 1.102863,0 1.890623,0.77344 0.773437,0.78776 0.773437,1.89062 v 15.99868 q 0,1.10286 0.787759,1.89062 0.773437,0.77344 1.8763,0.77344 1.102863,0 1.890623,0.78776 0.787759,0.77344 0.787759,1.8763 0,1.10286 -0.787759,1.89062 -0.78776,0.77344 -1.890623,0.77344 z M 35.841112,398.56328 q -0.54427,0 -0.945311,-0.38672 -0.386718,-0.40104 -0.386718,-0.94531 v -2.67838 q 0,-0.54427 0.386718,-0.93099 0.401041,-0.40104 0.945311,-0.40104 0.558594,0 0.945312,0.40104 0.386718,0.38672 0.386718,0.93099 v 2.67838 q 0,0.54427 -0.386718,0.94531 -0.386718,0.38672 -0.945312,0.38672 z m 0,5.32812 q 1.102864,0 1.890623,-0.77344 0.773437,-0.78776 0.773437,-1.89062 v -10.67056 q 0,-1.10286 -0.773437,-1.89062 -0.787759,-0.77344 -1.890623,-0.77344 -1.102863,0 -1.890622,0.77344 -0.773437,0.78776 -0.773437,1.89062 v 10.67056 q 0,1.10286 0.773437,1.89062 0.787759,0.77344 1.890622,0.77344 z m -2.664059,5.32812 q -2.220049,0 -3.766923,-1.5612 -1.561196,-1.56119 -1.561196,-3.76692 v -15.99868 q 0,-2.20573 1.561196,-3.76692 1.561196,-1.5612 3.766923,-1.5612 h 5.328119 q 2.220049,0 3.766923,1.5612 1.575519,1.56119 1.575519,3.76692 v 15.99868 q 0,2.22005 -1.575519,3.76692 -1.561196,1.5612 -3.766923,1.5612 z m 17.860656,0 q -1.102863,0 -1.890623,-0.77344 -0.773436,-0.78776 -0.773436,-1.89062 0,-1.10286 0.773436,-1.8763 0.78776,-0.78776 1.890623,-0.78776 h 5.328119 q 1.102863,0 1.890623,-0.77344 0.773436,-0.78776 0.773436,-1.89062 0,-1.10286 -0.773436,-1.89062 -0.78776,-0.77344 -1.890623,-0.77344 h -5.328119 q -1.102863,0 -1.890623,-0.78776 -0.773436,-0.77344 -0.773436,-1.8763 0,-1.10286 0.773436,-1.89062 0.78776,-0.78776 1.890623,-0.78776 h 5.328119 q 1.102863,0 1.890623,-0.77344 0.773436,-0.78776 0.773436,-1.89062 0,-1.10286 -0.773436,-1.89062 -0.78776,-0.77344 -1.890623,-0.77344 h -5.328119 q -1.102863,0 -1.890623,-0.77344 -0.773436,-0.78776 -0.773436,-1.89062 0,-1.10286 0.773436,-1.89062 0.78776,-0.77344 1.890623,-0.77344 h 7.992178 q 2.22005,0 3.766923,1.5612 1.575519,1.56119 1.575519,3.76692 v 5.32812 q 0,1.10286 -0.787759,1.89062 -0.78776,0.78776 -1.890623,0.78776 1.102863,0 1.890623,0.77344 0.787759,0.78776 0.787759,1.89062 v 5.32812 q 0,2.22005 -1.575519,3.76692 -1.561196,1.5612 -3.766923,1.5612 z m 20.524715,0 q -1.102863,0 -1.890622,-0.77344 -0.773437,-0.78776 -0.773437,-1.89062 0,-1.10286 0.773437,-1.8763 0.787759,-0.78776 1.890622,-0.78776 1.102864,0 1.8763,-0.77344 0.78776,-0.78776 0.78776,-1.89062 v -5.32812 q 0,-1.10286 -0.78776,-1.89062 -0.773436,-0.78776 -1.8763,-0.78776 -1.102863,0 -1.890622,-0.77344 -0.773437,-0.78776 -0.773437,-1.89062 0,-1.10286 0.773437,-1.89062 0.787759,-0.77344 1.890622,-0.77344 1.102864,0 1.8763,-0.77344 0.78776,-0.78776 0.78776,-1.89062 0,-1.10286 0.773437,-1.89062 0.787759,-0.77344 1.890622,-0.77344 1.102864,0 1.890623,0.77344 0.773437,0.78776 0.773437,1.89062 v 15.99868 q 0,1.10286 0.787759,1.89062 0.773437,0.77344 1.8763,0.77344 1.102864,0 1.890623,0.78776 0.78776,0.77344 0.78776,1.8763 0,1.10286 -0.78776,1.89062 -0.787759,0.77344 -1.890623,0.77344 z m 20.524716,0 q -1.102863,0 -1.890623,-0.77344 -0.773437,-0.78776 -0.773437,-1.89062 v -7.99218 q 0,-2.20573 1.561197,-3.76692 1.546873,-1.57552 3.766922,-1.57552 h 2.66406 q 1.102863,0 1.890623,-0.77344 0.773438,-0.78776 0.773438,-1.89062 0,-1.10286 -0.773438,-1.89062 -0.78776,-0.77344 -1.890623,-0.77344 H 92.08714 q -1.102863,0 -1.890623,-0.77344 -0.773437,-0.78776 -0.773437,-1.89062 0,-1.10286 0.773437,-1.89062 0.78776,-0.77344 1.890623,-0.77344 h 7.99218 q 2.20572,0 3.76692,1.5612 1.57552,1.56119 1.57552,3.76692 v 5.32812 q 0,2.22005 -1.57552,3.78124 -1.54687,1.5612 -3.76692,1.5612 h -2.664061 q -1.102864,0 -1.890623,0.77344 -0.773437,0.78776 -0.773437,1.89062 0,1.10286 0.773437,1.89062 0.787759,0.77344 1.890623,0.77344 h 5.328121 q 1.10286,0 1.89062,0.78776 0.78776,0.77344 0.78776,1.8763 0,1.10286 -0.78776,1.89062 -0.78776,0.77344 -1.89062,0.77344 z m 20.52472,0 q -1.10286,0 -1.89062,-0.77344 -0.77344,-0.78776 -0.77344,-1.89062 0,-1.10286 0.77344,-1.8763 0.78776,-0.78776 1.89062,-0.78776 h 5.32812 q 1.10286,0 1.89062,-0.77344 0.77344,-0.78776 0.77344,-1.89062 0,-1.10286 -0.77344,-1.89062 -0.78776,-0.77344 -1.89062,-0.77344 h -5.32812 q -1.10286,0 -1.89062,-0.78776 -0.77344,-0.77344 -0.77344,-1.8763 v -10.67056 q 0,-1.10286 0.77344,-1.89062 0.78776,-0.77344 1.89062,-0.77344 h 10.65624 q 1.10286,0 1.89062,0.77344 0.78776,0.78776 0.78776,1.89062 0,1.10286 -0.78776,1.89062 -0.78776,0.77344 -1.89062,0.77344 h -5.32812 q -1.10287,0 -1.89062,0.77344 -0.77344,0.78776 -0.77344,1.89062 0,1.10286 0.77344,1.89062 0.78775,0.77344 1.89062,0.77344 h 2.66406 q 2.22005,0 3.76692,1.57552 1.57552,1.56119 1.57552,3.76692 v 5.32812 q 0,2.22005 -1.57552,3.76692 -1.5612,1.5612 -3.76692,1.5612 z m -97.295463,37.45466 q 1.102863,0 1.890623,-0.77344 0.773437,-0.78776 0.773437,-1.89062 0,-1.10287 -0.773437,-1.89063 -0.78776,-0.77343 -1.890623,-0.77343 -1.102863,0 -1.890623,0.77343 -0.773436,0.78776 -0.773436,1.89063 0,1.10286 0.773436,1.89062 0.78776,0.77344 1.890623,0.77344 z m 0,-10.67057 q 1.102863,0 1.890623,-0.77343 0.773437,-0.78776 0.773437,-1.89062 0,-1.10287 -0.773437,-1.89063 -0.78776,-0.77343 -1.890623,-0.77343 -1.102863,0 -1.890623,0.77343 -0.773436,0.78776 -0.773436,1.89063 0,1.10286 0.773436,1.89062 0.78776,0.77343 1.890623,0.77343 z m -5.3281188,15.99868 q -1.1028633,0 -1.8906228,-0.77343 -0.7734367,-0.78776 -0.7734367,-1.89063 v -21.32679 q 0,-1.10287 0.7734367,-1.89063 0.7877595,-0.77343 1.8906228,-0.77343 h 7.9921788 q 2.220049,0 3.766922,1.56119 1.575519,1.5612 1.575519,3.76693 v 5.32811 q 0,1.10287 -0.787759,1.89063 -0.78776,0.78776 -1.890623,0.78776 1.102863,0 1.890623,0.77343 0.787759,0.78776 0.787759,1.89063 v 5.32812 q 0,2.22004 -1.575519,3.76692 -1.561196,1.56119 -3.766922,1.56119 z m 20.5247158,0 q -1.102864,0 -1.890623,-0.77343 -0.773437,-0.78776 -0.773437,-1.89063 0,-1.10286 0.773437,-1.8763 0.787759,-0.78775 1.890623,-0.78775 1.102863,0 1.8763,-0.77344 0.787759,-0.78776 0.787759,-1.89062 V 438.682 q 0,-1.10287 -0.787759,-1.89063 -0.773437,-0.78776 -1.8763,-0.78776 -1.102864,0 -1.890623,-0.77343 -0.773437,-0.78776 -0.773437,-1.89062 0,-1.10287 0.773437,-1.89063 0.787759,-0.77343 1.890623,-0.77343 h 5.328118 q 1.102864,0 1.890623,0.77343 0.773437,0.78776 0.773437,1.89063 v 10.67056 q 0,1.10286 0.787759,1.89062 0.773437,0.77344 1.8763,0.77344 1.102864,0 1.890623,0.78775 0.78776,0.77344 0.78776,1.8763 0,1.10287 -0.78776,1.89063 -0.787759,0.77343 -1.890623,0.77343 z m 3.322912,-22.65882 q -0.54427,0 -0.930988,-0.38672 -0.401041,-0.40104 -0.401041,-0.94531 v -1.33203 q 0,-0.5586 0.401041,-0.94531 0.386718,-0.38672 0.930988,-0.38672 h 2.678383 q 0.54427,0 0.930988,0.38672 0.401042,0.38671 0.401042,0.94531 v 1.33203 q 0,0.54427 -0.401042,0.94531 -0.386718,0.38672 -0.930988,0.38672 z m 17.201803,22.65882 q -1.102863,0 -1.890623,-0.77343 -0.773436,-0.78776 -0.773436,-1.89063 v -13.33462 q 0,-2.20572 1.561196,-3.76692 1.561196,-1.56119 3.766922,-1.56119 h 7.992179 q 1.102863,0 1.890623,0.77343 0.787759,0.78776 0.787759,1.89063 0,1.10286 -0.787759,1.89062 -0.78776,0.77343 -1.890623,0.77343 h -5.328119 q -1.102863,0 -1.890623,0.78776 -0.773437,0.78776 -0.773437,1.89063 v 10.65623 q 0,1.10287 -0.787759,1.89063 -0.773437,0.77343 -1.8763,0.77343 z m 28.516894,0 q -2.205727,0 -3.766923,-1.56119 -1.561196,-1.54688 -1.561196,-3.76692 V 438.682 q 0,-1.10287 -0.78776,-1.89063 -0.773436,-0.78776 -1.8763,-0.78776 -1.102863,0 -1.890622,-0.77343 -0.773437,-0.78776 -0.773437,-1.89062 0,-1.10287 0.773437,-1.89063 0.787759,-0.77343 1.890622,-0.77343 1.102864,0 1.8763,-0.77344 0.78776,-0.78776 0.78776,-1.89062 0,-1.10287 0.773437,-1.89063 0.787759,-0.77343 1.890622,-0.77343 1.102864,0 1.890623,0.77343 0.773437,0.78776 0.773437,1.89063 0,1.10286 0.787759,1.89062 0.773437,0.77344 1.8763,0.77344 1.102864,0 1.890623,0.77343 0.78776,0.78776 0.78776,1.89063 0,1.10286 -0.78776,1.89062 -0.787759,0.77343 -1.890623,0.77343 -1.102863,0 -1.8763,0.78776 -0.787759,0.78776 -0.787759,1.89063 v 5.32812 q 0,1.10286 0.787759,1.89062 0.773437,0.77344 1.8763,0.77344 1.102864,0 1.890623,0.78775 0.78776,0.77344 0.78776,1.8763 0,1.10287 -0.78776,1.89063 -0.787759,0.77343 -1.890623,0.77343 z m 12.532537,0 q -1.102863,0 -1.890623,-0.77343 -0.773437,-0.78776 -0.773437,-1.89063 v -15.98435 q 0,-0.0143 0,-0.0143 v -5.32812 q 0,-1.10287 0.773437,-1.89063 0.78776,-0.77343 1.890623,-0.77343 1.102863,0 1.8763,0.77343 0.787759,0.78776 0.787759,1.89063 0,1.10286 0.773437,1.89062 0.787759,0.77344 1.890623,0.77344 h 2.664061 q 2.20572,0 3.76692,1.56119 1.57552,1.5612 1.57552,3.76692 v 13.33462 q 0,1.10287 -0.78776,1.89063 -0.78776,0.77343 -1.89062,0.77343 -1.10287,0 -1.8763,-0.77343 -0.78776,-0.78776 -0.78776,-1.89063 V 438.682 q 0,-1.10287 -0.773438,-1.89063 -0.78776,-0.78776 -1.890623,-0.78776 -1.102864,0 -1.890623,0.78776 -0.773437,0.78776 -0.773437,1.89063 v 10.65623 q 0,1.10287 -0.787759,1.89063 -0.773437,0.77343 -1.8763,0.77343 z m 25.85284,-5.32811 q 1.10286,0 1.89062,-0.77344 0.77344,-0.78776 0.77344,-1.89062 V 438.682 q 0,-1.10287 -0.77344,-1.89063 -0.78776,-0.78776 -1.89062,-0.78776 -1.10287,0 -1.89062,0.78776 -0.77344,0.78776 -0.77344,1.89063 v 5.32812 q 0,1.10286 0.77344,1.89062 0.78775,0.77344 1.89062,0.77344 z m -2.66406,5.32811 q -2.20573,0 -3.76692,-1.56119 -1.5612,-1.54688 -1.5612,-3.76692 v -10.67057 q 0,-2.20572 1.5612,-3.76692 1.56119,-1.56119 3.76692,-1.56119 h 2.66406 q 1.10286,0 1.89062,-0.77344 0.77344,-0.78776 0.77344,-1.89062 0,-1.10287 0.78776,-1.89063 0.77343,-0.77343 1.8763,-0.77343 1.10286,0 1.89062,0.77343 0.78776,0.78776 0.78776,1.89063 v 5.32812 q 0,0 0,0.0143 v 15.98435 q 0,1.10287 -0.78776,1.89063 -0.78776,0.77343 -1.89062,0.77343 z m 24.5208,-5.32811 q 0.55859,0 0.94531,-0.38672 0.38672,-0.38672 0.38672,-0.94531 0,-0.54427 -0.38672,-0.94532 -0.38672,-0.38671 -0.94531,-0.38671 h -2.66406 q -0.55859,0 -0.94531,0.38671 -0.38672,0.40105 -0.38672,0.94532 0,0.55859 0.38672,0.94531 0.38672,0.38672 0.94531,0.38672 z m -3.99609,5.32811 q -2.20573,0 -3.76692,-1.56119 -1.5612,-1.54688 -1.5612,-3.76692 v -2.66406 q 0,-2.20573 1.5612,-3.76693 1.54687,-1.56119 3.76692,-1.56119 h 3.99609 q 0.55859,0 0.94531,-0.40104 0.38672,-0.38672 0.38672,-0.94532 0,-0.54427 -0.38672,-0.93098 -0.38672,-0.40105 -0.94531,-0.40105 h -6.66015 q -1.10286,0 -1.89062,-0.77343 -0.77344,-0.78776 -0.77344,-1.89062 0,-1.10287 0.77344,-1.89063 0.78776,-0.77343 1.89062,-0.77343 h 7.99218 q 2.20573,0 3.76692,1.56119 1.57552,1.5612 1.57552,3.76692 v 13.33462 q 0,1.10287 -0.78776,1.89063 -0.78776,0.77343 -1.89062,0.77343 z m 28.51689,5.32812 q -1.10286,0 -1.8763,-0.78776 -0.78776,-0.77343 -0.78776,-1.8763 0,-1.10286 -0.77344,-1.89062 -0.78776,-0.77344 -1.89062,-0.77344 h -2.66406 q -2.20572,0 -3.76692,-1.56119 -1.5612,-1.54688 -1.5612,-3.76692 v -13.33462 q 0,-1.10287 0.77344,-1.89063 0.78776,-0.77343 1.89062,-0.77343 1.10287,0 1.8763,0.77343 0.78776,0.78776 0.78776,1.89063 v 10.67056 q 0,1.10286 0.77344,1.89062 0.78776,0.77344 1.89062,0.77344 1.10286,0 1.89062,-0.77344 0.77344,-0.78776 0.77344,-1.89062 v -10.67056 q 0,-1.10287 0.78776,-1.89063 0.77344,-0.77343 1.8763,-0.77343 1.10286,0 1.89062,0.77343 0.78776,0.78776 0.78776,1.89063 v 15.99867 q 0,0 0,0 v 5.32812 q 0,1.10287 -0.78776,1.8763 -0.78776,0.78776 -1.89062,0.78776 z m 30.3932,-5.32812 q -1.10286,0 -1.89062,-0.77343 -0.77344,-0.78776 -0.77344,-1.89063 0,-1.10286 0.77344,-1.8763 0.78776,-0.78775 1.89062,-0.78775 h 5.32812 q 1.10286,0 1.89062,-0.77344 0.77344,-0.78776 0.77344,-1.89062 0,-1.10287 -0.77344,-1.89063 -0.78776,-0.77343 -1.89062,-0.77343 h -2.66406 q -2.22005,0 -3.76692,-1.5612 -1.5612,-1.5612 -1.5612,-3.78125 v -5.32811 q 0,-2.20573 1.5612,-3.76693 1.56119,-1.56119 3.76692,-1.56119 h 7.99218 q 1.10286,0 1.89062,0.77343 0.78776,0.78776 0.78776,1.89063 0,1.10286 -0.78776,1.89062 -0.78776,0.77344 -1.89062,0.77344 h -5.32812 q -1.10286,0 -1.89062,0.77343 -0.77344,0.78776 -0.77344,1.89063 0,1.10286 0.77344,1.89062 0.78776,0.77343 1.89062,0.77343 h 2.66406 q 2.22005,0 3.76692,1.57552 1.57552,1.5612 1.57552,3.76693 v 5.32812 q 0,2.22004 -1.57552,3.76692 -1.56119,1.56119 -3.76692,1.56119 z m 23.18878,0 q -2.22005,0 -3.76692,-1.56119 -1.5612,-1.5612 -1.5612,-3.76692 v -13.33462 q 0,-1.10287 0.77344,-1.89063 0.78776,-0.77343 1.89062,-0.77343 1.10286,0 1.8763,0.77343 0.78776,0.78776 0.78776,1.89063 v 10.67056 q 0,1.10286 0.77344,1.89062 0.78776,0.77344 1.89062,0.77344 1.10286,0 1.89062,-0.77344 0.77344,-0.78776 0.77344,-1.89062 v -10.67056 q 0,-1.10287 0.78776,-1.89063 0.77343,-0.77343 1.8763,-0.77343 1.10286,0 1.89062,0.77343 0.78776,0.78776 0.78776,1.89063 v 13.33462 q 0,2.22004 -1.57552,3.76692 -1.56119,1.56119 -3.76692,1.56119 z m 17.86064,0 q -1.10286,0 -1.89062,-0.77343 -0.77344,-0.78776 -0.77344,-1.89063 v -13.33462 q 0,-2.20572 1.5612,-3.76692 1.5612,-1.56119 3.76692,-1.56119 h 7.99218 q 1.10287,0 1.89062,0.77343 0.78776,0.78776 0.78776,1.89063 0,1.10286 -0.78776,1.89062 -0.78775,0.77343 -1.89062,0.77343 h -5.32812 q -1.10286,0 -1.89062,0.78776 -0.77344,0.78776 -0.77344,1.89063 v 10.65623 q 0,1.10287 -0.78776,1.89063 -0.77343,0.77343 -1.8763,0.77343 z m 25.85284,-5.32811 q 1.10287,0 1.89062,-0.77344 0.77344,-0.78776 0.77344,-1.89062 V 438.682 q 0,-1.10287 -0.77344,-1.89063 -0.78775,-0.78776 -1.89062,-0.78776 -1.10286,0 -1.89062,0.78776 -0.77344,0.78776 -0.77344,1.89063 v 5.32812 q 0,1.10286 0.77344,1.89062 0.78776,0.77344 1.89062,0.77344 z m -5.32812,10.65623 q -1.10286,0 -1.89062,-0.78776 -0.77344,-0.77343 -0.77344,-1.8763 v -5.32812 q 0,0 0,0 v -15.98435 q 0,-1.10287 0.77344,-1.89062 0.78776,-0.78776 1.89062,-0.78776 h 7.99218 q 2.20573,0 3.76692,1.56119 1.57552,1.5612 1.57552,3.76692 v 10.67057 q 0,2.22004 -1.57552,3.76692 -1.56119,1.56119 -3.76692,1.56119 h -2.66406 q -1.10286,0 -1.89062,0.77344 -0.77344,0.78776 -0.77344,1.89062 0,1.10287 -0.78776,1.8763 -0.77343,0.78776 -1.8763,0.78776 z m 20.52471,-5.32812 q -1.10287,0 -1.89063,-0.77343 -0.77343,-0.78776 -0.77343,-1.89063 v -13.33462 q 0,-2.20572 1.56119,-3.76692 1.5612,-1.56119 3.76693,-1.56119 h 7.99218 q 1.10286,0 1.89062,0.77343 0.78776,0.78776 0.78776,1.89063 0,1.10286 -0.78776,1.89062 -0.78776,0.77343 -1.89062,0.77343 h -5.32812 q -1.10287,0 -1.89063,0.78776 -0.77343,0.78776 -0.77343,1.89063 v 10.65623 q 0,1.10287 -0.78776,1.89063 -0.77344,0.77343 -1.8763,0.77343 z m 20.52472,0 q -1.10287,0 -1.89063,-0.77343 -0.77343,-0.78776 -0.77343,-1.89063 0,-1.10286 0.77343,-1.8763 0.78776,-0.78775 1.89063,-0.78775 1.10286,0 1.8763,-0.77344 0.78776,-0.78776 0.78776,-1.89062 V 438.682 q 0,-1.10287 -0.78776,-1.89063 -0.77344,-0.78776 -1.8763,-0.78776 -1.10287,0 -1.89063,-0.77343 -0.77343,-0.78776 -0.77343,-1.89062 0,-1.10287 0.77343,-1.89063 0.78776,-0.77343 1.89063,-0.77343 h 5.32812 q 1.10286,0 1.89062,0.77343 0.77343,0.78776 0.77343,1.89063 v 10.67056 q 0,1.10286 0.78776,1.89062 0.77344,0.77344 1.8763,0.77344 1.10287,0 1.89063,0.78775 0.78776,0.77344 0.78776,1.8763 0,1.10287 -0.78776,1.89063 -0.78776,0.77343 -1.89063,0.77343 z m 3.32291,-22.65882 q -0.54427,0 -0.93099,-0.38672 -0.40104,-0.40104 -0.40104,-0.94531 v -1.33203 q 0,-0.5586 0.40104,-0.94531 0.38672,-0.38672 0.93099,-0.38672 h 2.67838 q 0.54427,0 0.93099,0.38672 0.40104,0.38671 0.40104,0.94531 v 1.33203 q 0,0.54427 -0.40104,0.94531 -0.38672,0.38672 -0.93099,0.38672 z m 17.20181,22.65882 q -1.10287,0 -1.89063,-0.77343 -0.77343,-0.78776 -0.77343,-1.89063 0,-1.10286 0.77343,-1.8763 0.78776,-0.78775 1.89063,-0.78775 h 6.66014 q 0.5586,0 0.94532,-0.38672 0.38671,-0.38672 0.38671,-0.94531 0,-0.54427 -0.38671,-0.94532 -0.38672,-0.38671 -0.94532,-0.38671 h -3.99608 q -2.22005,0 -3.76693,-1.5612 -1.56119,-1.5612 -1.56119,-3.76692 v -2.67839 q 0,-2.20572 1.56119,-3.76692 1.5612,-1.56119 3.76693,-1.56119 h 7.99217 q 1.10287,0 1.89063,0.77343 0.78776,0.78776 0.78776,1.89063 0,1.10286 -0.78776,1.89062 -0.78776,0.77343 -1.89063,0.77343 h -6.66015 q -0.55859,0 -0.94531,0.40105 -0.38671,0.38671 -0.38671,0.93098 0,0.5586 0.38671,0.94532 0.38672,0.40104 0.94531,0.40104 h 3.99609 q 2.22005,0 3.76693,1.56119 1.57552,1.5612 1.57552,3.76693 v 2.66406 q 0,2.22004 -1.57552,3.76692 -1.5612,1.56119 -3.76693,1.56119 z M 345.04387,438.682 q 0.5586,0 0.94531,-0.40104 0.38672,-0.38672 0.38672,-0.94532 0,-0.54427 -0.38672,-0.93098 -0.38671,-0.40105 -0.94531,-0.40105 h -2.66406 q -0.55859,0 -0.94531,0.40105 -0.38672,0.38671 -0.38672,0.93098 0,0.5586 0.38672,0.94532 0.38672,0.40104 0.94531,0.40104 z m -3.99609,13.32029 q -2.20572,0 -3.76692,-1.56119 -1.56119,-1.54688 -1.56119,-3.76692 v -10.67057 q 0,-2.20572 1.56119,-3.76692 1.5612,-1.56119 3.76692,-1.56119 h 5.32812 q 2.20573,0 3.76693,1.56119 1.57552,1.5612 1.57552,3.76692 v 5.34245 q 0,1.10286 -0.78776,1.89062 -0.78776,0.77344 -1.89063,0.77344 h -6.66015 q -0.55859,0 -0.94531,0.38671 -0.38672,0.40105 -0.38672,0.94532 0,0.55859 0.38672,0.94531 0.38672,0.38672 0.94531,0.38672 h 6.66015 q 1.10287,0 1.89063,0.78775 0.78776,0.77344 0.78776,1.8763 0,1.10287 -0.78776,1.89063 -0.78776,0.77343 -1.89063,0.77343 z M 15.316397,494.78507 q -1.102863,0 -1.890623,-0.77344 -0.773436,-0.78776 -0.773436,-1.89062 v -2.66406 q 0,-1.10286 -0.78776,-1.89062 -0.773436,-0.77344 -1.8762998,-0.77344 -1.1028633,0 -1.8906228,-0.77343 -0.7734367,-0.78776 -0.7734367,-1.89063 0,-1.10286 0.7734367,-1.89062 0.7877595,-0.77344 1.8906228,-0.77344 1.1028638,0 1.8762998,-0.78776 0.78776,-0.78776 0.78776,-1.89062 v -5.32812 q 0,-2.20573 1.561196,-3.76692 1.561196,-1.5612 3.766923,-1.5612 h 2.664059 q 1.102863,0 1.890623,0.77344 0.787759,0.78776 0.787759,1.89062 0,1.10287 -0.787759,1.89062 -0.78776,0.77344 -1.890623,0.77344 -1.102863,0 -1.8763,0.77344 -0.787759,0.78776 -0.787759,1.89062 v 2.66406 q 0,1.10286 0.787759,1.89062 0.773437,0.78776 1.8763,0.78776 1.102863,0 1.890623,0.77344 0.787759,0.78776 0.787759,1.89062 0,1.10287 -0.787759,1.89063 -0.78776,0.77343 -1.890623,0.77343 -1.102863,0 -1.8763,0.77344 -0.787759,0.78776 -0.787759,1.89062 v 2.66406 q 0,1.10286 -0.773437,1.89062 -0.78776,0.77344 -1.890623,0.77344 z m 15.196597,-10.65624 q -1.102864,0 -1.890623,-0.78776 -0.773437,-0.77343 -0.773437,-1.8763 0,-1.10286 0.773437,-1.89062 0.787759,-0.78776 1.890623,-0.78776 h 10.656237 q 1.102864,0 1.890623,0.78776 0.78776,0.78776 0.78776,1.89062 0,1.10287 -0.78776,1.8763 -0.787759,0.78776 -1.890623,0.78776 z m 25.852834,5.32812 q 1.102863,0 1.890623,-0.77344 0.773436,-0.78776 0.773436,-1.89062 v -5.32812 q 0,-1.10286 -0.773436,-1.89062 -0.78776,-0.78776 -1.890623,-0.78776 -1.102863,0 -1.890623,0.78776 -0.773437,0.78776 -0.773437,1.89062 v 5.32812 q 0,1.10286 0.773437,1.89062 0.78776,0.77344 1.890623,0.77344 z m -2.66406,5.32812 q -2.205726,0 -3.766922,-1.5612 -1.561196,-1.54687 -1.561196,-3.76692 v -10.67056 q 0,-2.20573 1.561196,-3.76692 1.561196,-1.5612 3.766922,-1.5612 h 2.66406 q 1.102863,0 1.890623,-0.77344 0.773436,-0.78775 0.773436,-1.89062 0,-1.10286 0.78776,-1.89062 0.773436,-0.77344 1.8763,-0.77344 1.102863,0 1.890623,0.77344 0.787759,0.78776 0.787759,1.89062 v 5.32812 q 0,0 0,0.0143 v 15.98436 q 0,1.10286 -0.787759,1.89062 -0.78776,0.77344 -1.890623,0.77344 z m 24.520805,-13.3203 q 0.558593,0 0.945311,-0.40104 0.386719,-0.38672 0.386719,-0.94531 0,-0.54427 -0.386719,-0.93099 -0.386718,-0.40104 -0.945311,-0.40104 h -2.664059 q -0.558593,0 -0.945312,0.40104 -0.386718,0.38672 -0.386718,0.93099 0,0.55859 0.386718,0.94531 0.386719,0.40104 0.945312,0.40104 z m -3.996089,13.3203 q -2.205727,0 -3.766923,-1.5612 -1.561196,-1.54687 -1.561196,-3.76692 v -10.67056 q 0,-2.20573 1.561196,-3.76692 1.561196,-1.5612 3.766923,-1.5612 h 5.328119 q 2.205726,0 3.766923,1.5612 1.575519,1.56119 1.575519,3.76692 v 5.34244 q 0,1.10287 -0.78776,1.89063 -0.787759,0.77343 -1.890623,0.77343 h -6.660148 q -0.558593,0 -0.945312,0.38672 -0.386718,0.40104 -0.386718,0.94531 0,0.55859 0.386718,0.94531 0.386719,0.38672 0.945312,0.38672 h 6.660148 q 1.102864,0 1.890623,0.78776 0.78776,0.77344 0.78776,1.8763 0,1.10286 -0.78776,1.89062 -0.787759,0.77344 -1.890623,0.77344 z m 24.520804,-13.3203 q 0.558594,0 0.945312,-0.40104 0.38672,-0.38672 0.38672,-0.94531 0,-0.54427 -0.38672,-0.93099 -0.386718,-0.40104 -0.945312,-0.40104 h -2.664059 q -0.558593,0 -0.945311,0.40104 -0.386719,0.38672 -0.386719,0.93099 0,0.55859 0.386719,0.94531 0.386718,0.40104 0.945311,0.40104 z m -3.996089,13.3203 q -2.205726,0 -3.766922,-1.5612 -1.561197,-1.54687 -1.561197,-3.76692 v -10.67056 q 0,-2.20573 1.561197,-3.76692 1.561196,-1.5612 3.766922,-1.5612 h 5.328121 q 2.20572,0 3.76692,1.5612 1.57552,1.56119 1.57552,3.76692 v 5.34244 q 0,1.10287 -0.78776,1.89063 -0.78776,0.77343 -1.89062,0.77343 h -6.660151 q -0.558593,0 -0.945311,0.38672 -0.386719,0.40104 -0.386719,0.94531 0,0.55859 0.386719,0.94531 0.386718,0.38672 0.945311,0.38672 h 6.660151 q 1.10286,0 1.89062,0.78776 0.78776,0.77344 0.78776,1.8763 0,1.10286 -0.78776,1.89062 -0.78776,0.77344 -1.89062,0.77344 z m 17.860661,0 q -1.10286,0 -1.89062,-0.77344 -0.77344,-0.78776 -0.77344,-1.89062 v -15.99868 q 0,-1.10286 0.77344,-1.89062 0.78776,-0.77344 1.89062,-0.77344 1.10286,0 1.8763,0.77344 0.27213,0.27213 0.44401,0.55859 h 0.0143 l 2.99349,6.0013 3.00781,-6.0013 h 0.0143 q 0.17187,-0.28646 0.42969,-0.55859 0.77343,-0.77344 1.8763,-0.77344 1.10286,0 1.89062,0.77344 0.78776,0.78776 0.78776,1.89062 v 15.99868 q 0,1.10286 -0.78776,1.89062 -0.78776,0.77344 -1.89062,0.77344 -1.10287,0 -1.8763,-0.77344 -0.78776,-0.78776 -0.78776,-1.89062 v -6.00129 l -0.58724,1.1888 q -0.12891,0.55859 -0.57292,0.98828 -0.61588,0.6302 -1.5039,0.6302 -0.88802,0 -1.50391,-0.6302 -0.44401,-0.42969 -0.57291,-0.98828 l -0.58724,-1.1888 v 6.00129 q 0,1.10286 -0.78776,1.89062 -0.77344,0.77344 -1.8763,0.77344 z m 24.96481,0 q -0.74479,0 -1.26042,-0.51562 -0.51562,-0.51563 -0.51562,-1.26042 v -1.77604 q 0,-0.73047 0.51562,-1.24609 0.52995,-0.52995 1.26042,-0.52995 h 1.77604 q 0.74479,0 1.26041,0.52995 0.51563,0.51562 0.51563,1.24609 v 1.77604 q 0,0.74479 -0.51563,1.26042 -0.52994,0.51562 -1.26041,0.51562 z m 21.41273,-5.32812 q 1.10286,0 1.89062,-0.77344 0.77344,-0.78776 0.77344,-1.89062 v -5.32812 q 0,-1.10286 -0.77344,-1.89062 -0.78776,-0.78776 -1.89062,-0.78776 -1.10286,0 -1.89062,0.78776 -0.77344,0.78776 -0.77344,1.89062 v 5.32812 q 0,1.10286 0.77344,1.89062 0.78776,0.77344 1.89062,0.77344 z m -2.66406,5.32812 q -2.20572,0 -3.76692,-1.5612 -1.5612,-1.54687 -1.5612,-3.76692 v -10.67056 q 0,-2.20573 1.5612,-3.76692 1.5612,-1.5612 3.76692,-1.5612 h 5.32812 q 2.20573,0 3.76692,1.5612 1.57552,1.56119 1.57552,3.76692 v 10.67056 q 0,2.22005 -1.57552,3.76692 -1.56119,1.5612 -3.76692,1.5612 z m 17.86066,0 q -1.10286,0 -1.89062,-0.77344 -0.77344,-0.78776 -0.77344,-1.89062 v -13.33462 q 0,-2.20573 1.5612,-3.76692 1.56119,-1.5612 3.76692,-1.5612 h 7.99218 q 1.10286,0 1.89062,0.77344 0.78776,0.78776 0.78776,1.89062 0,1.10286 -0.78776,1.89062 -0.78776,0.77344 -1.89062,0.77344 h -5.32812 q -1.10286,0 -1.89062,0.78776 -0.77344,0.78776 -0.77344,1.89062 v 10.65624 q 0,1.10286 -0.78776,1.89062 -0.77344,0.77344 -1.8763,0.77344 z m 26.52602,-13.3203 q 0.54427,0 0.93098,-0.40104 0.40105,-0.38672 0.40105,-0.94531 0,-0.54427 -0.40105,-0.93099 -0.38671,-0.40104 -0.93098,-0.40104 h -2.00521 q -0.55859,0 -0.94531,0.40104 -0.38672,0.38672 -0.38672,0.93099 0,0.55859 0.38672,0.94531 0.38672,0.40104 0.94531,0.40104 z m 4.65494,18.64842 q -1.10286,0 -1.8763,-0.78776 -0.78776,-0.77344 -0.78776,-1.8763 0,-1.10286 -0.77344,-1.89062 -0.78776,-0.77344 -1.89062,-0.77344 h -5.32812 q -1.10286,0 -1.89062,-0.77344 -0.77344,-0.77343 -0.77344,-1.8763 v -2.67838 q 0,-1.10286 0.77344,-1.8763 0.78776,-0.78776 1.89062,-0.78776 -1.10286,0 -1.89062,-0.77343 -0.77344,-0.78776 -0.77344,-1.89063 v -5.34244 q 0,-2.20573 1.5612,-3.76692 1.3177,-1.31771 3.09374,-1.51823 v -0.043 h 5.34245 q 0.83072,0 1.57551,0.22917 0.11459,-0.61589 0.57292,-1.07422 0.63021,-0.61588 1.51823,-0.61588 0.8737,0 1.5039,0.61588 0.63021,0.63021 0.63021,1.51823 0,0.87369 -0.63021,1.5039 -0.27213,0.27214 -0.58724,0.41537 0.74479,1.21744 0.74479,2.73567 v 2.67838 q 0,2.20573 -1.56119,3.76693 -1.5612,1.56119 -3.76692,1.56119 h -2.00521 q -0.54427,0 -0.94531,0.38672 -0.38672,0.40104 -0.38672,0.94531 0,0.55859 0.38672,0.94531 0.40104,0.38672 0.94531,0.38672 h 5.32812 q 1.10286,0 1.89062,0.78776 0.78776,0.77344 0.78776,1.8763 v 5.32812 q 0,1.10286 -0.78776,1.8763 -0.78776,0.78776 -1.89062,0.78776 z m 9.86848,-5.32812 q -1.10286,0 -1.89062,-0.77344 -0.77344,-0.78776 -0.77344,-1.89062 0,-0.73047 0.34375,-1.33203 h -0.0143 l 10.32681,-20.66794 v 0.67317 q 0,-1.10286 0.78776,-1.89062 0.77343,-0.77344 1.8763,-0.77344 1.10286,0 1.89062,0.77344 0.78776,0.78776 0.78776,1.89062 0,0.73047 -0.35807,1.33203 h 0.0143 l -10.65624,21.3268 v -0.0143 q -0.18619,0.30078 -0.45833,0.57291 -0.77344,0.77344 -1.8763,0.77344 z m 20.5247,0 q -1.10286,0 -1.89062,-0.77344 -0.77344,-0.78776 -0.77344,-1.89062 0,-1.10286 0.77344,-1.8763 0.78776,-0.78776 1.89062,-0.78776 h 6.66015 q 0.5586,0 0.94531,-0.38672 0.38672,-0.38672 0.38672,-0.94531 0,-0.54427 -0.38672,-0.94531 -0.38671,-0.38672 -0.94531,-0.38672 h -3.99609 q -2.22005,0 -3.76692,-1.56119 -1.5612,-1.5612 -1.5612,-3.76693 v -2.67838 q 0,-2.20573 1.5612,-3.76692 1.5612,-1.5612 3.76692,-1.5612 h 7.99218 q 1.10287,0 1.89062,0.77344 0.78776,0.78776 0.78776,1.89062 0,1.10286 -0.78776,1.89062 -0.78775,0.77344 -1.89062,0.77344 h -6.66015 q -0.55859,0 -0.94531,0.40104 -0.38672,0.38672 -0.38672,0.93099 0,0.55859 0.38672,0.94531 0.38672,0.40104 0.94531,0.40104 h 3.99609 q 2.22005,0 3.76693,1.5612 1.57551,1.5612 1.57551,3.76692 v 2.66406 q 0,2.22005 -1.57551,3.76692 -1.5612,1.5612 -3.76693,1.5612 z m 27.18487,-13.3203 q 0.55859,0 0.94531,-0.40104 0.38672,-0.38672 0.38672,-0.94531 0,-0.54427 -0.38672,-0.93099 -0.38672,-0.40104 -0.94531,-0.40104 h -2.66406 q -0.55859,0 -0.94531,0.40104 -0.38672,0.38672 -0.38672,0.93099 0,0.55859 0.38672,0.94531 0.38672,0.40104 0.94531,0.40104 z m -3.99609,13.3203 q -2.20572,0 -3.76692,-1.5612 -1.5612,-1.54687 -1.5612,-3.76692 v -10.67056 q 0,-2.20573 1.5612,-3.76692 1.5612,-1.5612 3.76692,-1.5612 h 5.32812 q 2.20573,0 3.76692,1.5612 1.57552,1.56119 1.57552,3.76692 v 5.34244 q 0,1.10287 -0.78776,1.89063 -0.78776,0.77343 -1.89062,0.77343 h -6.66015 q -0.55859,0 -0.94531,0.38672 -0.38672,0.40104 -0.38672,0.94531 0,0.55859 0.38672,0.94531 0.38672,0.38672 0.94531,0.38672 h 6.66015 q 1.10286,0 1.89062,0.78776 0.78776,0.77344 0.78776,1.8763 0,1.10286 -0.78776,1.89062 -0.78776,0.77344 -1.89062,0.77344 z m 25.85283,0 q -2.20573,0 -3.76693,-1.5612 -1.56119,-1.54687 -1.56119,-3.76692 v -7.99218 q 0,-1.10286 -0.78776,-1.89062 -0.77344,-0.78776 -1.8763,-0.78776 -1.10287,0 -1.89063,-0.77344 -0.77343,-0.78776 -0.77343,-1.89062 0,-1.10286 0.77343,-1.89062 0.78776,-0.77344 1.89063,-0.77344 1.10286,0 1.8763,-0.77344 0.78776,-0.78775 0.78776,-1.89062 0,-1.10286 0.77343,-1.89062 0.78776,-0.77344 1.89063,-0.77344 1.10286,0 1.89062,0.77344 0.77344,0.78776 0.77344,1.89062 0,1.10287 0.78776,1.89062 0.77343,0.77344 1.8763,0.77344 1.10286,0 1.89062,0.77344 0.78776,0.78776 0.78776,1.89062 0,1.10286 -0.78776,1.89062 -0.78776,0.77344 -1.89062,0.77344 -1.10287,0 -1.8763,0.78776 -0.78776,0.78776 -0.78776,1.89062 v 5.32812 q 0,1.10286 0.78776,1.89062 0.77343,0.77344 1.8763,0.77344 1.10286,0 1.89062,0.78776 0.78776,0.77344 0.78776,1.8763 0,1.10286 -0.78776,1.89062 -0.78776,0.77344 -1.89062,0.77344 z m 12.53254,0 q -1.10287,0 -1.89063,-0.77344 -0.77343,-0.78776 -0.77343,-1.89062 0,-1.10286 0.77343,-1.8763 0.78776,-0.78776 1.89063,-0.78776 h 6.66015 q 0.55859,0 0.94531,-0.38672 0.38671,-0.38672 0.38671,-0.94531 0,-0.54427 -0.38671,-0.94531 -0.38672,-0.38672 -0.94531,-0.38672 h -3.99609 q -2.22005,0 -3.76693,-1.56119 -1.56119,-1.5612 -1.56119,-3.76693 v -2.67838 q 0,-2.20573 1.56119,-3.76692 1.5612,-1.5612 3.76693,-1.5612 h 7.99217 q 1.10287,0 1.89063,0.77344 0.78776,0.78776 0.78776,1.89062 0,1.10286 -0.78776,1.89062 -0.78776,0.77344 -1.89063,0.77344 h -6.66014 q -0.5586,0 -0.94532,0.40104 -0.38671,0.38672 -0.38671,0.93099 0,0.55859 0.38671,0.94531 0.38672,0.40104 0.94532,0.40104 h 3.99608 q 2.22005,0 3.76693,1.5612 1.57552,1.5612 1.57552,3.76692 v 2.66406 q 0,2.22005 -1.57552,3.76692 -1.5612,1.5612 -3.76693,1.5612 z m 20.52472,0 q -1.10287,0 -1.89063,-0.77344 -0.77343,-0.78776 -0.77343,-1.89062 0,-0.73047 0.34375,-1.33203 h -0.0143 l 10.32681,-20.66794 v 0.67317 q 0,-1.10286 0.78776,-1.89062 0.77344,-0.77344 1.8763,-0.77344 1.10287,0 1.89063,0.77344 0.78776,0.78776 0.78776,1.89062 0,0.73047 -0.35808,1.33203 h 0.0143 l -10.65624,21.3268 v -0.0143 q -0.1862,0.30078 -0.45833,0.57291 -0.77344,0.77344 -1.8763,0.77344 z m 25.85283,-10.65624 q -0.54427,0 -0.94531,-0.38672 -0.38672,-0.40104 -0.38672,-0.94531 v -2.67838 q 0,-0.54427 0.38672,-0.93099 0.40104,-0.40104 0.94531,-0.40104 0.5586,0 0.94532,0.40104 0.38671,0.38672 0.38671,0.93099 v 2.67838 q 0,0.54427 -0.38671,0.94531 -0.38672,0.38672 -0.94532,0.38672 z m 0,5.32812 q 1.10287,0 1.89063,-0.77344 0.77343,-0.78776 0.77343,-1.89062 v -10.67056 q 0,-1.10286 -0.77343,-1.89062 -0.78776,-0.77344 -1.89063,-0.77344 -1.10286,0 -1.89062,0.77344 -0.77344,0.78776 -0.77344,1.89062 v 10.67056 q 0,1.10286 0.77344,1.89062 0.78776,0.77344 1.89062,0.77344 z m -2.66406,5.32812 q -2.22005,0 -3.76692,-1.5612 -1.56119,-1.56119 -1.56119,-3.76692 v -15.99868 q 0,-2.20573 1.56119,-3.76692 1.5612,-1.5612 3.76692,-1.5612 h 5.32812 q 2.22005,0 3.76693,1.5612 1.57552,1.56119 1.57552,3.76692 v 15.99868 q 0,2.22005 -1.57552,3.76692 -1.5612,1.5612 -3.76693,1.5612 z m 23.18878,-10.65624 q -0.54427,0 -0.94531,-0.38672 -0.38672,-0.40104 -0.38672,-0.94531 v -2.67838 q 0,-0.54427 0.38672,-0.93099 0.40104,-0.40104 0.94531,-0.40104 0.5586,0 0.94531,0.40104 0.38672,0.38672 0.38672,0.93099 v 2.67838 q 0,0.54427 -0.38672,0.94531 -0.38671,0.38672 -0.94531,0.38672 z m 0,5.32812 q 1.10287,0 1.89063,-0.77344 0.77343,-0.78776 0.77343,-1.89062 v -10.67056 q 0,-1.10286 -0.77343,-1.89062 -0.78776,-0.77344 -1.89063,-0.77344 -1.10286,0 -1.89062,0.77344 -0.77344,0.78776 -0.77344,1.89062 v 10.67056 q 0,1.10286 0.77344,1.89062 0.78776,0.77344 1.89062,0.77344 z m -2.66406,5.32812 q -2.22005,0 -3.76692,-1.5612 -1.5612,-1.56119 -1.5612,-3.76692 v -15.99868 q 0,-2.20573 1.5612,-3.76692 1.5612,-1.5612 3.76692,-1.5612 h 5.32812 q 2.22005,0 3.76693,1.5612 1.57551,1.56119 1.57551,3.76692 v 15.99868 q 0,2.22005 -1.57551,3.76692 -1.5612,1.5612 -3.76693,1.5612 z m 23.18878,-10.65624 q -0.54427,0 -0.94531,-0.38672 -0.38672,-0.40104 -0.38672,-0.94531 v -2.67838 q 0,-0.54427 0.38672,-0.93099 0.40104,-0.40104 0.94531,-0.40104 0.5586,0 0.94531,0.40104 0.38672,0.38672 0.38672,0.93099 v 2.67838 q 0,0.54427 -0.38672,0.94531 -0.38671,0.38672 -0.94531,0.38672 z m 0,5.32812 q 1.10287,0 1.89063,-0.77344 0.77343,-0.78776 0.77343,-1.89062 v -10.67056 q 0,-1.10286 -0.77343,-1.89062 -0.78776,-0.77344 -1.89063,-0.77344 -1.10286,0 -1.89062,0.77344 -0.77344,0.78776 -0.77344,1.89062 v 10.67056 q 0,1.10286 0.77344,1.89062 0.78776,0.77344 1.89062,0.77344 z m -2.66406,5.32812 q -2.22005,0 -3.76692,-1.5612 -1.5612,-1.56119 -1.5612,-3.76692 v -15.99868 q 0,-2.20573 1.5612,-3.76692 1.5612,-1.5612 3.76692,-1.5612 h 5.32812 q 2.22005,0 3.76692,1.5612 1.57552,1.56119 1.57552,3.76692 v 15.99868 q 0,2.22005 -1.57552,3.76692 -1.56119,1.5612 -3.76692,1.5612 z m 17.86066,0 q -1.10286,0 -1.89062,-0.77344 -0.77344,-0.78776 -0.77344,-1.89062 v -7.99218 q 0,-2.20572 1.5612,-3.76692 1.54687,-1.57552 3.76692,-1.57552 h 2.66406 q 1.10286,0 1.89062,-0.77344 0.77344,-0.78776 0.77344,-1.89062 0,-1.10286 -0.77344,-1.89062 -0.78776,-0.77344 -1.89062,-0.77344 h -5.32812 q -1.10286,0 -1.89062,-0.77344 -0.77344,-0.78775 -0.77344,-1.89062 0,-1.10286 0.77344,-1.89062 0.78776,-0.77344 1.89062,-0.77344 h 7.99218 q 2.20573,0 3.76692,1.5612 1.57552,1.56119 1.57552,3.76692 v 5.32812 q 0,2.22005 -1.57552,3.78125 -1.54687,1.56119 -3.76692,1.56119 H 405.286 q -1.10286,0 -1.89062,0.77344 -0.77344,0.78776 -0.77344,1.89062 0,1.10286 0.77344,1.89062 0.78776,0.77344 1.89062,0.77344 h 5.32812 q 1.10286,0 1.89062,0.78776 0.78776,0.77344 0.78776,1.8763 0,1.10286 -0.78776,1.89062 -0.78776,0.77344 -1.89062,0.77344 z"
       id="text53"
       transform="matrix(0.26458333,0,0,0.26458333,1.0569395,-39.094212)"
       aria-label="2x Pony&#10;64 Pcs&#10;5 Color&#10;103125&#10;Birthday Surprise&#10;f-deem.org/sets/0002" /><path
       id="rect53"
       style="fill:none;stroke:#ffffff;stroke-width:2.12872;stroke-linejoin:round"
       d="M 50.656652,4.6731424 H 151.46121 c 2.63015,0 4.74757,2.1174169 4.74757,4.7475715 V 64.526721 c 0,2.630155 -2.11742,4.747572 -4.74757,4.747572 H 50.656652 c -2.630155,0 -4.747571,-2.117417 -4.747571,-4.747572 V 9.4207139 c 0,-2.6301546 2.117416,-4.7475715 4.747571,-4.7475715 z" /></g></svg>
