<?xml version="1.0" encoding="UTF-8" standalone="no"?>
<!-- Created with Inkscape (http://www.inkscape.org/) -->

<svg
   width="139.60762mm"
   height="60.138878mm"
   viewBox="0 0 139.60762 60.138878"
   version="1.1"
   id="svg1"
   xml:space="preserve"
   inkscape:version="1.4.2 (ebf0e940d0, 2025-05-08)"
   sodipodi:docname="Set2final3.svg"
   inkscape:export-filename="Set2final5.svg"
   inkscape:export-xdpi="96"
   inkscape:export-ydpi="96"
   xmlns:inkscape="http://www.inkscape.org/namespaces/inkscape"
   xmlns:sodipodi="http://sodipodi.sourceforge.net/DTD/sodipodi-0.dtd"
   xmlns="http://www.w3.org/2000/svg"
   xmlns:svg="http://www.w3.org/2000/svg"><sodipodi:namedview
     id="namedview1"
     pagecolor="#6d6d6d"
     bordercolor="#000000"
     borderopacity="0.25"
     inkscape:showpageshadow="2"
     inkscape:pageopacity="0.0"
     inkscape:pagecheckerboard="0"
     inkscape:deskcolor="#d1d1d1"
     inkscape:document-units="mm"
     inkscape:zoom="1.5656212"
     inkscape:cx="278.16434"
     inkscape:cy="136.36759"
     inkscape:window-width="1868"
     inkscape:window-height="1052"
     inkscape:window-x="0"
     inkscape:window-y="0"
     inkscape:window-maximized="1"
     inkscape:current-layer="layer1"
     inkscape:export-bgcolor="#ffffff00"><inkscape:page
       x="-2.0026937e-22"
       y="3.1656133e-17"
       width="139.6076"
       height="60.138874"
       id="page1"
       margin="0"
       bleed="0" /></sodipodi:namedview><defs
     id="defs1" /><g
     inkscape:label="Layer 1"
     inkscape:groupmode="layer"
     id="layer1"
     transform="translate(-2.9948056,-3.5967327)"><path
       style="fill:#ffffff;fill-opacity:1;stroke-width:1.03175"
       d="M 8.8816709,21.344369 V 19.899 H 5.9817277 3.0817843 V 12.653745 5.4084877 H 3.6617729 4.2417617 V 4.5431075 3.6777276 h 1.7307599 1.7307598 v 0.8653799 0.8653802 h 0.5798772 0.5798763 l 0.0047,1.4499718 0.0047,1.4499719 h 0.5799891 0.57999 l 0.0048,-0.8699832 0.0048,-0.869983 h 1.730578 1.730579 v 0.8745863 0.8745861 h 0.579879 0.579876 l 0.0047,-1.4499718 0.0047,-1.4499721 0.575387,-0.00488 0.575383,-0.00488 V 4.5428363 3.6777185 h 1.739969 1.739965 v 0.8651178 0.8651179 l 0.575386,0.00488 0.575387,0.00488 0.0047,1.4499719 0.0047,1.4499719 h 0.579877 0.579877 V 7.4429574 6.5682773 l 1.735361,0.0047 1.735366,0.0047 0.0047,0.8699831 0.0047,0.8699832 H 25.682892 26.2627 V 6.8630627 5.4084877 H 26.843011 27.423 V 4.5431075 3.6777276 h 1.730759 1.730759 v 0.8653799 0.8653802 h 0.579877 0.579879 l 0.0047,1.4499718 0.0047,1.4499719 h 0.57999 0.57999 l 0.0047,-0.8699832 0.0047,-0.869983 h 1.73058 1.730581 v 0.8745863 0.8745861 h 0.579988 0.579987 v 7.2360494 7.236051 H 34.953268 32.06253 V 21.344369 19.899 h -2.899942 -2.899945 v 1.445369 1.445369 H 23.362704 20.462759 V 21.344369 19.899 h -2.899942 -2.899944 v 1.445369 1.445369 H 11.771933 8.8811949 Z M 5.6904075,16.371382 c 0.099957,-0.07403 0.1036323,-0.09716 0.119728,-0.753251 0.011991,-0.48878 0.020763,-0.623278 0.044854,-0.687735 0.053396,-0.142862 0.021016,-0.138764 1.1854474,-0.150115 1.1349237,-0.01105 1.124372,-0.0099 1.1909762,-0.13195 0.028412,-0.05207 0.034306,-0.115326 0.039164,-0.420331 0.0047,-0.294607 8.294e-4,-0.365648 -0.021521,-0.395866 -0.024733,-0.03344 -0.055781,-0.03785 -0.3371415,-0.04791 -0.3208816,-0.01148 -0.3777819,-0.02353 -0.480152,-0.101599 -0.09291,-0.07087 -0.1199945,-0.1417 -0.1293933,-0.338413 -0.010841,-0.226957 0.013668,-0.317271 0.113099,-0.416701 0.097473,-0.09747 0.1525571,-0.110984 0.508762,-0.124801 0.3802486,-0.01475 0.3549554,0.01829 0.3468372,-0.453038 -0.00676,-0.392109 -0.014126,-0.42215 -0.1207342,-0.491999 -0.046636,-0.03057 -0.175631,-0.03248 -2.1802568,-0.03248 H 3.8393882 l -0.05198,0.03848 c -0.1134325,0.08398 -0.1067515,-0.04693 -0.1122138,2.198422 -0.0034,1.398653 0.00124,2.08286 0.014603,2.147177 0.023018,0.110873 0.072965,0.164901 0.1751237,0.189425 0.041866,0.01 0.4359209,0.01619 0.9232843,0.01436 0.8310461,-0.0031 0.8514183,-0.004 0.9022048,-0.04167 z m 13.1007975,0.02719 c 0.428507,-0.08996 0.879463,-0.507302 1.032366,-0.955366 0.0402,-0.117834 0.04092,-0.137422 0.04629,-1.270452 0.0061,-1.277826 0.0049,-1.292662 -0.113648,-1.539302 -0.186914,-0.388659 -0.600406,-0.726217 -0.977918,-0.798334 -0.07925,-0.01513 -0.565787,-0.01952 -1.721555,-0.01552 -1.812321,0.0063 -1.697504,-0.0031 -1.756096,0.143343 -0.02698,0.06745 -0.02986,0.278006 -0.02949,2.159555 3.87e-4,1.989235 0.0019,2.088266 0.0345,2.159878 0.03261,0.07181 0.07563,0.102045 0.176847,0.124314 0.08824,0.01944 3.214116,0.01175 3.30871,-0.0082 z m -1.482333,-1.802565 c -0.205949,-0.01985 -0.232106,-0.07379 -0.232106,-0.478488 0,-0.433049 0.01634,-0.458889 0.304166,-0.481354 0.341069,-0.02663 0.510731,0.02161 0.611483,0.17387 0.04708,0.07115 0.04938,0.08557 0.04938,0.309157 0,0.230844 -8.3e-4,0.235744 -0.05525,0.313053 -0.08245,0.117228 -0.194901,0.166344 -0.392913,0.17161 -0.0877,0.0024 -0.215855,-0.0012 -0.284788,-0.0079 z m 8.232813,1.780406 c 0.09206,-0.05023 0.111941,-0.120462 0.125197,-0.442302 0.01344,-0.326398 0.0016,-0.445804 -0.04733,-0.471919 -0.01843,-0.0099 -0.160852,-0.02307 -0.316491,-0.0293 -0.310968,-0.0125 -0.381461,-0.02676 -0.473893,-0.09583 -0.09522,-0.07116 -0.138376,-0.186373 -0.139533,-0.372568 -0.0015,-0.213794 0.0168,-0.283591 0.09674,-0.37216 0.104293,-0.115579 0.154865,-0.129801 0.504659,-0.141924 0.261783,-0.0091 0.312675,-0.01558 0.340628,-0.04355 0.0284,-0.02842 0.03287,-0.06775 0.03287,-0.289337 0,-0.221595 -0.0044,-0.260925 -0.03287,-0.289337 -0.02794,-0.02797 -0.07884,-0.03447 -0.340628,-0.04354 -0.349794,-0.01213 -0.400366,-0.02635 -0.504659,-0.141926 -0.08025,-0.08893 -0.09821,-0.158827 -0.09625,-0.374284 0.0021,-0.249725 0.09309,-0.390679 0.282115,-0.438036 0.03643,-0.0091 0.188455,-0.02124 0.3378,-0.02691 0.149343,-0.0057 0.287622,-0.0189 0.307286,-0.02943 0.05118,-0.02739 0.06267,-0.137792 0.04908,-0.471861 -0.01318,-0.323999 -0.03269,-0.393344 -0.1247,-0.443555 -0.05822,-0.03178 -0.167394,-0.03346 -2.178709,-0.03346 -2.101793,0 -2.117894,2.8e-4 -2.181861,0.03776 -0.125991,0.07384 -0.119673,-0.04517 -0.119676,2.254572 -3e-6,1.683762 0.0046,2.084429 0.02466,2.141085 0.02683,0.07582 0.08115,0.120475 0.173736,0.142772 0.03266,0.0079 0.995647,0.01299 2.139973,0.01139 1.972607,-0.0027 2.083776,-0.0046 2.141885,-0.03636 z m 5.796153,0.0019 c 0.100084,-0.05479 0.117361,-0.132716 0.117361,-0.529118 0,-0.29195 -0.0046,-0.35282 -0.02893,-0.377082 -0.0159,-0.0159 -0.04284,-0.02909 -0.05984,-0.02933 -0.25986,-0.0033 -0.564005,-0.02657 -0.633675,-0.04854 -0.183368,-0.05785 -0.269048,-0.240304 -0.247111,-0.526216 0.01175,-0.153358 0.04265,-0.231897 0.119772,-0.304407 0.09184,-0.08638 0.158079,-0.10189 0.48334,-0.113247 0.218864,-0.0077 0.314238,-0.01785 0.336026,-0.03593 0.02577,-0.02141 0.03042,-0.0668 0.03042,-0.296947 0,-0.230148 -0.0046,-0.275538 -0.03042,-0.296947 -0.02191,-0.01821 -0.116445,-0.02804 -0.337858,-0.03516 -0.281726,-0.0091 -0.314963,-0.01377 -0.397499,-0.05624 -0.131008,-0.06743 -0.188994,-0.169478 -0.203467,-0.358115 -0.01685,-0.219501 0.01466,-0.343667 0.111794,-0.440817 0.09711,-0.09711 0.167775,-0.114492 0.518132,-0.127447 0.142495,-0.0054 0.273062,-0.01495 0.290153,-0.0215 0.04778,-0.01833 0.05308,-0.07021 0.04628,-0.453229 -0.0055,-0.305201 -0.01102,-0.36248 -0.03944,-0.404344 -0.06961,-0.102509 0.02157,-0.09854 -2.259217,-0.09854 -2.348825,0 -2.186429,-0.0093 -2.255512,0.128885 -0.03605,0.0721 -0.03694,0.115895 -0.04203,2.080595 -0.0033,1.273571 0.0016,2.050465 0.01322,2.126043 0.02308,0.149237 0.06401,0.206031 0.168629,0.234054 0.06043,0.01619 0.611923,0.02088 2.161724,0.01841 1.925274,-0.0031 2.084891,-0.0057 2.138152,-0.03482 z m 2.263064,0.0033 c 0.02904,-0.0321 0.03569,-0.08231 0.04564,-0.345233 0.01306,-0.344949 0.02876,-0.402765 0.134576,-0.495681 0.08447,-0.07416 0.168075,-0.09718 0.353082,-0.09718 0.245524,0 0.355897,0.05288 0.436739,0.209251 0.03372,0.0652 0.04083,0.119286 0.05038,0.383016 0.01461,0.40362 -0.0028,0.383384 0.33157,0.383384 0.187859,0 0.260433,-0.0065 0.287142,-0.02609 0.03217,-0.02349 0.03678,-0.05731 0.04605,-0.338686 0.0095,-0.285948 0.01423,-0.320195 0.05625,-0.401823 0.02682,-0.05212 0.0776,-0.111505 0.122119,-0.142786 0.06852,-0.04816 0.09438,-0.05441 0.256766,-0.0621 0.215643,-0.01025 0.312555,0.01208 0.404831,0.09309 0.112144,0.09847 0.13209,0.169004 0.146383,0.51774 0.0121,0.295013 0.01449,0.309619 0.05513,0.336245 0.03512,0.023 0.10405,0.02675 0.397553,0.02154 0.395256,-0.0071 0.449482,-0.02165 0.496983,-0.134102 0.01899,-0.04496 0.0238,-0.484259 0.0238,-2.17456 0,-1.992726 -0.0019,-2.121167 -0.03248,-2.167797 -0.07616,-0.1162 -0.06011,-0.113981 -0.868237,-0.120115 -0.64594,-0.0049 -0.746388,-0.0019 -0.815393,0.02447 -0.122244,0.04668 -0.146232,0.09077 -0.161708,0.297197 -0.01208,0.161041 -0.01836,0.183601 -0.06375,0.228994 -0.07112,0.07112 -0.181033,0.09522 -0.396701,0.08696 -0.28946,-0.0111 -0.338132,-0.05429 -0.358317,-0.31802 -0.01434,-0.187305 -0.03642,-0.235353 -0.129541,-0.28178 -0.0575,-0.02868 -0.141465,-0.03279 -0.762875,-0.03748 -0.742943,-0.0055 -0.860842,0.0039 -0.927645,0.07509 -0.02097,0.02236 -0.04675,0.07792 -0.05725,0.12349 -0.02667,0.115805 -0.02717,4.070643 -5.24e-4,4.194883 0.02206,0.102862 0.07099,0.157561 0.164663,0.184092 0.03545,0.01 0.21437,0.019 0.397614,0.01991 0.313094,0.0016 0.33522,-6.03e-4 0.367162,-0.0359 z m -21.45253,-2.62279 c 0.191776,-0.03418 0.356778,-0.117511 0.487398,-0.246171 0.199435,-0.196446 0.243737,-0.351387 0.242329,-0.847529 -9.85e-4,-0.352039 -0.02037,-0.559712 -0.05921,-0.635475 -0.04009,-0.07813 -0.117413,-0.141616 -0.20797,-0.170716 -0.07543,-0.02424 -0.209351,-0.03144 -0.714725,-0.03839 -1.0347,-0.01423 -1.151398,0.01879 -1.209737,0.34249 -0.03202,0.177667 -0.0337,0.836328 -0.0024,0.960201 0.05736,0.227289 0.203507,0.419637 0.411254,0.541222 0.187454,0.109715 0.706136,0.156182 1.053105,0.09436 z"
       id="path4" /><path
       style="font-size:29.3333px;line-height:1.05;font-family:Lectus;-inkscape-font-specification:Lectus;letter-spacing:5.25771px;word-spacing:0px;white-space:pre;fill:#ffffff"
       d="m 9.9882782,275.73786 q -1.1028633,0 -1.8906228,-0.77343 -0.7734367,-0.78776 -0.7734367,-1.89063 v -7.99217 q 0,-2.20573 1.5611962,-3.76693 1.5468731,-1.57552 3.7669231,-1.57552 h 2.664059 q 1.102863,0 1.890623,-0.77343 0.773437,-0.78776 0.773437,-1.89063 0,-1.10286 -0.773437,-1.89062 -0.78776,-0.77344 -1.890623,-0.77344 H 9.9882782 q -1.1028633,0 -1.8906228,-0.77343 -0.7734367,-0.78776 -0.7734367,-1.89063 0,-1.10286 0.7734367,-1.89062 0.7877595,-0.77343 1.8906228,-0.77343 h 7.9921788 q 2.205726,0 3.766922,1.56119 1.575519,1.5612 1.575519,3.76692 v 5.32812 q 0,2.22005 -1.575519,3.78125 -1.546873,1.5612 -3.766922,1.5612 h -2.66406 q -1.102863,0 -1.890623,0.77343 -0.773436,0.78776 -0.773436,1.89062 0,1.10287 0.773436,1.89063 0.78776,0.77343 1.890623,0.77343 h 5.328119 q 1.102863,0 1.890623,0.78776 0.787759,0.77344 0.787759,1.8763 0,1.10287 -0.787759,1.89063 -0.78776,0.77343 -1.890623,0.77343 z m 25.7824248,0 q -1.102863,0 -1.890623,-0.77343 -0.773436,-0.78776 -0.773436,-1.89063 0,-1.47526 0.687499,-2.66406 h -0.02865 l 2.66406,-5.32811 -2.66406,-5.34245 h 0.02865 q -0.687499,-1.17447 -0.687499,-2.66406 0,-1.10286 0.773436,-1.89062 0.78776,-0.77344 1.890623,-0.77344 1.102863,0 1.8763,0.77344 0.78776,0.78776 0.78776,1.89062 v 1.33203 q 0,1.10287 0.773436,1.89063 0.78776,0.77343 1.890623,0.77343 1.102863,0 1.890623,-0.77343 0.773436,-0.78776 0.773436,-1.89063 v -1.33203 q 0,-1.10286 0.78776,-1.89062 0.773437,-0.77344 1.8763,-0.77344 1.102863,0 1.890623,0.77344 0.787759,0.78776 0.787759,1.89062 0,1.48959 -0.701822,2.66406 h 0.02865 l -2.66406,5.34245 2.66406,5.32811 h -0.02865 q 0.701822,1.1888 0.701822,2.66406 0,1.10287 -0.787759,1.89063 -0.78776,0.77343 -1.890623,0.77343 -1.102863,0 -1.8763,-0.77343 -0.78776,-0.78776 -0.78776,-1.89063 v -1.33203 q 0,-1.10286 -0.773436,-1.89062 -0.78776,-0.77344 -1.890623,-0.77344 -1.102863,0 -1.890623,0.77344 -0.773436,0.78776 -0.773436,1.89062 v 1.33203 q 0,1.10287 -0.78776,1.89063 -0.773437,0.77343 -1.8763,0.77343 z m 56.892969,-15.99868 q 1.102863,0 1.890623,-0.77343 0.773436,-0.78776 0.773436,-1.89063 0,-1.10286 -0.773436,-1.89062 -0.78776,-0.77344 -1.890623,-0.77344 -1.102863,0 -1.890623,0.77344 -0.773437,0.78776 -0.773437,1.89062 0,1.10287 0.773437,1.89063 0.78776,0.77343 1.890623,0.77343 z m -5.328119,15.99868 q -1.102863,0 -1.890623,-0.77343 -0.773436,-0.78776 -0.773436,-1.89063 V 251.747 q 0,-1.10286 0.773436,-1.89062 0.78776,-0.77343 1.890623,-0.77343 h 7.992178 q 2.22005,0 3.766923,1.56119 1.575516,1.5612 1.575516,3.76692 v 5.32812 q 0,2.22005 -1.575516,3.78125 -1.561196,1.5612 -3.766923,1.5612 h -2.664059 q -1.102863,0 -1.890623,0.77343 -0.773437,0.78776 -0.773437,1.89062 v 5.32812 q 0,1.10287 -0.787759,1.89063 -0.773437,0.77343 -1.8763,0.77343 z m 31.110547,-5.32812 q 1.10286,0 1.89062,-0.77343 0.77344,-0.78776 0.77344,-1.89063 v -5.32811 q 0,-1.10287 -0.77344,-1.89063 -0.78776,-0.78776 -1.89062,-0.78776 -1.10287,0 -1.89063,0.78776 -0.77343,0.78776 -0.77343,1.89063 v 5.32811 q 0,1.10287 0.77343,1.89063 0.78776,0.77343 1.89063,0.77343 z m -2.66406,5.32812 q -2.20573,0 -3.76693,-1.56119 -1.56119,-1.54688 -1.56119,-3.76693 v -10.67056 q 0,-2.20572 1.56119,-3.76692 1.5612,-1.5612 3.76693,-1.5612 h 5.32812 q 2.20572,0 3.76692,1.5612 1.57552,1.5612 1.57552,3.76692 v 10.67056 q 0,2.22005 -1.57552,3.76693 -1.5612,1.56119 -3.76692,1.56119 z m 23.11836,0 q -1.10286,0 -1.89062,-0.77343 -0.77344,-0.78776 -0.77344,-1.89063 v -15.98435 q 0,-1.10287 0.77344,-1.89063 0.78776,-0.78776 1.89062,-0.78776 h 7.99218 q 2.20573,0 3.76692,1.5612 1.57552,1.5612 1.57552,3.76692 v 13.33462 q 0,1.10287 -0.78776,1.89063 -0.78776,0.77343 -1.89062,0.77343 -1.10286,0 -1.8763,-0.77343 -0.78776,-0.78776 -0.78776,-1.89063 v -10.65623 q 0,-1.10287 -0.77344,-1.89063 -0.78775,-0.78776 -1.89062,-0.78776 -1.10286,0 -1.89062,0.78776 -0.77344,0.78776 -0.77344,1.89063 v 10.65623 q 0,1.10287 -0.78776,1.89063 -0.77343,0.77343 -1.8763,0.77343 z m 36.43867,5.32812 q -1.10287,0 -1.8763,-0.78776 -0.78776,-0.77343 -0.78776,-1.8763 0,-1.10286 -0.77344,-1.89062 -0.78776,-0.77344 -1.89062,-0.77344 h -2.66406 q -2.20573,0 -3.76693,-1.56119 -1.56119,-1.54688 -1.56119,-3.76693 v -13.33462 q 0,-1.10286 0.77343,-1.89062 0.78776,-0.77344 1.89063,-0.77344 1.10286,0 1.8763,0.77344 0.78776,0.78776 0.78776,1.89062 v 10.67056 q 0,1.10287 0.77343,1.89063 0.78776,0.77343 1.89063,0.77343 1.10286,0 1.89062,-0.77343 0.77344,-0.78776 0.77344,-1.89063 v -10.67056 q 0,-1.10286 0.78776,-1.89062 0.77343,-0.77344 1.8763,-0.77344 1.10286,0 1.89062,0.77344 0.78776,0.78776 0.78776,1.89062 v 15.99868 q 0,0 0,0 v 5.32812 q 0,1.10287 -0.78776,1.8763 -0.78776,0.78776 -1.89062,0.78776 z M 15.316397,302.92586 q 1.102863,0 1.890623,-0.77344 0.773437,-0.78776 0.773437,-1.89062 0,-1.10287 -0.773437,-1.89063 -0.78776,-0.77343 -1.890623,-0.77343 -1.102863,0 -1.890623,0.77343 -0.773436,0.78776 -0.773436,1.89063 0,1.10286 0.773436,1.89062 0.78776,0.77344 1.890623,0.77344 z m -2.664059,5.32812 q -2.205727,0 -3.7669231,-1.5612 -1.5611962,-1.54687 -1.5611962,-3.76692 v -15.99868 q 0,-2.20573 1.5611962,-3.76693 1.5468731,-1.56119 3.7669231,-1.56119 h 7.992178 q 1.102863,0 1.890623,0.77344 0.787759,0.78775 0.787759,1.89062 0,1.10286 -0.787759,1.89062 -0.78776,0.77344 -1.890623,0.77344 h -5.328119 q -1.102863,0 -1.890623,0.77343 -0.773436,0.78776 -0.773436,1.89063 0,1.10286 0.773436,1.89062 0.78776,0.77344 1.890623,0.77344 h 2.66406 q 2.220049,0 3.766922,1.57552 1.575519,1.56119 1.575519,3.76692 v 5.32812 q 0,2.22005 -1.575519,3.76692 -1.561196,1.5612 -3.766922,1.5612 z m 33.774603,0 q -1.102863,0 -1.8763,-0.77344 -0.78776,-0.78776 -0.78776,-1.89062 v -5.32812 q 0,-1.10287 -0.773436,-1.89063 -0.78776,-0.77343 -1.890623,-0.77343 h -5.328119 q -1.102863,0 -1.890623,-0.78776 -0.773436,-0.77344 -0.773436,-1.8763 v -10.67056 q 0,-1.10287 0.773436,-1.89062 0.78776,-0.77344 1.890623,-0.77344 1.102863,0 1.8763,0.77344 0.78776,0.78775 0.78776,1.89062 v 5.32812 q 0,1.10286 0.773436,1.89062 0.78776,0.77344 1.890623,0.77344 1.102863,0 1.890623,-0.77344 0.773436,-0.78776 0.773436,-1.89062 v -5.32812 q 0,-1.10287 0.78776,-1.89062 0.773437,-0.77344 1.8763,-0.77344 1.102863,0 1.890623,0.77344 0.787759,0.78775 0.787759,1.89062 v 21.3268 q 0,1.10286 -0.787759,1.89062 -0.78776,0.77344 -1.890623,0.77344 z M 92.663672,292.2553 q 1.102863,0 1.890623,-0.77344 0.773436,-0.78776 0.773436,-1.89062 0,-1.10287 -0.773436,-1.89063 -0.78776,-0.77343 -1.890623,-0.77343 -1.102863,0 -1.890623,0.77343 -0.773437,0.78776 -0.773437,1.89063 0,1.10286 0.773437,1.89062 0.78776,0.77344 1.890623,0.77344 z m -5.328119,15.99868 q -1.102863,0 -1.890623,-0.77344 -0.773436,-0.78776 -0.773436,-1.89062 v -21.3268 q 0,-1.10287 0.773436,-1.89062 0.78776,-0.77344 1.890623,-0.77344 h 7.992178 q 2.22005,0 3.766923,1.56119 1.575516,1.5612 1.575516,3.76693 v 5.32812 q 0,2.22005 -1.575516,3.78124 -1.561196,1.5612 -3.766923,1.5612 h -2.664059 q -1.102863,0 -1.890623,0.77343 -0.773437,0.78776 -0.773437,1.89063 v 5.32812 q 0,1.10286 -0.787759,1.89062 -0.773437,0.77344 -1.8763,0.77344 z m 28.446487,0 q -2.20573,0 -3.76693,-1.5612 -1.56119,-1.54687 -1.56119,-3.76692 V 292.2553 q 0,-2.20573 1.56119,-3.76693 1.5612,-1.56119 3.76693,-1.56119 h 7.99218 q 1.10286,0 1.89062,0.77343 0.78776,0.78776 0.78776,1.89063 0,1.10286 -0.78776,1.89062 -0.78776,0.77344 -1.89062,0.77344 h -5.32812 q -1.10287,0 -1.89063,0.78776 -0.77343,0.78776 -0.77343,1.89062 v 5.32812 q 0,1.10286 0.77343,1.89062 0.78776,0.77344 1.89063,0.77344 h 5.32812 q 1.10286,0 1.89062,0.78776 0.78776,0.77343 0.78776,1.8763 0,1.10286 -0.78776,1.89062 -0.78776,0.77344 -1.89062,0.77344 z m 23.11836,0 q -1.10286,0 -1.89062,-0.77344 -0.77344,-0.78776 -0.77344,-1.89062 0,-1.10287 0.77344,-1.8763 0.78776,-0.78776 1.89062,-0.78776 h 6.66015 q 0.55859,0 0.94531,-0.38672 0.38672,-0.38672 0.38672,-0.94531 0,-0.54427 -0.38672,-0.94531 -0.38672,-0.38672 -0.94531,-0.38672 h -3.99609 q -2.22005,0 -3.76692,-1.5612 -1.5612,-1.56119 -1.5612,-3.76692 v -2.67838 q 0,-2.20573 1.5612,-3.76693 1.5612,-1.56119 3.76692,-1.56119 h 7.99218 q 1.10286,0 1.89062,0.77343 0.78776,0.78776 0.78776,1.89063 0,1.10286 -0.78776,1.89062 -0.78776,0.77344 -1.89062,0.77344 h -6.66015 q -0.55859,0 -0.94531,0.40104 -0.38672,0.38672 -0.38672,0.93099 0,0.55859 0.38672,0.94531 0.38672,0.40104 0.94531,0.40104 h 3.99609 q 2.22005,0 3.76692,1.56119 1.57552,1.5612 1.57552,3.76693 v 2.66406 q 0,2.22005 -1.57552,3.76692 -1.56119,1.5612 -3.76692,1.5612 z M 9.9882782,340.77009 q -1.1028633,0 -1.8906228,-0.77344 -0.7734367,-0.78776 -0.7734367,-1.89062 0,-1.10286 0.7734367,-1.8763 0.7877595,-0.78776 1.8906228,-0.78776 h 5.3281188 q 1.102863,0 1.890623,-0.77344 0.773437,-0.78776 0.773437,-1.89062 0,-1.10286 -0.773437,-1.89062 -0.78776,-0.77344 -1.890623,-0.77344 H 9.9882782 q -1.1028633,0 -1.8906228,-0.78776 -0.7734367,-0.77343 -0.7734367,-1.8763 v -10.67056 q 0,-1.10286 0.7734367,-1.89062 0.7877595,-0.77344 1.8906228,-0.77344 H 20.644516 q 1.102863,0 1.890623,0.77344 0.787759,0.78776 0.787759,1.89062 0,1.10286 -0.787759,1.89062 -0.78776,0.77344 -1.890623,0.77344 h -5.328119 q -1.102863,0 -1.890623,0.77344 -0.773436,0.78776 -0.773436,1.89062 0,1.10286 0.773436,1.89062 0.78776,0.77344 1.890623,0.77344 h 2.66406 q 2.220049,0 3.766922,1.57552 1.575519,1.56119 1.575519,3.76692 v 5.32812 q 0,2.22005 -1.575519,3.76692 -1.561196,1.5612 -3.766922,1.5612 z m 54.2289088,0 q -2.205726,0 -3.766922,-1.5612 -1.561196,-1.54687 -1.561196,-3.76692 v -15.99868 q 0,-2.20573 1.561196,-3.76692 1.546873,-1.5612 3.766922,-1.5612 h 7.992179 q 1.102863,0 1.890623,0.77344 0.787759,0.78776 0.787759,1.89062 0,1.10286 -0.787759,1.89062 -0.78776,0.77344 -1.890623,0.77344 h -5.328119 q -1.102863,0 -1.890623,0.77344 -0.773437,0.78776 -0.773437,1.89062 v 10.67056 q 0,1.10286 0.773437,1.89062 0.78776,0.77344 1.890623,0.77344 h 5.328119 q 1.102863,0 1.890623,0.78776 0.787759,0.77344 0.787759,1.8763 0,1.10286 -0.787759,1.89062 -0.78776,0.77344 -1.890623,0.77344 z m 28.446485,-5.32812 q 1.102863,0 1.890623,-0.77344 0.773436,-0.78776 0.773436,-1.89062 v -5.32812 q 0,-1.10286 -0.773436,-1.89062 -0.78776,-0.78776 -1.890623,-0.78776 -1.102863,0 -1.890623,0.78776 -0.773437,0.78776 -0.773437,1.89062 v 5.32812 q 0,1.10286 0.773437,1.89062 0.78776,0.77344 1.890623,0.77344 z m -2.66406,5.32812 q -2.205726,0 -3.766922,-1.5612 -1.561196,-1.54687 -1.561196,-3.76692 v -10.67056 q 0,-2.20573 1.561196,-3.76692 1.561196,-1.5612 3.766922,-1.5612 h 5.328119 q 2.205727,0 3.766923,1.5612 1.575516,1.56119 1.575516,3.76692 v 10.67056 q 0,2.22005 -1.575516,3.76692 -1.561196,1.5612 -3.766923,1.5612 z m 23.118368,0 q -1.10287,0 -1.89062,-0.77344 -0.77344,-0.78776 -0.77344,-1.89062 0,-1.10286 0.77344,-1.8763 0.78775,-0.78776 1.89062,-0.78776 1.10286,0 1.8763,-0.77344 0.78776,-0.78776 0.78776,-1.89062 v -10.67056 q 0,-1.10286 -0.78776,-1.89062 -0.77344,-0.77344 -1.8763,-0.77344 -1.10287,0 -1.89062,-0.77344 -0.77344,-0.78776 -0.77344,-1.89062 0,-1.10286 0.77344,-1.89062 0.78775,-0.77344 1.89062,-0.77344 h 5.32812 q 1.10286,0 1.89062,0.77344 0.77344,0.78776 0.77344,1.89062 v 15.99868 q 0,1.10286 0.78776,1.89062 0.77343,0.77344 1.8763,0.77344 1.10286,0 1.89062,0.78776 0.78776,0.77344 0.78776,1.8763 0,1.10286 -0.78776,1.89062 -0.78776,0.77344 -1.89062,0.77344 z m 31.11054,-5.32812 q 1.10287,0 1.89062,-0.77344 0.77344,-0.78776 0.77344,-1.89062 v -5.32812 q 0,-1.10286 -0.77344,-1.89062 -0.78775,-0.78776 -1.89062,-0.78776 -1.10286,0 -1.89062,0.78776 -0.77344,0.78776 -0.77344,1.89062 v 5.32812 q 0,1.10286 0.77344,1.89062 0.78776,0.77344 1.89062,0.77344 z m -2.66406,5.32812 q -2.20572,0 -3.76692,-1.5612 -1.5612,-1.54687 -1.5612,-3.76692 v -10.67056 q 0,-2.20573 1.5612,-3.76692 1.5612,-1.5612 3.76692,-1.5612 h 5.32812 q 2.20573,0 3.76692,1.5612 1.57552,1.56119 1.57552,3.76692 v 10.67056 q 0,2.22005 -1.57552,3.76692 -1.56119,1.5612 -3.76692,1.5612 z m 23.11837,0 q -1.10287,0 -1.89063,-0.77344 -0.77343,-0.78776 -0.77343,-1.89062 v -13.33462 q 0,-2.20573 1.56119,-3.76692 1.5612,-1.5612 3.76693,-1.5612 h 7.99218 q 1.10286,0 1.89062,0.77344 0.78776,0.78776 0.78776,1.89062 0,1.10286 -0.78776,1.89062 -0.78776,0.77344 -1.89062,0.77344 h -5.32812 q -1.10287,0 -1.89063,0.78776 -0.77343,0.78776 -0.77343,1.89062 v 10.65624 q 0,1.10286 -0.78776,1.89062 -0.77344,0.77344 -1.8763,0.77344 z M 9.9882782,373.2862 q -1.1028633,0 -1.8906228,-0.77343 -0.7734367,-0.78776 -0.7734367,-1.89063 0,-1.10286 0.7734367,-1.8763 0.7877595,-0.78776 1.8906228,-0.78776 1.1028638,0 1.8762998,-0.77343 0.78776,-0.78776 0.78776,-1.89063 v -5.32811 q 0,-1.10287 -0.78776,-1.89063 -0.773436,-0.78776 -1.8762998,-0.78776 -1.1028633,0 -1.8906228,-0.77343 -0.7734367,-0.78776 -0.7734367,-1.89063 0,-1.10286 0.7734367,-1.89062 0.7877595,-0.77344 1.8906228,-0.77344 1.1028638,0 1.8762998,-0.77343 0.78776,-0.78776 0.78776,-1.89063 0,-1.10286 0.773436,-1.89062 0.78776,-0.77343 1.890623,-0.77343 1.102863,0 1.890623,0.77343 0.773437,0.78776 0.773437,1.89062 v 15.99868 q 0,1.10287 0.787759,1.89063 0.773437,0.77343 1.8763,0.77343 1.102863,0 1.890623,0.78776 0.787759,0.77344 0.787759,1.8763 0,1.10287 -0.787759,1.89063 -0.78776,0.77343 -1.890623,0.77343 z M 41.098822,362.62996 q -0.54427,0 -0.945311,-0.38671 -0.386719,-0.40104 -0.386719,-0.94531 v -2.67839 q 0,-0.54427 0.386719,-0.93099 0.401041,-0.40104 0.945311,-0.40104 0.558593,0 0.945311,0.40104 0.386719,0.38672 0.386719,0.93099 v 2.67839 q 0,0.54427 -0.386719,0.94531 -0.386718,0.38671 -0.945311,0.38671 z m 0,5.32812 q 1.102863,0 1.890623,-0.77343 0.773436,-0.78776 0.773436,-1.89063 v -10.67056 q 0,-1.10286 -0.773436,-1.89062 -0.78776,-0.77344 -1.890623,-0.77344 -1.102863,0 -1.890623,0.77344 -0.773436,0.78776 -0.773436,1.89062 v 10.67056 q 0,1.10287 0.773436,1.89063 0.78776,0.77343 1.890623,0.77343 z m -2.664059,5.32812 q -2.22005,0 -3.766923,-1.56119 -1.561196,-1.5612 -1.561196,-3.76693 V 351.9594 q 0,-2.20572 1.561196,-3.76692 1.561196,-1.56119 3.766923,-1.56119 h 5.328118 q 2.22005,0 3.766923,1.56119 1.575519,1.5612 1.575519,3.76692 v 15.99868 q 0,2.22005 -1.575519,3.76693 -1.561196,1.56119 -3.766923,1.56119 z m 23.118365,0 q -1.102863,0 -1.890623,-0.77343 -0.773436,-0.78776 -0.773436,-1.89063 0,-1.10286 0.773436,-1.8763 0.78776,-0.78776 1.890623,-0.78776 h 5.328119 q 1.102863,0 1.890623,-0.77343 0.773436,-0.78776 0.773436,-1.89063 0,-1.10286 -0.773436,-1.89062 -0.78776,-0.77344 -1.890623,-0.77344 h -5.328119 q -1.102863,0 -1.890623,-0.78775 -0.773436,-0.77344 -0.773436,-1.8763 0,-1.10287 0.773436,-1.89063 0.78776,-0.78776 1.890623,-0.78776 h 5.328119 q 1.102863,0 1.890623,-0.77343 0.773436,-0.78776 0.773436,-1.89063 0,-1.10286 -0.773436,-1.89062 -0.78776,-0.77344 -1.890623,-0.77344 h -5.328119 q -1.102863,0 -1.890623,-0.77343 -0.773436,-0.78776 -0.773436,-1.89063 0,-1.10286 0.773436,-1.89062 0.78776,-0.77343 1.890623,-0.77343 h 7.992178 q 2.22005,0 3.766923,1.56119 1.575519,1.5612 1.575519,3.76692 v 5.32812 q 0,1.10287 -0.787759,1.89063 -0.78776,0.78776 -1.890623,0.78776 1.102863,0 1.890623,0.77343 0.787759,0.78776 0.787759,1.89062 v 5.32812 q 0,2.22005 -1.575519,3.76693 -1.561196,1.56119 -3.766923,1.56119 z m 25.782425,0 q -1.102863,0 -1.890623,-0.77343 -0.773436,-0.78776 -0.773436,-1.89063 0,-1.10286 0.773436,-1.8763 0.78776,-0.78776 1.890623,-0.78776 1.102863,0 1.8763,-0.77343 0.787759,-0.78776 0.787759,-1.89063 v -5.32811 q 0,-1.10287 -0.787759,-1.89063 -0.773437,-0.78776 -1.8763,-0.78776 -1.102863,0 -1.890623,-0.77343 -0.773436,-0.78776 -0.773436,-1.89063 0,-1.10286 0.773436,-1.89062 0.78776,-0.77344 1.890623,-0.77344 1.102863,0 1.8763,-0.77343 0.787759,-0.78776 0.787759,-1.89063 0,-1.10286 0.773437,-1.89062 0.78776,-0.77343 1.890623,-0.77343 1.102863,0 1.890623,0.77343 0.773436,0.78776 0.773436,1.89062 v 15.99868 q 0,1.10287 0.78776,1.89063 0.773436,0.77343 1.8763,0.77343 1.102863,0 1.890623,0.78776 0.787756,0.77344 0.787756,1.8763 0,1.10287 -0.787756,1.89063 -0.78776,0.77343 -1.890623,0.77343 z m 25.782427,0 q -1.10287,0 -1.89062,-0.77343 -0.77344,-0.78776 -0.77344,-1.89063 v -7.99218 q 0,-2.20572 1.56119,-3.76692 1.54688,-1.57552 3.76693,-1.57552 h 2.66406 q 1.10286,0 1.89062,-0.77343 0.77344,-0.78776 0.77344,-1.89063 0,-1.10286 -0.77344,-1.89062 -0.78776,-0.77344 -1.89062,-0.77344 h -5.32812 q -1.10287,0 -1.89062,-0.77343 -0.77344,-0.78776 -0.77344,-1.89063 0,-1.10286 0.77344,-1.89062 0.78775,-0.77343 1.89062,-0.77343 h 7.99218 q 2.20572,0 3.76692,1.56119 1.57552,1.5612 1.57552,3.76692 v 5.32812 q 0,2.22005 -1.57552,3.78125 -1.54687,1.56119 -3.76692,1.56119 h -2.66406 q -1.10287,0 -1.89063,0.77344 -0.77343,0.78776 -0.77343,1.89062 0,1.10287 0.77343,1.89063 0.78776,0.77343 1.89063,0.77343 h 5.32812 q 1.10286,0 1.89062,0.78776 0.78776,0.77344 0.78776,1.8763 0,1.10287 -0.78776,1.89063 -0.78776,0.77343 -1.89062,0.77343 z m 25.78242,0 q -1.10286,0 -1.89062,-0.77343 -0.77344,-0.78776 -0.77344,-1.89063 0,-1.10286 0.77344,-1.8763 0.78776,-0.78776 1.89062,-0.78776 h 5.32812 q 1.10287,0 1.89062,-0.77343 0.77344,-0.78776 0.77344,-1.89063 0,-1.10286 -0.77344,-1.89062 -0.78775,-0.77344 -1.89062,-0.77344 h -5.32812 q -1.10286,0 -1.89062,-0.78775 -0.77344,-0.77344 -0.77344,-1.8763 v -10.67057 q 0,-1.10286 0.77344,-1.89062 0.78776,-0.77343 1.89062,-0.77343 h 10.65624 q 1.10286,0 1.89062,0.77343 0.78776,0.78776 0.78776,1.89062 0,1.10287 -0.78776,1.89063 -0.78776,0.77343 -1.89062,0.77343 h -5.32812 q -1.10286,0 -1.89062,0.77344 -0.77344,0.78776 -0.77344,1.89062 0,1.10287 0.77344,1.89063 0.78776,0.77343 1.89062,0.77343 h 2.66406 q 2.22005,0 3.76692,1.57552 1.57552,1.5612 1.57552,3.76692 v 5.32812 q 0,2.22005 -1.57552,3.76693 -1.56119,1.56119 -3.76692,1.56119 z m -123.584003,27.188 q 1.102863,0 1.890623,-0.77344 0.773437,-0.78776 0.773437,-1.89062 0,-1.10287 -0.773437,-1.89063 -0.78776,-0.77343 -1.890623,-0.77343 -1.102863,0 -1.890623,0.77343 -0.773436,0.78776 -0.773436,1.89063 0,1.10286 0.773436,1.89062 0.78776,0.77344 1.890623,0.77344 z m 0,-10.67056 q 1.102863,0 1.890623,-0.77344 0.773437,-0.78776 0.773437,-1.89062 0,-1.10287 -0.773437,-1.89063 -0.78776,-0.77343 -1.890623,-0.77343 -1.102863,0 -1.890623,0.77343 -0.773436,0.78776 -0.773436,1.89063 0,1.10286 0.773436,1.89062 0.78776,0.77344 1.890623,0.77344 z m -5.3281188,15.99868 q -1.1028633,0 -1.8906228,-0.77344 -0.7734367,-0.78776 -0.7734367,-1.89062 v -21.3268 q 0,-1.10287 0.7734367,-1.89062 0.7877595,-0.77344 1.8906228,-0.77344 h 7.9921788 q 2.220049,0 3.766922,1.56119 1.575519,1.5612 1.575519,3.76693 v 5.32812 q 0,1.10286 -0.787759,1.89062 -0.78776,0.78776 -1.890623,0.78776 1.102863,0 1.890623,0.77344 0.787759,0.78775 0.787759,1.89062 v 5.32812 q 0,2.22005 -1.575519,3.76692 -1.561196,1.5612 -3.766922,1.5612 z m 25.7824248,0 q -1.102863,0 -1.890623,-0.77344 -0.773436,-0.78776 -0.773436,-1.89062 0,-1.10287 0.773436,-1.8763 0.78776,-0.78776 1.890623,-0.78776 1.102863,0 1.8763,-0.77344 0.78776,-0.78776 0.78776,-1.89062 v -5.32812 q 0,-1.10286 -0.78776,-1.89062 -0.773437,-0.78776 -1.8763,-0.78776 -1.102863,0 -1.890623,-0.77344 -0.773436,-0.78776 -0.773436,-1.89062 0,-1.10287 0.773436,-1.89063 0.78776,-0.77343 1.890623,-0.77343 h 5.328119 q 1.102863,0 1.890623,0.77343 0.773436,0.78776 0.773436,1.89063 v 10.67056 q 0,1.10286 0.78776,1.89062 0.773437,0.77344 1.8763,0.77344 1.102863,0 1.890623,0.78776 0.787759,0.77343 0.787759,1.8763 0,1.10286 -0.787759,1.89062 -0.78776,0.77344 -1.890623,0.77344 z m 3.322913,-22.65883 q -0.54427,0 -0.930989,-0.38672 -0.401041,-0.40104 -0.401041,-0.94531 v -1.33203 q 0,-0.55859 0.401041,-0.94531 0.386719,-0.38672 0.930989,-0.38672 h 2.678382 q 0.544271,0 0.930989,0.38672 0.401041,0.38672 0.401041,0.94531 v 1.33203 q 0,0.54427 -0.401041,0.94531 -0.386718,0.38672 -0.930989,0.38672 z m 22.459512,22.65883 q -1.102863,0 -1.890623,-0.77344 -0.773436,-0.78776 -0.773436,-1.89062 v -13.33462 q 0,-2.20573 1.561196,-3.76693 1.561196,-1.56119 3.766922,-1.56119 h 7.992179 q 1.102863,0 1.890623,0.77343 0.787759,0.78776 0.787759,1.89063 0,1.10286 -0.787759,1.89062 -0.78776,0.77344 -1.890623,0.77344 h -5.328119 q -1.102863,0 -1.890623,0.78776 -0.773437,0.78776 -0.773437,1.89062 v 10.65624 q 0,1.10286 -0.787759,1.89062 -0.773437,0.77344 -1.8763,0.77344 z m 33.774603,0 q -2.205726,0 -3.766922,-1.5612 -1.561197,-1.54687 -1.561197,-3.76692 v -7.99218 q 0,-1.10286 -0.787759,-1.89062 -0.773437,-0.78776 -1.8763,-0.78776 -1.102863,0 -1.890623,-0.77344 -0.773436,-0.78776 -0.773436,-1.89062 0,-1.10287 0.773436,-1.89063 0.78776,-0.77343 1.890623,-0.77343 1.102863,0 1.8763,-0.77344 0.787759,-0.78776 0.787759,-1.89062 0,-1.10287 0.773437,-1.89062 0.78776,-0.77344 1.890623,-0.77344 1.102863,0 1.890623,0.77344 0.773436,0.78775 0.773436,1.89062 0,1.10286 0.78776,1.89062 0.773436,0.77344 1.8763,0.77344 1.102863,0 1.890623,0.77343 0.787756,0.78776 0.787756,1.89063 0,1.10286 -0.787756,1.89062 -0.78776,0.77344 -1.890623,0.77344 -1.102864,0 -1.8763,0.78776 -0.78776,0.78776 -0.78776,1.89062 v 5.32812 q 0,1.10286 0.78776,1.89062 0.773436,0.77344 1.8763,0.77344 1.102863,0 1.890623,0.78776 0.787756,0.77343 0.787756,1.8763 0,1.10286 -0.787756,1.89062 -0.78776,0.77344 -1.890623,0.77344 z m 17.790249,0 q -1.10287,0 -1.89062,-0.77344 -0.77344,-0.78776 -0.77344,-1.89062 V 387.1539 q 0,-0.0143 0,-0.0143 v -5.32812 q 0,-1.10287 0.77344,-1.89062 0.78775,-0.77344 1.89062,-0.77344 1.10286,0 1.8763,0.77344 0.78776,0.78775 0.78776,1.89062 0,1.10286 0.77343,1.89062 0.78776,0.77344 1.89063,0.77344 h 2.66406 q 2.20572,0 3.76692,1.56119 1.57552,1.5612 1.57552,3.76693 v 13.33462 q 0,1.10286 -0.78776,1.89062 -0.78776,0.77344 -1.89062,0.77344 -1.10287,0 -1.8763,-0.77344 -0.78776,-0.78776 -0.78776,-1.89062 v -10.65624 q 0,-1.10286 -0.77344,-1.89062 -0.78776,-0.78776 -1.89062,-0.78776 -1.10287,0 -1.89063,0.78776 -0.77343,0.78776 -0.77343,1.89062 v 10.65624 q 0,1.10286 -0.78776,1.89062 -0.77344,0.77344 -1.8763,0.77344 z m 31.11054,-5.32812 q 1.10287,0 1.89062,-0.77344 0.77344,-0.78776 0.77344,-1.89062 v -5.32812 q 0,-1.10286 -0.77344,-1.89062 -0.78775,-0.78776 -1.89062,-0.78776 -1.10286,0 -1.89062,0.78776 -0.77344,0.78776 -0.77344,1.89062 v 5.32812 q 0,1.10286 0.77344,1.89062 0.78776,0.77344 1.89062,0.77344 z m -2.66406,5.32812 q -2.20572,0 -3.76692,-1.5612 -1.5612,-1.54687 -1.5612,-3.76692 v -10.67056 q 0,-2.20573 1.5612,-3.76693 1.5612,-1.56119 3.76692,-1.56119 h 2.66406 q 1.10287,0 1.89062,-0.77344 0.77344,-0.78776 0.77344,-1.89062 0,-1.10287 0.78776,-1.89062 0.77344,-0.77344 1.8763,-0.77344 1.10286,0 1.89062,0.77344 0.78776,0.78775 0.78776,1.89062 v 5.32812 q 0,0 0,0.0143 v 15.98436 q 0,1.10286 -0.78776,1.89062 -0.78776,0.77344 -1.89062,0.77344 z m 29.77852,-5.32812 q 0.55859,0 0.94531,-0.38672 0.38672,-0.38672 0.38672,-0.94531 0,-0.54427 -0.38672,-0.94531 -0.38672,-0.38672 -0.94531,-0.38672 h -2.66406 q -0.5586,0 -0.94531,0.38672 -0.38672,0.40104 -0.38672,0.94531 0,0.55859 0.38672,0.94531 0.38671,0.38672 0.94531,0.38672 z m -3.99609,5.32812 q -2.20573,0 -3.76693,-1.5612 -1.56119,-1.54687 -1.56119,-3.76692 v -2.66406 q 0,-2.20573 1.56119,-3.76693 1.54688,-1.56119 3.76693,-1.56119 h 3.99609 q 0.55859,0 0.94531,-0.40104 0.38672,-0.38672 0.38672,-0.94531 0,-0.54427 -0.38672,-0.93099 -0.38672,-0.40104 -0.94531,-0.40104 h -6.66015 q -1.10287,0 -1.89063,-0.77344 -0.77343,-0.78776 -0.77343,-1.89062 0,-1.10287 0.77343,-1.89063 0.78776,-0.77343 1.89063,-0.77343 h 7.99218 q 2.20572,0 3.76692,1.56119 1.57552,1.5612 1.57552,3.76693 v 13.33462 q 0,1.10286 -0.78776,1.89062 -0.78776,0.77344 -1.89062,0.77344 z m 33.7746,5.32811 q -1.10286,0 -1.8763,-0.78775 -0.78776,-0.77344 -0.78776,-1.8763 0,-1.10287 -0.77344,-1.89063 -0.78776,-0.77343 -1.89062,-0.77343 h -2.66406 q -2.20572,0 -3.76692,-1.5612 -1.5612,-1.54687 -1.5612,-3.76692 v -13.33462 q 0,-1.10287 0.77344,-1.89063 0.78776,-0.77343 1.89062,-0.77343 1.10287,0 1.8763,0.77343 0.78776,0.78776 0.78776,1.89063 v 10.67056 q 0,1.10286 0.77344,1.89062 0.78776,0.77344 1.89062,0.77344 1.10286,0 1.89062,-0.77344 0.77344,-0.78776 0.77344,-1.89062 v -10.67056 q 0,-1.10287 0.78776,-1.89063 0.77344,-0.77343 1.8763,-0.77343 1.10286,0 1.89062,0.77343 0.78776,0.78776 0.78776,1.89063 v 15.99868 q 0,0 0,0 v 5.32812 q 0,1.10286 -0.78776,1.8763 -0.78776,0.78775 -1.89062,0.78775 z m 40.90861,-5.32811 q -1.10286,0 -1.89062,-0.77344 -0.77344,-0.78776 -0.77344,-1.89062 0,-1.10287 0.77344,-1.8763 0.78776,-0.78776 1.89062,-0.78776 h 5.32812 q 1.10286,0 1.89062,-0.77344 0.77344,-0.78776 0.77344,-1.89062 0,-1.10287 -0.77344,-1.89063 -0.78776,-0.77343 -1.89062,-0.77343 h -2.66406 q -2.22005,0 -3.76692,-1.5612 -1.5612,-1.56119 -1.5612,-3.78124 v -5.32812 q 0,-2.20573 1.5612,-3.76693 1.5612,-1.56119 3.76692,-1.56119 h 7.99218 q 1.10286,0 1.89062,0.77344 0.78776,0.78775 0.78776,1.89062 0,1.10286 -0.78776,1.89062 -0.78776,0.77344 -1.89062,0.77344 h -5.32812 q -1.10286,0 -1.89062,0.77343 -0.77344,0.78776 -0.77344,1.89063 0,1.10286 0.77344,1.89062 0.78776,0.77344 1.89062,0.77344 h 2.66406 q 2.22005,0 3.76692,1.57552 1.57552,1.56119 1.57552,3.76692 v 5.32812 q 0,2.22005 -1.57552,3.76692 -1.56119,1.5612 -3.76692,1.5612 z m 28.44649,0 q -2.22005,0 -3.76693,-1.5612 -1.56119,-1.5612 -1.56119,-3.76692 v -13.33462 q 0,-1.10287 0.77343,-1.89063 0.78776,-0.77343 1.89063,-0.77343 1.10286,0 1.8763,0.77343 0.78776,0.78776 0.78776,1.89063 v 10.67056 q 0,1.10286 0.77343,1.89062 0.78776,0.77344 1.89063,0.77344 1.10286,0 1.89062,-0.77344 0.77344,-0.78776 0.77344,-1.89062 v -10.67056 q 0,-1.10287 0.78776,-1.89063 0.77343,-0.77343 1.8763,-0.77343 1.10286,0 1.89062,0.77343 0.78776,0.78776 0.78776,1.89063 v 13.33462 q 0,2.22005 -1.57552,3.76692 -1.5612,1.5612 -3.76692,1.5612 z m 23.11838,0 q -1.10287,0 -1.89063,-0.77344 -0.77343,-0.78776 -0.77343,-1.89062 v -13.33462 q 0,-2.20573 1.56119,-3.76693 1.5612,-1.56119 3.76693,-1.56119 h 7.99218 q 1.10286,0 1.89062,0.77343 0.78776,0.78776 0.78776,1.89063 0,1.10286 -0.78776,1.89062 -0.78776,0.77344 -1.89062,0.77344 h -5.32812 q -1.10287,0 -1.89063,0.78776 -0.77343,0.78776 -0.77343,1.89062 v 10.65624 q 0,1.10286 -0.78776,1.89062 -0.77344,0.77344 -1.8763,0.77344 z m 31.11053,-5.32812 q 1.10286,0 1.89062,-0.77344 0.77344,-0.78776 0.77344,-1.89062 v -5.32812 q 0,-1.10286 -0.77344,-1.89062 -0.78776,-0.78776 -1.89062,-0.78776 -1.10287,0 -1.89063,0.78776 -0.77343,0.78776 -0.77343,1.89062 v 5.32812 q 0,1.10286 0.77343,1.89062 0.78776,0.77344 1.89063,0.77344 z m -5.32812,10.65623 q -1.10287,0 -1.89063,-0.78775 -0.77343,-0.77344 -0.77343,-1.8763 v -5.32812 q 0,0 0,0 V 387.1539 q 0,-1.10286 0.77343,-1.89062 0.78776,-0.78776 1.89063,-0.78776 h 7.99218 q 2.20572,0 3.76692,1.56119 1.57552,1.5612 1.57552,3.76693 v 10.67056 q 0,2.22005 -1.57552,3.76692 -1.5612,1.5612 -3.76692,1.5612 h -2.66406 q -1.10287,0 -1.89063,0.77343 -0.77343,0.78776 -0.77343,1.89063 0,1.10286 -0.78776,1.8763 -0.77344,0.78775 -1.8763,0.78775 z m 25.78244,-5.32811 q -1.10287,0 -1.89063,-0.77344 -0.77343,-0.78776 -0.77343,-1.89062 v -13.33462 q 0,-2.20573 1.56119,-3.76693 1.5612,-1.56119 3.76693,-1.56119 h 7.99218 q 1.10286,0 1.89062,0.77343 0.78776,0.78776 0.78776,1.89063 0,1.10286 -0.78776,1.89062 -0.78776,0.77344 -1.89062,0.77344 h -5.32812 q -1.10287,0 -1.89063,0.78776 -0.77343,0.78776 -0.77343,1.89062 v 10.65624 q 0,1.10286 -0.78776,1.89062 -0.77344,0.77344 -1.8763,0.77344 z m 25.78241,0 q -1.10287,0 -1.89063,-0.77344 -0.77343,-0.78776 -0.77343,-1.89062 0,-1.10287 0.77343,-1.8763 0.78776,-0.78776 1.89063,-0.78776 1.10286,0 1.8763,-0.77344 0.78776,-0.78776 0.78776,-1.89062 v -5.32812 q 0,-1.10286 -0.78776,-1.89062 -0.77344,-0.78776 -1.8763,-0.78776 -1.10287,0 -1.89063,-0.77344 -0.77343,-0.78776 -0.77343,-1.89062 0,-1.10287 0.77343,-1.89063 0.78776,-0.77343 1.89063,-0.77343 h 5.32812 q 1.10286,0 1.89062,0.77343 0.77344,0.78776 0.77344,1.89063 v 10.67056 q 0,1.10286 0.78775,1.89062 0.77344,0.77344 1.8763,0.77344 1.10287,0 1.89063,0.78776 0.78776,0.77343 0.78776,1.8763 0,1.10286 -0.78776,1.89062 -0.78776,0.77344 -1.89063,0.77344 z m 3.32291,-22.65883 q -0.54427,0 -0.93099,-0.38672 -0.40104,-0.40104 -0.40104,-0.94531 v -1.33203 q 0,-0.55859 0.40104,-0.94531 0.38672,-0.38672 0.93099,-0.38672 h 2.67838 q 0.54427,0 0.93099,0.38672 0.40104,0.38672 0.40104,0.94531 v 1.33203 q 0,0.54427 -0.40104,0.94531 -0.38672,0.38672 -0.93099,0.38672 z m 22.45953,22.65883 q -1.10287,0 -1.89063,-0.77344 -0.77343,-0.78776 -0.77343,-1.89062 0,-1.10287 0.77343,-1.8763 0.78776,-0.78776 1.89063,-0.78776 h 6.66015 q 0.55859,0 0.94531,-0.38672 0.38672,-0.38672 0.38672,-0.94531 0,-0.54427 -0.38672,-0.94531 -0.38672,-0.38672 -0.94531,-0.38672 h -3.99609 q -2.22005,0 -3.76693,-1.5612 -1.56119,-1.56119 -1.56119,-3.76692 v -2.67838 q 0,-2.20573 1.56119,-3.76693 1.5612,-1.56119 3.76693,-1.56119 h 7.99218 q 1.10286,0 1.89062,0.77343 0.78776,0.78776 0.78776,1.89063 0,1.10286 -0.78776,1.89062 -0.78776,0.77344 -1.89062,0.77344 h -6.66015 q -0.5586,0 -0.94531,0.40104 -0.38672,0.38672 -0.38672,0.93099 0,0.55859 0.38672,0.94531 0.38671,0.40104 0.94531,0.40104 h 3.99609 q 2.22005,0 3.76692,1.56119 1.57552,1.5612 1.57552,3.76693 v 2.66406 q 0,2.22005 -1.57552,3.76692 -1.5612,1.5612 -3.76692,1.5612 z m 32.44256,-13.3203 q 0.55859,0 0.94531,-0.40104 0.38672,-0.38672 0.38672,-0.94531 0,-0.54427 -0.38672,-0.93099 -0.38672,-0.40104 -0.94531,-0.40104 h -2.66406 q -0.5586,0 -0.94532,0.40104 -0.38671,0.38672 -0.38671,0.93099 0,0.55859 0.38671,0.94531 0.38672,0.40104 0.94532,0.40104 z m -3.99609,13.3203 q -2.20573,0 -3.76693,-1.5612 -1.56119,-1.54687 -1.56119,-3.76692 v -10.67056 q 0,-2.20573 1.56119,-3.76693 1.5612,-1.56119 3.76693,-1.56119 h 5.32812 q 2.20572,0 3.76692,1.56119 1.57552,1.5612 1.57552,3.76693 v 5.34244 q 0,1.10286 -0.78776,1.89062 -0.78776,0.77344 -1.89063,0.77344 h -6.66014 q -0.5586,0 -0.94532,0.38672 -0.38671,0.40104 -0.38671,0.94531 0,0.55859 0.38671,0.94531 0.38672,0.38672 0.94532,0.38672 h 6.66014 q 1.10287,0 1.89063,0.78776 0.78776,0.77343 0.78776,1.8763 0,1.10286 -0.78776,1.89062 -0.78776,0.77344 -1.89063,0.77344 z M 15.316397,438.31843 q -1.102863,0 -1.890623,-0.77344 -0.773436,-0.78776 -0.773436,-1.89062 v -2.66406 q 0,-1.10286 -0.78776,-1.89062 -0.773436,-0.77344 -1.8762998,-0.77344 -1.1028633,0 -1.8906228,-0.77344 -0.7734367,-0.78776 -0.7734367,-1.89062 0,-1.10286 0.7734367,-1.89062 0.7877595,-0.77344 1.8906228,-0.77344 1.1028638,0 1.8762998,-0.78776 0.78776,-0.78776 0.78776,-1.89062 v -5.32812 q 0,-2.20573 1.561196,-3.76692 1.561196,-1.5612 3.766923,-1.5612 h 2.664059 q 1.102863,0 1.890623,0.77344 0.787759,0.78776 0.787759,1.89062 0,1.10286 -0.787759,1.89062 -0.78776,0.77344 -1.890623,0.77344 -1.102863,0 -1.8763,0.77344 -0.787759,0.78776 -0.787759,1.89062 v 2.66406 q 0,1.10286 0.787759,1.89062 0.773437,0.78776 1.8763,0.78776 1.102863,0 1.890623,0.77344 0.787759,0.78776 0.787759,1.89062 0,1.10286 -0.787759,1.89062 -0.78776,0.77344 -1.890623,0.77344 -1.102863,0 -1.8763,0.77344 -0.787759,0.78776 -0.787759,1.89062 v 2.66406 q 0,1.10286 -0.773437,1.89062 -0.78776,0.77344 -1.890623,0.77344 z m 20.454306,-10.65624 q -1.102863,0 -1.890623,-0.78776 -0.773436,-0.77343 -0.773436,-1.8763 0,-1.10286 0.773436,-1.89062 0.78776,-0.78776 1.890623,-0.78776 h 10.656238 q 1.102863,0 1.890623,0.78776 0.787759,0.78776 0.787759,1.89062 0,1.10287 -0.787759,1.8763 -0.78776,0.78776 -1.890623,0.78776 z m 31.110544,5.32812 q 1.102863,0 1.890623,-0.77344 0.773436,-0.78776 0.773436,-1.89062 v -5.32812 q 0,-1.10286 -0.773436,-1.89062 -0.78776,-0.78776 -1.890623,-0.78776 -1.102863,0 -1.890623,0.78776 -0.773437,0.78776 -0.773437,1.89062 v 5.32812 q 0,1.10286 0.773437,1.89062 0.78776,0.77344 1.890623,0.77344 z m -2.66406,5.32812 q -2.205726,0 -3.766922,-1.5612 -1.561196,-1.54687 -1.561196,-3.76692 v -10.67056 q 0,-2.20573 1.561196,-3.76692 1.561196,-1.5612 3.766922,-1.5612 h 2.66406 q 1.102863,0 1.890623,-0.77344 0.773436,-0.78776 0.773436,-1.89062 0,-1.10286 0.78776,-1.89062 0.773436,-0.77344 1.8763,-0.77344 1.102863,0 1.890623,0.77344 0.787759,0.78776 0.787759,1.89062 v 5.32812 q 0,0 0,0.0143 v 15.98436 q 0,1.10286 -0.787759,1.89062 -0.78776,0.77344 -1.890623,0.77344 z m 29.778515,-13.3203 q 0.558593,0 0.945311,-0.40104 0.386718,-0.38672 0.386718,-0.94531 0,-0.54427 -0.386718,-0.93099 -0.386718,-0.40104 -0.945311,-0.40104 h -2.66406 q -0.558593,0 -0.945311,0.40104 -0.386719,0.38672 -0.386719,0.93099 0,0.55859 0.386719,0.94531 0.386718,0.40104 0.945311,0.40104 z m -3.99609,13.3203 q -2.205726,0 -3.766922,-1.5612 -1.561196,-1.54687 -1.561196,-3.76692 v -10.67056 q 0,-2.20573 1.561196,-3.76692 1.561196,-1.5612 3.766922,-1.5612 h 5.328119 q 2.205727,0 3.766923,1.5612 1.575516,1.56119 1.575516,3.76692 v 5.34244 q 0,1.10286 -0.787756,1.89062 -0.78776,0.77344 -1.890623,0.77344 h -6.660149 q -0.558593,0 -0.945311,0.38672 -0.386719,0.40104 -0.386719,0.94531 0,0.55859 0.386719,0.94531 0.386718,0.38672 0.945311,0.38672 h 6.660149 q 1.102863,0 1.890623,0.78776 0.787756,0.77344 0.787756,1.8763 0,1.10286 -0.787756,1.89062 -0.78776,0.77344 -1.890623,0.77344 z m 29.778518,-13.3203 q 0.55859,0 0.94531,-0.40104 0.38672,-0.38672 0.38672,-0.94531 0,-0.54427 -0.38672,-0.93099 -0.38672,-0.40104 -0.94531,-0.40104 h -2.66406 q -0.5586,0 -0.94531,0.40104 -0.38672,0.38672 -0.38672,0.93099 0,0.55859 0.38672,0.94531 0.38671,0.40104 0.94531,0.40104 z m -3.99609,13.3203 q -2.20573,0 -3.76693,-1.5612 -1.56119,-1.54687 -1.56119,-3.76692 v -10.67056 q 0,-2.20573 1.56119,-3.76692 1.5612,-1.5612 3.76693,-1.5612 h 5.32812 q 2.20572,0 3.76692,1.5612 1.57552,1.56119 1.57552,3.76692 v 5.34244 q 0,1.10286 -0.78776,1.89062 -0.78776,0.77344 -1.89062,0.77344 h -6.66015 q -0.5586,0 -0.94531,0.38672 -0.38672,0.40104 -0.38672,0.94531 0,0.55859 0.38672,0.94531 0.38671,0.38672 0.94531,0.38672 h 6.66015 q 1.10286,0 1.89062,0.78776 0.78776,0.77344 0.78776,1.8763 0,1.10286 -0.78776,1.89062 -0.78776,0.77344 -1.89062,0.77344 z m 23.11836,0 q -1.10286,0 -1.89062,-0.77344 -0.77344,-0.78776 -0.77344,-1.89062 v -15.99868 q 0,-1.10286 0.77344,-1.89062 0.78776,-0.77344 1.89062,-0.77344 1.10287,0 1.8763,0.77344 0.27214,0.27213 0.44401,0.55859 h 0.0143 l 2.99348,6.0013 3.00781,-6.0013 h 0.0143 q 0.17188,-0.28646 0.42969,-0.55859 0.77344,-0.77344 1.8763,-0.77344 1.10286,0 1.89062,0.77344 0.78776,0.78776 0.78776,1.89062 v 15.99868 q 0,1.10286 -0.78776,1.89062 -0.78776,0.77344 -1.89062,0.77344 -1.10286,0 -1.8763,-0.77344 -0.78776,-0.78776 -0.78776,-1.89062 v -6.0013 l -0.58724,1.18881 q -0.1289,0.55859 -0.57291,0.98828 -0.61589,0.6302 -1.50391,0.6302 -0.88802,0 -1.5039,-0.6302 -0.44401,-0.42969 -0.57292,-0.98828 l -0.58724,-1.18881 v 6.0013 q 0,1.10286 -0.78776,1.89062 -0.77343,0.77344 -1.8763,0.77344 z m 30.22253,0 q -0.74479,0 -1.26042,-0.51563 -0.51562,-0.51562 -0.51562,-1.26041 v -1.77604 q 0,-0.73047 0.51562,-1.24609 0.52995,-0.52995 1.26042,-0.52995 h 1.77604 q 0.74479,0 1.26041,0.52995 0.51563,0.51562 0.51563,1.24609 v 1.77604 q 0,0.74479 -0.51563,1.26041 -0.52995,0.51563 -1.26041,0.51563 z m 26.67044,-5.32812 q 1.10286,0 1.89062,-0.77344 0.77344,-0.78776 0.77344,-1.89062 v -5.32812 q 0,-1.10286 -0.77344,-1.89062 -0.78776,-0.78776 -1.89062,-0.78776 -1.10286,0 -1.89062,0.78776 -0.77344,0.78776 -0.77344,1.89062 v 5.32812 q 0,1.10286 0.77344,1.89062 0.78776,0.77344 1.89062,0.77344 z m -2.66406,5.32812 q -2.20572,0 -3.76692,-1.5612 -1.5612,-1.54687 -1.5612,-3.76692 v -10.67056 q 0,-2.20573 1.5612,-3.76692 1.5612,-1.5612 3.76692,-1.5612 h 5.32812 q 2.20573,0 3.76692,1.5612 1.57552,1.56119 1.57552,3.76692 v 10.67056 q 0,2.22005 -1.57552,3.76692 -1.56119,1.5612 -3.76692,1.5612 z m 23.11837,0 q -1.10287,0 -1.89063,-0.77344 -0.77343,-0.78776 -0.77343,-1.89062 v -13.33462 q 0,-2.20573 1.56119,-3.76692 1.5612,-1.5612 3.76693,-1.5612 h 7.99218 q 1.10286,0 1.89062,0.77344 0.78776,0.78776 0.78776,1.89062 0,1.10286 -0.78776,1.89062 -0.78776,0.77344 -1.89062,0.77344 h -5.32812 q -1.10287,0 -1.89063,0.78776 -0.77343,0.78776 -0.77343,1.89062 v 10.65624 q 0,1.10286 -0.78776,1.89062 -0.77344,0.77344 -1.8763,0.77344 z m 31.78372,-13.3203 q 0.54427,0 0.93099,-0.40104 0.40104,-0.38672 0.40104,-0.94531 0,-0.54427 -0.40104,-0.93099 -0.38672,-0.40104 -0.93099,-0.40104 h -2.00521 q -0.55859,0 -0.94531,0.40104 -0.38672,0.38672 -0.38672,0.93099 0,0.55859 0.38672,0.94531 0.38672,0.40104 0.94531,0.40104 z m 4.65494,18.64842 q -1.10286,0 -1.8763,-0.78776 -0.78776,-0.77344 -0.78776,-1.8763 0,-1.10286 -0.77344,-1.89062 -0.78776,-0.77344 -1.89062,-0.77344 h -5.32812 q -1.10286,0 -1.89062,-0.77344 -0.77344,-0.77343 -0.77344,-1.8763 v -2.67838 q 0,-1.10286 0.77344,-1.8763 0.78776,-0.78776 1.89062,-0.78776 -1.10286,0 -1.89062,-0.77344 -0.77344,-0.78776 -0.77344,-1.89062 v -5.34244 q 0,-2.20573 1.5612,-3.76692 1.31771,-1.31771 3.09375,-1.51823 v -0.043 h 5.34244 q 0.83073,0 1.57552,0.22917 0.11458,-0.61589 0.57291,-1.07422 0.63021,-0.61589 1.51823,-0.61589 0.8737,0 1.5039,0.61589 0.63021,0.63021 0.63021,1.51823 0,0.87369 -0.63021,1.5039 -0.27213,0.27214 -0.58723,0.41537 0.74479,1.21744 0.74479,2.73567 v 2.67838 q 0,2.20573 -1.5612,3.76692 -1.5612,1.5612 -3.76692,1.5612 h -2.00521 q -0.54427,0 -0.94531,0.38672 -0.38672,0.40104 -0.38672,0.94531 0,0.55859 0.38672,0.94531 0.40104,0.38672 0.94531,0.38672 h 5.32812 q 1.10286,0 1.89062,0.78776 0.78776,0.77344 0.78776,1.8763 v 5.32812 q 0,1.10286 -0.78776,1.8763 -0.78776,0.78776 -1.89062,0.78776 z m 15.12619,-5.32812 q -1.10287,0 -1.89063,-0.77344 -0.77343,-0.78776 -0.77343,-1.89062 0,-0.73047 0.34375,-1.33203 h -0.0143 l 10.32682,-20.66794 v 0.67317 q 0,-1.10286 0.78776,-1.89062 0.77343,-0.77344 1.8763,-0.77344 1.10286,0 1.89062,0.77344 0.78776,0.78776 0.78776,1.89062 0,0.73047 -0.35807,1.33203 h 0.0143 l -10.65624,21.3268 v -0.0143 q -0.1862,0.30078 -0.45833,0.57291 -0.77344,0.77344 -1.8763,0.77344 z m 25.78244,0 q -1.10287,0 -1.89063,-0.77344 -0.77343,-0.78776 -0.77343,-1.89062 0,-1.10286 0.77343,-1.8763 0.78776,-0.78776 1.89063,-0.78776 h 6.66015 q 0.55859,0 0.94531,-0.38672 0.38672,-0.38672 0.38672,-0.94531 0,-0.54427 -0.38672,-0.94531 -0.38672,-0.38672 -0.94531,-0.38672 h -3.99609 q -2.22005,0 -3.76693,-1.5612 -1.56119,-1.56119 -1.56119,-3.76692 v -2.67838 q 0,-2.20573 1.56119,-3.76692 1.5612,-1.5612 3.76693,-1.5612 h 7.99218 q 1.10286,0 1.89062,0.77344 0.78776,0.78776 0.78776,1.89062 0,1.10286 -0.78776,1.89062 -0.78776,0.77344 -1.89062,0.77344 h -6.66015 q -0.5586,0 -0.94531,0.40104 -0.38672,0.38672 -0.38672,0.93099 0,0.55859 0.38672,0.94531 0.38671,0.40104 0.94531,0.40104 h 3.99609 q 2.22005,0 3.76692,1.5612 1.57552,1.56119 1.57552,3.76692 v 2.66406 q 0,2.22005 -1.57552,3.76692 -1.5612,1.5612 -3.76692,1.5612 z m 32.44256,-13.3203 q 0.55859,0 0.94531,-0.40104 0.38672,-0.38672 0.38672,-0.94531 0,-0.54427 -0.38672,-0.93099 -0.38672,-0.40104 -0.94531,-0.40104 h -2.66406 q -0.5586,0 -0.94531,0.40104 -0.38672,0.38672 -0.38672,0.93099 0,0.55859 0.38672,0.94531 0.38671,0.40104 0.94531,0.40104 z m -3.99609,13.3203 q -2.20573,0 -3.76693,-1.5612 -1.56119,-1.54687 -1.56119,-3.76692 v -10.67056 q 0,-2.20573 1.56119,-3.76692 1.5612,-1.5612 3.76693,-1.5612 h 5.32812 q 2.20572,0 3.76692,1.5612 1.57552,1.56119 1.57552,3.76692 v 5.34244 q 0,1.10286 -0.78776,1.89062 -0.78776,0.77344 -1.89062,0.77344 h -6.66015 q -0.5586,0 -0.94531,0.38672 -0.38672,0.40104 -0.38672,0.94531 0,0.55859 0.38672,0.94531 0.38671,0.38672 0.94531,0.38672 h 6.66015 q 1.10286,0 1.89062,0.78776 0.78776,0.77344 0.78776,1.8763 0,1.10286 -0.78776,1.89062 -0.78776,0.77344 -1.89062,0.77344 z m 31.11056,0 q -2.20573,0 -3.76693,-1.5612 -1.56119,-1.54687 -1.56119,-3.76692 v -7.99218 q 0,-1.10286 -0.78776,-1.89062 -0.77344,-0.78776 -1.8763,-0.78776 -1.10287,0 -1.89063,-0.77344 -0.77343,-0.78776 -0.77343,-1.89062 0,-1.10286 0.77343,-1.89062 0.78776,-0.77344 1.89063,-0.77344 1.10286,0 1.8763,-0.77344 0.78776,-0.78776 0.78776,-1.89062 0,-1.10286 0.77343,-1.89062 0.78776,-0.77344 1.89063,-0.77344 1.10286,0 1.89062,0.77344 0.77344,0.78776 0.77344,1.89062 0,1.10286 0.78776,1.89062 0.77343,0.77344 1.8763,0.77344 1.10286,0 1.89062,0.77344 0.78776,0.78776 0.78776,1.89062 0,1.10286 -0.78776,1.89062 -0.78776,0.77344 -1.89062,0.77344 -1.10287,0 -1.8763,0.78776 -0.78776,0.78776 -0.78776,1.89062 v 5.32812 q 0,1.10286 0.78776,1.89062 0.77343,0.77344 1.8763,0.77344 1.10286,0 1.89062,0.78776 0.78776,0.77344 0.78776,1.8763 0,1.10286 -0.78776,1.89062 -0.78776,0.77344 -1.89062,0.77344 z m 17.79023,0 q -1.10287,0 -1.89063,-0.77344 -0.77343,-0.78776 -0.77343,-1.89062 0,-1.10286 0.77343,-1.8763 0.78776,-0.78776 1.89063,-0.78776 h 6.66015 q 0.55859,0 0.94531,-0.38672 0.38672,-0.38672 0.38672,-0.94531 0,-0.54427 -0.38672,-0.94531 -0.38672,-0.38672 -0.94531,-0.38672 h -3.99609 q -2.22005,0 -3.76693,-1.5612 -1.56119,-1.56119 -1.56119,-3.76692 v -2.67838 q 0,-2.20573 1.56119,-3.76692 1.5612,-1.5612 3.76693,-1.5612 h 7.99217 q 1.10287,0 1.89063,0.77344 0.78776,0.78776 0.78776,1.89062 0,1.10286 -0.78776,1.89062 -0.78776,0.77344 -1.89063,0.77344 h -6.66014 q -0.5586,0 -0.94532,0.40104 -0.38671,0.38672 -0.38671,0.93099 0,0.55859 0.38671,0.94531 0.38672,0.40104 0.94532,0.40104 h 3.99609 q 2.22005,0 3.76692,1.5612 1.57552,1.56119 1.57552,3.76692 v 2.66406 q 0,2.22005 -1.57552,3.76692 -1.5612,1.5612 -3.76692,1.5612 z m 25.78244,0 q -1.10287,0 -1.89063,-0.77344 -0.77343,-0.78776 -0.77343,-1.89062 0,-0.73047 0.34375,-1.33203 h -0.0143 l 10.32682,-20.66794 v 0.67317 q 0,-1.10286 0.78776,-1.89062 0.77343,-0.77344 1.8763,-0.77344 1.10286,0 1.89062,0.77344 0.78776,0.78776 0.78776,1.89062 0,0.73047 -0.35808,1.33203 h 0.0143 l -10.65624,21.3268 v -0.0143 q -0.1862,0.30078 -0.45833,0.57291 -0.77344,0.77344 -1.8763,0.77344 z m 31.11053,-10.65624 q -0.54427,0 -0.94532,-0.38672 -0.38671,-0.40104 -0.38671,-0.94531 v -2.67838 q 0,-0.54427 0.38671,-0.93099 0.40105,-0.40104 0.94532,-0.40104 0.55859,0 0.94531,0.40104 0.38672,0.38672 0.38672,0.93099 v 2.67838 q 0,0.54427 -0.38672,0.94531 -0.38672,0.38672 -0.94531,0.38672 z m 0,5.32812 q 1.10286,0 1.89062,-0.77344 0.77344,-0.78776 0.77344,-1.89062 v -10.67056 q 0,-1.10286 -0.77344,-1.89062 -0.78776,-0.77344 -1.89062,-0.77344 -1.10287,0 -1.89063,0.77344 -0.77343,0.78776 -0.77343,1.89062 v 10.67056 q 0,1.10286 0.77343,1.89062 0.78776,0.77344 1.89063,0.77344 z m -2.66406,5.32812 q -2.22005,0 -3.76693,-1.5612 -1.56119,-1.56119 -1.56119,-3.76692 v -15.99868 q 0,-2.20573 1.56119,-3.76692 1.5612,-1.5612 3.76693,-1.5612 h 5.32812 q 2.22004,0 3.76692,1.5612 1.57552,1.56119 1.57552,3.76692 v 15.99868 q 0,2.22005 -1.57552,3.76692 -1.5612,1.5612 -3.76692,1.5612 z m 28.4465,-10.65624 q -0.54427,0 -0.94532,-0.38672 -0.38671,-0.40104 -0.38671,-0.94531 v -2.67838 q 0,-0.54427 0.38671,-0.93099 0.40105,-0.40104 0.94532,-0.40104 0.55859,0 0.94531,0.40104 0.38672,0.38672 0.38672,0.93099 v 2.67838 q 0,0.54427 -0.38672,0.94531 -0.38672,0.38672 -0.94531,0.38672 z m 0,5.32812 q 1.10286,0 1.89062,-0.77344 0.77344,-0.78776 0.77344,-1.89062 v -10.67056 q 0,-1.10286 -0.77344,-1.89062 -0.78776,-0.77344 -1.89062,-0.77344 -1.10287,0 -1.89063,0.77344 -0.77343,0.78776 -0.77343,1.89062 v 10.67056 q 0,1.10286 0.77343,1.89062 0.78776,0.77344 1.89063,0.77344 z m -2.66406,5.32812 q -2.22005,0 -3.76693,-1.5612 -1.56119,-1.56119 -1.56119,-3.76692 v -15.99868 q 0,-2.20573 1.56119,-3.76692 1.5612,-1.5612 3.76693,-1.5612 h 5.32812 q 2.22005,0 3.76692,1.5612 1.57552,1.56119 1.57552,3.76692 v 15.99868 q 0,2.22005 -1.57552,3.76692 -1.5612,1.5612 -3.76692,1.5612 z m 28.44647,-10.65624 q -0.54427,0 -0.94532,-0.38672 -0.38671,-0.40104 -0.38671,-0.94531 v -2.67838 q 0,-0.54427 0.38671,-0.93099 0.40105,-0.40104 0.94532,-0.40104 0.55859,0 0.94531,0.40104 0.38672,0.38672 0.38672,0.93099 v 2.67838 q 0,0.54427 -0.38672,0.94531 -0.38672,0.38672 -0.94531,0.38672 z m 0,5.32812 q 1.10286,0 1.89062,-0.77344 0.77344,-0.78776 0.77344,-1.89062 v -10.67056 q 0,-1.10286 -0.77344,-1.89062 -0.78776,-0.77344 -1.89062,-0.77344 -1.10287,0 -1.89063,0.77344 -0.77343,0.78776 -0.77343,1.89062 v 10.67056 q 0,1.10286 0.77343,1.89062 0.78776,0.77344 1.89063,0.77344 z m -2.66406,5.32812 q -2.22005,0 -3.76693,-1.5612 -1.56119,-1.56119 -1.56119,-3.76692 v -15.99868 q 0,-2.20573 1.56119,-3.76692 1.5612,-1.5612 3.76693,-1.5612 h 5.32812 q 2.22004,0 3.76692,1.5612 1.57552,1.56119 1.57552,3.76692 v 15.99868 q 0,2.22005 -1.57552,3.76692 -1.5612,1.5612 -3.76692,1.5612 z m 23.11838,0 q -1.10287,0 -1.89063,-0.77344 -0.77343,-0.78776 -0.77343,-1.89062 v -7.99218 q 0,-2.20573 1.56119,-3.76692 1.54688,-1.57552 3.76693,-1.57552 h 2.66406 q 1.10286,0 1.89062,-0.77344 0.77344,-0.78776 0.77344,-1.89062 0,-1.10286 -0.77344,-1.89062 -0.78776,-0.77344 -1.89062,-0.77344 h -5.32812 q -1.10287,0 -1.89063,-0.77344 -0.77343,-0.78776 -0.77343,-1.89062 0,-1.10286 0.77343,-1.89062 0.78776,-0.77344 1.89063,-0.77344 h 7.99218 q 2.20572,0 3.76692,1.5612 1.57552,1.56119 1.57552,3.76692 v 5.32812 q 0,2.22005 -1.57552,3.78125 -1.54688,1.56119 -3.76692,1.56119 h -2.66406 q -1.10287,0 -1.89063,0.77344 -0.77343,0.78776 -0.77343,1.89062 0,1.10286 0.77343,1.89062 0.78776,0.77344 1.89063,0.77344 h 5.32811 q 1.10287,0 1.89063,0.78776 0.78776,0.77344 0.78776,1.8763 0,1.10286 -0.78776,1.89062 -0.78776,0.77344 -1.89063,0.77344 z"
       id="text2"
       transform="matrix(0.20129167,0,0,0.20129167,1.5205014,-25.566748)"
       aria-label="2x Pony&#10;64 Pcs&#10;5 Color&#10;103125&#10;Birthday Surprise&#10;f-deem.org/sets/0002" /><path
       style="fill:#ffffff;fill-opacity:1;stroke-width:0.829061"
       d="m 64.516936,46.859752 c 0.01051,-0.26536 0.07316,-2.419785 0.139223,-4.787613 0.07925,-2.840201 0.131488,-4.334118 0.153516,-4.3903 0.04008,-0.102215 0.184331,-0.196637 0.300648,-0.19679 l 0.08438,-1.11e-4 -0.06109,-0.09649 c -0.406306,-0.641768 -0.456092,-1.097894 -0.182071,-1.668071 0.210685,-0.43839 0.340518,-0.602067 0.978986,-1.234186 0.937931,-0.928605 1.047408,-1.075281 1.174524,-1.573605 0.117231,-0.459574 -0.02565,-1.046742 -0.37326,-1.533942 -0.04852,-0.068 -0.179656,-0.208298 -0.291418,-0.311773 -0.210493,-0.194884 -0.330724,-0.382099 -0.330724,-0.51498 0,-0.171504 0.162592,-0.34115 0.326966,-0.34115 0.03449,0 0.132014,0.02084 0.216732,0.04631 0.08472,0.02547 0.207475,0.06143 0.272795,0.07993 0.173775,0.04919 0.683869,0.29049 0.898713,0.425141 0.59698,0.374151 1.402767,1.128113 1.663656,1.556655 0.630509,1.035687 0.720125,1.834028 0.309956,2.761227 -0.03251,0.07348 -0.07545,0.180371 -0.09541,0.237525 -0.01997,0.05715 -0.06016,0.170721 -0.08932,0.252371 -0.05992,0.167808 -0.13435,0.424327 -0.167974,0.578967 -0.01243,0.05715 -0.02327,0.347734 -0.0241,0.645733 -0.0011,0.423342 0.0069,0.541824 0.03679,0.541853 0.08156,8.2e-5 0.274232,0.123283 0.313943,0.200741 0.05256,0.102531 0.02505,-0.50356 0.329858,7.266489 0.04035,1.02878 0.08175,2.020818 0.09197,2.204528 l 0.0186,0.334019 H 69.870987 69.52915 l -0.01724,-0.215257 c -0.0095,-0.118391 -0.05062,-1.077027 -0.09143,-2.130301 -0.259589,-6.700383 -0.267166,-6.882911 -0.286496,-6.902241 -0.0076,-0.0076 -0.0867,-0.0011 -0.175629,0.01448 -0.516081,0.0907 -1.308667,0.173731 -2.304483,0.241407 -0.409102,0.02781 -0.617105,0.02861 -0.860602,0.0033 -0.17661,-0.01831 -0.326014,-0.0284 -0.33201,-0.0224 -0.0093,0.0093 -0.09777,2.958096 -0.210604,7.021676 -0.017,0.612369 -0.03929,1.31047 -0.04952,1.551335 l -0.0186,0.437937 H 64.840199 64.49786 Z m 12.989282,0.400823 c 0.08325,-0.12025 0.167774,-0.264926 0.284908,-0.487686 0.05732,-0.109011 0.118168,-0.206823 0.135215,-0.217359 0.01705,-0.01054 0.06506,-0.08167 0.106704,-0.158083 0.04165,-0.07641 0.13407,-0.239136 0.2054,-0.36161 0.165887,-0.284829 0.774158,-1.47943 0.827764,-1.62567 0.04559,-0.124366 0.172143,-0.429365 0.260452,-0.627693 0.03195,-0.07177 0.09,-0.225416 0.128978,-0.341443 0.119929,-0.356951 0.22328,-0.651422 0.26682,-0.760234 0.02288,-0.05715 0.08366,-0.244205 0.135088,-0.415668 0.05142,-0.171464 0.113784,-0.371876 0.138571,-0.445359 0.02479,-0.07348 0.06421,-0.207093 0.0876,-0.296907 0.02339,-0.08981 0.05471,-0.203381 0.06959,-0.25237 0.07713,-0.25396 0.229678,-0.842023 0.358144,-1.380614 0.07606,-0.318902 0.134302,-0.598667 0.293572,-1.410305 0.05485,-0.279532 0.208824,-1.365505 0.254679,-1.796282 0.07431,-0.698191 0.08913,-1.829306 0.03111,-2.37525 -0.0269,-0.253112 -0.06019,-0.506967 -0.07399,-0.564121 -0.01379,-0.05716 -0.0419,-0.204124 -0.0625,-0.326597 -0.05717,-0.340077 -0.258324,-1.180016 -0.369756,-1.543913 -0.06078,-0.198506 -0.108585,-0.336424 -0.210943,-0.608657 -0.04298,-0.114309 -0.09833,-0.264526 -0.122994,-0.333816 -0.02466,-0.06929 -0.181858,-0.403309 -0.349315,-0.742265 -0.265864,-0.538147 -0.371405,-0.722312 -0.688544,-1.201472 -0.03557,-0.05373 -0.102369,-0.154703 -0.148453,-0.224376 -0.355691,-0.537752 -1.073067,-1.371203 -1.615966,-1.877437 -0.570351,-0.531832 -0.634372,-0.588605 -1.139981,-1.010916 -0.900843,-0.75243 -1.182476,-0.99241 -1.512993,-1.289228 -0.471758,-0.423656 -0.96356,-0.855892 -1.084935,-0.95353 -0.05715,-0.04598 -0.171025,-0.144375 -0.253044,-0.218665 -0.08202,-0.07429 -0.30222,-0.268679 -0.489334,-0.431978 -0.697895,-0.609068 -1.725623,-1.640664 -1.830351,-1.837243 -0.04693,-0.08808 -0.04278,-0.20984 0.01378,-0.404399 0.116689,-0.401406 0.149252,-0.519284 0.144537,-0.523228 -0.03936,-0.03292 -0.931785,-0.46142 -1.031062,-0.495069 -0.07424,-0.02516 -0.181119,-0.06625 -0.237526,-0.09131 -0.10999,-0.04887 -0.508455,-0.175923 -0.763306,-0.243394 -0.08581,-0.02271 -0.226096,-0.06043 -0.311753,-0.08382 -0.478148,-0.13052 -1.203862,-0.28751 -1.714498,-0.37089 -0.512681,-0.08371 -1.007986,-0.121648 -1.588449,-0.121659 -0.738343,-1.3e-5 -1.241419,0.05131 -1.781436,0.18174 -0.59413,0.143501 -0.589349,0.141985 -1.113399,0.35324 -0.259721,0.1047 -0.829947,0.40614 -1.024326,0.541492 l -0.178144,0.124047 -0.0024,0.356999 c -0.0028,0.420374 -0.05094,0.628502 -0.22595,0.977776 -0.262716,0.524297 -0.780268,1.003623 -1.441344,1.334889 -0.529541,0.265354 -0.807376,0.340527 -1.269875,0.343588 -0.42343,0.0028 -0.875663,-0.151565 -1.41237,-0.482107 -0.317049,-0.19526 -0.8596,-0.693586 -1.024811,-0.941273 -0.03812,-0.05715 -0.110318,-0.161816 -0.160435,-0.232582 -0.133336,-0.18827 -0.37528,-0.68325 -0.463273,-0.947785 -0.199855,-0.60083 -0.266023,-1.087399 -0.2392,-1.759005 0.02752,-0.68926 0.112553,-1.044367 0.380323,-1.588448 0.461302,-0.937313 1.182789,-1.570562 2.326163,-2.041671 0.648563,-0.267231 1.691703,-0.489267 2.538549,-0.540344 0.663099,-0.03999 1.759992,0.09902 2.583084,0.327367 0.461704,0.128089 0.689028,0.202222 0.913993,0.298065 0.05362,0.02285 0.116794,0.04154 0.140373,0.04154 0.02359,0 0.11331,0.03219 0.199403,0.07153 0.342762,0.156631 0.578631,0.255065 0.611193,0.255065 0.01884,0 0.13134,0.04533 0.250003,0.100729 0.314652,0.146903 0.759806,0.343278 0.913478,0.402968 0.146805,0.05702 1.397533,0.650973 1.751746,0.831873 0.687739,0.351236 1.166049,0.6155 1.487973,0.8221 0.05526,0.03547 0.164968,0.102268 0.243793,0.148453 0.07883,0.04619 0.185711,0.113519 0.237525,0.149633 0.05182,0.03611 0.15433,0.100381 0.227814,0.142818 0.07349,0.04244 0.220454,0.129027 0.326598,0.192424 0.106144,0.0634 0.299875,0.171188 0.430513,0.239538 0.130639,0.06835 0.290969,0.1608 0.356288,0.205441 0.209741,0.143346 0.410398,0.267517 0.4323,0.267517 0.01172,0 0.03026,-0.05011 0.04122,-0.11134 0.01096,-0.06123 0.04415,-0.184824 0.07376,-0.274638 0.04883,-0.148053 0.09041,-0.284913 0.27067,-0.890719 0.03159,-0.106144 0.07833,-0.266473 0.103877,-0.356287 0.173506,-0.609931 0.275502,-0.922975 0.325669,-0.99954 0.06978,-0.106499 0.212427,-0.167284 0.337459,-0.143798 0.05907,0.0111 0.220985,0.02532 0.359788,0.03162 0.138803,0.0063 0.442346,0.02732 0.674538,0.04675 0.331276,0.02772 0.497476,0.02739 0.771955,-0.0014 0.387458,-0.04079 1.397937,-0.193798 2.146072,-0.324936 0.214473,-0.0376 0.924756,-0.199816 1.113398,-0.25429 0.29031,-0.08383 0.773983,-0.231053 0.905565,-0.275639 0.07348,-0.02489 0.173689,-0.05621 0.222678,-0.0696 0.256972,-0.07017 0.682929,-0.240112 0.805746,-0.321463 0.07683,-0.05089 0.174141,-0.0926 0.216249,-0.09269 0.134433,-2.92e-4 0.412409,-0.08713 0.803978,-0.251157 0.08982,-0.03762 0.270185,-0.110945 0.400825,-0.162937 0.130638,-0.05199 0.334612,-0.140383 0.453272,-0.196423 0.118662,-0.05604 0.235373,-0.101893 0.259357,-0.101893 0.02399,0 0.154032,-0.05246 0.288992,-0.11656 0.134961,-0.06411 0.365631,-0.16563 0.5126,-0.225606 0.146969,-0.05997 0.325934,-0.135217 0.397701,-0.167204 0.07177,-0.03198 0.225414,-0.08928 0.341442,-0.127306 0.116026,-0.03803 0.25772,-0.08957 0.314874,-0.114526 0.132876,-0.05803 0.735432,-0.243143 1.157934,-0.355746 0.965837,-0.257409 2.146518,-0.198244 3.16205,0.158453 0.09798,0.03442 0.218227,0.07274 0.267217,0.08515 0.04899,0.01242 0.129154,0.04238 0.178144,0.06655 0.049,0.02419 0.14501,0.06157 0.213379,0.08307 0.137891,0.04337 0.08965,0.06722 0.643927,-0.31836 0.100025,-0.06958 0.215267,-0.148735 0.256091,-0.175893 0.04082,-0.02716 0.145457,-0.09715 0.232516,-0.155546 0.08706,-0.05839 0.201889,-0.13289 0.255175,-0.16555 0.05326,-0.03266 0.155748,-0.103489 0.227686,-0.1574 0.13151,-0.09855 0.425288,-0.296275 0.604293,-0.406722 0.05295,-0.03266 0.15511,-0.103489 0.22705,-0.157399 0.131509,-0.09855 0.425287,-0.296275 0.604293,-0.406723 0.05295,-0.03266 0.155102,-0.103489 0.22705,-0.157399 0.131509,-0.09855 0.425287,-0.296275 0.604293,-0.406722 0.05295,-0.03266 0.155102,-0.10349 0.227049,-0.1574 0.117694,-0.0882 0.285281,-0.201585 0.623055,-0.421568 0.06269,-0.04082 0.249211,-0.167752 0.4145,-0.28206 0.165288,-0.11431 0.352336,-0.2412363 0.415671,-0.2820617 0.06337,-0.040824 0.250375,-0.1677521 0.415664,-0.2820604 0.165289,-0.1143098 0.352336,-0.2412365 0.415666,-0.2820619 0.0634,-0.040824 0.25039,-0.1677514 0.41568,-0.2820597 0.165287,-0.1143098 0.352337,-0.2412366 0.415667,-0.2820619 0.0634,-0.040824 0.25014,-0.1677525 0.41513,-0.2820601 0.16499,-0.114309 0.347,-0.2361279 0.40447,-0.2707094 0.2113,-0.1271451 0.21051,-0.1141585 0.0296,-0.4894688 -0.21973,-0.455828 -0.25679,-0.5947714 -0.25551,-0.9578656 0.001,-0.4826207 0.10642,-0.7923327 0.37487,-1.1086811 0.15507,-0.182732 0.30823,-0.2905401 0.67476,-0.4749786 0.21898,-0.1101864 0.30909,-0.1389342 0.47276,-0.1508139 l 0.20221,-0.014668 0.14972,-0.2983497 c 0.17794,-0.3545901 0.37058,-0.5599091 0.63524,-0.677062 0.097,-0.042946 0.22985,-0.101327 0.29516,-0.1297355 0.35275,-0.1534182 0.967369,-0.2092516 1.321239,-0.1200226 0.5989,0.1510132 1.17499,0.4883289 1.33866,0.7838286 0.0329,0.059471 0.0926,0.1615783 0.13254,0.2268973 0.04,0.065321 0.0866,0.1689922 0.1036,0.2303839 0.0275,0.099731 0.0553,0.1240137 0.25983,0.2279281 0.36335,0.1846386 0.51538,0.3394725 0.71242,0.7256056 l 0.16855,0.3303042 5.6e-4,0.5195851 c 4.9e-4,0.4668109 -0.007,0.5422049 -0.0704,0.7422661 -0.0921,0.2889737 -0.30899,0.7216246 -0.44506,0.8876695 -0.2451,0.2991207 -0.7685,0.6284473 -1.19112,0.7494627 -0.11384,0.032592 -0.28759,0.055233 -0.42395,0.055233 -0.19742,0 -0.25575,-0.012713 -0.40091,-0.087362 -0.0934,-0.048051 -0.20973,-0.1200812 -0.25842,-0.160072 l -0.0886,-0.07274 -0.20737,0.1611203 c -0.11405,0.088617 -0.24121,0.1687951 -0.28258,0.1781741 -0.0414,0.00938 -0.132469,0.035635 -0.202439,0.058337 -0.07,0.022709 -0.1635,0.041752 -0.20783,0.042323 -0.0739,0.00107 -0.0952,0.032212 -0.25699,0.3785549 -0.097,0.2076326 -0.19288,0.4249015 -0.21304,0.4828235 -0.0202,0.05792 -0.1245,0.283407 -0.23187,0.501087 -0.10737,0.217677 -0.19521,0.414313 -0.19521,0.436968 0,0.02266 -0.0868,0.214499 -0.19299,0.426322 -0.10615,0.21182 -0.19299,0.400111 -0.19299,0.418422 0,0.01832 -0.0853,0.215572 -0.18952,0.438361 -0.10422,0.222787 -0.27939,0.605479 -0.38924,0.850427 -0.10986,0.244947 -0.28532,0.62573 -0.38992,0.846183 -0.1046,0.220451 -0.18997,0.417702 -0.18972,0.438332 2.6e-4,0.02063 -0.0931,0.224203 -0.20738,0.452385 -0.11431,0.228183 -0.20783,0.433402 -0.20783,0.456041 0,0.02264 -0.0868,0.217233 -0.193,0.432431 -0.10613,0.215198 -0.19298,0.403292 -0.19298,0.417987 0,0.02553 -0.16886,0.396868 -0.58245,1.280871 -0.10423,0.222786 -0.18951,0.420081 -0.18951,0.438431 0,0.01835 -0.0735,0.179886 -0.163307,0.35897 -0.0898,0.179084 -0.16329,0.343393 -0.16329,0.36513 0,0.02173 0.11022,0.140374 0.24495,0.263637 0.270497,0.247504 1.927667,1.735549 2.281377,2.048557 0.12315,0.108985 0.28985,0.260787 0.37044,0.337337 0.0806,0.07655 0.43534,0.399 0.78833,0.716559 0.353,0.317559 0.65695,0.610632 0.67547,0.651274 0.0473,0.103881 0.0419,0.266068 -0.0125,0.371273 -0.0472,0.09116 -0.32102,0.230939 -5.959815,3.041735 l -0.956431,0.476763 -0.108915,0.220966 c -0.05987,0.121532 -0.131418,0.29445 -0.158928,0.384264 -0.02746,0.08981 -0.06535,0.203381 -0.08407,0.252371 -0.05303,0.138657 -0.04161,0.743653 0.01735,0.92041 0.148179,0.444048 0.205169,0.558057 0.645665,1.291541 0.06916,0.115155 0.152188,0.237552 0.312205,0.460205 0.05866,0.08165 0.156212,0.223497 0.21674,0.315217 0.175902,0.266571 0.380523,0.562592 0.510671,0.7388 0.06634,0.08981 0.143629,0.201715 0.17174,0.248667 0.02815,0.04695 0.09913,0.147439 0.157788,0.223305 0.05866,0.07587 0.124115,0.171058 0.145462,0.211539 0.0213,0.04048 0.08401,0.133723 0.13927,0.207207 0.141621,0.188329 0.354634,0.500756 0.425101,0.623504 0.0328,0.05715 0.11638,0.186158 0.18571,0.286676 0.0693,0.100518 0.16613,0.252121 0.21511,0.336898 0.0489,0.08478 0.117317,0.189586 0.151827,0.23291 0.0345,0.04333 0.092,0.132213 0.12768,0.197533 0.0602,0.110148 0.16138,0.275701 0.31942,0.522717 0.0355,0.05543 0.10227,0.164953 0.14846,0.243378 0.0713,0.121085 0.37417,0.598485 0.46994,0.740764 0.13692,0.203404 0.33021,0.480692 0.4294,0.61602 0.0658,0.08981 0.14251,0.1967 0.1704,0.237525 0.0278,0.04082 0.0914,0.123769 0.14112,0.18432 0.0498,0.06056 0.13719,0.171773 0.19435,0.247157 0.0572,0.07539 0.16466,0.206215 0.23892,0.29073 0.0742,0.08452 0.15441,0.182354 0.17814,0.217418 0.18574,0.274463 1.54372,1.693628 1.987809,2.077354 0.0734,0.06346 0.27455,0.242309 0.44689,0.397442 0.17235,0.155134 0.5064,0.445973 0.74234,0.646312 0.23594,0.200336 0.6294,0.537454 0.87435,0.749147 0.24496,0.211695 0.63242,0.544176 0.86104,0.738849 0.54394,0.463184 1.76952,1.662691 2.10589,2.061103 l 0.26506,0.313956 0.10394,-0.04343 c 0.0999,-0.04172 0.37035,-0.274927 0.49418,-0.426078 0.0883,-0.107812 0.21942,-0.327791 0.44345,-0.744203 0.0624,-0.115967 0.16983,-0.362055 0.20091,-0.460205 0.0728,-0.2299 0.32778,-1.265219 0.4826,-1.959581 0.0892,-0.400164 0.24521,-1.041099 0.3107,-1.276697 0.0136,-0.04899 0.0473,-0.149195 0.0749,-0.222679 0.0276,-0.07348 0.0607,-0.173689 0.0736,-0.222679 0.0234,-0.08989 0.54214,-1.124097 0.66529,-1.326643 0.0365,-0.06012 0.0878,-0.133614 0.11385,-0.163298 0.026,-0.02969 0.0678,-0.09405 0.0928,-0.143043 0.12874,-0.252306 0.9189,-1.111058 1.34909,-1.466194 0.50811,-0.419458 0.70923,-0.550934 1.34418,-0.878689 0.5245,-0.270742 0.90743,-0.369224 1.53001,-0.393495 0.35633,-0.01389 0.46501,-0.0066 0.75128,0.0504 0.18408,0.03665 0.40412,0.09301 0.48897,0.125233 0.0849,0.03223 0.20104,0.07243 0.2582,0.08934 0.15612,0.04619 0.45952,0.206113 0.74226,0.391251 0.37286,0.244148 0.38575,0.254396 0.44762,0.355844 0.15373,0.252113 -0.0419,0.55422 -0.33353,0.515104 -0.0885,-0.01187 -0.13524,3.21e-4 -0.21042,0.05486 -0.0532,0.03857 -0.13674,0.09239 -0.18573,0.119612 -0.2184,0.121359 -0.56626,0.435878 -0.78543,0.710139 -0.11112,0.139053 -0.41705,0.679979 -0.41705,0.737409 0,0.0061 0.0902,0.02015 0.20043,0.03113 0.30605,0.03048 0.98915,0.182713 1.28411,0.286167 0.13682,0.04798 0.55149,0.22858 0.68289,0.297405 0.0571,0.02994 0.23228,0.121243 0.38915,0.202904 0.2911,0.151521 0.51001,0.293313 0.83088,0.538169 0.20362,0.155377 0.97686,0.947291 1.18863,1.217315 0.2971,0.378852 0.54208,0.742161 0.71072,1.054017 0.0353,0.06532 0.0889,0.14577 0.11905,0.17878 0.0596,0.06524 0.68073,1.322114 0.68073,1.377486 0,0.01862 0.04,0.113279 0.0891,0.210325 0.049,0.09705 0.0891,0.196516 0.0891,0.22104 0,0.02452 0.0254,0.101729 0.0565,0.171568 0.11497,0.258206 0.25884,0.680956 0.3716,1.091925 0.23627,0.861096 0.34381,1.351992 0.34381,1.569442 0,0.319845 -0.27582,0.487317 -0.53443,0.324483 -0.13744,-0.08655 -0.26548,-0.135456 -0.53443,-0.20416 -0.56607,-0.144606 -1.05585,-0.177273 -1.25725,-0.08386 -0.0798,0.03701 -0.0831,0.04585 -0.0594,0.159315 0.0329,0.15761 0.0212,0.567566 -0.0209,0.732134 -0.0183,0.07165 -0.0482,0.193726 -0.0663,0.271293 l -0.0329,0.14103 h -0.36872 c -0.36856,0 -0.36873,-3.2e-5 -0.34863,-0.0668 0.0187,-0.0622 0.0705,-0.251445 0.13588,-0.497318 0.0315,-0.118306 0.038,-0.387584 0.011,-0.457794 -0.01,-0.02584 -0.0758,-0.07253 -0.14634,-0.103745 -0.37198,-0.164546 -0.24922,-0.655776 0.16389,-0.655776 0.0702,0 0.18239,-0.031 0.26651,-0.07362 0.26493,-0.134249 0.39803,-0.168651 0.71376,-0.184487 0.31337,-0.01572 0.72461,0.02975 1.10598,0.122264 0.18852,0.04573 0.19173,0.04272 0.13983,-0.131567 -0.017,-0.05705 -0.0778,-0.277412 -0.13514,-0.4897 -0.17308,-0.640808 -0.2913,-1.001722 -0.43062,-1.314604 -0.0311,-0.06984 -0.0565,-0.147044 -0.0565,-0.171568 0,-0.02452 -0.04,-0.123991 -0.0891,-0.221038 -0.049,-0.09705 -0.0891,-0.191265 -0.0891,-0.209369 0,-0.05527 -0.44378,-0.957797 -0.50254,-1.022026 -0.0303,-0.03308 -0.0906,-0.126951 -0.13398,-0.208601 -0.17778,-0.334319 -0.43983,-0.722503 -0.6875,-1.018472 -0.0506,-0.06037 -0.10398,-0.132061 -0.11877,-0.159304 -0.0968,-0.178143 -0.9327,-0.986924 -1.22937,-1.189404 -0.0408,-0.02787 -0.13232,-0.09176 -0.20334,-0.141988 -0.19165,-0.135551 -0.98353,-0.524862 -1.22989,-0.604643 -0.20962,-0.06788 -0.5548,-0.156874 -0.88264,-0.227545 -0.0898,-0.01935 -0.34368,-0.04203 -0.56413,-0.05037 -0.44092,-0.01668 -0.53608,-0.04564 -0.60815,-0.185019 -0.063,-0.121887 -0.0565,-0.337068 0.0143,-0.476022 0.0326,-0.06402 0.0594,-0.137149 0.0594,-0.162512 0,-0.09817 0.42889,-0.899638 0.5883,-1.09934 0.28454,-0.356471 0.59151,-0.629733 0.86807,-0.772749 0.0482,-0.02489 0.0875,-0.05794 0.0875,-0.07342 0,-0.0341 -0.15946,-0.119545 -0.28206,-0.151132 -0.049,-0.01262 -0.1492,-0.04534 -0.22268,-0.07273 -0.61686,-0.229841 -1.29515,-0.238841 -1.95142,-0.02589 -0.12795,0.04152 -0.73936,0.34806 -0.93022,0.466382 -0.17571,0.108933 -0.71328,0.539764 -0.9222,0.73908 -0.32074,0.306008 -0.89492,0.969569 -1.0461,1.208954 -0.0352,0.05564 -0.10026,0.155845 -0.14473,0.22268 -0.15921,0.239346 -0.49536,0.933454 -0.58491,1.20781 -0.0501,0.153712 -0.10426,0.319557 -0.1202,0.368547 -0.0405,0.124563 -0.16932,0.66911 -0.26842,1.134758 -0.0459,0.215871 -0.0978,0.436324 -0.11531,0.489895 -0.0175,0.05358 -0.0844,0.324536 -0.14883,0.602143 -0.15057,0.64941 -0.22393,0.911382 -0.3118,1.113399 -0.039,0.08981 -0.107,0.252884 -0.15097,0.362377 -0.044,0.109492 -0.0999,0.21561 -0.12421,0.235816 -0.0244,0.02021 -0.0906,0.124351 -0.14731,0.231435 -0.0568,0.107083 -0.13834,0.254822 -0.18146,0.328306 -0.10846,0.18486 -0.52019,0.581845 -0.69566,0.670767 l -0.14525,0.07361 0.0953,0.139978 c 0.17744,0.260481 0.19579,0.290047 0.26255,0.422951 0.0367,0.07297 0.0914,0.159742 0.12157,0.192799 0.0594,0.06492 0.65097,1.26323 0.65097,1.318442 0,0.0184 0.0381,0.109897 0.0847,0.203328 0.0466,0.09343 0.093,0.213297 0.10318,0.266369 l 0.0183,0.09649 h -0.34977 -0.34982 l -0.0921,-0.200412 c -0.0507,-0.110226 -0.12866,-0.287256 -0.1733,-0.3934 -0.12034,-0.286168 -0.3928,-0.82384 -0.42869,-0.846028 -0.0172,-0.01063 -0.0714,-0.09518 -0.1206,-0.187885 -0.1205,-0.22735 -0.26166,-0.442712 -0.60708,-0.926153 -0.21636,-0.302821 -0.58922,-0.720811 -1.08477,-1.21605 -0.6982,-0.697764 -0.87274,-0.856921 -2.0773,-1.894211 -1.63087,-1.404408 -1.67278,-1.441015 -2.387479,-2.085113 -0.84286,-0.759592 -2.27447,-2.375738 -2.824,-3.18802 -0.0649,-0.09593 -0.17494,-0.256262 -0.24452,-0.356287 -0.21743,-0.312564 -0.50647,-0.760029 -0.64545,-0.999249 -0.049,-0.08432 -0.11733,-0.188765 -0.151897,-0.232089 -0.0345,-0.04333 -0.0989,-0.145575 -0.14298,-0.227224 -0.1233,-0.228347 -0.23357,-0.411754 -0.29894,-0.49722 -0.0326,-0.0427 -0.09947,-0.146626 -0.148458,-0.23095 -0.04899,-0.08432 -0.145783,-0.235559 -0.215113,-0.336077 -0.06931,-0.100517 -0.152888,-0.229522 -0.185708,-0.286676 -0.07045,-0.122748 -0.283485,-0.435174 -0.425105,-0.623503 -0.05531,-0.07348 -0.117923,-0.166728 -0.139263,-0.207208 -0.0213,-0.04048 -0.0868,-0.135674 -0.145455,-0.211539 -0.05866,-0.07587 -0.129668,-0.176353 -0.157787,-0.223305 -0.02815,-0.04695 -0.105407,-0.158852 -0.171748,-0.248667 -0.06634,-0.08981 -0.180207,-0.250143 -0.253053,-0.356287 -0.07288,-0.106144 -0.189284,-0.274829 -0.258766,-0.374855 -0.06946,-0.100026 -0.178215,-0.260355 -0.241611,-0.356287 -0.06345,-0.09593 -0.140175,-0.207824 -0.170599,-0.248649 -0.03043,-0.04082 -0.08292,-0.12099 -0.116652,-0.178144 -0.03378,-0.05716 -0.113296,-0.190763 -0.176799,-0.296905 -0.244494,-0.408731 -0.532901,-1.022913 -0.627376,-1.336097 -0.05577,-0.184739 -0.05501,-1.006668 7.61e-4,-1.187624 0.02275,-0.07348 0.05828,-0.187051 0.079,-0.252371 0.02069,-0.06532 0.08557,-0.218591 0.144177,-0.340604 0.05858,-0.122014 0.107027,-0.24226 0.107583,-0.267216 5.63e-4,-0.02495 0.05965,-0.15226 0.131258,-0.282898 0.307952,-0.561641 0.703029,-1.38594 0.804016,-1.67752 0.241261,-0.69658 0.370009,-1.1389 0.432112,-1.484531 0.0162,-0.08981 0.04945,-0.276866 0.0741,-0.415669 0.09807,-0.552513 0.08754,-1.734678 -0.02039,-2.286179 -0.124084,-0.634275 -0.214184,-0.982974 -0.360605,-1.395458 -0.03188,-0.08981 -0.07676,-0.216741 -0.09972,-0.282061 -0.04481,-0.127442 -0.230116,-0.546016 -0.295733,-0.668039 -0.02199,-0.04082 -0.08624,-0.161972 -0.142831,-0.269216 -0.215287,-0.407941 -0.563477,-0.902691 -0.771149,-1.095724 -0.07917,-0.07358 -0.164459,-0.174024 -0.189543,-0.22319 -0.138364,-0.27124 -1.318731,-1.322426 -1.817345,-1.618456 -0.06876,-0.04082 -0.19225,-0.118861 -0.274416,-0.173413 -0.195055,-0.129504 -0.555552,-0.301608 -0.632055,-0.301748 -0.03313,-6.1e-5 -0.100302,-0.02659 -0.149292,-0.05895 -0.178652,-0.11802 -0.348432,-0.198562 -0.50474,-0.239443 -0.049,-0.0128 -0.162556,-0.04953 -0.252371,-0.0816 -0.978041,-0.349176 -1.976153,-0.405515 -2.879989,-0.162562 -0.500135,0.134438 -1.015213,0.292042 -1.155696,0.353624 -0.05592,0.02451 -0.196211,0.07552 -0.311751,0.113353 -0.11554,0.03783 -0.270196,0.09607 -0.343681,0.129411 -0.07348,0.03334 -0.213772,0.09168 -0.311752,0.129638 l -0.178143,0.06901 0.638347,0.02028 c 0.728661,0.02314 1.190609,0.06197 1.722057,0.144747 0.690975,0.107617 1.714981,0.374425 2.330713,0.607273 0.11431,0.04323 0.258128,0.09758 0.319598,0.120776 0.396535,0.149652 1.348429,0.695746 1.729056,0.991945 0.821375,0.639184 1.196357,1.058585 1.515629,1.695145 0.514422,1.025661 0.715604,1.905045 0.688878,3.011152 -0.01232,0.510462 -0.02275,0.600697 -0.109592,0.948632 -0.0528,0.211481 -0.134872,0.461614 -0.182444,0.555852 -0.04755,0.09424 -0.08687,0.195105 -0.08733,0.224148 -0.0015,0.08405 -0.384327,0.738468 -0.643877,1.100168 -0.206067,0.287173 -0.731868,0.908543 -1.032566,1.220243 -0.307048,0.318285 -0.841893,0.79952 -0.955814,0.86001 -0.207962,0.110424 -0.484425,-0.06478 -0.484425,-0.307006 0,-0.13696 0.07662,-0.232717 0.468998,-0.586105 0.579102,-0.521564 1.413636,-1.490111 1.683569,-1.953917 0.04899,-0.08418 0.132498,-0.219829 0.185571,-0.30145 0.05303,-0.08162 0.09649,-0.167546 0.09649,-0.190943 0,-0.02339 0.0334,-0.1085 0.07425,-0.18912 0.09222,-0.181974 0.138851,-0.323046 0.225725,-0.682782 0.05881,-0.243567 0.06824,-0.361073 0.069,-0.861028 7.6e-4,-0.558379 -0.03013,-0.848404 -0.130171,-1.217316 -0.108002,-0.39836 -0.136881,-0.492436 -0.268977,-0.876201 -0.06543,-0.190169 -0.300356,-0.643259 -0.422767,-0.815456 -0.2336,-0.328616 -0.958643,-0.990956 -1.440034,-1.315491 -0.439788,-0.296489 -1.210389,-0.695753 -1.476946,-0.765237 -0.049,-0.01277 -0.162557,-0.04922 -0.252371,-0.08098 -0.148723,-0.05261 -0.302365,-0.100086 -0.727419,-0.224775 -0.511984,-0.15019 -1.384113,-0.311126 -2.063498,-0.380781 -0.582412,-0.05972 -2.276186,-0.05006 -2.687002,0.01532 -0.387953,0.06174 -0.581388,0.101545 -0.742265,0.152755 -0.06532,0.02079 -0.198927,0.04748 -0.296906,0.05929 -0.09798,0.01182 -0.204551,0.03559 -0.236827,0.05283 -0.03228,0.01724 -0.09908,0.04145 -0.148453,0.05382 -0.04937,0.01236 -0.163254,0.0515 -0.253068,0.08699 -0.08981,0.03548 -0.203381,0.07556 -0.252371,0.08907 -0.04899,0.0135 -0.162556,0.05359 -0.25237,0.08907 -0.08982,0.03548 -0.203381,0.07513 -0.252371,0.08811 -0.04899,0.01298 -0.149195,0.04324 -0.222679,0.06724 -0.07348,0.024 -0.233814,0.07396 -0.356287,0.111029 -0.122474,0.03707 -0.256082,0.0784 -0.296907,0.09186 -0.335169,0.110464 -1.300537,0.325338 -1.855664,0.413038 -1.52641,0.241147 -1.900214,0.281331 -2.383756,0.256255 -0.207609,-0.01077 -0.524997,-0.02749 -0.705308,-0.03716 l -0.327827,-0.01758 -0.06433,0.20391 c -0.05752,0.182347 -0.132447,0.433608 -0.264418,0.886796 -0.04923,0.169048 -0.142243,0.480743 -0.221505,0.742266 -0.04859,0.160335 -0.130355,0.437996 -0.253546,0.861028 -0.04817,0.165415 -0.139683,0.472178 -0.221432,0.742265 -0.02966,0.09798 -0.07614,0.254591 -0.103294,0.348027 l -0.04937,0.169882 0.179012,0.20125 c 0.39998,0.449663 1.196936,1.194924 2.022932,1.891716 0.172984,0.145923 0.448701,0.386417 0.612707,0.53443 0.164006,0.148014 0.450644,0.402725 0.636972,0.566023 0.186327,0.163299 0.413697,0.36371 0.505266,0.445358 0.09157,0.08165 0.296677,0.25534 0.455797,0.385979 0.15912,0.130638 0.366198,0.304329 0.460172,0.385978 0.09398,0.08165 0.330134,0.282062 0.524798,0.445359 0.597759,0.501445 1.511978,1.436302 1.943527,1.987405 0.154675,0.197524 0.505081,0.692414 0.587227,0.829358 0.02812,0.04687 0.122616,0.193842 0.209995,0.326597 0.27986,0.42518 0.904386,1.714767 1.101833,2.275179 0.02014,0.05716 0.06036,0.17072 0.08938,0.25237 0.251512,0.707634 0.554342,2.10003 0.623132,2.865145 0.05952,0.661988 0.03332,1.843489 -0.05991,2.701846 -0.03443,0.317019 -0.193534,1.420315 -0.237626,1.64783 -0.162003,0.835915 -0.229994,1.154388 -0.35814,1.677519 -0.082,0.334762 -0.161045,0.64874 -0.17565,0.69773 -0.01461,0.04899 -0.04889,0.169237 -0.07618,0.267216 -0.108506,0.389517 -0.26938,0.925927 -0.360631,1.202469 -0.02425,0.07349 -0.05471,0.173691 -0.0677,0.22268 -0.01298,0.04899 -0.05264,0.162556 -0.08811,0.25237 -0.03548,0.08981 -0.07556,0.203382 -0.08907,0.252371 -0.0135,0.049 -0.05359,0.162556 -0.08907,0.25237 -0.03548,0.08981 -0.07488,0.20338 -0.08756,0.25237 -0.01268,0.04899 -0.0503,0.149196 -0.08358,0.22268 -0.03329,0.07348 -0.109485,0.253855 -0.16932,0.400823 -0.126924,0.311754 -0.88013,1.827584 -1.069599,2.152571 -0.07141,0.122473 -0.169721,0.296962 -0.218485,0.387754 -0.04877,0.09079 -0.107731,0.180898 -0.131035,0.200241 -0.02331,0.01934 -0.06651,0.08869 -0.096,0.154099 l -0.0536,0.118933 H 77.861571 77.449523 Z M 93.944611,25.355938 c 0.163303,-0.08801 1.323773,-0.672618 2.57885,-1.299135 l 2.28195,-1.139124 -0.58482,-0.532425 c -0.32165,-0.292836 -0.72626,-0.659354 -0.89911,-0.814488 -0.4292,-0.385198 -1.999287,-1.797695 -2.918161,-2.625286 -0.415587,-0.374303 -0.778825,-0.700215 -0.807188,-0.724247 -0.04146,-0.03513 -0.03644,-0.0065 0.02556,0.146119 0.04238,0.104399 0.101512,0.249941 0.131297,0.323424 0.141924,0.350151 0.296364,0.935302 0.42315,1.603294 0.05828,0.306947 0.06467,0.435927 0.06345,1.276696 -7.38e-4,0.72963 -0.0121,0.997268 -0.05029,1.217316 -0.02693,0.155134 -0.0636,0.367929 -0.08151,0.47288 -0.01795,0.104951 -0.03979,0.202349 -0.04846,0.21644 -0.0087,0.01409 -0.04047,0.128633 -0.07075,0.25454 -0.04846,0.201922 -0.165669,0.571821 -0.312531,0.98603 -0.06847,0.193239 -0.179775,0.454923 -0.311452,0.732551 l -0.115092,0.242656 0.19906,-0.08861 c 0.109485,-0.04874 0.332662,-0.160619 0.495965,-0.248627 z M 58.865138,22.313152 c 0.629052,-0.122556 1.124062,-0.40997 1.585422,-0.92053 0.283398,-0.31362 0.35744,-0.479485 0.417498,-0.935254 0.03688,-0.279779 -0.0797,-0.766734 -0.239808,-1.001818 -0.118932,-0.17462 -0.458778,-0.511432 -0.578517,-0.573352 -0.450993,-0.233215 -0.926077,-0.103396 -1.200941,0.328164 -0.229277,0.359985 -0.22646,0.942321 0.0069,1.416741 0.03788,0.07703 0.06887,0.174553 0.06887,0.21673 0,0.178053 -0.163136,0.340956 -0.341443,0.340956 -0.151453,0 -0.247567,-0.08102 -0.359276,-0.302843 -0.138332,-0.274689 -0.18083,-0.420546 -0.224604,-0.770842 -0.106776,-0.854493 0.336249,-1.677513 1.044406,-1.940222 0.433165,-0.160695 0.838959,-0.130666 1.288651,0.09536 0.188961,0.09498 0.640918,0.438083 0.640918,0.486561 0,0.01061 0.05167,0.0845 0.114811,0.1642 0.06315,0.0797 0.143581,0.201692 0.178746,0.271094 0.06979,0.13773 0.09469,0.150466 0.15414,0.07884 0.04165,-0.05018 0.830364,-0.452512 1.155597,-0.589478 0.106143,-0.0447 0.239751,-0.101869 0.296906,-0.127042 0.05715,-0.02517 0.144,-0.05672 0.192989,-0.0701 1.081511,-0.295401 1.503834,-0.353138 2.583084,-0.353138 0.73302,0 1.091504,0.02495 1.70721,0.118821 0.431998,0.06586 1.279578,0.242792 1.618139,0.337782 0.08165,0.02291 0.228618,0.06411 0.326598,0.09157 0.281266,0.07881 0.765287,0.226185 0.84065,0.255961 0.126585,0.05002 0.03742,-0.03053 -0.137661,-0.124341 -0.251693,-0.134873 -0.435919,-0.244379 -0.495155,-0.294328 -0.05753,-0.04851 -0.242004,-0.158597 -0.475051,-0.283494 -0.08165,-0.04376 -0.173063,-0.101263 -0.203142,-0.127787 -0.07297,-0.06433 -0.251209,-0.166475 -0.732112,-0.419509 -0.220453,-0.115995 -0.434226,-0.229187 -0.47505,-0.251538 -0.169273,-0.09267 -1.578289,-0.758489 -1.605136,-0.758489 -0.01604,0 -0.132415,-0.05184 -0.25861,-0.115205 -0.126194,-0.06337 -0.291062,-0.136063 -0.366375,-0.161555 -0.07531,-0.02549 -0.222282,-0.08583 -0.326597,-0.134091 -0.104315,-0.04826 -0.29655,-0.130179 -0.427189,-0.182047 -0.130639,-0.05187 -0.307965,-0.126736 -0.394058,-0.166372 -0.0861,-0.03964 -0.175827,-0.07207 -0.199405,-0.07207 -0.02358,0 -0.08675,-0.01869 -0.140373,-0.04154 -0.226482,-0.09649 -0.375346,-0.145082 -0.95853,-0.312883 -0.456216,-0.131269 -1.210002,-0.257909 -1.763447,-0.296267 -0.674797,-0.04677 -1.543867,0.06789 -2.42293,0.319665 -0.620752,0.177791 -1.111144,0.412971 -1.481309,0.710397 -0.372711,0.299472 -0.721076,0.68643 -0.87549,0.97248 -0.03499,0.06481 -0.07531,0.137873 -0.08963,0.162368 -0.09278,0.158811 -0.216836,0.548263 -0.269546,0.846182 -0.160031,0.904513 0.06097,2.096172 0.504969,2.722877 0.04966,0.07008 0.121658,0.174186 0.160013,0.23134 0.09145,0.136267 0.56349,0.593336 0.714911,0.692235 0.06532,0.04266 0.175844,0.118016 0.245609,0.167451 0.207164,0.146795 0.338626,0.203083 0.689646,0.295288 0.133062,0.03495 0.334835,0.03619 0.50474,0.0031 z m 36.102359,-4.387553 c 7.31e-4,-0.02076 0.08987,-0.227858 0.197957,-0.460205 0.10808,-0.232345 0.28178,-0.605868 0.38599,-0.83005 0.104197,-0.224181 0.189457,-0.421444 0.189457,-0.43836 0,-0.01692 0.0868,-0.204066 0.19299,-0.415889 0.10614,-0.211821 0.19299,-0.40554 0.19299,-0.430485 0,-0.02495 0.0935,-0.23205 0.20784,-0.460233 0.1143,-0.228182 0.20783,-0.431178 0.20783,-0.451102 0,-0.01992 0.0854,-0.217173 0.18969,-0.438332 0.10433,-0.221159 0.27962,-0.60252 0.38953,-0.847467 0.10992,-0.244948 0.28509,-0.626309 0.38928,-0.847467 0.10419,-0.22116 0.18943,-0.418422 0.18943,-0.438361 0,-0.01993 0.0868,-0.209562 0.193,-0.421383 0.10615,-0.211823 0.19298,-0.401669 0.19298,-0.421884 0,-0.02021 0.0918,-0.230837 0.20406,-0.468051 0.52913,-1.1184318 0.57433,-1.2290458 0.51877,-1.2696718 -0.0282,-0.020625 -0.0692,-0.037499 -0.0911,-0.037499 -0.0482,0 -0.31211,-0.1315896 -0.43726,-0.2180402 -0.16077,-0.1110628 -0.34529,-0.2977182 -0.45217,-0.4573987 -0.0637,-0.095173 -0.11764,-0.1477914 -0.13854,-0.1351486 -0.0188,0.011397 -0.10012,0.068159 -0.18063,0.1261629 -0.0805,0.057995 -0.1899,0.1321788 -0.24308,0.1648387 -0.0533,0.032661 -0.2317,0.1529061 -0.39669,0.2672152 -0.16498,0.1143098 -0.3518,0.2412358 -0.41513,0.2820619 -0.0634,0.040816 -0.25039,0.1677514 -0.41567,0.2820597 -0.16528,0.1143098 -0.35234,0.2412365 -0.41566,0.2820619 -0.0634,0.040824 -0.250397,0.167752 -0.415687,0.28206 -0.165283,0.11431 -0.352331,0.241236 -0.415666,0.282062 -0.06337,0.04082 -0.250383,0.167752 -0.415672,0.28206 -0.165288,0.114308 -0.351803,0.241236 -0.414492,0.282061 -0.337774,0.219981 -0.505368,0.33337 -0.623062,0.421568 -0.07197,0.05391 -0.174114,0.124739 -0.227042,0.157399 -0.179005,0.110447 -0.472784,0.308175 -0.604293,0.406722 -0.07197,0.05391 -0.174114,0.124741 -0.227042,0.1574 -0.179006,0.110447 -0.472791,0.308175 -0.604301,0.406721 -0.07197,0.05391 -0.174114,0.124741 -0.227042,0.1574 -0.179006,0.110448 -0.472791,0.308176 -0.604301,0.406722 -0.07197,0.05391 -0.174403,0.124741 -0.227688,0.1574 -0.08261,0.05063 -0.241632,0.15543 -0.502536,0.331184 -0.03264,0.022 -0.148724,0.100028 -0.257922,0.173395 -0.230229,0.154681 -0.253638,0.182274 -0.175646,0.207027 0.03145,0.01 0.144785,0.07441 0.251844,0.143168 0.10706,0.06876 0.250332,0.158418 0.318376,0.199244 0.510966,0.306545 1.701613,1.366892 2.043846,1.820164 0.133412,0.176709 0.532551,0.550113 0.6598,0.617275 0.07243,0.03823 0.348433,0.279137 1.432814,1.250658 l 0.388321,0.347904 0.09505,-0.184605 c 0.05227,-0.101533 0.0957,-0.201595 0.0965,-0.222362 z m 4.863434,-9.3259178 c 0.242699,-0.1238121 0.418259,-0.3925739 0.465079,-0.7119852 0.0259,-0.1765379 0.0907,-0.2915933 0.19444,-0.3452463 0.17325,-0.089589 0.37758,-0.028552 0.46402,0.138601 0.0382,0.073971 0.0441,0.1374051 0.0278,0.3029138 -0.0114,0.1151437 -0.0329,0.2321573 -0.0478,0.2600318 -0.0215,0.040215 0.005,0.079208 0.12862,0.1888374 0.15383,0.1364533 0.15778,0.1379482 0.31905,0.121166 0.30421,-0.031656 0.52506,-0.1323656 0.79798,-0.3638976 0.21254,-0.1803043 0.2958,-0.2839228 0.40156,-0.4997013 0.14197,-0.2896409 0.18058,-0.4782249 0.17934,-0.8758733 -7.4e-4,-0.3562486 -0.005,-0.378354 -0.0939,-0.5511973 -0.0921,-0.1789555 -0.25718,-0.3424905 -0.44145,-0.4373364 -0.11961,-0.061571 -0.36385,-0.069909 -0.61045,-0.020838 -0.16416,0.032668 -0.2135,0.032615 -0.29299,-3.164e-4 -0.18049,-0.074763 -0.25564,-0.2953081 -0.16218,-0.476024 0.0473,-0.09162 0.23643,-0.2066519 0.33964,-0.2066519 0.0717,0 0.0757,-0.033064 0.018,-0.1448053 -0.0434,-0.083982 -0.24279,-0.2616865 -0.3679,-0.3279138 -0.20771,-0.1099558 -0.67568,-0.2387359 -0.86992,-0.2393917 -0.17622,-5.949e-4 -0.543399,0.080899 -0.685349,0.1521066 -0.0606,0.030393 -0.12911,0.055264 -0.1523,0.055264 -0.073,0 -0.28156,0.2287878 -0.37218,0.4083222 -0.11423,0.2262757 -0.15582,0.6860081 -0.0812,0.8980662 0.0922,0.2623393 0.0413,0.4902294 -0.12933,0.578464 -0.17685,0.091437 -0.40624,0.016813 -0.46686,-0.1518623 -0.0795,-0.2212781 -0.10897,-0.3352593 -0.12553,-0.4859834 l -0.018,-0.1632985 -0.0981,0.00779 c -0.18067,0.014364 -0.52125,0.2311135 -0.70354,0.4477401 -0.0891,0.1058902 -0.16003,0.3621021 -0.1616,0.5837324 -0.001,0.1841365 0.0809,0.4782105 0.19881,0.7114702 l 0.0895,0.1770352 0.0224,-0.1028577 c 0.0123,-0.056572 0.0741,-0.2061414 0.1374,-0.3323766 0.0942,-0.1878841 0.1364,-0.2403951 0.23261,-0.2894834 0.0647,-0.03298 0.15215,-0.059965 0.19443,-0.059965 0.18093,0 0.34134,0.1634088 0.34099,0.3473908 -1.5e-4,0.077947 -0.0266,0.1307192 -0.15667,0.3131736 -0.0723,0.1012752 -0.0987,0.3512319 -0.0503,0.4741 0.0934,0.2368179 0.39073,0.5367972 0.59457,0.5998672 0.35958,0.1112648 0.74737,0.1198883 0.94133,0.020937 z M 82.498871,47.31885 c 0,-0.04928 0.9877,-1.992609 1.127438,-2.218267 0.0809,-0.130639 0.229343,-0.397509 0.32988,-0.593044 0.208853,-0.406198 0.299312,-0.535692 0.416576,-0.596331 0.23156,-0.119745 0.501356,0.04656 0.501356,0.309043 0,0.05145 -0.04421,0.153087 -0.107176,0.246422 -0.05894,0.08737 -0.186362,0.312509 -0.283148,0.500302 -0.09678,0.187793 -0.241979,0.448328 -0.322656,0.578967 -0.08068,0.130639 -0.323427,0.588246 -0.539445,1.016904 l -0.392758,0.779379 h -0.365034 c -0.200767,0 -0.365033,-0.01052 -0.365033,-0.02337 z m 9.670154,-0.07313 c -0.04367,-0.106757 -0.147548,-0.511164 -0.19636,-0.764533 -0.07456,-0.387008 -0.09883,-0.774659 -0.08356,-1.334077 0.01347,-0.493254 0.02739,-0.625793 0.09221,-0.877873 0.09861,-0.383468 0.24559,-0.722761 0.508024,-1.172781 0.07144,-0.122473 0.156608,-0.269442 0.189307,-0.326596 0.147174,-0.257227 0.561118,-0.642404 1.236492,-1.150558 0.128315,-0.09654 0.70932,-0.38972 0.934597,-0.471598 0.264039,-0.09597 0.610779,-0.123583 0.736369,-0.05863 0.167977,0.08686 0.229227,0.290854 0.139447,0.464457 -0.0567,0.109704 -0.162757,0.164439 -0.370637,0.191346 -0.2169,0.02807 -0.452,0.10575 -0.668763,0.220957 -0.414188,0.220133 -0.987183,0.673058 -1.24789,0.986392 -0.279376,0.335772 -0.31209,0.38544 -0.500354,0.759626 -0.301569,0.599388 -0.358712,0.861007 -0.358476,1.641105 2.21e-4,0.730149 0.06056,1.109432 0.284542,1.788979 0.03096,0.09396 0.0563,0.177467 0.0563,0.185567 0,0.0081 -0.160146,0.01472 -0.355889,0.01472 H 92.208502 Z M 85.705459,22.593166 c -0.23308,-0.107865 -0.456361,-0.338173 -0.602614,-0.621578 -0.116504,-0.22576 -0.12263,-0.250762 -0.123691,-0.504742 -6.14e-4,-0.146968 0.01664,-0.327338 0.03834,-0.400822 0.05447,-0.184432 0.550327,-1.184901 0.634338,-1.279875 0.100461,-0.113573 0.314715,-0.275521 0.484137,-0.365946 0.08164,-0.04358 0.201896,-0.11174 0.267215,-0.151472 0.154574,-0.09402 0.312412,-0.09303 0.519586,0.0033 0.222579,0.103456 0.283687,0.167366 0.42174,0.441076 0.174273,0.345523 0.204699,0.466331 0.222883,0.884989 0.02127,0.489684 -0.0142,0.664019 -0.221891,1.090499 -0.14029,0.28808 -0.198015,0.371927 -0.375093,0.544841 -0.141187,0.137864 -0.284213,0.242035 -0.439555,0.320139 -0.204889,0.103016 -0.254067,0.115745 -0.446184,0.115487 -0.168348,-2.27e-4 -0.251894,-0.01694 -0.379214,-0.07586 z M 121.0374,19.434909 c -0.52269,-0.159991 -0.79798,-0.610524 -0.80059,-1.310225 -7.3e-4,-0.322322 0.0343,-0.556399 0.12363,-0.814522 0.0668,-0.19313 0.49395,-1.05204 0.58322,-1.172779 0.0302,-0.04082 0.0935,-0.13435 0.1407,-0.207834 0.0472,-0.07348 0.18621,-0.258823 0.3089,-0.411863 0.12272,-0.15304 0.2442,-0.309861 0.26999,-0.348491 0.0258,-0.03863 0.14327,-0.180632 0.26109,-0.315558 0.1178,-0.134927 0.32465,-0.378929 0.45965,-0.542228 0.33755,-0.408346 0.49905,-0.491325 0.75118,-0.385977 0.0586,0.02449 0.13501,0.0446 0.16977,0.04469 0.10609,2.63e-4 0.22639,0.09624 0.3161,0.252214 0.3611,0.627706 0.50466,1.119907 0.50366,1.72672 -5.1e-4,0.304088 -0.0562,0.628105 -0.17529,1.019662 -0.0398,0.130723 -0.36607,0.784418 -0.4552,0.911903 -0.0367,0.05248 -0.10263,0.152682 -0.14653,0.222679 -0.12868,0.205192 -0.53414,0.652051 -0.73968,0.815225 -0.22873,0.181588 -0.78273,0.464384 -1.00052,0.510725 -0.1759,0.03743 -0.45715,0.04021 -0.57008,0.0056 z m 9.87213,-0.132985 c -0.41552,-0.08451 -0.98557,-0.49743 -1.32123,-0.957084 -0.27613,-0.378141 -0.58859,-1.019137 -0.7359,-1.509727 -0.0343,-0.11431 -0.0828,-0.275997 -0.10779,-0.359305 -0.2898,-0.967725 -0.16255,-2.619665 0.2169,-2.815896 0.12819,-0.06628 0.33618,-0.134384 0.41193,-0.134872 0.0795,-5.11e-4 0.83556,0.372788 1.02106,0.504147 0.0709,0.05026 0.17804,0.123763 0.2379,0.163333 0.0599,0.03957 0.11777,0.08639 0.12868,0.104045 0.011,0.01765 0.0688,0.06359 0.12869,0.102093 0.22847,0.146929 0.90085,0.851001 1.22629,1.284089 0.10392,0.138303 0.48558,0.893653 0.55974,1.10783 0.14574,0.420855 0.19023,0.961762 0.10743,1.306387 -0.0608,0.253034 -0.26094,0.619843 -0.42374,0.776527 -0.18429,0.177375 -0.61377,0.392189 -0.87342,0.436858 -0.23598,0.0406 -0.34317,0.03903 -0.57654,-0.0084 z m -75.891693,-3.6065 c -0.274973,-0.167678 -0.179365,-0.547907 0.288645,-1.147929 0.155996,-0.199996 0.567757,-0.597912 0.786316,-0.759873 0.140721,-0.104282 0.658167,-0.366038 0.87214,-0.441184 0.670609,-0.235514 1.000623,-0.284045 1.753936,-0.257927 0.583594,0.02024 0.675092,0.0442 0.754419,0.1976 0.08904,0.17218 0.02864,0.377536 -0.136096,0.462724 -0.07748,0.04007 -0.167039,0.04417 -0.600733,0.02755 -0.66287,-0.02541 -1.024516,0.03178 -1.652764,0.261392 -0.287192,0.104962 -0.374407,0.15615 -0.672267,0.394562 -0.350662,0.280677 -0.673399,0.658759 -0.835279,0.978519 -0.1699,0.335599 -0.335893,0.420206 -0.558317,0.284571 z"
       id="path5" /><path
       id="rect53"
       style="fill:none;stroke:#ffffff;stroke-width:1.66128;stroke-linejoin:round"
       d="m 45.915079,4.4273727 h 91.545201 c 2.38857,0 4.3115,1.4200305 4.3115,3.1839247 V 44.567746 c 0,1.763894 -1.92293,3.183924 -4.3115,3.183924 H 45.915079 c -2.388561,0 -4.31148,-1.42003 -4.31148,-3.183924 V 7.6112974 c 0,-1.7638942 1.922919,-3.1839247 4.31148,-3.1839247 z" /></g></svg>
