<?xml version="1.0" encoding="UTF-8" standalone="no"?>
<!-- Created with Inkscape (http://www.inkscape.org/) -->

<svg
   width="154.27834mm"
   height="74.14241mm"
   viewBox="0 0 154.27834 74.14241"
   version="1.1"
   id="svg1"
   xml:space="preserve"
   xmlns="http://www.w3.org/2000/svg"
   xmlns:svg="http://www.w3.org/2000/svg"><defs
     id="defs1"><rect
       x="7.3236752"
       y="251.00233"
       width="591.22034"
       height="197.73923"
       id="rect2" /></defs><g
     id="layer1"
     transform="translate(-2.9948056,-3.6087759)"><path
       style="fill:#ffffff;fill-opacity:1"
       d="M 8.7305296,20.838194 V 19.437306 H 5.9198312 3.1091328 V 12.41502 5.3927348 H 3.6712724 4.2334121 V 4.5539865 3.7152383 h 1.6774962 1.6774962 v 0.8387482 0.8387483 h 0.5620316 0.5620315 l 0.00457,1.4053493 0.00457,1.4053494 H 9.2837473 9.845887 l 0.00464,-0.8432096 0.00464,-0.8432096 h 1.677322 1.677321 v 0.847671 0.8476711 h 0.562032 0.562031 l 0.0046,-1.4053494 0.0046,-1.4053494 0.557678,-0.00472 0.557678,-0.00472 v -0.838494 -0.838494 h 1.686419 1.686419 v 0.838494 0.838494 l 0.557678,0.00472 0.557679,0.00472 0.0046,1.4053494 0.0046,1.4053494 h 0.562031 0.562032 V 7.3645943 6.5168322 l 1.681957,0.00455 1.681958,0.00455 0.0046,0.8432097 0.0046,0.8432096 h 0.561965 0.561965 V 6.8025456 5.3927348 h 0.56214 0.56214 V 4.5539865 3.7152383 h 1.677496 1.677496 v 0.8387482 0.8387483 h 0.562032 0.562031 l 0.0046,1.4053493 0.0046,1.4053494 h 0.56214 0.56214 l 0.0046,-0.8432096 0.0046,-0.8432096 h 1.677321 1.677322 v 0.847671 0.8476711 h 0.56214 0.562139 v 7.0133626 7.013363 H 34.000094 31.198318 V 20.838194 19.437306 H 28.38762 25.576921 v 1.400888 1.400888 h -2.810698 -2.810699 v -1.400888 -1.400888 h -2.810698 -2.810698 v 1.400888 1.400888 H 11.532305 8.7305296 Z M 5.6374763,16.018248 c 0.096881,-0.07175 0.1004428,-0.09416 0.1160434,-0.730069 0.011622,-0.473738 0.020124,-0.604096 0.043474,-0.66657 0.051753,-0.138467 0.02037,-0.134493 1.1489656,-0.145494 1.0999967,-0.01072 1.0897699,-0.0096 1.1543241,-0.127891 0.027537,-0.05046 0.03325,-0.111777 0.037958,-0.407396 0.00455,-0.285539 8.048e-4,-0.354396 -0.020859,-0.383682 -0.023971,-0.0324 -0.054064,-0.03668 -0.3267657,-0.04644 -0.3110071,-0.01113 -0.3661562,-0.0228 -0.465376,-0.09847 -0.090051,-0.06869 -0.1163016,-0.137341 -0.1254112,-0.327999 -0.01051,-0.219971 0.013248,-0.307506 0.1096185,-0.403876 0.094472,-0.09447 0.1478621,-0.107569 0.4931049,-0.120961 0.3685465,-0.0143 0.3440317,0.01772 0.3361634,-0.439096 -0.00655,-0.380042 -0.013691,-0.409158 -0.1170186,-0.476859 -0.045201,-0.02962 -0.170226,-0.03148 -2.1131599,-0.03148 H 3.8434216 l -0.050383,0.0373 c -0.1099416,0.08139 -0.1034662,-0.04548 -0.1087603,2.130766 -0.0033,1.35561 0.00121,2.01876 0.014154,2.081098 0.022309,0.107461 0.07072,0.159826 0.1697343,0.183596 0.040578,0.0097 0.4225055,0.01568 0.8948706,0.01391 0.8054706,-0.003 0.8252159,-0.0039 0.8744395,-0.04038 z m 12.6976247,0.02636 c 0.415319,-0.08721 0.852397,-0.491689 1.000594,-0.925964 0.03897,-0.114209 0.03966,-0.133193 0.04487,-1.231354 0.0059,-1.238502 0.0048,-1.252881 -0.110151,-1.491931 -0.181161,-0.376698 -0.581927,-0.703868 -0.947822,-0.773766 -0.07681,-0.01467 -0.548377,-0.01892 -1.668574,-0.01504 -1.756547,0.0061 -1.645265,-0.003 -1.702053,0.138931 -0.02615,0.06537 -0.02894,0.269449 -0.02859,2.093095 3.74e-4,1.928016 0.0019,2.024 0.03343,2.093407 0.03161,0.0696 0.07329,0.0989 0.171404,0.120489 0.08552,0.01882 3.115201,0.01139 3.206886,-0.0079 z m -1.436715,-1.747093 c -0.199611,-0.01925 -0.224964,-0.07152 -0.224964,-0.463762 0,-0.419721 0.01583,-0.444769 0.294807,-0.466542 0.330571,-0.0258 0.495012,0.02096 0.592664,0.168521 0.04564,0.06897 0.04787,0.08294 0.04787,0.299642 0,0.223741 -8.38e-4,0.22849 -0.05354,0.303419 -0.07991,0.113621 -0.188904,0.161225 -0.380821,0.166328 -0.085,0.0023 -0.209213,-0.0012 -0.276023,-0.0076 z m 7.97945,1.725613 c 0.08923,-0.04869 0.108495,-0.116752 0.121344,-0.428689 0.01303,-0.316353 0.0014,-0.432084 -0.04587,-0.457395 -0.01787,-0.0096 -0.155903,-0.02234 -0.306752,-0.0284 -0.301398,-0.01211 -0.369721,-0.02593 -0.459309,-0.09288 -0.0923,-0.06898 -0.134118,-0.180638 -0.13524,-0.361103 -0.0013,-0.207215 0.01629,-0.274863 0.09376,-0.360707 0.101082,-0.112021 0.150099,-0.125806 0.489127,-0.137556 0.253727,-0.0088 0.303054,-0.0151 0.330146,-0.04221 0.02752,-0.02754 0.03185,-0.06566 0.03185,-0.280433 0,-0.214775 -0.0043,-0.252897 -0.03185,-0.280433 -0.02709,-0.02711 -0.07642,-0.03341 -0.330146,-0.04221 -0.339028,-0.01175 -0.388045,-0.02553 -0.489127,-0.137557 -0.07778,-0.0862 -0.0952,-0.15394 -0.09329,-0.362765 0.0022,-0.242041 0.09021,-0.378657 0.273433,-0.424558 0.03532,-0.0088 0.182656,-0.02059 0.327405,-0.02608 0.144748,-0.0055 0.278771,-0.01833 0.297829,-0.02853 0.04961,-0.02655 0.06074,-0.133551 0.04756,-0.45734 -0.01278,-0.314027 -0.03168,-0.381239 -0.120863,-0.429904 -0.05643,-0.03079 -0.162243,-0.03242 -2.11166,-0.03242 -2.037112,0 -2.052717,2.71e-4 -2.114716,0.0366 -0.122112,0.07156 -0.115989,-0.04378 -0.115993,2.185187 -3e-6,1.631946 0.0045,2.020283 0.0239,2.075195 0.026,0.07349 0.07866,0.116768 0.168388,0.138379 0.03165,0.0076 0.965006,0.01259 2.074116,0.01104 1.9119,-0.0027 2.019648,-0.0045 2.075969,-0.03524 z m 5.617779,0.0019 c 0.097,-0.05311 0.113748,-0.128632 0.113748,-0.512836 0,-0.282963 -0.0045,-0.34196 -0.02804,-0.365476 -0.01542,-0.01542 -0.04152,-0.02821 -0.058,-0.02842 -0.251864,-0.0032 -0.546648,-0.02575 -0.614174,-0.04705 -0.177725,-0.05607 -0.260768,-0.232908 -0.239507,-0.510021 0.0114,-0.14864 0.04135,-0.224761 0.116085,-0.295039 0.08902,-0.08372 0.153215,-0.09876 0.468467,-0.109763 0.212128,-0.0074 0.304567,-0.01729 0.325684,-0.03483 0.02498,-0.02075 0.02949,-0.06474 0.02949,-0.287808 0,-0.223066 -0.0045,-0.267059 -0.02949,-0.287808 -0.02123,-0.01764 -0.112861,-0.02718 -0.327459,-0.03408 -0.273057,-0.0088 -0.305271,-0.01335 -0.385267,-0.05451 -0.126975,-0.06534 -0.183176,-0.164261 -0.197206,-0.347094 -0.01633,-0.212745 0.0142,-0.33309 0.108354,-0.427249 0.09412,-0.09412 0.162612,-0.110969 0.502187,-0.123526 0.138109,-0.0051 0.264659,-0.01449 0.281224,-0.02084 0.04631,-0.01777 0.05144,-0.06806 0.04485,-0.43928 -0.0053,-0.295808 -0.01067,-0.351324 -0.03822,-0.391899 -0.06746,-0.09935 0.02091,-0.0955 -2.18969,-0.0955 -2.27654,0 -2.119142,-0.009 -2.186099,0.12492 -0.03494,0.06988 -0.0358,0.112328 -0.04073,2.016565 -0.0032,1.234377 0.0015,1.987363 0.01281,2.060614 0.02237,0.144646 0.06203,0.19969 0.163439,0.226851 0.05857,0.01569 0.593093,0.02024 2.095198,0.01785 1.866022,-0.003 2.020729,-0.0055 2.072351,-0.03376 z m 2.193417,0.0031 c 0.02815,-0.03111 0.03459,-0.07978 0.04423,-0.334607 0.01265,-0.334334 0.02787,-0.390372 0.130435,-0.480427 0.08187,-0.07188 0.162903,-0.09419 0.342215,-0.09419 0.23797,0 0.344944,0.05125 0.423298,0.20281 0.03268,0.06321 0.03957,0.115616 0.04883,0.371229 0.01416,0.391199 -0.0028,0.371584 0.321366,0.371584 0.182078,0 0.252418,-0.0064 0.278304,-0.02529 0.03118,-0.02277 0.03564,-0.05554 0.04464,-0.328263 0.0092,-0.277147 0.0138,-0.310342 0.05451,-0.389457 0.026,-0.05052 0.07522,-0.108073 0.118359,-0.138392 0.06642,-0.04668 0.09147,-0.05274 0.248865,-0.0602 0.209007,-0.0099 0.302937,0.0117 0.392372,0.09022 0.108693,0.09543 0.128024,0.163804 0.141878,0.501806 0.01172,0.285935 0.01404,0.300091 0.05343,0.325899 0.03404,0.0223 0.100848,0.02592 0.385318,0.02087 0.383094,-0.0068 0.435651,-0.02099 0.481689,-0.129973 0.0184,-0.04357 0.02306,-0.469358 0.02306,-2.10764 0,-1.9314 -0.0019,-2.055889 -0.03148,-2.101084 -0.0738,-0.112623 -0.05825,-0.110472 -0.841517,-0.116418 -0.626062,-0.0048 -0.723419,-0.0018 -0.790299,0.02371 -0.118482,0.04525 -0.141732,0.08798 -0.156732,0.28805 -0.0117,0.156084 -0.01779,0.177949 -0.06179,0.221946 -0.06893,0.06893 -0.175462,0.09228 -0.384492,0.08428 -0.280553,-0.01074 -0.327726,-0.05261 -0.347291,-0.308233 -0.0139,-0.18154 -0.0353,-0.22811 -0.125553,-0.273108 -0.05573,-0.02779 -0.137112,-0.03178 -0.739398,-0.03631 -0.72008,-0.0054 -0.834349,0.0038 -0.899097,0.07277 -0.02034,0.02166 -0.04531,0.07552 -0.05549,0.119689 -0.02585,0.112242 -0.02633,3.945371 -5.08e-4,4.065787 0.02138,0.0997 0.0688,0.152712 0.159595,0.178428 0.03435,0.0097 0.207773,0.01841 0.385378,0.0193 0.303459,0.0015 0.324903,-5.84e-4 0.355863,-0.03479 z M 11.8967,13.486103 c 0.185871,-0.03312 0.345797,-0.113895 0.472397,-0.238596 0.193298,-0.190399 0.236237,-0.340574 0.23487,-0.821445 -9.7e-4,-0.341205 -0.01973,-0.542488 -0.05739,-0.615919 -0.03885,-0.07573 -0.1138,-0.137259 -0.201569,-0.165462 -0.07309,-0.02349 -0.202911,-0.03046 -0.692731,-0.0372 -1.002857,-0.0138 -1.115963,0.01823 -1.172506,0.331949 -0.03104,0.172201 -0.03266,0.810592 -0.0024,0.930651 0.05559,0.220296 0.197245,0.406722 0.398599,0.524567 0.181685,0.106333 0.684403,0.151375 1.020695,0.09145 z"
       id="path4" /><text
       xml:space="preserve"
       transform="matrix(0.26458333,0,0,0.26458333,1.0569395,-39.094212)"
       id="text2"
       style="font-size:24px;line-height:1.3;text-align:start;writing-mode:lr-tb;direction:ltr;white-space:pre;shape-inside:url(#rect2);display:inline;fill:#000000"><tspan
         x="7.3242188"
         y="274.24045"
         id="tspan2"><tspan
           style="font-family:Lectus;-inkscape-font-specification:Lectus;fill:#ffffff"
           id="tspan1">2x Pony
</tspan></tspan><tspan
         x="7.3242188"
         y="306.84457"
         id="tspan5"><tspan
           style="font-family:Lectus;-inkscape-font-specification:Lectus;fill:#ffffff"
           id="tspan4">64 Pcs
</tspan></tspan><tspan
         x="7.3242188"
         y="339.4487"
         id="tspan7"><tspan
           style="font-family:Lectus;-inkscape-font-specification:Lectus;fill:#ffffff"
           id="tspan6">5 Color
</tspan></tspan><tspan
         x="7.3242188"
         y="372.05283"
         id="tspan9"><tspan
           style="font-family:Lectus;-inkscape-font-specification:Lectus;fill:#ffffff"
           id="tspan8">103125
</tspan></tspan><tspan
         x="7.3242188"
         y="404.65695"
         id="tspan11"><tspan
           style="font-family:Lectus;-inkscape-font-specification:Lectus;fill:#ffffff"
           id="tspan10">Birthday Surprise
</tspan></tspan><tspan
         x="7.3242188"
         y="437.26108"
         id="tspan13"><tspan
           style="font-family:Lectus;-inkscape-font-specification:Lectus;fill:#ffffff"
           id="tspan12">f-deem.org/sets/0002</tspan></tspan></text><rect
       style="fill:none;stroke:#ffffff;stroke-width:2;stroke-linecap:butt;stroke-linejoin:round;stroke-dasharray:none;stroke-dashoffset:0;stroke-opacity:1;paint-order:normal"
       id="rect4"
       width="116.16434"
       height="54.145184"
       x="40.108807"
       y="4.6087761"
       rx="5" /><path
       style="fill:#ffffff;fill-opacity:1"
       d="m 55.484005,58.819832 c 0.01267,-0.320075 0.08824,-2.918725 0.167929,-5.774778 0.09559,-3.425827 0.158601,-5.227776 0.185171,-5.295543 0.04834,-0.12329 0.222338,-0.237181 0.362639,-0.237365 l 0.101781,-1.34e-4 -0.07369,-0.116391 C 55.737752,46.621525 55.6777,46.07135 56.008221,45.383607 c 0.254128,-0.528781 0.410731,-0.726208 1.180846,-1.488665 1.131324,-1.120075 1.263374,-1.296993 1.4167,-1.898067 0.141403,-0.554335 -0.03093,-1.262572 -0.450223,-1.850229 -0.05852,-0.08202 -0.2167,-0.251248 -0.351506,-0.376058 -0.253895,-0.235068 -0.398916,-0.460884 -0.398916,-0.621164 0,-0.206868 0.196117,-0.411493 0.394384,-0.411493 0.0416,0 0.159234,0.02514 0.261419,0.05586 0.102186,0.03072 0.250255,0.07411 0.329043,0.09641 0.209606,0.05933 0.824878,0.350387 1.08402,0.512802 0.720072,0.451299 1.692006,1.36072 2.006688,1.877624 0.760515,1.249237 0.868609,2.212189 0.373867,3.330569 -0.03921,0.08864 -0.091,0.217562 -0.115086,0.286501 -0.02409,0.06894 -0.07257,0.205922 -0.107739,0.304407 -0.07228,0.202408 -0.162052,0.51182 -0.202609,0.698345 -0.01499,0.06894 -0.02807,0.419434 -0.02907,0.778878 -0.0014,0.510632 0.0083,0.653543 0.04438,0.653579 0.09837,9.8e-5 0.330775,0.148703 0.378675,0.242132 0.0634,0.123671 0.03022,-0.60739 0.397871,8.764776 0.04868,1.240906 0.0986,2.437494 0.110933,2.659084 l 0.02243,0.402891 h -0.412322 -0.412322 l -0.02079,-0.259641 c -0.01144,-0.142802 -0.06106,-1.299101 -0.110284,-2.569552 -0.313114,-8.081945 -0.322252,-8.302108 -0.345568,-8.325424 -0.0092,-0.0092 -0.104573,-0.0014 -0.211842,0.01747 -0.622493,0.109406 -1.578503,0.209553 -2.779648,0.291184 -0.493457,0.03354 -0.744347,0.03452 -1.038052,0.0041 -0.213025,-0.02209 -0.393235,-0.03425 -0.400467,-0.02702 -0.01126,0.01126 -0.117935,3.56803 -0.25403,8.469486 -0.02051,0.738634 -0.04739,1.580677 -0.05973,1.871207 l -0.02244,0.528235 h -0.412925 -0.412926 z m 15.667561,0.48347 c 0.100421,-0.145046 0.202368,-0.319553 0.343654,-0.588243 0.06914,-0.131489 0.142534,-0.249468 0.163096,-0.262176 0.02056,-0.01271 0.07848,-0.09851 0.128705,-0.19068 0.05023,-0.09217 0.161714,-0.288443 0.247752,-0.43617 0.200091,-0.343558 0.933782,-1.784475 0.998442,-1.96087 0.05499,-0.150009 0.207637,-0.517896 0.314155,-0.757118 0.03854,-0.08656 0.108552,-0.271894 0.155572,-0.411845 0.144657,-0.430552 0.269318,-0.78574 0.321836,-0.916988 0.02759,-0.06894 0.10091,-0.294558 0.162941,-0.501376 0.06203,-0.206817 0.137246,-0.448552 0.167144,-0.537188 0.0299,-0.08864 0.07745,-0.249793 0.105668,-0.358126 0.02822,-0.108333 0.06599,-0.245316 0.08394,-0.304407 0.09303,-0.306324 0.277036,-1.015641 0.431991,-1.665285 0.09175,-0.384656 0.161994,-0.722106 0.354104,-1.701097 0.06616,-0.337169 0.251881,-1.647061 0.30719,-2.166661 0.08964,-0.842152 0.107509,-2.206494 0.03752,-2.865006 -0.03245,-0.305302 -0.07261,-0.611499 -0.08924,-0.680438 -0.01663,-0.06894 -0.05055,-0.246212 -0.07538,-0.393939 -0.06895,-0.410197 -0.311588,-1.423325 -0.445996,-1.862254 -0.07332,-0.239436 -0.130975,-0.405792 -0.254439,-0.734157 -0.05184,-0.137879 -0.1186,-0.319069 -0.148353,-0.402646 -0.02975,-0.08358 -0.219356,-0.486468 -0.421341,-0.895314 -0.320684,-0.649109 -0.447987,-0.871246 -0.830517,-1.449204 -0.0429,-0.06481 -0.123475,-0.186602 -0.179063,-0.270642 -0.429031,-0.648632 -1.294323,-1.653933 -1.949164,-2.264549 -0.687953,-0.641491 -0.765174,-0.709969 -1.375035,-1.219357 -1.086589,-0.907575 -1.426293,-1.197038 -1.824959,-1.555056 -0.569031,-0.511011 -1.162238,-1.03237 -1.308641,-1.15014 -0.06894,-0.05546 -0.206288,-0.174145 -0.305219,-0.263752 -0.09893,-0.08961 -0.364535,-0.324079 -0.59023,-0.521048 -0.841795,-0.734653 -2.081432,-1.978956 -2.207755,-2.216067 -0.0566,-0.106242 -0.0516,-0.253107 0.01662,-0.487783 0.140749,-0.484173 0.180026,-0.626356 0.174339,-0.631113 -0.04747,-0.0397 -1.123911,-0.556561 -1.243659,-0.597148 -0.08954,-0.03035 -0.218464,-0.07991 -0.286501,-0.110134 -0.132669,-0.05894 -0.613293,-0.212196 -0.920694,-0.29358 -0.103498,-0.0274 -0.272713,-0.07289 -0.376032,-0.101098 -0.576739,-0.157432 -1.452089,-0.346792 -2.068014,-0.447364 -0.618391,-0.100974 -1.215824,-0.146731 -1.915973,-0.146744 -0.890584,-1.6e-5 -1.497389,0.06189 -2.148754,0.219214 -0.716634,0.173089 -0.710868,0.17126 -1.342972,0.426075 -0.313273,0.126288 -1.001076,0.489882 -1.235534,0.653142 l -0.214875,0.149625 -0.0029,0.430609 c -0.0034,0.507052 -0.06144,0.758093 -0.27254,1.179385 -0.316886,0.632403 -0.941152,1.210562 -1.738537,1.610132 -0.638727,0.320067 -0.97385,0.410741 -1.531711,0.414433 -0.510739,0.0034 -1.056218,-0.182817 -1.703589,-0.581513 -0.382422,-0.235522 -1.036843,-0.836598 -1.236118,-1.135356 -0.04598,-0.06894 -0.133066,-0.195181 -0.193517,-0.280538 -0.160828,-0.22709 -0.452659,-0.824131 -0.558795,-1.14321 -0.241065,-0.724717 -0.320875,-1.311613 -0.288521,-2.121697 0.0332,-0.83138 0.13576,-1.259707 0.458742,-1.915973 0.556418,-1.130579 1.42667,-1.894399 2.805799,-2.462647 0.78229,-0.32233 2.040516,-0.59015 3.061975,-0.651758 0.799825,-0.04824 2.122888,0.119439 3.115694,0.394868 0.556904,0.1545 0.831101,0.243919 1.102451,0.359523 0.06468,0.02756 0.140876,0.0501 0.169317,0.0501 0.02844,0 0.136674,0.03883 0.240519,0.08628 0.413435,0.188927 0.697939,0.307658 0.737215,0.307658 0.02273,0 0.158422,0.05467 0.301551,0.121497 0.379531,0.177194 0.916472,0.414059 1.101829,0.486058 0.177076,0.06878 1.685693,0.785197 2.112942,1.003398 0.829545,0.423658 1.406478,0.742411 1.794781,0.991609 0.06666,0.04278 0.198982,0.123355 0.29406,0.179063 0.09508,0.05571 0.224003,0.136926 0.286501,0.180486 0.0625,0.04356 0.186152,0.121079 0.274788,0.172266 0.08864,0.05119 0.265909,0.155632 0.393939,0.2321 0.12803,0.07647 0.361707,0.206486 0.519282,0.28893 0.157575,0.08244 0.350963,0.193954 0.429751,0.247801 0.252987,0.172902 0.495018,0.322675 0.521436,0.322675 0.01413,0 0.0365,-0.06043 0.04971,-0.134297 0.01321,-0.07386 0.05325,-0.222933 0.08897,-0.331266 0.05889,-0.178579 0.109056,-0.343659 0.32648,-1.074377 0.0381,-0.12803 0.09448,-0.321418 0.125296,-0.429751 0.209281,-0.735693 0.332308,-1.113284 0.392819,-1.205635 0.08417,-0.12846 0.256228,-0.201778 0.40704,-0.17345 0.07126,0.01339 0.26655,0.03054 0.433973,0.03813 0.167424,0.0076 0.533554,0.03296 0.813622,0.05639 0.399583,0.03343 0.600052,0.03304 0.931127,-0.0018 0.467348,-0.04921 1.686179,-0.233757 2.588573,-0.391935 0.258695,-0.04535 1.115433,-0.241016 1.342971,-0.306721 0.35017,-0.101117 0.933572,-0.278695 1.092284,-0.332474 0.08864,-0.03003 0.209503,-0.06781 0.268594,-0.08395 0.309957,-0.08464 0.823742,-0.289621 0.971884,-0.387746 0.09267,-0.06138 0.210047,-0.111695 0.260837,-0.111804 0.162152,-3.51e-4 0.497444,-0.105093 0.969752,-0.302943 0.108334,-0.04538 0.325895,-0.13382 0.48347,-0.196532 0.157576,-0.06271 0.403606,-0.169329 0.546734,-0.236925 0.143129,-0.0676 0.283904,-0.122902 0.312834,-0.122902 0.02893,0 0.185791,-0.06327 0.34858,-0.140594 0.162789,-0.07733 0.441021,-0.199782 0.618293,-0.272124 0.177273,-0.07234 0.393139,-0.163098 0.479703,-0.20168 0.08656,-0.03858 0.271894,-0.107682 0.411845,-0.153556 0.13995,-0.04587 0.31086,-0.108036 0.379799,-0.13814 0.160274,-0.06999 0.887072,-0.293276 1.39669,-0.429097 1.164985,-0.310485 2.589112,-0.239121 3.814039,0.191124 0.118182,0.04151 0.263223,0.08773 0.322314,0.102712 0.05909,0.01498 0.155784,0.05111 0.214875,0.08028 0.05909,0.02917 0.17491,0.07426 0.257377,0.100198 0.166322,0.05232 0.108137,0.08108 0.776699,-0.384002 0.12065,-0.08393 0.259653,-0.179403 0.308895,-0.21216 0.04924,-0.03276 0.175449,-0.117186 0.280458,-0.187619 0.105009,-0.07043 0.243514,-0.160291 0.307788,-0.199685 0.06427,-0.03939 0.187861,-0.124828 0.274637,-0.189854 0.158626,-0.118866 0.512977,-0.357365 0.728892,-0.490585 0.06385,-0.03939 0.187084,-0.124828 0.27386,-0.189854 0.158626,-0.118866 0.512978,-0.357364 0.728892,-0.490585 0.06385,-0.03939 0.187084,-0.124828 0.273861,-0.189854 0.158625,-0.118866 0.512977,-0.357364 0.728891,-0.490585 0.06385,-0.03939 0.187084,-0.124828 0.273861,-0.189854 0.141967,-0.106383 0.344107,-0.243151 0.751536,-0.508491 0.07561,-0.04924 0.300595,-0.202341 0.499963,-0.340219 0.199368,-0.137879 0.424987,-0.290977 0.501376,-0.34022 0.07639,-0.04924 0.302008,-0.202341 0.501376,-0.340219 0.199368,-0.137879 0.424987,-0.290977 0.501376,-0.34022 0.07639,-0.04924 0.302008,-0.202341 0.501376,-0.340219 0.199368,-0.137879 0.424987,-0.290977 0.501376,-0.34022 0.07639,-0.04924 0.301715,-0.202341 0.500724,-0.340219 0.199009,-0.137878 0.418548,-0.284815 0.487864,-0.326527 0.254859,-0.153361 0.253912,-0.137697 0.0357,-0.590392 -0.265031,-0.549816 -0.309736,-0.717408 -0.308197,-1.15537 0.002,-0.5821321 0.12836,-0.9557042 0.452167,-1.3372802 0.187041,-0.22041 0.371775,-0.3504488 0.813886,-0.5729162 0.264127,-0.1329065 0.372822,-0.1675816 0.570232,-0.1819103 l 0.243901,-0.017703 0.180589,-0.3598656 c 0.214631,-0.427704 0.446988,-0.6753593 0.766217,-0.8166672 0.117024,-0.051801 0.277233,-0.1222196 0.35602,-0.1564861 0.425484,-0.1850521 1.166827,-0.2523968 1.59366,-0.1447703 0.722385,0.1821505 1.41725,0.5890184 1.61468,0.9454471 0.0397,0.071737 0.11167,0.1948942 0.15986,0.2736819 0.0482,0.078788 0.10442,0.2038372 0.12496,0.2778878 0.0333,0.120294 0.0667,0.1495831 0.3134,0.274925 0.43828,0.222709 0.62164,0.4094687 0.85931,0.8752186 l 0.20331,0.3984098 6.7e-4,0.6267197 c 6e-4,0.563063 -0.008,0.654002 -0.0849,0.895315 -0.11106,0.348557 -0.3727,0.870416 -0.53682,1.070699 -0.29564,0.360796 -0.92696,0.758027 -1.43672,0.903994 -0.1373,0.03931 -0.34689,0.06662 -0.511349,0.06662 -0.238136,0 -0.308495,-0.01533 -0.483584,-0.105375 -0.112695,-0.05796 -0.252967,-0.144841 -0.311715,-0.193077 l -0.106813,-0.0877 -0.250118,0.194342 c -0.137564,0.106888 -0.290944,0.203599 -0.340843,0.214912 -0.0499,0.01131 -0.159781,0.04298 -0.244181,0.07036 -0.0844,0.02739 -0.19721,0.05036 -0.250688,0.05105 -0.08921,0.0012 -0.114796,0.03885 -0.309982,0.45661 -0.117012,0.250445 -0.232644,0.512514 -0.256959,0.582377 -0.02432,0.06986 -0.150168,0.341845 -0.279674,0.604407 -0.129505,0.262561 -0.235464,0.499742 -0.235464,0.527068 0,0.02733 -0.104752,0.258727 -0.232782,0.514225 -0.12803,0.255497 -0.232781,0.482611 -0.232781,0.504698 0,0.02209 -0.102865,0.260022 -0.228588,0.528746 -0.125723,0.268725 -0.337002,0.730325 -0.469508,1.025779 -0.132506,0.295453 -0.344144,0.75475 -0.470306,1.020658 -0.126163,0.265908 -0.229139,0.503829 -0.228838,0.528713 3.02e-4,0.02488 -0.11226,0.270432 -0.250139,0.545664 -0.137878,0.275232 -0.250688,0.522764 -0.250688,0.550071 0,0.02731 -0.104752,0.262026 -0.232782,0.521596 -0.12803,0.25957 -0.232781,0.486447 -0.232781,0.504172 0,0.03079 -0.203677,0.478699 -0.702539,1.544975 -0.125723,0.268724 -0.228588,0.506698 -0.228588,0.528832 0,0.02213 -0.08864,0.216978 -0.196969,0.432987 -0.108333,0.21601 -0.19697,0.414198 -0.19697,0.440417 0,0.02622 0.132955,0.169318 0.295454,0.317996 0.326288,0.298537 2.325129,2.093404 2.751757,2.470952 0.148548,0.131458 0.349622,0.31456 0.446832,0.406893 0.09721,0.09233 0.525103,0.481271 0.950872,0.864308 0.425769,0.383037 0.7924,0.736539 0.814736,0.785561 0.05709,0.1253 0.05047,0.32093 -0.01515,0.447826 -0.05686,0.109952 -0.387212,0.278557 -7.188643,3.668915 l -1.153649,0.575068 -0.131369,0.266527 c -0.07225,0.14659 -0.158514,0.355164 -0.191691,0.463497 -0.03318,0.108333 -0.07881,0.245316 -0.101413,0.304407 -0.06397,0.167247 -0.0502,0.896987 0.02094,1.11019 0.178722,0.535607 0.247469,0.673124 0.77879,1.557847 0.08342,0.138898 0.183573,0.286532 0.376586,0.555095 0.07078,0.09848 0.188421,0.26958 0.261425,0.380212 0.212174,0.321535 0.458982,0.678594 0.615973,0.891134 0.08002,0.108333 0.173241,0.243306 0.207158,0.299939 0.03392,0.05663 0.11956,0.177841 0.190317,0.26935 0.07076,0.09151 0.14971,0.206328 0.175451,0.255155 0.02574,0.04883 0.101336,0.161297 0.167989,0.249933 0.170822,0.22716 0.427755,0.604007 0.512756,0.752064 0.03958,0.06894 0.140377,0.224543 0.223997,0.345787 0.08362,0.121243 0.200382,0.304107 0.259473,0.406363 0.05909,0.102257 0.141495,0.228677 0.183122,0.280934 0.04163,0.05226 0.110926,0.159475 0.154,0.238263 0.07264,0.132859 0.194659,0.332548 0.38528,0.630496 0.04278,0.06686 0.123355,0.198965 0.179063,0.293561 0.08601,0.146053 0.451328,0.721888 0.56685,0.893503 0.165154,0.245345 0.398292,0.579808 0.517936,0.743039 0.0794,0.108333 0.171889,0.237258 0.205519,0.2865 0.03363,0.04924 0.110229,0.149289 0.170221,0.222325 0.05999,0.07304 0.165481,0.207191 0.23442,0.29812 0.06894,0.09093 0.198622,0.248734 0.288183,0.350676 0.08956,0.101943 0.186255,0.219953 0.214875,0.262247 0.224031,0.331055 1.86202,2.042839 2.397666,2.505687 0.08858,0.07654 0.331145,0.29227 0.539025,0.479391 0.20788,0.187121 0.610814,0.537929 0.895409,0.779575 0.284589,0.241645 0.759179,0.648273 1.054629,0.903616 0.29546,0.255344 0.76281,0.656381 1.03857,0.891194 0.6561,0.558688 2.13437,2.005524 2.54009,2.486084 l 0.31972,0.378691 0.12537,-0.05238 c 0.12046,-0.05033 0.4467,-0.331615 0.59607,-0.513931 0.10655,-0.130042 0.26465,-0.39538 0.53489,-0.897652 0.0753,-0.139879 0.20484,-0.436707 0.24232,-0.555095 0.0878,-0.277303 0.39537,-1.526096 0.58212,-2.36363 0.10762,-0.482675 0.29575,-1.255765 0.37474,-1.539941 0.0164,-0.05909 0.0571,-0.179958 0.0904,-0.268594 0.0333,-0.08864 0.0732,-0.209503 0.0887,-0.268594 0.0283,-0.108427 0.65392,-1.355877 0.80247,-1.600185 0.0441,-0.07253 0.10589,-0.161164 0.13732,-0.196969 0.0314,-0.03581 0.0818,-0.113447 0.11197,-0.172538 0.15528,-0.304328 1.10836,-1.340148 1.62725,-1.768509 0.61287,-0.505948 0.85546,-0.664532 1.62133,-1.059867 0.63264,-0.326567 1.09452,-0.445356 1.84547,-0.474631 0.42981,-0.01676 0.56089,-0.008 0.90619,0.06079 0.22203,0.04421 0.48743,0.112186 0.58978,0.151056 0.10235,0.03887 0.2425,0.08736 0.31144,0.107758 0.18832,0.05572 0.55427,0.248612 0.89531,0.471924 0.44974,0.294489 0.46529,0.306851 0.53991,0.429216 0.18543,0.304096 -0.0505,0.668495 -0.40229,0.621313 -0.10672,-0.01432 -0.16313,3.88e-4 -0.25381,0.06617 -0.0641,0.04652 -0.16494,0.111439 -0.22403,0.144275 -0.26343,0.146383 -0.68302,0.525752 -0.94738,0.856565 -0.13403,0.167724 -0.50303,0.820184 -0.50303,0.889456 0,0.0074 0.10879,0.02431 0.24174,0.03755 0.36915,0.03677 1.19311,0.220387 1.54889,0.345172 0.16503,0.05788 0.6652,0.275711 0.82369,0.358727 0.0689,0.03611 0.28017,0.146243 0.4694,0.244742 0.35112,0.182762 0.61517,0.353791 1.0022,0.649134 0.2456,0.187415 1.17828,1.142615 1.43371,1.468316 0.35836,0.456967 0.65385,0.895187 0.85726,1.271346 0.0426,0.07879 0.10722,0.175827 0.1436,0.215643 0.0719,0.0787 0.82109,1.594723 0.82109,1.661511 0,0.02247 0.0483,0.136636 0.10744,0.253694 0.0591,0.117059 0.10744,0.237035 0.10744,0.266615 0,0.02958 0.0307,0.122705 0.0682,0.206944 0.13867,0.311446 0.31221,0.821364 0.44822,1.31707 0.28499,1.038647 0.4147,1.630762 0.4147,1.893048 0,0.385795 -0.3327,0.587797 -0.64462,0.39139 -0.16579,-0.104393 -0.32022,-0.163386 -0.64463,-0.246257 -0.68279,-0.174422 -1.27356,-0.213825 -1.51649,-0.101147 -0.0962,0.04464 -0.10021,0.05531 -0.0716,0.192163 0.0397,0.190109 0.0255,0.684595 -0.0253,0.883094 -0.0221,0.08642 -0.0581,0.233671 -0.08,0.327232 l -0.0397,0.170109 h -0.44476 c -0.44454,0 -0.44475,-3.9e-5 -0.42051,-0.08058 0.0226,-0.07503 0.085,-0.303291 0.1639,-0.599861 0.038,-0.142699 0.0458,-0.4675 0.0133,-0.552188 -0.012,-0.03117 -0.0914,-0.08748 -0.17652,-0.125135 -0.44868,-0.198475 -0.30061,-0.790992 0.19768,-0.790992 0.0847,0 0.22,-0.03739 0.32146,-0.0888 0.31956,-0.16193 0.4801,-0.203426 0.86094,-0.222527 0.37798,-0.01896 0.87402,0.03588 1.33402,0.147474 0.2274,0.05516 0.23127,0.05152 0.16867,-0.158696 -0.0205,-0.06881 -0.0938,-0.334611 -0.16301,-0.590671 -0.20877,-0.772937 -0.35137,-1.208269 -0.51941,-1.585664 -0.0375,-0.08424 -0.0682,-0.177364 -0.0682,-0.206944 0,-0.02958 -0.0483,-0.149557 -0.10744,-0.266615 -0.0591,-0.117058 -0.10744,-0.230701 -0.10744,-0.252539 0,-0.06667 -0.53528,-1.155286 -0.60616,-1.232758 -0.0365,-0.0399 -0.10923,-0.153128 -0.1616,-0.251613 -0.21444,-0.403253 -0.53051,-0.871478 -0.82926,-1.228472 -0.061,-0.07282 -0.12541,-0.159291 -0.14325,-0.192151 -0.1167,-0.214875 -1.12502,-1.190419 -1.48286,-1.434649 -0.0492,-0.03361 -0.15961,-0.110678 -0.24527,-0.171266 -0.23116,-0.1635 -1.18632,-0.633083 -1.48347,-0.729315 -0.25285,-0.08188 -0.6692,-0.189219 -1.06464,-0.274463 -0.10833,-0.02335 -0.41453,-0.05069 -0.68044,-0.06076 -0.53184,-0.02013 -0.64661,-0.05505 -0.73355,-0.223168 -0.076,-0.147019 -0.0682,-0.406569 0.0173,-0.574174 0.0394,-0.07722 0.0716,-0.165427 0.0716,-0.19602 0,-0.118407 0.51734,-1.085135 0.70961,-1.326014 0.3432,-0.429974 0.71347,-0.75958 1.04705,-0.932084 0.0581,-0.03003 0.10559,-0.06989 0.10559,-0.08857 0,-0.04113 -0.19234,-0.144194 -0.34022,-0.182293 -0.0591,-0.01522 -0.17996,-0.0547 -0.26859,-0.08773 -0.74405,-0.277233 -1.56219,-0.288088 -2.35376,-0.03123 -0.15435,0.05009 -0.89182,0.419827 -1.12203,0.562546 -0.21194,0.131394 -0.86035,0.651059 -1.11234,0.891472 -0.38688,0.369104 -1.07944,1.169486 -1.26179,1.45823 -0.0424,0.06711 -0.12094,0.187979 -0.17457,0.268594 -0.19204,0.288698 -0.59749,1.125925 -0.70551,1.456851 -0.0605,0.185405 -0.12577,0.385447 -0.14499,0.444538 -0.0489,0.150248 -0.20424,0.807075 -0.32376,1.368736 -0.0554,0.260381 -0.118,0.52629 -0.13909,0.590907 -0.0211,0.06462 -0.10187,0.391452 -0.17951,0.7263 -0.18162,0.783313 -0.27011,1.099301 -0.37609,1.342972 -0.0471,0.108333 -0.12906,0.305026 -0.1821,0.437096 -0.053,0.132069 -0.12045,0.260067 -0.14982,0.284439 -0.0294,0.02437 -0.10932,0.149992 -0.17769,0.279155 -0.0684,0.129164 -0.16685,0.307364 -0.21886,0.396 -0.13083,0.222976 -0.62745,0.701817 -0.83911,0.809073 l -0.17519,0.08878 0.115,0.168841 c 0.21402,0.314189 0.23615,0.349852 0.31668,0.510159 0.0442,0.08803 0.11021,0.19268 0.14663,0.232552 0.0716,0.07831 0.78519,1.523698 0.78519,1.590294 0,0.02219 0.046,0.132557 0.1022,0.245253 0.0562,0.112695 0.11221,0.257276 0.12445,0.321291 l 0.0222,0.116391 h -0.42194 -0.42194 l -0.11111,-0.241735 c -0.0611,-0.132954 -0.15518,-0.346486 -0.20902,-0.474516 -0.14516,-0.345174 -0.47379,-0.993709 -0.51709,-1.020472 -0.0207,-0.01282 -0.0862,-0.114802 -0.14547,-0.226624 -0.14534,-0.274229 -0.31561,-0.533997 -0.73224,-1.117119 -0.26097,-0.36526 -0.71072,-0.869435 -1.30844,-1.46679 -0.84215,-0.841636 -1.05268,-1.03361 -2.5056,-2.28478 -1.967137,-1.693986 -2.017693,-1.73814 -2.879751,-2.515045 -1.016634,-0.916214 -2.74342,-2.865596 -3.406268,-3.845363 -0.07828,-0.115713 -0.211005,-0.309101 -0.294935,-0.429751 -0.262268,-0.377012 -0.610893,-0.91674 -0.778526,-1.205286 -0.05909,-0.101712 -0.141536,-0.227687 -0.183211,-0.279944 -0.04167,-0.05226 -0.119283,-0.175591 -0.172461,-0.274075 -0.148724,-0.27543 -0.281729,-0.496654 -0.36058,-0.599742 -0.03939,-0.0515 -0.119972,-0.17686 -0.179063,-0.278571 -0.05909,-0.101712 -0.175853,-0.284129 -0.259473,-0.405373 -0.08362,-0.121243 -0.184418,-0.276847 -0.223996,-0.345786 -0.085,-0.148057 -0.341935,-0.524904 -0.512756,-0.752064 -0.06665,-0.08864 -0.142248,-0.201106 -0.167989,-0.249933 -0.02574,-0.04883 -0.104694,-0.163648 -0.175452,-0.255156 -0.07076,-0.09151 -0.156399,-0.212715 -0.190316,-0.269349 -0.03392,-0.05663 -0.127138,-0.191606 -0.207158,-0.299939 -0.08002,-0.108334 -0.217373,-0.301721 -0.30523,-0.429751 -0.08786,-0.12803 -0.228313,-0.331496 -0.312124,-0.452146 -0.08381,-0.120651 -0.214956,-0.314039 -0.291431,-0.429751 -0.07648,-0.115713 -0.169071,-0.250676 -0.205769,-0.299918 -0.0367,-0.04924 -0.100019,-0.145937 -0.140715,-0.214876 -0.04069,-0.06894 -0.136657,-0.230096 -0.213248,-0.358125 C 88.768087,37.88682 88.420223,37.146 88.306269,36.76824 c -0.06722,-0.222831 -0.06631,-1.214234 0.0013,-1.432503 0.02746,-0.08864 0.07034,-0.225619 0.09529,-0.304407 0.02495,-0.07879 0.103205,-0.263663 0.1739,-0.410834 0.0707,-0.147172 0.129089,-0.292212 0.129765,-0.322314 6.76e-4,-0.0301 0.07192,-0.183654 0.158319,-0.341229 0.371447,-0.677446 0.847988,-1.671709 0.9698,-2.023411 0.291007,-0.840208 0.446302,-1.373731 0.521208,-1.790628 0.01946,-0.108333 0.0597,-0.333953 0.08942,-0.501376 0.118278,-0.666437 0.105584,-2.092354 -0.02455,-2.757569 -0.149665,-0.765058 -0.258354,-1.185656 -0.434963,-1.683191 -0.03845,-0.108333 -0.09258,-0.261431 -0.120289,-0.340219 -0.05405,-0.15372 -0.27756,-0.6586 -0.356714,-0.805783 -0.02648,-0.04924 -0.104005,-0.195369 -0.172272,-0.324727 -0.259678,-0.492054 -0.679667,-1.088818 -0.93015,-1.321652 -0.09549,-0.08876 -0.198372,-0.209907 -0.228623,-0.26921 -0.166892,-0.327167 -1.590636,-1.5951 -2.192062,-1.952169 -0.08294,-0.04924 -0.23189,-0.143368 -0.330998,-0.209169 -0.235275,-0.156206 -0.670103,-0.363796 -0.76238,-0.363966 -0.03995,-7.4e-5 -0.120983,-0.03207 -0.180074,-0.07111 -0.215489,-0.142355 -0.420276,-0.239503 -0.608813,-0.288813 -0.05909,-0.01545 -0.196074,-0.05974 -0.304407,-0.09842 -1.179706,-0.421174 -2.38362,-0.48913 -3.47382,-0.196082 -0.603258,0.162157 -1.224541,0.352259 -1.39399,0.426538 -0.06745,0.02957 -0.236668,0.0911 -0.376032,0.136726 -0.139363,0.04563 -0.325909,0.115873 -0.414545,0.156094 -0.08864,0.04022 -0.25785,0.110587 -0.376032,0.156368 l -0.214875,0.08324 0.76997,0.02446 c 0.878903,0.02792 1.436102,0.07475 2.077129,0.174593 0.833448,0.129807 2.068596,0.451628 2.811287,0.732488 0.137879,0.05214 0.311352,0.117696 0.385496,0.145678 0.478297,0.180509 1.626464,0.839204 2.085572,1.196477 0.990734,0.770978 1.443038,1.276855 1.828136,2.044669 0.62049,1.237143 0.86315,2.297848 0.83091,3.632026 -0.01488,0.615714 -0.02745,0.724556 -0.13218,1.144231 -0.06366,0.255086 -0.162685,0.556795 -0.220065,0.670465 -0.05738,0.11367 -0.104781,0.235334 -0.105335,0.270365 -0.0016,0.101386 -0.463568,0.890735 -0.776633,1.327013 -0.248559,0.346386 -0.882778,1.095877 -1.245475,1.471847 -0.370359,0.383912 -1.015484,0.964374 -1.152896,1.037337 -0.250841,0.133192 -0.584309,-0.07814 -0.584309,-0.370309 0,-0.165199 0.09242,-0.280701 0.565702,-0.706955 0.698508,-0.629105 1.705121,-1.797359 2.03071,-2.356798 0.05909,-0.101532 0.159813,-0.265155 0.223828,-0.363606 0.06401,-0.09845 0.116391,-0.202092 0.116391,-0.230313 0,-0.02822 0.04032,-0.130873 0.08959,-0.228116 0.111227,-0.219496 0.16748,-0.389655 0.272263,-0.823565 0.07095,-0.293789 0.0823,-0.435524 0.08323,-1.038565 10e-4,-0.673512 -0.03637,-1.023338 -0.157009,-1.468316 -0.13027,-0.4805 -0.165104,-0.593973 -0.324436,-1.056867 -0.07895,-0.22938 -0.362288,-0.775893 -0.509935,-0.983596 -0.281764,-0.396373 -1.15631,-1.195282 -1.73696,-1.586734 -0.530468,-0.357622 -1.45996,-0.839211 -1.781479,-0.923022 -0.05909,-0.0154 -0.196074,-0.05936 -0.304407,-0.09768 -0.179389,-0.06346 -0.364711,-0.120723 -0.877408,-0.271122 -0.61755,-0.181157 -1.669506,-0.375277 -2.488974,-0.459295 -0.7025,-0.07203 -2.745516,-0.06038 -3.241038,0.01848 -0.467947,0.07447 -0.701266,0.122484 -0.895314,0.184252 -0.07879,0.02508 -0.239944,0.05727 -0.358126,0.07152 -0.118181,0.01426 -0.246728,0.04293 -0.285658,0.06372 -0.03893,0.02079 -0.119509,0.04999 -0.179063,0.06491 -0.05955,0.01491 -0.196916,0.06213 -0.305249,0.104931 -0.108333,0.0428 -0.245316,0.09114 -0.304407,0.107438 -0.05909,0.01629 -0.196074,0.06464 -0.304407,0.107438 -0.108333,0.0428 -0.245316,0.09062 -0.304407,0.106282 -0.05909,0.01566 -0.179958,0.05215 -0.268594,0.0811 -0.08864,0.02895 -0.282024,0.08921 -0.429751,0.133922 -0.147727,0.04471 -0.308884,0.09457 -0.358126,0.110796 -0.404279,0.133241 -1.568697,0.39242 -2.238286,0.498203 -1.841142,0.290869 -2.292023,0.339339 -2.875267,0.309093 -0.250416,-0.01299 -0.633247,-0.03315 -0.850736,-0.04482 l -0.395434,-0.02121 -0.0776,0.245956 c -0.06939,0.219944 -0.159757,0.523014 -0.318938,1.069645 -0.05938,0.203904 -0.171572,0.579868 -0.267177,0.895314 -0.05861,0.193395 -0.157235,0.528308 -0.305825,1.038565 -0.0581,0.199523 -0.168485,0.569537 -0.267091,0.895314 -0.03577,0.118182 -0.09184,0.307086 -0.124592,0.419787 l -0.05955,0.204911 0.215924,0.242746 c 0.482452,0.542379 1.443734,1.441308 2.440044,2.281771 0.20865,0.176011 0.541218,0.466093 0.739041,0.644626 0.197823,0.178533 0.543562,0.485762 0.76831,0.682731 0.224747,0.196969 0.498998,0.438704 0.609447,0.537188 0.110449,0.09849 0.35785,0.307989 0.549779,0.465564 0.191929,0.157575 0.441705,0.367079 0.555056,0.465563 0.113352,0.09849 0.398205,0.34022 0.633007,0.537189 0.721011,0.604838 1.823734,1.732456 2.344266,2.397191 0.186567,0.238251 0.609224,0.835183 0.708308,1.000364 0.03391,0.05654 0.147897,0.233811 0.253294,0.393938 0.337564,0.51285 1.090862,2.068338 1.329021,2.744302 0.02429,0.06894 0.0728,0.205922 0.107807,0.304407 0.303373,0.853543 0.668642,2.533038 0.751616,3.455913 0.07179,0.798484 0.04019,2.223601 -0.07226,3.258944 -0.04153,0.382386 -0.233439,1.713173 -0.286623,1.987598 -0.195406,1.008274 -0.277417,1.392414 -0.431984,2.02341 -0.09891,0.403787 -0.194252,0.782505 -0.211869,0.841596 -0.01762,0.05909 -0.05897,0.204132 -0.09189,0.322313 -0.13088,0.469833 -0.324924,1.116845 -0.434991,1.450409 -0.02925,0.08864 -0.06599,0.209504 -0.08165,0.268595 -0.01566,0.05909 -0.06349,0.196073 -0.106282,0.304406 -0.0428,0.108333 -0.09114,0.245317 -0.107437,0.304407 -0.01629,0.05909 -0.06464,0.196074 -0.107438,0.304407 -0.0428,0.108333 -0.09032,0.245316 -0.105617,0.304407 -0.01529,0.05909 -0.06066,0.179958 -0.100814,0.268594 -0.04016,0.08864 -0.132061,0.306198 -0.204233,0.48347 -0.153095,0.376035 -1.061606,2.204417 -1.290141,2.596412 -0.08613,0.147727 -0.204716,0.358194 -0.263535,0.467706 -0.05882,0.109511 -0.129944,0.218199 -0.158054,0.241529 -0.02811,0.02333 -0.08022,0.106972 -0.115799,0.185873 l -0.06469,0.143456 H 71.58039 71.083381 Z M 90.97941,32.882114 c 0.196969,-0.106154 1.596729,-0.811306 3.110578,-1.567006 l 2.752452,-1.374 -0.705405,-0.642208 c -0.387972,-0.353215 -0.875992,-0.795307 -1.084489,-0.982428 -0.517699,-0.464623 -2.411499,-2.168365 -3.519841,-3.166598 -0.501282,-0.451481 -0.939412,-0.844592 -0.973624,-0.873581 -0.05,-0.04237 -0.04395,-0.0078 0.03084,0.176248 0.05117,0.125925 0.122436,0.301476 0.158362,0.390112 0.171188,0.422349 0.357467,1.128153 0.510399,1.933879 0.07027,0.370237 0.07801,0.525812 0.07655,1.53994 -0.0013,0.880073 -0.01459,1.202897 -0.0606,1.468316 -0.03244,0.187121 -0.07669,0.443793 -0.09832,0.570384 -0.02164,0.126591 -0.04794,0.244071 -0.05844,0.261068 -0.0105,0.017 -0.0489,0.155157 -0.08532,0.307024 -0.05841,0.243557 -0.199829,0.689725 -0.376975,1.189341 -0.08264,0.233084 -0.216841,0.548725 -0.375669,0.883597 l -0.138821,0.292689 0.240103,-0.106885 c 0.132057,-0.05879 0.40126,-0.193738 0.598229,-0.299892 z M 48.666854,29.211932 c 0.758758,-0.147827 1.355835,-0.494503 1.912323,-1.110335 0.341833,-0.378287 0.431141,-0.578351 0.503583,-1.128096 0.04447,-0.337468 -0.09613,-0.924829 -0.289255,-1.208384 -0.143454,-0.210626 -0.553375,-0.616886 -0.697803,-0.691573 -0.543982,-0.281303 -1.117025,-0.124716 -1.448564,0.395829 -0.276552,0.434211 -0.273154,1.136618 0.0083,1.70886 0.04569,0.09291 0.08307,0.210544 0.08307,0.261419 0,0.214765 -0.196773,0.411257 -0.411845,0.411257 -0.182681,0 -0.298613,-0.09772 -0.433356,-0.365286 -0.166854,-0.331327 -0.218116,-0.507259 -0.270914,-0.929783 -0.128793,-1.030682 0.40558,-2.023402 1.259752,-2.34028 0.52248,-0.193828 1.011945,-0.157608 1.55436,0.115019 0.227924,0.114559 0.773071,0.528413 0.773071,0.586885 0,0.0128 0.06232,0.101925 0.138483,0.198058 0.07617,0.09613 0.173187,0.243279 0.215603,0.326991 0.08418,0.166129 0.114213,0.181491 0.185921,0.09509 0.05023,-0.06053 1.001579,-0.545816 1.393872,-0.711022 0.12803,-0.05392 0.289186,-0.122874 0.358125,-0.153239 0.06894,-0.03036 0.173691,-0.06841 0.232782,-0.08455 1.304509,-0.35631 1.813912,-0.425952 3.115694,-0.425952 0.884162,0 1.316564,0.0301 2.059223,0.143321 0.521071,0.07944 1.543416,0.292854 1.951785,0.40743 0.09848,0.02763 0.275757,0.07733 0.393939,0.110446 0.339261,0.09506 0.923083,0.272822 1.013986,0.308738 0.152686,0.06033 0.04514,-0.03682 -0.166047,-0.14998 -0.30359,-0.162682 -0.525801,-0.294767 -0.597251,-0.355014 -0.0694,-0.05851 -0.291902,-0.1913 -0.573002,-0.34195 -0.09848,-0.05278 -0.208747,-0.122142 -0.245029,-0.154134 -0.08801,-0.0776 -0.303006,-0.200801 -0.883067,-0.506009 -0.265908,-0.139912 -0.523759,-0.276443 -0.573001,-0.303403 -0.204176,-0.111783 -1.903718,-0.914883 -1.936101,-0.914883 -0.01935,0 -0.159719,-0.06253 -0.311933,-0.138959 -0.152214,-0.07643 -0.351077,-0.164118 -0.441919,-0.194867 -0.09084,-0.03075 -0.268114,-0.103531 -0.393938,-0.161739 -0.125825,-0.05821 -0.357697,-0.157021 -0.515272,-0.219584 -0.157576,-0.06256 -0.371465,-0.152868 -0.47531,-0.200677 -0.103846,-0.04781 -0.21208,-0.08693 -0.24052,-0.08693 -0.02844,0 -0.104633,-0.02255 -0.169317,-0.0501 -0.27318,-0.116384 -0.45274,-0.174996 -1.15617,-0.377397 -0.550284,-0.158335 -1.459495,-0.311087 -2.127056,-0.357354 -0.813934,-0.05641 -1.8622,0.08189 -2.922517,0.385577 -0.748746,0.21445 -1.340253,0.498122 -1.786743,0.856875 -0.44956,0.36122 -0.869756,0.827966 -1.056009,1.172997 -0.0422,0.07817 -0.09084,0.166301 -0.108106,0.195847 -0.111908,0.191556 -0.261545,0.66131 -0.325123,1.020658 -0.193028,1.091015 0.07354,2.528384 0.609089,3.28431 0.05989,0.08453 0.146743,0.210102 0.193007,0.279041 0.110303,0.164364 0.679676,0.715677 0.862319,0.834968 0.07879,0.05146 0.212101,0.142349 0.296252,0.201978 0.24988,0.177063 0.408448,0.244957 0.831844,0.356173 0.160499,0.04216 0.403875,0.04365 0.608814,0.0037 z m 43.546352,-5.292229 c 9.56e-4,-0.02505 0.108406,-0.274841 0.238779,-0.555095 0.130373,-0.280254 0.339877,-0.730794 0.465564,-1.0012 0.125687,-0.270406 0.228522,-0.508342 0.228522,-0.528747 0,-0.02041 0.104751,-0.246143 0.232781,-0.501641 0.12803,-0.255497 0.232782,-0.489159 0.232782,-0.519248 0,-0.03009 0.11281,-0.279897 0.250688,-0.555129 0.137878,-0.275232 0.250688,-0.520083 0.250688,-0.544115 0,-0.02403 0.102961,-0.261952 0.228802,-0.528713 0.125841,-0.26676 0.337274,-0.726754 0.469851,-1.022207 0.132577,-0.295454 0.343872,-0.755448 0.469543,-1.022208 0.125672,-0.266761 0.228494,-0.504697 0.228494,-0.528747 0,-0.02405 0.104752,-0.252771 0.232782,-0.508268 0.12803,-0.255498 0.232782,-0.48449 0.232782,-0.508873 0,-0.02438 0.110755,-0.278434 0.246122,-0.564559 0.638236,-1.349043 0.692751,-1.482464 0.625734,-1.531468 -0.03402,-0.02488 -0.08349,-0.04523 -0.109921,-0.04523 -0.05816,0 -0.376457,-0.158722 -0.527404,-0.262997 -0.193924,-0.133964 -0.416487,-0.359106 -0.545394,-0.551711 -0.07683,-0.114796 -0.141897,-0.178265 -0.167118,-0.163014 -0.02272,0.01374 -0.120758,0.08221 -0.217872,0.152176 -0.09712,0.06996 -0.229057,0.159432 -0.293206,0.198826 -0.06415,0.03939 -0.27946,0.184435 -0.478469,0.322313 -0.199009,0.137879 -0.424334,0.290977 -0.500723,0.34022 -0.07639,0.04924 -0.302008,0.202341 -0.501376,0.340219 -0.199368,0.137879 -0.424987,0.290977 -0.501376,0.34022 -0.07639,0.04924 -0.302009,0.202341 -0.501376,0.340219 -0.199368,0.137879 -0.424987,0.290977 -0.501376,0.34022 -0.07639,0.04924 -0.302009,0.202341 -0.501376,0.340219 -0.199368,0.137878 -0.424351,0.290977 -0.499963,0.340219 -0.40743,0.26534 -0.609569,0.402108 -0.751537,0.508492 -0.08678,0.06503 -0.210013,0.15046 -0.27386,0.189854 -0.215915,0.13322 -0.570266,0.371718 -0.728892,0.490584 -0.08678,0.06503 -0.210014,0.150461 -0.27386,0.189855 -0.215915,0.13322 -0.570266,0.371718 -0.728892,0.490584 -0.08678,0.06503 -0.210014,0.150461 -0.27386,0.189854 -0.215915,0.133221 -0.570266,0.371719 -0.728892,0.490585 -0.08678,0.06503 -0.210363,0.150461 -0.274637,0.189854 -0.09964,0.06107 -0.29145,0.187478 -0.606152,0.399471 -0.03939,0.02654 -0.179392,0.120653 -0.311106,0.209147 -0.2777,0.186576 -0.305936,0.219857 -0.211862,0.249715 0.03794,0.01204 0.174637,0.08975 0.303772,0.172688 0.129135,0.08294 0.301947,0.191083 0.384025,0.240326 0.616318,0.369753 2.05246,1.648734 2.465248,2.195467 0.160926,0.213145 0.642359,0.663542 0.795859,0.744552 0.08737,0.04611 0.420275,0.336693 1.72825,1.508533 l 0.468388,0.419638 0.114653,-0.222669 c 0.06306,-0.122468 0.115435,-0.243162 0.116391,-0.268211 z M 98.079419,12.67086 c 0.29273,-0.14934 0.504488,-0.473519 0.560971,-0.85879 0.03122,-0.212938 0.109374,-0.351717 0.23452,-0.416433 0.208967,-0.108061 0.455432,-0.03444 0.559695,0.167179 0.04614,0.08922 0.05315,0.165737 0.03348,0.365372 -0.01368,0.138885 -0.0396,0.280026 -0.0576,0.313648 -0.02596,0.04851 0.0061,0.09554 0.155145,0.227775 0.185544,0.164588 0.190293,0.166391 0.384832,0.146148 0.366938,-0.03818 0.633318,-0.159657 0.962508,-0.438929 0.25636,-0.217482 0.35679,-0.342465 0.48436,-0.602736 0.17124,-0.349362 0.21781,-0.576831 0.21631,-1.056471 -0.001,-0.429704 -0.006,-0.456367 -0.11321,-0.6648486 -0.11111,-0.2158539 -0.31022,-0.4131093 -0.53248,-0.5275117 -0.14427,-0.074264 -0.43887,-0.084321 -0.73631,-0.025136 -0.19801,0.039399 -0.257523,0.039335 -0.353409,-3.819e-4 -0.217713,-0.09018 -0.308347,-0.3561986 -0.195626,-0.5741776 0.05715,-0.1105109 0.285194,-0.2492609 0.409675,-0.2492609 0.0864,0 0.0913,-0.039877 0.0216,-0.1746628 C 100.06151,8.2003456 99.821015,7.9859991 99.670116,7.9061166 99.419581,7.7734884 98.855123,7.618155 98.620834,7.6173641 c -0.212561,-7.176e-4 -0.655441,0.097577 -0.826655,0.1834707 -0.07308,0.036662 -0.155743,0.066658 -0.183698,0.066658 -0.08807,0 -0.339613,0.2759616 -0.448929,0.4925143 -0.137775,0.2729318 -0.187942,0.8274577 -0.098,1.0832389 0.111272,0.3164324 0.04982,0.591311 -0.155991,0.697739 -0.213279,0.110291 -0.489959,0.02028 -0.563078,-0.1831742 C 96.248563,9.6909066 96.21305,9.5534238 96.19307,9.3716209 l -0.02165,-0.1969692 -0.118294,0.0094 c -0.217922,0.017321 -0.628729,0.2787663 -0.848595,0.5400611 -0.107471,0.1277223 -0.193033,0.4367632 -0.194936,0.7040912 -0.0016,0.222104 0.09754,0.576814 0.23981,0.85817 l 0.107977,0.213538 0.02693,-0.124066 c 0.01481,-0.06824 0.08939,-0.248646 0.165734,-0.40091 0.113628,-0.226624 0.164525,-0.289963 0.280585,-0.349172 0.07798,-0.03978 0.18351,-0.07233 0.234515,-0.07233 0.218248,0 0.411722,0.197102 0.411304,0.419019 -1.76e-4,0.09402 -0.03202,0.157672 -0.188978,0.377747 -0.08712,0.122157 -0.119094,0.423654 -0.06064,0.571856 0.112661,0.285648 0.471293,0.64748 0.717154,0.723554 0.433742,0.134207 0.901471,0.144608 1.135435,0.02525 z M 77.173663,59.373593 c 0,-0.05944 1.191355,-2.403469 1.359905,-2.675656 0.09758,-0.157575 0.276633,-0.479472 0.3979,-0.715325 0.251915,-0.489952 0.361027,-0.646146 0.502469,-0.719289 0.279306,-0.144435 0.604732,0.05616 0.604732,0.372766 0,0.06205 -0.05332,0.184652 -0.129275,0.297232 -0.0711,0.105388 -0.224789,0.376945 -0.34153,0.603459 -0.11674,0.226515 -0.291874,0.54077 -0.389186,0.698346 -0.09731,0.157575 -0.390115,0.709536 -0.650673,1.22658 l -0.473742,0.94008 h -0.4403 c -0.242165,0 -0.4403,-0.01269 -0.4403,-0.02819 z m 11.664049,-0.0882 c -0.05269,-0.12877 -0.17797,-0.616563 -0.236844,-0.922173 -0.08993,-0.466807 -0.119216,-0.934388 -0.100793,-1.609153 0.01624,-0.594959 0.03304,-0.754827 0.111226,-1.058884 0.118942,-0.462535 0.296219,-0.871787 0.612764,-1.414597 0.08615,-0.147727 0.188904,-0.324999 0.228347,-0.393938 0.177513,-0.310265 0.676812,-0.774862 1.491452,-1.387794 0.154769,-0.116448 0.855577,-0.470076 1.127301,-0.568837 0.318484,-0.115757 0.736721,-0.149065 0.888194,-0.07073 0.202609,0.104773 0.276483,0.350825 0.168199,0.560223 -0.06843,0.132324 -0.196307,0.198345 -0.447051,0.2308 -0.261625,0.03386 -0.545199,0.127555 -0.806657,0.266516 -0.499586,0.265523 -1.190733,0.811838 -1.505198,1.189779 -0.336983,0.405005 -0.376444,0.464914 -0.603524,0.916254 -0.363748,0.722977 -0.432678,1.038539 -0.432392,1.979488 2.67e-4,0.880698 0.07303,1.338186 0.343216,2.15785 0.03736,0.113336 0.06792,0.214059 0.06792,0.223829 0,0.0098 -0.193172,0.01776 -0.42927,0.01776 H 88.885335 Z M 81.041421,29.549684 c -0.281139,-0.130105 -0.550458,-0.4079 -0.726867,-0.749742 -0.140526,-0.272309 -0.147916,-0.302466 -0.149195,-0.608814 -7.41e-4,-0.177272 0.02007,-0.394833 0.04625,-0.483469 0.0657,-0.222461 0.663799,-1.429217 0.765132,-1.543774 0.121177,-0.136991 0.379608,-0.332332 0.583963,-0.441401 0.09848,-0.05256 0.243525,-0.134781 0.322313,-0.182705 0.186445,-0.113408 0.376828,-0.112212 0.62672,0.0039 0.268472,0.124787 0.342181,0.201875 0.508699,0.532022 0.210207,0.416768 0.246906,0.562485 0.26884,1.067467 0.02566,0.590653 -0.01713,0.800933 -0.267644,1.315351 -0.169216,0.347479 -0.238843,0.448615 -0.452433,0.657181 -0.170299,0.166292 -0.342816,0.291941 -0.530188,0.38615 -0.247135,0.124257 -0.306453,0.13961 -0.538184,0.139299 -0.203059,-2.73e-4 -0.303831,-0.02043 -0.457405,-0.0915 z m 42.616959,-3.809465 c -0.63046,-0.192979 -0.96252,-0.736409 -0.96566,-1.580381 -10e-4,-0.388783 0.0414,-0.671124 0.14911,-0.98247 0.0806,-0.232952 0.5958,-1.268962 0.70348,-1.414597 0.0364,-0.04924 0.11278,-0.162052 0.16971,-0.250688 0.0569,-0.08864 0.2246,-0.312189 0.3726,-0.496784 0.14801,-0.184596 0.29455,-0.373752 0.32565,-0.420348 0.0311,-0.0466 0.17281,-0.217876 0.31492,-0.380623 0.14211,-0.162748 0.3916,-0.457061 0.55443,-0.65403 0.40716,-0.492544 0.60195,-0.592633 0.90607,-0.465563 0.0707,0.02954 0.16286,0.0538 0.20478,0.05391 0.12796,3.17e-4 0.27306,0.116081 0.38128,0.304218 0.43555,0.757134 0.60871,1.350822 0.6075,2.082755 -6.1e-4,0.366789 -0.0678,0.757615 -0.21143,1.229908 -0.048,0.157677 -0.44155,0.946158 -0.54906,1.09993 -0.0443,0.0633 -0.12379,0.184163 -0.17674,0.268594 -0.15522,0.247499 -0.64427,0.786498 -0.89219,0.983316 -0.2759,0.219031 -0.94413,0.560137 -1.20682,0.616033 -0.21217,0.04515 -0.55142,0.04851 -0.68763,0.0068 z m 11.90768,-0.160405 c -0.50121,-0.101931 -1.18878,-0.599997 -1.59366,-1.154426 -0.33307,-0.456111 -0.70995,-1.229275 -0.88764,-1.821021 -0.0414,-0.137879 -0.0999,-0.332904 -0.13,-0.43339 -0.34956,-1.167262 -0.19608,-3.159819 0.26162,-3.39651 0.15461,-0.07995 0.40549,-0.162093 0.49686,-0.162681 0.0959,-6.17e-4 1.00785,0.449653 1.2316,0.608097 0.0856,0.06063 0.21474,0.149282 0.28695,0.197012 0.0722,0.04773 0.14205,0.104204 0.15521,0.125497 0.0132,0.02129 0.083,0.07671 0.15522,0.123144 0.27558,0.177225 1.0866,1.026471 1.47914,1.548857 0.12535,0.16682 0.5857,1.077917 0.67516,1.336255 0.17579,0.507632 0.22945,1.16007 0.12958,1.575753 -0.0733,0.305208 -0.31475,0.747649 -0.51111,0.93664 -0.22229,0.213949 -0.74033,0.473056 -1.05351,0.526936 -0.28464,0.04897 -0.41394,0.04708 -0.69542,-0.01016 z m -91.539788,-4.35013 c -0.33167,-0.202251 -0.216348,-0.66088 0.348162,-1.384622 0.18816,-0.241234 0.684823,-0.721196 0.948447,-0.916553 0.169737,-0.125783 0.793876,-0.441512 1.051968,-0.532152 0.808884,-0.284075 1.206943,-0.342612 2.115582,-0.311109 0.703927,0.02441 0.814291,0.05331 0.909974,0.238344 0.107397,0.207681 0.03454,0.45538 -0.164157,0.558133 -0.09346,0.04833 -0.201482,0.05328 -0.724599,0.03323 -0.799549,-0.03065 -1.235763,0.03833 -1.99355,0.315288 -0.346408,0.126604 -0.451607,0.188347 -0.810883,0.475918 -0.422965,0.338549 -0.812248,0.794589 -1.007506,1.18028 -0.204932,0.404798 -0.405151,0.506849 -0.673438,0.343247 z"
       id="path5" /></g></svg>
