<?xml version="1.0" encoding="UTF-8" standalone="no"?>
<!-- Created with Inkscape (http://www.inkscape.org/) -->

<svg
   width="154.27834mm"
   height="88.429924mm"
   viewBox="0 0 154.27834 88.429924"
   version="1.1"
   id="svg1"
   xml:space="preserve"
   inkscape:version="1.4.2 (ebf0e940d0, 2025-05-08)"
   sodipodi:docname="Set2.svg"
   inkscape:export-filename="Set2final.svg"
   inkscape:export-xdpi="96"
   inkscape:export-ydpi="96"
   xmlns:inkscape="http://www.inkscape.org/namespaces/inkscape"
   xmlns:sodipodi="http://sodipodi.sourceforge.net/DTD/sodipodi-0.dtd"
   xmlns="http://www.w3.org/2000/svg"
   xmlns:svg="http://www.w3.org/2000/svg"><sodipodi:namedview
     id="namedview1"
     pagecolor="#6d6d6d"
     bordercolor="#000000"
     borderopacity="0.25"
     inkscape:showpageshadow="2"
     inkscape:pageopacity="0.0"
     inkscape:pagecheckerboard="0"
     inkscape:deskcolor="#d1d1d1"
     inkscape:document-units="mm"
     inkscape:zoom="1.0620589"
     inkscape:cx="177.01466"
     inkscape:cy="161.4788"
     inkscape:window-width="1868"
     inkscape:window-height="1052"
     inkscape:window-x="0"
     inkscape:window-y="0"
     inkscape:window-maximized="1"
     inkscape:current-layer="layer1"
     inkscape:export-bgcolor="#ffffff00"><inkscape:page
       x="0"
       y="0"
       width="154.27834"
       height="88.429924"
       id="page2"
       margin="0"
       bleed="0" /></sodipodi:namedview><defs
     id="defs1"><rect
       x="7.3236752"
       y="251.00233"
       width="591.22034"
       height="197.73923"
       id="rect2" /></defs><g
     inkscape:label="Layer 1"
     inkscape:groupmode="layer"
     id="layer1"
     transform="translate(-2.9948056,-3.6087786)"><path
       style="fill:#ffffff;fill-opacity:1"
       d="M 8.7305296,20.838194 V 19.437306 H 5.9198312 3.1091328 V 12.41502 5.3927348 H 3.6712724 4.2334121 V 4.5539865 3.7152383 h 1.6774962 1.6774962 v 0.8387482 0.8387483 h 0.5620316 0.5620315 l 0.00457,1.4053493 0.00457,1.4053494 H 9.2837473 9.845887 l 0.00464,-0.8432096 0.00464,-0.8432096 h 1.677322 1.677321 v 0.847671 0.8476711 h 0.562032 0.562031 l 0.0046,-1.4053494 0.0046,-1.4053494 0.557678,-0.00472 0.557678,-0.00472 v -0.838494 -0.838494 h 1.686419 1.686419 v 0.838494 0.838494 l 0.557678,0.00472 0.557679,0.00472 0.0046,1.4053494 0.0046,1.4053494 h 0.562031 0.562032 V 7.3645943 6.5168322 l 1.681957,0.00455 1.681958,0.00455 0.0046,0.8432097 0.0046,0.8432096 h 0.561965 0.561965 V 6.8025456 5.3927348 h 0.56214 0.56214 V 4.5539865 3.7152383 h 1.677496 1.677496 v 0.8387482 0.8387483 h 0.562032 0.562031 l 0.0046,1.4053493 0.0046,1.4053494 h 0.56214 0.56214 l 0.0046,-0.8432096 0.0046,-0.8432096 h 1.677321 1.677322 v 0.847671 0.8476711 h 0.56214 0.562139 v 7.0133626 7.013363 H 34.000094 31.198318 V 20.838194 19.437306 H 28.38762 25.576921 v 1.400888 1.400888 h -2.810698 -2.810699 v -1.400888 -1.400888 h -2.810698 -2.810698 v 1.400888 1.400888 H 11.532305 8.7305296 Z M 5.6374763,16.018248 c 0.096881,-0.07175 0.1004428,-0.09416 0.1160434,-0.730069 0.011622,-0.473738 0.020124,-0.604096 0.043474,-0.66657 0.051753,-0.138467 0.02037,-0.134493 1.1489656,-0.145494 1.0999967,-0.01072 1.0897699,-0.0096 1.1543241,-0.127891 0.027537,-0.05046 0.03325,-0.111777 0.037958,-0.407396 0.00455,-0.285539 8.048e-4,-0.354396 -0.020859,-0.383682 -0.023971,-0.0324 -0.054064,-0.03668 -0.3267657,-0.04644 -0.3110071,-0.01113 -0.3661562,-0.0228 -0.465376,-0.09847 -0.090051,-0.06869 -0.1163016,-0.137341 -0.1254112,-0.327999 -0.01051,-0.219971 0.013248,-0.307506 0.1096185,-0.403876 0.094472,-0.09447 0.1478621,-0.107569 0.4931049,-0.120961 0.3685465,-0.0143 0.3440317,0.01772 0.3361634,-0.439096 -0.00655,-0.380042 -0.013691,-0.409158 -0.1170186,-0.476859 -0.045201,-0.02962 -0.170226,-0.03148 -2.1131599,-0.03148 H 3.8434216 l -0.050383,0.0373 c -0.1099416,0.08139 -0.1034662,-0.04548 -0.1087603,2.130766 -0.0033,1.35561 0.00121,2.01876 0.014154,2.081098 0.022309,0.107461 0.07072,0.159826 0.1697343,0.183596 0.040578,0.0097 0.4225055,0.01568 0.8948706,0.01391 0.8054706,-0.003 0.8252159,-0.0039 0.8744395,-0.04038 z m 12.6976247,0.02636 c 0.415319,-0.08721 0.852397,-0.491689 1.000594,-0.925964 0.03897,-0.114209 0.03966,-0.133193 0.04487,-1.231354 0.0059,-1.238502 0.0048,-1.252881 -0.110151,-1.491931 -0.181161,-0.376698 -0.581927,-0.703868 -0.947822,-0.773766 -0.07681,-0.01467 -0.548377,-0.01892 -1.668574,-0.01504 -1.756547,0.0061 -1.645265,-0.003 -1.702053,0.138931 -0.02615,0.06537 -0.02894,0.269449 -0.02859,2.093095 3.74e-4,1.928016 0.0019,2.024 0.03343,2.093407 0.03161,0.0696 0.07329,0.0989 0.171404,0.120489 0.08552,0.01882 3.115201,0.01139 3.206886,-0.0079 z m -1.436715,-1.747093 c -0.199611,-0.01925 -0.224964,-0.07152 -0.224964,-0.463762 0,-0.419721 0.01583,-0.444769 0.294807,-0.466542 0.330571,-0.0258 0.495012,0.02096 0.592664,0.168521 0.04564,0.06897 0.04787,0.08294 0.04787,0.299642 0,0.223741 -8.38e-4,0.22849 -0.05354,0.303419 -0.07991,0.113621 -0.188904,0.161225 -0.380821,0.166328 -0.085,0.0023 -0.209213,-0.0012 -0.276023,-0.0076 z m 7.97945,1.725613 c 0.08923,-0.04869 0.108495,-0.116752 0.121344,-0.428689 0.01303,-0.316353 0.0014,-0.432084 -0.04587,-0.457395 -0.01787,-0.0096 -0.155903,-0.02234 -0.306752,-0.0284 -0.301398,-0.01211 -0.369721,-0.02593 -0.459309,-0.09288 -0.0923,-0.06898 -0.134118,-0.180638 -0.13524,-0.361103 -0.0013,-0.207215 0.01629,-0.274863 0.09376,-0.360707 0.101082,-0.112021 0.150099,-0.125806 0.489127,-0.137556 0.253727,-0.0088 0.303054,-0.0151 0.330146,-0.04221 0.02752,-0.02754 0.03185,-0.06566 0.03185,-0.280433 0,-0.214775 -0.0043,-0.252897 -0.03185,-0.280433 -0.02709,-0.02711 -0.07642,-0.03341 -0.330146,-0.04221 -0.339028,-0.01175 -0.388045,-0.02553 -0.489127,-0.137557 -0.07778,-0.0862 -0.0952,-0.15394 -0.09329,-0.362765 0.0022,-0.242041 0.09021,-0.378657 0.273433,-0.424558 0.03532,-0.0088 0.182656,-0.02059 0.327405,-0.02608 0.144748,-0.0055 0.278771,-0.01833 0.297829,-0.02853 0.04961,-0.02655 0.06074,-0.133551 0.04756,-0.45734 -0.01278,-0.314027 -0.03168,-0.381239 -0.120863,-0.429904 -0.05643,-0.03079 -0.162243,-0.03242 -2.11166,-0.03242 -2.037112,0 -2.052717,2.71e-4 -2.114716,0.0366 -0.122112,0.07156 -0.115989,-0.04378 -0.115993,2.185187 -3e-6,1.631946 0.0045,2.020283 0.0239,2.075195 0.026,0.07349 0.07866,0.116768 0.168388,0.138379 0.03165,0.0076 0.965006,0.01259 2.074116,0.01104 1.9119,-0.0027 2.019648,-0.0045 2.075969,-0.03524 z m 5.617779,0.0019 c 0.097,-0.05311 0.113748,-0.128632 0.113748,-0.512836 0,-0.282963 -0.0045,-0.34196 -0.02804,-0.365476 -0.01542,-0.01542 -0.04152,-0.02821 -0.058,-0.02842 -0.251864,-0.0032 -0.546648,-0.02575 -0.614174,-0.04705 -0.177725,-0.05607 -0.260768,-0.232908 -0.239507,-0.510021 0.0114,-0.14864 0.04135,-0.224761 0.116085,-0.295039 0.08902,-0.08372 0.153215,-0.09876 0.468467,-0.109763 0.212128,-0.0074 0.304567,-0.01729 0.325684,-0.03483 0.02498,-0.02075 0.02949,-0.06474 0.02949,-0.287808 0,-0.223066 -0.0045,-0.267059 -0.02949,-0.287808 -0.02123,-0.01764 -0.112861,-0.02718 -0.327459,-0.03408 -0.273057,-0.0088 -0.305271,-0.01335 -0.385267,-0.05451 -0.126975,-0.06534 -0.183176,-0.164261 -0.197206,-0.347094 -0.01633,-0.212745 0.0142,-0.33309 0.108354,-0.427249 0.09412,-0.09412 0.162612,-0.110969 0.502187,-0.123526 0.138109,-0.0051 0.264659,-0.01449 0.281224,-0.02084 0.04631,-0.01777 0.05144,-0.06806 0.04485,-0.43928 -0.0053,-0.295808 -0.01067,-0.351324 -0.03822,-0.391899 -0.06746,-0.09935 0.02091,-0.0955 -2.18969,-0.0955 -2.27654,0 -2.119142,-0.009 -2.186099,0.12492 -0.03494,0.06988 -0.0358,0.112328 -0.04073,2.016565 -0.0032,1.234377 0.0015,1.987363 0.01281,2.060614 0.02237,0.144646 0.06203,0.19969 0.163439,0.226851 0.05857,0.01569 0.593093,0.02024 2.095198,0.01785 1.866022,-0.003 2.020729,-0.0055 2.072351,-0.03376 z m 2.193417,0.0031 c 0.02815,-0.03111 0.03459,-0.07978 0.04423,-0.334607 0.01265,-0.334334 0.02787,-0.390372 0.130435,-0.480427 0.08187,-0.07188 0.162903,-0.09419 0.342215,-0.09419 0.23797,0 0.344944,0.05125 0.423298,0.20281 0.03268,0.06321 0.03957,0.115616 0.04883,0.371229 0.01416,0.391199 -0.0028,0.371584 0.321366,0.371584 0.182078,0 0.252418,-0.0064 0.278304,-0.02529 0.03118,-0.02277 0.03564,-0.05554 0.04464,-0.328263 0.0092,-0.277147 0.0138,-0.310342 0.05451,-0.389457 0.026,-0.05052 0.07522,-0.108073 0.118359,-0.138392 0.06642,-0.04668 0.09147,-0.05274 0.248865,-0.0602 0.209007,-0.0099 0.302937,0.0117 0.392372,0.09022 0.108693,0.09543 0.128024,0.163804 0.141878,0.501806 0.01172,0.285935 0.01404,0.300091 0.05343,0.325899 0.03404,0.0223 0.100848,0.02592 0.385318,0.02087 0.383094,-0.0068 0.435651,-0.02099 0.481689,-0.129973 0.0184,-0.04357 0.02306,-0.469358 0.02306,-2.10764 0,-1.9314 -0.0019,-2.055889 -0.03148,-2.101084 -0.0738,-0.112623 -0.05825,-0.110472 -0.841517,-0.116418 -0.626062,-0.0048 -0.723419,-0.0018 -0.790299,0.02371 -0.118482,0.04525 -0.141732,0.08798 -0.156732,0.28805 -0.0117,0.156084 -0.01779,0.177949 -0.06179,0.221946 -0.06893,0.06893 -0.175462,0.09228 -0.384492,0.08428 -0.280553,-0.01074 -0.327726,-0.05261 -0.347291,-0.308233 -0.0139,-0.18154 -0.0353,-0.22811 -0.125553,-0.273108 -0.05573,-0.02779 -0.137112,-0.03178 -0.739398,-0.03631 -0.72008,-0.0054 -0.834349,0.0038 -0.899097,0.07277 -0.02034,0.02166 -0.04531,0.07552 -0.05549,0.119689 -0.02585,0.112242 -0.02633,3.945371 -5.08e-4,4.065787 0.02138,0.0997 0.0688,0.152712 0.159595,0.178428 0.03435,0.0097 0.207773,0.01841 0.385378,0.0193 0.303459,0.0015 0.324903,-5.84e-4 0.355863,-0.03479 z M 11.8967,13.486103 c 0.185871,-0.03312 0.345797,-0.113895 0.472397,-0.238596 0.193298,-0.190399 0.236237,-0.340574 0.23487,-0.821445 -9.7e-4,-0.341205 -0.01973,-0.542488 -0.05739,-0.615919 -0.03885,-0.07573 -0.1138,-0.137259 -0.201569,-0.165462 -0.07309,-0.02349 -0.202911,-0.03046 -0.692731,-0.0372 -1.002857,-0.0138 -1.115963,0.01823 -1.172506,0.331949 -0.03104,0.172201 -0.03266,0.810592 -0.0024,0.930651 0.05559,0.220296 0.197245,0.406722 0.398599,0.524567 0.181685,0.106333 0.684403,0.151375 1.020695,0.09145 z"
       id="path4" /><text
       xml:space="preserve"
       transform="matrix(0.26458333,0,0,0.26458333,1.0569395,-24.806703)"
       id="text2"
       style="font-size:24px;line-height:1.3;text-align:start;writing-mode:lr-tb;direction:ltr;white-space:pre;shape-inside:url(#rect2);display:inline;fill:#000000"><tspan
         x="7.3242188"
         y="274.24045"
         id="tspan14"><tspan
           style="font-family:Lectus;-inkscape-font-specification:Lectus;fill:#ffffff"
           id="tspan3">2x Pony
</tspan></tspan><tspan
         x="7.3242188"
         y="306.84457"
         id="tspan16"><tspan
           style="font-family:Lectus;-inkscape-font-specification:Lectus;fill:#ffffff"
           id="tspan15">64 Pcs
</tspan></tspan><tspan
         x="7.3242188"
         y="339.4487"
         id="tspan18"><tspan
           style="font-family:Lectus;-inkscape-font-specification:Lectus;fill:#ffffff"
           id="tspan17">5 Color
</tspan></tspan><tspan
         x="7.3242188"
         y="372.05283"
         id="tspan20"><tspan
           style="font-family:Lectus;-inkscape-font-specification:Lectus;fill:#ffffff"
           id="tspan19">103125
</tspan></tspan><tspan
         x="7.3242188"
         y="404.65695"
         id="tspan22"><tspan
           style="font-family:Lectus;-inkscape-font-specification:Lectus;fill:#ffffff"
           id="tspan21">Birthday Surprise
</tspan></tspan><tspan
         x="7.3242188"
         y="437.26108"
         id="tspan24"><tspan
           style="font-family:Lectus;-inkscape-font-specification:Lectus;fill:#ffffff"
           id="tspan23">f-deem.org/sets/0002</tspan></tspan></text><rect
       style="fill:none;stroke:#ffffff;stroke-width:2.2287;stroke-linecap:butt;stroke-linejoin:round;stroke-dasharray:none;stroke-dashoffset:0;stroke-opacity:1;paint-order:normal"
       id="rect4"
       width="115.93563"
       height="67.369125"
       x="40.22316"
       y="4.7231288"
       rx="4.9901562" /><path
       style="fill:#ffffff;fill-opacity:1;stroke-width:1.12786"
       d="m 57.775179,70.703325 c 0.01429,-0.360999 0.09952,-3.291906 0.1894,-6.513127 0.107812,-3.863845 0.178879,-5.896187 0.208846,-5.972619 0.05452,-0.139053 0.250766,-0.267506 0.409005,-0.267714 l 0.114795,-1.51e-4 -0.08311,-0.131272 c -0.552744,-0.87307 -0.620474,-1.493589 -0.247693,-2.269265 0.28662,-0.59639 0.463246,-0.819059 1.331826,-1.679002 1.275972,-1.263285 1.424906,-1.462824 1.597836,-2.14075 0.159482,-0.625211 -0.03489,-1.424001 -0.507788,-2.086794 -0.066,-0.09251 -0.244406,-0.283372 -0.396448,-0.42414 -0.286358,-0.265123 -0.449921,-0.519812 -0.449921,-0.700585 0,-0.233317 0.221192,-0.464105 0.444809,-0.464105 0.04692,0 0.179593,0.02835 0.294844,0.063 0.115251,0.03465 0.282252,0.08358 0.371113,0.108737 0.236406,0.06691 0.930345,0.395186 1.22262,0.578367 0.812139,0.509001 1.908342,1.534699 2.263259,2.117693 0.857752,1.408961 0.979667,2.495034 0.421668,3.756407 -0.04422,0.09997 -0.102635,0.245379 -0.1298,0.323132 -0.02717,0.07775 -0.08185,0.232251 -0.121515,0.343328 -0.08152,0.228288 -0.182771,0.57726 -0.228514,0.787634 -0.01691,0.07775 -0.03166,0.473062 -0.03279,0.878463 -0.0016,0.57592 0.0094,0.737104 0.05005,0.737144 0.110947,1.11e-4 0.373067,0.167716 0.427091,0.273091 0.07151,0.139483 0.03408,-0.68505 0.448742,9.885419 0.0549,1.399565 0.111207,2.749146 0.125117,2.999068 l 0.0253,0.454403 H 65.05888 64.59384 l -0.02345,-0.292838 c -0.0129,-0.16106 -0.06887,-1.465201 -0.124384,-2.898088 -0.353148,-9.115283 -0.363455,-9.363596 -0.389752,-9.389893 -0.01038,-0.01038 -0.117943,-0.0016 -0.238927,0.0197 -0.702084,0.123394 -1.780327,0.236346 -3.135047,0.328414 -0.556549,0.03783 -0.839518,0.03893 -1.170775,0.0046 -0.240262,-0.02491 -0.443513,-0.03863 -0.45167,-0.03047 -0.0127,0.0127 -0.133014,4.02423 -0.286509,9.552374 -0.02313,0.833074 -0.05345,1.782779 -0.06737,2.110455 l -0.02531,0.595774 h -0.46572 -0.465722 z m 17.670777,0.545285 c 0.113261,-0.163591 0.228242,-0.36041 0.387593,-0.663454 0.07798,-0.148301 0.160758,-0.281365 0.183949,-0.295698 0.02319,-0.01434 0.08851,-0.111105 0.145161,-0.215059 0.05665,-0.103955 0.18239,-0.325323 0.279429,-0.491938 0.225674,-0.387485 1.053173,-2.012634 1.1261,-2.211582 0.06202,-0.169189 0.234185,-0.584113 0.354322,-0.853921 0.04347,-0.09763 0.122431,-0.306658 0.175463,-0.464503 0.163153,-0.485601 0.303753,-0.886203 0.362985,-1.034232 0.03112,-0.07775 0.113812,-0.332219 0.183775,-0.56548 0.06996,-0.233261 0.154794,-0.505903 0.188514,-0.605872 0.03372,-0.09997 0.08735,-0.281731 0.119179,-0.403915 0.03183,-0.122184 0.07443,-0.276682 0.09467,-0.343328 0.104925,-0.34549 0.312457,-1.145498 0.487224,-1.878204 0.103481,-0.433837 0.182706,-0.814433 0.399379,-1.918595 0.07462,-0.380279 0.284086,-1.85765 0.346467,-2.443685 0.101101,-0.949828 0.121255,-2.488611 0.04232,-3.231319 -0.0366,-0.344337 -0.08189,-0.689684 -0.10065,-0.767437 -0.01876,-0.07776 -0.05701,-0.277692 -0.08502,-0.444307 -0.07777,-0.462644 -0.351427,-1.605308 -0.50302,-2.100357 -0.08269,-0.27005 -0.147721,-0.457676 -0.286971,-0.828025 -0.05847,-0.155508 -0.133764,-0.359864 -0.167321,-0.454127 -0.03355,-0.09427 -0.247402,-0.548667 -0.475213,-1.009787 -0.361685,-0.732102 -0.505265,-0.982641 -0.936704,-1.634496 -0.04838,-0.0731 -0.139263,-0.21046 -0.201958,-0.305245 -0.483886,-0.731565 -1.459812,-1.865401 -2.198379,-2.554089 -0.775913,-0.72351 -0.863008,-0.800744 -1.550844,-1.375261 -1.225518,-1.023615 -1.608655,-1.350088 -2.058294,-1.753882 -0.641786,-0.576347 -1.310839,-1.164366 -1.47596,-1.297194 -0.07775,-0.06255 -0.232664,-0.19641 -0.344244,-0.297474 -0.111579,-0.101068 -0.411143,-0.365515 -0.665695,-0.587668 -0.949425,-0.828584 -2.347559,-2.231981 -2.490033,-2.499408 -0.06384,-0.119826 -0.0582,-0.285469 0.01874,-0.55015 0.158744,-0.546078 0.203043,-0.70644 0.196629,-0.711806 -0.05354,-0.04478 -1.267611,-0.627721 -1.40267,-0.673497 -0.100988,-0.03423 -0.246396,-0.09013 -0.323132,-0.124216 -0.149632,-0.06648 -0.691708,-0.239327 -1.038412,-0.331116 -0.116731,-0.0309 -0.307582,-0.08221 -0.424111,-0.114024 -0.650479,-0.177561 -1.637749,-0.391132 -2.332425,-0.504563 -0.697457,-0.113885 -1.371276,-0.165492 -2.160945,-0.165507 -1.004451,-1.8e-5 -1.688841,0.0698 -2.423488,0.247242 -0.808261,0.19522 -0.801758,0.193157 -1.514681,0.480552 -0.353327,0.142435 -1.129071,0.552518 -1.393506,0.736652 l -0.242349,0.168755 -0.0033,0.485666 c -0.0038,0.571882 -0.0693,0.855021 -0.307386,1.330178 -0.357402,0.713261 -1.061485,1.365342 -1.960822,1.816 -0.720393,0.36099 -1.098364,0.463257 -1.727552,0.467421 -0.576041,0.0038 -1.191263,-0.206191 -1.921406,-0.655864 -0.431317,-0.265635 -1.169411,-0.943563 -1.394165,-1.28052 -0.05186,-0.07775 -0.150079,-0.220136 -0.218259,-0.316407 -0.181391,-0.256125 -0.510535,-0.929502 -0.630241,-1.289378 -0.271887,-0.817377 -0.361902,-1.479312 -0.325411,-2.392972 0.03744,-0.937678 0.153118,-1.42077 0.517396,-2.160944 0.62756,-1.275132 1.60908,-2.136612 3.164541,-2.777515 0.882312,-0.363543 2.301412,-0.665605 3.453472,-0.73509 0.902089,-0.05441 2.394315,0.13471 3.514059,0.445354 0.628108,0.174254 0.937363,0.275106 1.243408,0.405491 0.07295,0.03108 0.158888,0.05651 0.190965,0.05651 0.03208,0 0.154149,0.04379 0.271271,0.09731 0.466296,0.213083 0.787176,0.346995 0.831474,0.346995 0.02564,0 0.178677,0.06166 0.340106,0.137031 0.428057,0.19985 1.03365,0.467 1.242707,0.548204 0.199716,0.07757 1.901221,0.885591 2.383097,1.13169 0.935609,0.477826 1.586307,0.837334 2.024257,1.118394 0.07518,0.04825 0.224424,0.139127 0.331658,0.201958 0.107237,0.06283 0.252644,0.154433 0.323133,0.203562 0.07049,0.04913 0.209952,0.13656 0.309921,0.194292 0.09997,0.05773 0.299908,0.17553 0.444307,0.261775 0.1444,0.08625 0.407954,0.232887 0.585676,0.325872 0.177723,0.09298 0.395837,0.218753 0.484698,0.279484 0.285334,0.195009 0.55831,0.363932 0.588106,0.363932 0.01594,0 0.04117,-0.06816 0.05607,-0.151468 0.0149,-0.0833 0.06006,-0.251437 0.100345,-0.373621 0.06642,-0.201412 0.123,-0.387598 0.368223,-1.211744 0.04297,-0.1444 0.10656,-0.362514 0.141316,-0.484698 0.236039,-0.829757 0.374796,-1.255626 0.443044,-1.359785 0.09493,-0.144884 0.288989,-0.227576 0.459083,-0.195626 0.08037,0.0151 0.300631,0.03444 0.48946,0.04301 0.18883,0.0086 0.601773,0.03717 0.91765,0.0636 0.450672,0.0377 0.676773,0.03726 1.050178,-0.002 0.527102,-0.0555 1.90177,-0.263645 2.919542,-0.442047 0.291771,-0.05115 1.258049,-0.271832 1.51468,-0.345938 0.394942,-0.114046 1.052936,-0.314328 1.231941,-0.374983 0.09997,-0.03387 0.236289,-0.07648 0.302935,-0.09468 0.349588,-0.09546 0.929064,-0.326651 1.096147,-0.437322 0.104519,-0.06923 0.236903,-0.125976 0.294187,-0.126099 0.182885,-3.96e-4 0.561046,-0.11853 1.093742,-0.341677 0.122186,-0.05118 0.367563,-0.15093 0.545286,-0.22166 0.177723,-0.07073 0.45521,-0.190979 0.616638,-0.267217 0.161429,-0.07624 0.320203,-0.138616 0.352832,-0.138616 0.03263,0 0.209546,-0.07136 0.393148,-0.15857 0.183603,-0.08722 0.497409,-0.225326 0.697347,-0.306918 0.199939,-0.08159 0.443405,-0.183951 0.541037,-0.227466 0.09763,-0.04351 0.306657,-0.12145 0.464502,-0.173189 0.157844,-0.05174 0.350606,-0.121849 0.428359,-0.155802 0.180766,-0.07894 1.000491,-0.330774 1.575268,-0.483961 1.313937,-0.350183 2.920149,-0.269694 4.301692,0.215561 0.133293,0.04682 0.296878,0.09895 0.363525,0.115844 0.06664,0.0169 0.175702,0.05765 0.242348,0.09054 0.06665,0.0329 0.197274,0.08376 0.290285,0.113009 0.187587,0.05901 0.121963,0.09145 0.876005,-0.4331 0.136076,-0.09466 0.292852,-0.202341 0.34839,-0.239286 0.05554,-0.03695 0.197881,-0.132169 0.316317,-0.211607 0.118435,-0.07944 0.274649,-0.180786 0.347141,-0.225217 0.07249,-0.04443 0.21188,-0.140788 0.309751,-0.214128 0.178908,-0.134064 0.578565,-0.403057 0.822086,-0.55331 0.07201,-0.04443 0.211005,-0.140788 0.308876,-0.214128 0.178907,-0.134064 0.578566,-0.403056 0.822086,-0.55331 0.07201,-0.04443 0.211004,-0.140788 0.308876,-0.214128 0.178906,-0.134064 0.578565,-0.403056 0.822085,-0.55331 0.07201,-0.04443 0.211004,-0.140789 0.308877,-0.214129 0.160118,-0.119985 0.388103,-0.274239 0.847625,-0.573505 0.08528,-0.05554 0.339028,-0.228212 0.563887,-0.383719 0.224859,-0.155508 0.479326,-0.32818 0.565486,-0.383719 0.0862,-0.05554 0.34062,-0.228212 0.56548,-0.383719 0.22486,-0.155508 0.47932,-0.328181 0.56548,-0.38372 0.0862,-0.05554 0.34062,-0.228211 0.565482,-0.383718 0.22486,-0.155508 0.47932,-0.328181 0.56548,-0.38372 0.0862,-0.05554 0.34029,-0.228212 0.56474,-0.383718 0.22446,-0.155507 0.47207,-0.321231 0.55025,-0.368276 0.28744,-0.17297 0.28637,-0.155303 0.0403,-0.665879 -0.29892,-0.620114 -0.34934,-0.809134 -0.3476,-1.303092 0.002,-0.656563 0.14477,-1.077899 0.50998,-1.508263 0.21095,-0.248591 0.41931,-0.395255 0.91794,-0.646167 0.2979,-0.149899 0.42049,-0.189008 0.64315,-0.205169 l 0.27508,-0.01996 0.20368,-0.405878 c 0.24207,-0.482389 0.50414,-0.761708 0.86418,-0.921084 0.13199,-0.05842 0.31269,-0.137846 0.40154,-0.176494 0.47989,-0.208712 1.31602,-0.284668 1.79742,-0.16328 0.81475,0.20544 1.59846,0.664329 1.82113,1.06633 0.0448,0.08091 0.12595,0.219813 0.1803,0.308674 0.0544,0.08886 0.11777,0.229899 0.14094,0.313417 0.0375,0.135675 0.0752,0.16871 0.35347,0.310076 0.49431,0.251185 0.70112,0.461823 0.96918,0.987123 l 0.2293,0.44935 7.6e-4,0.70685 c 6.7e-4,0.635055 -0.009,0.737622 -0.0958,1.009788 -0.12526,0.393123 -0.42035,0.981706 -0.60545,1.207596 -0.33344,0.406927 -1.04548,0.854947 -1.62042,1.019577 -0.15486,0.04434 -0.39124,0.07514 -0.57673,0.07514 -0.26858,0 -0.34793,-0.01729 -0.54541,-0.118848 -0.1271,-0.06537 -0.28531,-0.16336 -0.35156,-0.217764 l -0.12048,-0.09891 -0.2821,0.21919 c -0.15515,0.120555 -0.32814,0.229631 -0.38442,0.24239 -0.0563,0.01276 -0.18021,0.04848 -0.2754,0.07936 -0.0952,0.03089 -0.22243,0.0568 -0.28274,0.05758 -0.10061,0.0014 -0.12947,0.04382 -0.34962,0.514991 -0.13197,0.282466 -0.26238,0.578042 -0.28981,0.656838 -0.0274,0.07879 -0.16937,0.385552 -0.31543,0.681685 -0.14607,0.296131 -0.26557,0.563638 -0.26557,0.594457 0,0.03083 -0.11815,0.291808 -0.26255,0.579973 -0.1444,0.288164 -0.26254,0.544317 -0.26254,0.569227 0,0.02492 -0.11602,0.293268 -0.25782,0.596351 -0.14179,0.303083 -0.38009,0.823702 -0.52953,1.156932 -0.14945,0.333229 -0.38815,0.851251 -0.53044,1.151157 -0.1423,0.299906 -0.25844,0.568247 -0.2581,0.596313 3.4e-4,0.02806 -0.12661,0.305009 -0.28212,0.615431 -0.15551,0.310423 -0.28274,0.589604 -0.28274,0.620402 0,0.0308 -0.11815,0.295528 -0.26255,0.588286 -0.14439,0.292758 -0.26254,0.548643 -0.26254,0.568634 0,0.03473 -0.22972,0.539905 -0.79236,1.742512 -0.1418,0.303082 -0.25782,0.571483 -0.25782,0.596447 0,0.02496 -0.1,0.24472 -0.222152,0.488348 -0.12218,0.243628 -0.22215,0.467156 -0.22215,0.496727 0,0.02957 0.14995,0.190967 0.333232,0.358655 0.368,0.336707 2.62241,2.361061 3.10359,2.786882 0.16754,0.148265 0.39432,0.354778 0.50396,0.458917 0.10964,0.104135 0.59224,0.542805 1.07245,0.974816 0.48021,0.432011 0.89371,0.830711 0.91891,0.886001 0.0644,0.141321 0.057,0.361963 -0.017,0.505084 -0.0642,0.12401 -0.43673,0.314173 -8.107777,4.138014 l -1.301151,0.648594 -0.148166,0.300605 c -0.08149,0.165333 -0.178781,0.400574 -0.2162,0.522758 -0.03742,0.122185 -0.08889,0.276682 -0.114379,0.343328 -0.07215,0.188631 -0.05662,1.011674 0.02362,1.252136 0.201573,0.604089 0.27911,0.759188 0.878364,1.75703 0.09409,0.156657 0.207044,0.323167 0.424736,0.626068 0.07983,0.111071 0.212512,0.304048 0.29485,0.428825 0.239302,0.362646 0.517666,0.765357 0.69473,1.005072 0.09025,0.122184 0.195391,0.274415 0.233641,0.338289 0.0383,0.06387 0.13485,0.200579 0.21465,0.303788 0.0798,0.10321 0.16885,0.232709 0.19789,0.287779 0.029,0.05507 0.11429,0.18192 0.18946,0.281888 0.19267,0.256205 0.48245,0.681234 0.57832,0.848222 0.0446,0.07775 0.15832,0.253252 0.25264,0.389998 0.0943,0.136745 0.226,0.342989 0.29264,0.45832 0.0666,0.115331 0.159592,0.257915 0.206542,0.316853 0.0469,0.05894 0.12511,0.179865 0.17369,0.268727 0.0819,0.149846 0.21955,0.375067 0.43454,0.71111 0.0482,0.07541 0.13913,0.224404 0.20196,0.331095 0.097,0.164726 0.50903,0.814186 0.63932,1.007744 0.18627,0.276714 0.44922,0.65394 0.58416,0.838042 0.0895,0.122184 0.19387,0.267593 0.2318,0.323131 0.0379,0.05554 0.12432,0.168377 0.19198,0.250751 0.0677,0.08238 0.18664,0.233682 0.2644,0.336237 0.0778,0.102556 0.22401,0.280536 0.32503,0.395512 0.10101,0.114978 0.21006,0.248076 0.24234,0.295778 0.25268,0.373383 2.10009,2.304031 2.70423,2.826058 0.0999,0.08633 0.37349,0.329639 0.60795,0.540684 0.23446,0.211046 0.68891,0.606708 1.00988,0.87925 0.32098,0.272541 0.85625,0.73116 1.18947,1.01915 0.33324,0.287992 0.86035,0.740304 1.17136,1.00514 0.73999,0.63012 2.40727,2.261945 2.86486,2.803949 l 0.3606,0.427109 0.1414,-0.05908 c 0.13586,-0.05676 0.50382,-0.374015 0.67228,-0.579641 0.12018,-0.146669 0.29849,-0.445932 0.60328,-1.012424 0.0849,-0.157763 0.23103,-0.492543 0.27331,-0.626068 0.099,-0.312758 0.44592,-1.721219 0.65654,-2.665838 0.12138,-0.544388 0.33357,-1.416324 0.42266,-1.736834 0.0185,-0.06665 0.0644,-0.202967 0.10196,-0.302936 0.0376,-0.09997 0.0826,-0.236289 0.10004,-0.302935 0.0319,-0.122291 0.73753,-1.529236 0.90507,-1.804781 0.0497,-0.0818 0.11943,-0.18177 0.15488,-0.222153 0.0354,-0.04039 0.0922,-0.127952 0.12628,-0.194598 0.17514,-0.343239 1.25007,-1.511496 1.83531,-1.994627 0.69123,-0.570637 0.96484,-0.749497 1.82863,-1.195379 0.71353,-0.368321 1.23446,-0.502298 2.08143,-0.535316 0.48476,-0.0189 0.6326,-0.009 1.02205,0.06856 0.25042,0.04986 0.54975,0.12653 0.66519,0.170369 0.11543,0.04384 0.2735,0.09853 0.35126,0.121536 0.21239,0.06284 0.62513,0.280399 1.00978,0.532263 0.50724,0.332142 0.52478,0.346084 0.60894,0.484095 0.20914,0.342977 -0.057,0.753967 -0.45373,0.700752 -0.12036,-0.01615 -0.18398,4.38e-4 -0.28626,0.07463 -0.0723,0.05247 -0.18603,0.125687 -0.25267,0.162721 -0.29711,0.165099 -0.77035,0.592974 -1.06851,0.966083 -0.15117,0.189169 -0.56735,0.925051 -0.56735,1.00318 0,0.0083 0.1227,0.02742 0.27265,0.04235 0.41635,0.04147 1.34566,0.248565 1.74693,0.389305 0.18613,0.06528 0.75025,0.310963 0.929,0.404593 0.0777,0.04073 0.316,0.164941 0.52942,0.276034 0.39601,0.20613 0.69382,0.399026 1.13034,0.732131 0.277,0.211377 1.32893,1.288707 1.61702,1.656051 0.40418,0.515394 0.73745,1.009644 0.96687,1.433897 0.048,0.08886 0.12093,0.198308 0.16196,0.243215 0.0811,0.08876 0.92607,1.79862 0.92607,1.873948 0,0.02534 0.0545,0.154106 0.12118,0.28613 0.0667,0.132026 0.12117,0.267342 0.12117,0.300704 0,0.03336 0.0346,0.138394 0.0769,0.233403 0.1564,0.351267 0.35213,0.926382 0.50553,1.485468 0.32143,1.171446 0.46772,1.839267 0.46772,2.135088 0,0.435122 -0.37523,0.662952 -0.72704,0.441432 -0.18698,-0.11774 -0.36116,-0.184276 -0.72705,-0.277742 -0.77009,-0.196724 -1.43639,-0.241164 -1.71038,-0.11408 -0.1085,0.05035 -0.11302,0.06238 -0.0808,0.216733 0.0448,0.214416 0.0288,0.772125 -0.0285,0.996004 -0.0249,0.09747 -0.0655,0.263548 -0.0902,0.369071 l -0.0448,0.191859 h -0.50162 c -0.50138,0 -0.50162,-4.4e-5 -0.47428,-0.09088 0.0255,-0.08462 0.0959,-0.342069 0.18486,-0.676558 0.0429,-0.160944 0.0517,-0.527273 0.015,-0.622789 -0.0135,-0.03516 -0.10309,-0.09866 -0.19909,-0.141135 -0.50605,-0.223851 -0.33904,-0.892126 0.22296,-0.892126 0.0955,0 0.24812,-0.04217 0.36256,-0.100154 0.36041,-0.182634 0.54148,-0.229435 0.97101,-0.250978 0.42631,-0.02138 0.98577,0.04047 1.50459,0.166329 0.25647,0.06221 0.26084,0.05811 0.19023,-0.178986 -0.0231,-0.07761 -0.10579,-0.377394 -0.18385,-0.666193 -0.23546,-0.871763 -0.39629,-1.362755 -0.58582,-1.788403 -0.0423,-0.09501 -0.0769,-0.200041 -0.0769,-0.233403 0,-0.03336 -0.0545,-0.168679 -0.12118,-0.300704 -0.0667,-0.132025 -0.12117,-0.260198 -0.12117,-0.284828 0,-0.07519 -0.60372,-1.302998 -0.68366,-1.390376 -0.0412,-0.045 -0.1232,-0.172706 -0.18227,-0.283783 -0.24185,-0.454812 -0.59834,-0.982903 -0.93528,-1.385542 -0.0688,-0.08213 -0.14145,-0.179657 -0.16157,-0.216719 -0.13162,-0.242348 -1.26886,-1.342623 -1.67245,-1.618079 -0.0555,-0.03791 -0.18002,-0.124829 -0.27663,-0.193164 -0.26072,-0.184405 -1.338,-0.714028 -1.67315,-0.822563 -0.28517,-0.09235 -0.75476,-0.213413 -1.20076,-0.309556 -0.12218,-0.02633 -0.46753,-0.05717 -0.76744,-0.06853 -0.59984,-0.0227 -0.72928,-0.06209 -0.82734,-0.251702 -0.0857,-0.165816 -0.0769,-0.458552 0.0195,-0.647586 0.0444,-0.08709 0.0808,-0.186579 0.0808,-0.221083 0,-0.133546 0.58348,-1.223878 0.80034,-1.495555 0.38708,-0.484949 0.80469,-0.856698 1.18092,-1.051258 0.0655,-0.03387 0.11909,-0.07883 0.11909,-0.09989 0,-0.04639 -0.21693,-0.162631 -0.38372,-0.205601 -0.0666,-0.01717 -0.20297,-0.06169 -0.30293,-0.09895 -0.83918,-0.312679 -1.76193,-0.324922 -2.65471,-0.03522 -0.17408,0.05649 -1.00584,0.473505 -1.26549,0.634472 -0.23903,0.148194 -0.97035,0.734302 -1.25456,1.005453 -0.43634,0.416297 -1.21745,1.319014 -1.42312,1.644676 -0.0478,0.07569 -0.1364,0.212014 -0.19689,0.302936 -0.21659,0.32561 -0.67388,1.269883 -0.79571,1.64312 -0.0682,0.209111 -0.14185,0.43473 -0.16353,0.501376 -0.0551,0.169458 -0.23035,0.910265 -0.36515,1.543739 -0.0625,0.293673 -0.13309,0.59358 -0.15688,0.666459 -0.0238,0.07288 -0.11489,0.441502 -0.20246,0.819163 -0.20484,0.883465 -0.30464,1.239855 -0.42418,1.514681 -0.0531,0.122184 -0.14556,0.344026 -0.20538,0.492982 -0.0598,0.148955 -0.13585,0.293319 -0.16897,0.320807 -0.0332,0.02749 -0.1233,0.169169 -0.20041,0.314847 -0.0772,0.145678 -0.18819,0.346663 -0.24685,0.446631 -0.14755,0.251486 -0.70767,0.79155 -0.94639,0.91252 l -0.19759,0.100131 0.1297,0.190428 c 0.24139,0.354361 0.26635,0.394584 0.35717,0.575387 0.0499,0.09928 0.1243,0.217316 0.16538,0.262286 0.0808,0.08832 0.88558,1.718514 0.88558,1.793625 0,0.02503 0.0519,0.149505 0.11527,0.27661 0.0634,0.127104 0.12656,0.290171 0.14036,0.362371 l 0.025,0.131272 h -0.47589 -0.47589 l -0.12531,-0.272643 c -0.0689,-0.149953 -0.17502,-0.390786 -0.23575,-0.535186 -0.16372,-0.389307 -0.53437,-1.120762 -0.5832,-1.150947 -0.0234,-0.01446 -0.0972,-0.12948 -0.16407,-0.2556 -0.16392,-0.309291 -0.35596,-0.602272 -0.82586,-1.259951 -0.29434,-0.411961 -0.80159,-0.980599 -1.47574,-1.65433 -0.94982,-0.949246 -1.18727,-1.165765 -2.82596,-2.576906 -2.21864,-1.910575 -2.27566,-1.960375 -3.24795,-2.836613 -1.14661,-1.033359 -3.09418,-3.231984 -3.84178,-4.337022 -0.0883,-0.130507 -0.23798,-0.348622 -0.33264,-0.484698 -0.2958,-0.425215 -0.689,-1.033952 -0.87807,-1.35939 -0.0666,-0.114717 -0.15963,-0.256799 -0.20664,-0.315737 -0.047,-0.05894 -0.134532,-0.198042 -0.194512,-0.309118 -0.16774,-0.310646 -0.31775,-0.560155 -0.40668,-0.676424 -0.0444,-0.05808 -0.13531,-0.199472 -0.20196,-0.314188 -0.0666,-0.114717 -0.19833,-0.320457 -0.29265,-0.457203 -0.0943,-0.136745 -0.20799,-0.312244 -0.25263,-0.389997 -0.0959,-0.166988 -0.38566,-0.592017 -0.57832,-0.848221 -0.0752,-0.09997 -0.160431,-0.226819 -0.189463,-0.281889 -0.02903,-0.05507 -0.11808,-0.184572 -0.197885,-0.28778 -0.07981,-0.10321 -0.176395,-0.239912 -0.214649,-0.303787 -0.03826,-0.06387 -0.143393,-0.216104 -0.233645,-0.338289 -0.09025,-0.122185 -0.245165,-0.340298 -0.344256,-0.484698 -0.09909,-0.144399 -0.257504,-0.37388 -0.352031,-0.509956 -0.09453,-0.136077 -0.24244,-0.354191 -0.328693,-0.484698 -0.08626,-0.130508 -0.190688,-0.282727 -0.232078,-0.338265 -0.04139,-0.05553 -0.112807,-0.164596 -0.158706,-0.242349 -0.04589,-0.07776 -0.15413,-0.259516 -0.240514,-0.403914 -0.332617,-0.556043 -0.724958,-1.391582 -0.853482,-1.817642 -0.07582,-0.251321 -0.07479,-1.369483 0.0015,-1.615659 0.03097,-0.09997 0.07933,-0.254466 0.107474,-0.343328 0.02814,-0.08886 0.1164,-0.297374 0.196134,-0.463362 0.07974,-0.165989 0.145594,-0.329574 0.146356,-0.363524 7.63e-4,-0.03395 0.08112,-0.207136 0.178562,-0.384858 0.418939,-0.764063 0.956409,-1.88545 1.093796,-2.282119 0.328214,-0.947635 0.503365,-1.549373 0.587848,-2.019574 0.02195,-0.122184 0.06733,-0.376651 0.100853,-0.56548 0.133401,-0.751646 0.119084,-2.359878 -0.02769,-3.110146 -0.168801,-0.862876 -0.291387,-1.337251 -0.490577,-1.898399 -0.04337,-0.122184 -0.104417,-0.294857 -0.135669,-0.383719 -0.06096,-0.173374 -0.313048,-0.742807 -0.402322,-0.908808 -0.02987,-0.05554 -0.117303,-0.220349 -0.194298,-0.366246 -0.29288,-0.554967 -0.766568,-1.228032 -1.049077,-1.490635 -0.107699,-0.100109 -0.223736,-0.236745 -0.257854,-0.303631 -0.188231,-0.368998 -1.794011,-1.799045 -2.472334,-2.201768 -0.09354,-0.05554 -0.261539,-0.161699 -0.373319,-0.235913 -0.265356,-0.176178 -0.75578,-0.41031 -0.859856,-0.410502 -0.04506,-8.3e-5 -0.136451,-0.03617 -0.203098,-0.0802 -0.24304,-0.160556 -0.474011,-0.270125 -0.686654,-0.32574 -0.06665,-0.01742 -0.221143,-0.06738 -0.343328,-0.111004 -1.33054,-0.475024 -2.688383,-0.551669 -3.917974,-0.221152 -0.680389,0.18289 -1.381108,0.397298 -1.572222,0.481074 -0.07607,0.03335 -0.266928,0.102748 -0.42411,0.154207 -0.157182,0.05147 -0.367579,0.130689 -0.467548,0.176052 -0.09997,0.04536 -0.290818,0.124727 -0.424111,0.176361 l -0.242348,0.09388 0.868416,0.02759 c 0.991278,0.03149 1.619719,0.08431 2.342706,0.196916 0.940011,0.146404 2.333082,0.509372 3.170731,0.826142 0.155508,0.05881 0.351161,0.132745 0.434785,0.164304 0.539451,0.203589 1.83442,0.946503 2.352228,1.349456 1.117407,0.869553 1.627541,1.440111 2.061877,2.306095 0.699824,1.395322 0.97351,2.591646 0.937148,4.096408 -0.01678,0.694438 -0.03096,0.817196 -0.14908,1.29053 -0.0718,0.287701 -0.183486,0.627986 -0.248202,0.756189 -0.06472,0.128204 -0.118178,0.265423 -0.118803,0.304933 -0.0018,0.114349 -0.522839,1.004622 -0.875931,1.496682 -0.280339,0.390674 -0.995648,1.235993 -1.404719,1.660034 -0.417712,0.432998 -1.145321,1.087676 -1.300302,1.169968 -0.282913,0.150222 -0.659017,-0.08813 -0.659017,-0.417656 0,-0.186321 0.104236,-0.31659 0.638031,-0.797344 0.787817,-0.709541 1.923133,-2.027165 2.290351,-2.658133 0.06665,-0.114513 0.180247,-0.299057 0.252447,-0.410095 0.07219,-0.111038 0.131272,-0.227931 0.131272,-0.259761 0,-0.03183 0.04547,-0.147606 0.101045,-0.257282 0.125448,-0.24756 0.188893,-0.439475 0.307074,-0.928864 0.08002,-0.331352 0.09282,-0.491209 0.09387,-1.171353 0.0011,-0.759626 -0.04102,-1.15418 -0.177084,-1.656052 -0.146926,-0.541935 -0.186213,-0.669917 -0.365917,-1.191995 -0.08904,-0.258708 -0.408609,-0.875097 -0.575134,-1.109356 -0.31779,-0.447053 -1.304153,-1.348108 -1.959044,-1.78961 -0.598292,-0.403347 -1.646627,-0.946511 -2.009254,-1.041038 -0.06665,-0.01737 -0.221144,-0.06695 -0.343328,-0.110169 -0.202325,-0.07157 -0.411342,-0.136158 -0.989591,-0.305787 -0.696509,-0.204319 -1.882965,-0.423259 -2.807208,-0.518019 -0.79232,-0.08124 -3.096551,-0.0681 -3.65543,0.02084 -0.527777,0.08399 -0.790928,0.138144 -1.009786,0.20781 -0.08886,0.02829 -0.270623,0.06459 -0.403915,0.08066 -0.133292,0.01608 -0.278274,0.04842 -0.322182,0.07187 -0.04391,0.02345 -0.134789,0.05638 -0.201957,0.07321 -0.06716,0.01682 -0.222094,0.07007 -0.344278,0.118348 -0.122184,0.04827 -0.276681,0.102793 -0.343328,0.121174 -0.06664,0.01837 -0.221143,0.0729 -0.343327,0.121175 -0.122185,0.04827 -0.276682,0.102207 -0.343328,0.119871 -0.06665,0.01766 -0.202967,0.05882 -0.302936,0.09147 -0.09997,0.03265 -0.318083,0.100616 -0.484698,0.151045 -0.166615,0.05043 -0.348377,0.106662 -0.403915,0.124962 -0.455969,0.150277 -1.769267,0.442594 -2.524468,0.561902 -2.076546,0.328059 -2.585075,0.382726 -3.242891,0.348613 -0.282434,-0.01465 -0.714213,-0.03739 -0.959509,-0.05055 l -0.445994,-0.02392 -0.08752,0.277403 c -0.07826,0.248066 -0.180183,0.589885 -0.359717,1.206407 -0.06697,0.229975 -0.193509,0.654009 -0.301338,1.009787 -0.0661,0.218122 -0.177338,0.595856 -0.344927,1.171353 -0.06553,0.225034 -0.190027,0.642357 -0.30124,1.009787 -0.04034,0.133293 -0.103583,0.346349 -0.140522,0.47346 l -0.06716,0.23111 0.243531,0.273783 c 0.544138,0.611727 1.628327,1.62559 2.752022,2.573513 0.235328,0.198515 0.610417,0.525687 0.833533,0.727046 0.223117,0.20136 0.613061,0.547871 0.866545,0.770024 0.253482,0.222153 0.562798,0.494795 0.687369,0.605871 0.124571,0.111083 0.403604,0.347368 0.620073,0.52509 0.216468,0.177722 0.49818,0.414013 0.626024,0.525089 0.127845,0.111082 0.449118,0.38372 0.713941,0.605872 0.813198,0.682172 2.056913,1.953964 2.643998,2.70369 0.210421,0.268714 0.687118,0.941968 0.798871,1.128269 0.03825,0.06377 0.166807,0.263705 0.28568,0.444306 0.380724,0.578421 1.230337,2.33279 1.498946,3.095181 0.0274,0.07776 0.08211,0.232251 0.121591,0.343328 0.342161,0.962675 0.754133,2.856906 0.847716,3.897778 0.08097,0.900576 0.04533,2.507905 -0.0815,3.675624 -0.04684,0.431277 -0.263286,1.932215 -0.32327,2.241728 -0.22039,1.137189 -0.312887,1.570444 -0.487217,2.282118 -0.111556,0.455414 -0.219088,0.882554 -0.238958,0.9492 -0.01987,0.06665 -0.06651,0.230232 -0.103639,0.363524 -0.147614,0.529904 -0.366468,1.259642 -0.490607,1.635854 -0.03299,0.09997 -0.07443,0.236291 -0.09209,0.302937 -0.01766,0.06665 -0.07161,0.221143 -0.119871,0.343327 -0.04827,0.122184 -0.102793,0.276682 -0.121174,0.343328 -0.01837,0.06665 -0.0729,0.221143 -0.121174,0.343327 -0.04827,0.122184 -0.101868,0.276682 -0.119121,0.343328 -0.01725,0.06665 -0.06842,0.202967 -0.113704,0.302936 -0.04529,0.09997 -0.148946,0.345348 -0.230346,0.545285 -0.172669,0.424114 -1.19734,2.486268 -1.455095,2.928383 -0.09714,0.166615 -0.230891,0.403992 -0.29723,0.527506 -0.06634,0.123513 -0.146558,0.246097 -0.178262,0.27241 -0.03171,0.02631 -0.09048,0.120649 -0.130605,0.209638 l -0.07296,0.161798 h -0.56061 -0.560555 z M 97.80894,41.449273 c 0.222153,-0.119726 1.800878,-0.915037 3.50829,-1.767359 l 3.10437,-1.549677 -0.79559,-0.724319 c -0.43758,-0.398376 -0.988,-0.896993 -1.22315,-1.108039 -0.58389,-0.524028 -2.719832,-2.445606 -3.969882,-3.571471 -0.565375,-0.509206 -1.059523,-0.95258 -1.098109,-0.985275 -0.05639,-0.04779 -0.04957,-0.0088 0.03478,0.198783 0.05771,0.142025 0.13809,0.340022 0.178609,0.43999 0.193076,0.47635 0.403172,1.272396 0.57566,2.18114 0.0793,0.417575 0.088,0.593041 0.0863,1.736833 -10e-4,0.992597 -0.0165,1.356697 -0.0684,1.656052 -0.0366,0.211046 -0.08649,0.500535 -0.110894,0.643312 -0.02441,0.142776 -0.05407,0.275277 -0.06591,0.294447 -0.01184,0.01917 -0.05515,0.174995 -0.09623,0.346279 -0.06588,0.274698 -0.225378,0.777912 -0.425174,1.341408 -0.09321,0.262885 -0.244566,0.618883 -0.423701,0.996571 l -0.15657,0.330112 0.270802,-0.120551 c 0.148941,-0.06631 0.452564,-0.218509 0.674717,-0.338236 z M 50.086404,37.309831 c 0.85577,-0.166728 1.529188,-0.557729 2.156827,-1.2523 0.385539,-0.426654 0.486266,-0.652298 0.56797,-1.272332 0.05016,-0.380615 -0.108421,-1.043075 -0.326238,-1.362885 -0.161796,-0.237556 -0.624128,-0.695759 -0.787022,-0.779995 -0.613535,-0.31727 -1.259846,-0.140662 -1.633774,0.446438 -0.311912,0.489728 -0.308079,1.281944 0.0094,1.927351 0.05153,0.104789 0.09369,0.237464 0.09369,0.294843 0,0.242225 -0.221932,0.46384 -0.464502,0.46384 -0.206039,0 -0.336793,-0.110215 -0.488764,-0.411991 -0.188188,-0.37369 -0.246004,-0.572116 -0.305553,-1.048663 -0.14526,-1.162462 0.457437,-2.282109 1.420821,-2.639502 0.589283,-0.218611 1.14133,-0.17776 1.753097,0.129725 0.257066,0.129206 0.871914,0.595974 0.871914,0.661923 0,0.01444 0.07029,0.114956 0.156189,0.223381 0.08591,0.108421 0.19533,0.274384 0.243169,0.368799 0.09494,0.18737 0.128816,0.204696 0.209693,0.107248 0.05665,-0.06827 1.129638,-0.615603 1.572089,-0.801932 0.144399,-0.06081 0.32616,-0.138584 0.403914,-0.172831 0.07775,-0.03424 0.195899,-0.07716 0.262545,-0.09536 1.4713,-0.401867 2.045834,-0.480413 3.514059,-0.480413 0.997209,0 1.484896,0.03395 2.32251,0.161646 0.587694,0.0896 1.740753,0.330297 2.201335,0.459523 0.111072,0.03116 0.311015,0.08722 0.444308,0.124567 0.382638,0.107214 1.041106,0.307705 1.143631,0.348213 0.172208,0.06804 0.05091,-0.04153 -0.187277,-0.169156 -0.342406,-0.183483 -0.593029,-0.332456 -0.673614,-0.400406 -0.07827,-0.06599 -0.329224,-0.215759 -0.646265,-0.38567 -0.111071,-0.05953 -0.235437,-0.137759 -0.276358,-0.173842 -0.09926,-0.08752 -0.341747,-0.226475 -0.995973,-0.570706 -0.299907,-0.157801 -0.590726,-0.311788 -0.646264,-0.342195 -0.230281,-0.126075 -2.147123,-1.031858 -2.183646,-1.031858 -0.02182,0 -0.18014,-0.07052 -0.351816,-0.156726 -0.171676,-0.0862 -0.395965,-0.185102 -0.498422,-0.219782 -0.102454,-0.03468 -0.302394,-0.116768 -0.444306,-0.182419 -0.141912,-0.06565 -0.403431,-0.177097 -0.581153,-0.247659 -0.177723,-0.07056 -0.41896,-0.172413 -0.536082,-0.226335 -0.117124,-0.05392 -0.239196,-0.09804 -0.271272,-0.09804 -0.03208,0 -0.118011,-0.02543 -0.190966,-0.05651 -0.308108,-0.131265 -0.510626,-0.197371 -1.303995,-0.425651 -0.620642,-0.178579 -1.646102,-0.350861 -2.399016,-0.403044 -0.918002,-0.06362 -2.100296,0.09236 -3.296183,0.434876 -0.844479,0.241869 -1.511614,0.561811 -2.015192,0.966433 -0.507039,0.407405 -0.98096,0.933828 -1.191027,1.322973 -0.0476,0.08817 -0.102455,0.187564 -0.121928,0.220888 -0.126217,0.216048 -0.294986,0.745864 -0.366693,1.151157 -0.217708,1.230509 0.08294,2.851657 0.686966,3.704234 0.06755,0.09534 0.165505,0.236965 0.217684,0.314718 0.124406,0.185379 0.766578,0.807182 0.972573,0.941725 0.08886,0.05804 0.23922,0.16055 0.33413,0.227803 0.281829,0.199701 0.460671,0.276276 0.938202,0.401712 0.18102,0.04755 0.455513,0.04923 0.686655,0.0042 z M 99.200488,31.34095 c 10e-4,-0.02825 0.12226,-0.309981 0.26931,-0.626068 0.14704,-0.316086 0.38333,-0.824231 0.52509,-1.129211 0.141752,-0.304979 0.257742,-0.573337 0.257742,-0.596351 0,-0.02302 0.11814,-0.277614 0.26254,-0.56578 0.1444,-0.288164 0.26255,-0.551701 0.26255,-0.585637 0,-0.03394 0.12723,-0.315684 0.28274,-0.626107 0.1555,-0.310422 0.28274,-0.586579 0.28274,-0.613684 0,-0.0271 0.11612,-0.295445 0.25805,-0.596313 0.14193,-0.300867 0.3804,-0.819675 0.52993,-1.152904 0.14953,-0.33323 0.38784,-0.852038 0.52957,-1.152905 0.14175,-0.300868 0.25771,-0.569226 0.25771,-0.596351 0,-0.02712 0.11815,-0.28509 0.26255,-0.573254 0.1444,-0.288166 0.26254,-0.546436 0.26254,-0.573936 0,-0.0275 0.12492,-0.314034 0.27759,-0.636743 0.71984,-1.521528 0.78133,-1.672008 0.70574,-1.727277 -0.0384,-0.02806 -0.0942,-0.05101 -0.12397,-0.05101 -0.0656,0 -0.42459,-0.179016 -0.59484,-0.296624 -0.21872,-0.151092 -0.46974,-0.40502 -0.61513,-0.622251 -0.0866,-0.129474 -0.16004,-0.201057 -0.18848,-0.183857 -0.0256,0.0155 -0.1362,0.09272 -0.24573,0.171633 -0.10954,0.0789 -0.25834,0.179817 -0.33069,0.224248 -0.0724,0.04443 -0.3152,0.208016 -0.53965,0.363523 -0.22445,0.155508 -0.47859,0.32818 -0.56474,0.38372 -0.0862,0.05553 -0.34063,0.228211 -0.56548,0.383718 -0.22486,0.155508 -0.47933,0.328181 -0.56548,0.38372 -0.0862,0.05554 -0.340632,0.228212 -0.565492,0.383718 -0.22485,0.155508 -0.47932,0.328181 -0.56548,0.38372 -0.0862,0.05554 -0.34062,0.228212 -0.56548,0.383719 -0.22486,0.155506 -0.478604,0.32818 -0.563884,0.383718 -0.459523,0.299266 -0.687507,0.453521 -0.847627,0.573507 -0.09788,0.07334 -0.236864,0.169697 -0.308875,0.214128 -0.243521,0.150253 -0.643179,0.419245 -0.822086,0.553309 -0.09788,0.07334 -0.236866,0.169699 -0.308875,0.214129 -0.243521,0.150254 -0.643179,0.419245 -0.822086,0.553309 -0.09788,0.07334 -0.236866,0.169699 -0.308876,0.214128 -0.243521,0.150255 -0.643178,0.419247 -0.822086,0.55331 -0.09788,0.07334 -0.237259,0.169699 -0.309751,0.214129 -0.11238,0.06888 -0.328714,0.211448 -0.683653,0.450546 -0.04443,0.02993 -0.202329,0.13608 -0.350884,0.235888 -0.313206,0.210431 -0.345052,0.247968 -0.23895,0.281643 0.04279,0.01358 0.196966,0.101225 0.342612,0.194768 0.145646,0.09354 0.340553,0.215514 0.433125,0.271053 0.695119,0.417029 2.314883,1.859537 2.780449,2.476174 0.181501,0.240397 0.724489,0.748381 0.897615,0.839749 0.09854,0.05201 0.474011,0.379741 1.949222,1.70141 l 0.52827,0.473292 0.12932,-0.251139 c 0.0711,-0.138126 0.13019,-0.274252 0.13127,-0.302504 z m 6.616252,-12.687092 c 0.33016,-0.168435 0.56899,-0.534062 0.63269,-0.968593 0.0352,-0.240164 0.12337,-0.396687 0.26451,-0.469677 0.23569,-0.121878 0.51367,-0.03884 0.63126,0.188554 0.052,0.100627 0.06,0.186928 0.0378,0.412087 -0.0155,0.156643 -0.0447,0.31583 -0.065,0.353751 -0.0293,0.05471 0.007,0.107755 0.17497,0.256897 0.20928,0.185632 0.21464,0.187666 0.43405,0.164835 0.41384,-0.04306 0.71428,-0.180071 1.08556,-0.49505 0.28914,-0.245289 0.40241,-0.386252 0.54629,-0.6798 0.19314,-0.394031 0.24566,-0.650583 0.24397,-1.191549 -0.001,-0.484645 -0.007,-0.514717 -0.12769,-0.749855 -0.12531,-0.243453 -0.34988,-0.465928 -0.60056,-0.594958 -0.16271,-0.08376 -0.49498,-0.0951 -0.83045,-0.02835 -0.22333,0.04444 -0.29045,0.04437 -0.3986,-4.31e-4 -0.24554,-0.10171 -0.34776,-0.40174 -0.22063,-0.647589 0.0644,-0.124641 0.32165,-0.281131 0.46205,-0.281131 0.0975,0 0.10297,-0.04498 0.0244,-0.196995 -0.0591,-0.11425 -0.3303,-0.356002 -0.5005,-0.446098 -0.28257,-0.149586 -0.91919,-0.324779 -1.18343,-0.325672 -0.23974,-8.09e-4 -0.73925,0.110057 -0.93236,0.206928 -0.0825,0.04135 -0.17565,0.07518 -0.20719,0.07518 -0.0994,0 -0.38303,0.311246 -0.50632,0.555487 -0.15539,0.307828 -0.21197,0.933254 -0.11053,1.22174 0.1255,0.35689 0.0562,0.666914 -0.17594,0.78695 -0.24054,0.124392 -0.5526,0.02287 -0.63507,-0.206596 -0.10818,-0.301029 -0.14824,-0.456091 -0.17077,-0.661138 l -0.0244,-0.222153 -0.13342,0.0106 c -0.24578,0.01954 -0.70911,0.31441 -0.95709,0.609112 -0.12121,0.144054 -0.21771,0.492608 -0.21986,0.794116 -0.002,0.250502 0.11001,0.650564 0.27047,0.967893 l 0.12178,0.240841 0.0304,-0.139929 c 0.0167,-0.07696 0.10082,-0.280437 0.18692,-0.452169 0.12816,-0.2556 0.18556,-0.327037 0.31646,-0.393817 0.088,-0.04487 0.20697,-0.08158 0.2645,-0.08158 0.24615,0 0.46436,0.222303 0.46389,0.472594 -2e-4,0.106041 -0.0361,0.177832 -0.21314,0.426045 -0.0983,0.137776 -0.13432,0.477821 -0.0684,0.644972 0.12706,0.32217 0.53155,0.730265 0.80885,0.816066 0.48919,0.151366 1.01673,0.163097 1.2806,0.02848 z m -23.578716,52.67403 c 0,-0.06704 1.343678,-2.710771 1.533779,-3.017759 0.110056,-0.177722 0.312002,-0.540776 0.448774,-0.806784 0.284125,-0.552596 0.407187,-0.728761 0.566714,-0.811256 0.315017,-0.162902 0.682051,0.06334 0.682051,0.420427 0,0.06998 -0.06014,0.208261 -0.145803,0.335235 -0.08019,0.118863 -0.25353,0.425141 -0.385198,0.680616 -0.131666,0.255477 -0.329192,0.609912 -0.438946,0.787635 -0.109752,0.177722 -0.439994,0.800256 -0.733867,1.383408 l -0.534313,1.060276 h -0.496596 c -0.273127,0 -0.496595,-0.01431 -0.496595,-0.03179 z m 13.155385,-0.09948 c -0.05943,-0.145234 -0.200724,-0.695395 -0.267126,-1.04008 -0.101428,-0.526491 -0.134458,-1.053856 -0.11368,-1.814895 0.01832,-0.671029 0.03726,-0.851337 0.125447,-1.19427 0.13415,-0.521674 0.334093,-0.983252 0.691111,-1.595464 0.09716,-0.166615 0.213056,-0.366553 0.257543,-0.444306 0.200209,-0.349935 0.763347,-0.873934 1.682145,-1.565234 0.174557,-0.131337 0.964969,-0.530179 1.271439,-0.641567 0.3592,-0.130558 0.83091,-0.168124 1.001752,-0.07977 0.22852,0.118169 0.31184,0.395681 0.18971,0.631852 -0.0772,0.149243 -0.22141,0.223705 -0.504212,0.26031 -0.29508,0.03819 -0.61491,0.143863 -0.9098,0.300592 -0.56346,0.299472 -1.342975,0.915637 -1.697646,1.341901 -0.380069,0.456788 -0.424575,0.524357 -0.680689,1.033404 -0.410256,0.815415 -0.488,1.171324 -0.487677,2.23258 3.01e-4,0.993302 0.08237,1.509284 0.387099,2.433748 0.04214,0.127827 0.0766,0.241428 0.0766,0.252447 0,0.01105 -0.217871,0.02003 -0.484156,0.02003 H 95.447121 Z M 86.600304,37.690767 c -0.317085,-0.14674 -0.620838,-0.460053 -0.819803,-0.845602 -0.158493,-0.307126 -0.166828,-0.341139 -0.16827,-0.686656 -8.36e-4,-0.199937 0.02264,-0.445315 0.05216,-0.545284 0.0741,-0.250904 0.748671,-1.611953 0.86296,-1.741157 0.13667,-0.154506 0.428144,-0.374823 0.658627,-0.497838 0.111071,-0.05928 0.274661,-0.152013 0.363523,-0.206065 0.210284,-0.127908 0.425008,-0.126559 0.706851,0.0044 0.302798,0.140742 0.385931,0.227686 0.57374,0.600045 0.237084,0.470055 0.278475,0.634403 0.303213,1.203951 0.02894,0.666172 -0.01932,0.903338 -0.301864,1.483528 -0.190852,0.391907 -0.269381,0.505974 -0.51028,0.741207 -0.192073,0.187553 -0.386648,0.329268 -0.597977,0.435522 -0.278733,0.140144 -0.345635,0.15746 -0.606994,0.157109 -0.229022,-3.08e-4 -0.342679,-0.02304 -0.515888,-0.103199 z m 48.065856,-4.296534 c -0.71107,-0.217653 -1.08558,-0.830564 -1.08913,-1.782445 -0.001,-0.438492 0.0467,-0.756932 0.16818,-1.108086 0.0909,-0.262737 0.67198,-1.431208 0.79342,-1.595464 0.0411,-0.05554 0.1272,-0.182771 0.19141,-0.28274 0.0642,-0.09997 0.25332,-0.352105 0.42024,-0.560302 0.16694,-0.208198 0.33221,-0.421539 0.36729,-0.474092 0.0351,-0.05256 0.19491,-0.245734 0.35519,-0.429289 0.16027,-0.183557 0.44166,-0.5155 0.62531,-0.737653 0.45922,-0.555519 0.67892,-0.668405 1.02192,-0.525088 0.0797,0.03332 0.18368,0.06068 0.23096,0.0608 0.14432,3.58e-4 0.30798,0.130923 0.43003,0.343115 0.49124,0.853939 0.68654,1.523535 0.68518,2.349051 -6.9e-4,0.413686 -0.0765,0.854482 -0.23847,1.387161 -0.0541,0.177837 -0.498,1.067131 -0.61926,1.240564 -0.05,0.07139 -0.13962,0.20771 -0.19934,0.302936 -0.17506,0.279144 -0.72664,0.887058 -1.00626,1.109041 -0.31117,0.247035 -1.06484,0.631754 -1.36112,0.694797 -0.2393,0.05092 -0.62192,0.05471 -0.77555,0.0077 z m 13.43017,-0.180914 c -0.56529,-0.114964 -1.34078,-0.676711 -1.79742,-1.302028 -0.37566,-0.514428 -0.80073,-1.386447 -1.00113,-2.053852 -0.0467,-0.155508 -0.11268,-0.375469 -0.14663,-0.488803 -0.39425,-1.316505 -0.22115,-3.563825 0.29507,-3.830779 0.17438,-0.09017 0.45734,-0.182818 0.56039,-0.183481 0.10816,-6.96e-4 1.13671,0.507144 1.38907,0.685847 0.0965,0.06838 0.2422,0.168369 0.32364,0.222201 0.0814,0.05383 0.16021,0.117527 0.17505,0.141543 0.0149,0.02401 0.0936,0.08652 0.17507,0.138889 0.31082,0.199884 1.22553,1.157713 1.66826,1.74689 0.14138,0.188149 0.66059,1.215737 0.76148,1.507105 0.19827,0.572537 0.25879,1.308394 0.14615,1.777225 -0.0827,0.344231 -0.35499,0.843242 -0.57646,1.056397 -0.25071,0.241304 -0.83498,0.533539 -1.18821,0.594308 -0.32103,0.05523 -0.46686,0.0531 -0.78433,-0.01146 z M 44.852488,28.306992 c -0.374076,-0.22811 -0.24401,-0.745379 0.392677,-1.561656 0.212218,-0.272078 0.772383,-0.813407 1.069713,-1.033742 0.191439,-0.141865 0.895379,-0.497962 1.18647,-0.600191 0.912306,-0.320396 1.36126,-0.386418 2.386076,-0.350887 0.793929,0.02753 0.918404,0.06013 1.026321,0.268818 0.121128,0.234235 0.03896,0.513604 -0.185146,0.629495 -0.10541,0.05451 -0.227243,0.06009 -0.817245,0.03748 -0.901777,-0.03457 -1.393764,0.04323 -2.24844,0.3556 -0.390699,0.142792 -0.509348,0.212429 -0.914561,0.536768 -0.477044,0.381835 -0.9161,0.896183 -1.136323,1.331188 -0.231134,0.456554 -0.456952,0.571653 -0.759542,0.387134 z"
       id="path5" /><g
       id="text47"
       style="font-size:24px;line-height:1.3;white-space:pre"
       transform="matrix(0.26458333,0,0,0.26458333,1.0569395,-24.806703)"
       aria-label="2x Pony&#10;64 Pcs&#10;5 Color&#10;103125&#10;Birthday Surprise&#10;f-deem.org/sets/0002"><path
         style="font-family:Lectus;-inkscape-font-specification:Lectus;fill:#ffffff"
         d="m 9.5039063,274.24045 q -0.9023438,0 -1.5468751,-0.63281 -0.6328125,-0.64454 -0.6328125,-1.54688 v -6.53906 q 0,-1.80469 1.2773438,-3.08203 1.265625,-1.28907 3.0820315,-1.28907 h 2.179687 q 0.902344,0 1.546875,-0.63281 0.632813,-0.64453 0.632813,-1.54687 0,-0.90235 -0.632813,-1.54688 -0.644531,-0.63281 -1.546875,-0.63281 H 9.5039063 q -0.9023438,0 -1.5468751,-0.63281 -0.6328125,-0.64453 -0.6328125,-1.54688 0,-0.90234 0.6328125,-1.54687 0.6445313,-0.63282 1.5468751,-0.63282 h 6.5390627 q 1.804687,0 3.082031,1.27735 1.289062,1.27734 1.289062,3.08203 v 4.35937 q 0,1.81641 -1.289062,3.09375 -1.265625,1.27735 -3.082031,1.27735 h -2.179688 q -0.902343,0 -1.546875,0.63281 -0.632812,0.64453 -0.632812,1.54688 0,0.90234 0.632812,1.54687 0.644532,0.63281 1.546875,0.63281 h 4.359375 q 0.902344,0 1.546875,0.64453 0.644531,0.63282 0.644531,1.53516 0,0.90234 -0.644531,1.54688 -0.644531,0.63281 -1.546875,0.63281 z m 16.7929687,0 q -0.902344,0 -1.546875,-0.63281 -0.632813,-0.64454 -0.632813,-1.54688 0,-1.20703 0.5625,-2.17969 h -0.02344 l 2.179687,-4.35937 -2.179687,-4.3711 h 0.02344 q -0.5625,-0.96093 -0.5625,-2.17968 0,-0.90235 0.632813,-1.54688 0.644531,-0.63281 1.546875,-0.63281 0.902344,0 1.535156,0.63281 0.644531,0.64453 0.644531,1.54688 v 1.08984 q 0,0.90234 0.632813,1.54688 0.644531,0.63281 1.546875,0.63281 0.902344,0 1.546875,-0.63281 0.632812,-0.64454 0.632812,-1.54688 v -1.08984 q 0,-0.90235 0.644532,-1.54688 0.632812,-0.63281 1.535156,-0.63281 0.902344,0 1.546875,0.63281 0.644531,0.64453 0.644531,1.54688 0,1.21875 -0.574219,2.17968 h 0.02344 l -2.179688,4.3711 2.179688,4.35937 h -0.02344 q 0.574219,0.97266 0.574219,2.17969 0,0.90234 -0.644531,1.54688 -0.644531,0.63281 -1.546875,0.63281 -0.902344,0 -1.535156,-0.63281 -0.644532,-0.64454 -0.644532,-1.54688 v -1.08984 q 0,-0.90235 -0.632812,-1.54688 -0.644531,-0.63281 -1.546875,-0.63281 -0.902344,0 -1.546875,0.63281 -0.632813,0.64453 -0.632813,1.54688 v 1.08984 q 0,0.90234 -0.644531,1.54688 -0.632812,0.63281 -1.535156,0.63281 z M 64.242187,261.1506 q 0.902344,0 1.546875,-0.63281 0.632813,-0.64453 0.632813,-1.54687 0,-0.90235 -0.632813,-1.54688 -0.644531,-0.63281 -1.546875,-0.63281 -0.902343,0 -1.546875,0.63281 -0.632812,0.64453 -0.632812,1.54688 0,0.90234 0.632812,1.54687 0.644532,0.63281 1.546875,0.63281 z m -4.359375,13.08985 q -0.902343,0 -1.546875,-0.63281 -0.632812,-0.64454 -0.632812,-1.54688 v -17.44922 q 0,-0.90234 0.632812,-1.54687 0.644532,-0.63282 1.546875,-0.63282 h 6.539063 q 1.816406,0 3.082031,1.27735 1.289063,1.27734 1.289063,3.08203 v 4.35937 q 0,1.81641 -1.289063,3.09375 -1.277344,1.27735 -3.082031,1.27735 h -2.179688 q -0.902343,0 -1.546875,0.63281 -0.632812,0.64453 -0.632812,1.54688 v 4.35937 q 0,0.90234 -0.644531,1.54688 -0.632813,0.63281 -1.535157,0.63281 z m 21.152344,-4.35938 q 0.902344,0 1.546875,-0.63281 0.632813,-0.64453 0.632813,-1.54687 v -4.35938 q 0,-0.90234 -0.632813,-1.54687 -0.644531,-0.64454 -1.546875,-0.64454 -0.902344,0 -1.546875,0.64454 -0.632812,0.64453 -0.632812,1.54687 v 4.35938 q 0,0.90234 0.632812,1.54687 0.644531,0.63281 1.546875,0.63281 z m -2.179687,4.35938 q -1.804688,0 -3.082032,-1.27735 -1.277343,-1.26562 -1.277343,-3.08203 v -8.73047 q 0,-1.80468 1.277343,-3.08203 1.277344,-1.27734 3.082032,-1.27734 h 4.359375 q 1.804687,0 3.082031,1.27734 1.289062,1.27735 1.289062,3.08203 v 8.73047 q 0,1.81641 -1.289062,3.08203 -1.277344,1.27735 -3.082031,1.27735 z m 14.613281,0 q -0.902344,0 -1.546875,-0.63281 -0.632813,-0.64454 -0.632813,-1.54688 v -13.07812 q 0,-0.90235 0.632813,-1.54688 0.644531,-0.64453 1.546875,-0.64453 h 6.53906 q 1.80469,0 3.08203,1.27734 1.28907,1.27735 1.28907,3.08203 v 10.91016 q 0,0.90234 -0.64453,1.54688 -0.64454,0.63281 -1.54688,0.63281 -0.90234,0 -1.53516,-0.63281 -0.64453,-0.64454 -0.64453,-1.54688 v -8.71875 q 0,-0.90234 -0.63281,-1.54687 -0.644531,-0.64454 -1.546875,-0.64454 -0.902344,0 -1.546875,0.64454 -0.632813,0.64453 -0.632813,1.54687 v 8.71875 q 0,0.90234 -0.644531,1.54688 -0.632812,0.63281 -1.535156,0.63281 z m 25.51172,4.35937 q -0.90234,0 -1.53516,-0.64453 -0.64453,-0.63281 -0.64453,-1.53515 0,-0.90235 -0.63281,-1.54688 -0.64453,-0.63281 -1.54688,-0.63281 h -2.17968 q -1.80469,0 -3.08203,-1.27735 -1.27735,-1.26562 -1.27735,-3.08203 v -10.91015 q 0,-0.90235 0.63281,-1.54688 0.64454,-0.63281 1.54688,-0.63281 0.90234,0 1.53516,0.63281 0.64453,0.64453 0.64453,1.54688 v 8.73047 q 0,0.90234 0.63281,1.54687 0.64453,0.63281 1.54687,0.63281 0.90235,0 1.54688,-0.63281 0.63281,-0.64453 0.63281,-1.54687 v -8.73047 q 0,-0.90235 0.64453,-1.54688 0.63282,-0.63281 1.53516,-0.63281 0.90234,0 1.54687,0.63281 0.64454,0.64453 0.64454,1.54688 v 13.08984 q 0,0 0,0 v 4.35938 q 0,0.90234 -0.64454,1.53515 -0.64453,0.64453 -1.54687,0.64453 z"
         id="path48" /><path
         style="font-family:Lectus;-inkscape-font-specification:Lectus;fill:#ffffff"
         d="m 13.863281,302.4852 q 0.902344,0 1.546875,-0.63281 0.632813,-0.64453 0.632813,-1.54688 0,-0.90234 -0.632813,-1.54687 -0.644531,-0.63282 -1.546875,-0.63282 -0.902343,0 -1.546875,0.63282 -0.632812,0.64453 -0.632812,1.54687 0,0.90235 0.632812,1.54688 0.644532,0.63281 1.546875,0.63281 z m -2.179687,4.35937 q -1.8046877,0 -3.0820315,-1.27734 -1.2773438,-1.26562 -1.2773438,-3.08203 v -13.08984 q 0,-1.80469 1.2773438,-3.08204 1.265625,-1.27734 3.0820315,-1.27734 h 6.539062 q 0.902344,0 1.546875,0.63281 0.644531,0.64453 0.644531,1.54688 0,0.90234 -0.644531,1.54687 -0.644531,0.63282 -1.546875,0.63282 h -4.359375 q -0.902343,0 -1.546875,0.63281 -0.632812,0.64453 -0.632812,1.54687 0,0.90235 0.632812,1.54688 0.644532,0.63281 1.546875,0.63281 h 2.179688 q 1.816406,0 3.082031,1.28906 1.289062,1.27735 1.289062,3.08203 v 4.35938 q 0,1.81641 -1.289062,3.08203 -1.277344,1.27734 -3.082031,1.27734 z m 23.332031,0 q -0.902344,0 -1.535156,-0.63281 -0.644532,-0.64453 -0.644532,-1.54687 v -4.35938 q 0,-0.90234 -0.632812,-1.54687 -0.644531,-0.63282 -1.546875,-0.63282 h -4.359375 q -0.902344,0 -1.546875,-0.64453 -0.632813,-0.63281 -0.632813,-1.53515 v -8.73047 q 0,-0.90235 0.632813,-1.54688 0.644531,-0.63281 1.546875,-0.63281 0.902344,0 1.535156,0.63281 0.644531,0.64453 0.644531,1.54688 v 4.35937 q 0,0.90235 0.632813,1.54688 0.644531,0.63281 1.546875,0.63281 0.902344,0 1.546875,-0.63281 0.632812,-0.64453 0.632812,-1.54688 v -4.35937 q 0,-0.90235 0.644532,-1.54688 0.632812,-0.63281 1.535156,-0.63281 0.902344,0 1.546875,0.63281 0.644531,0.64453 0.644531,1.54688 v 17.44922 q 0,0.90234 -0.644531,1.54687 -0.644531,0.63281 -1.546875,0.63281 z m 29.226562,-13.08984 q 0.902344,0 1.546875,-0.63281 0.632813,-0.64453 0.632813,-1.54688 0,-0.90234 -0.632813,-1.54687 -0.644531,-0.63281 -1.546875,-0.63281 -0.902343,0 -1.546875,0.63281 -0.632812,0.64453 -0.632812,1.54687 0,0.90235 0.632812,1.54688 0.644532,0.63281 1.546875,0.63281 z m -4.359375,13.08984 q -0.902343,0 -1.546875,-0.63281 -0.632812,-0.64453 -0.632812,-1.54687 v -17.44922 q 0,-0.90235 0.632812,-1.54688 0.644532,-0.63281 1.546875,-0.63281 h 6.539063 q 1.816406,0 3.082031,1.27734 1.289063,1.27735 1.289063,3.08204 v 4.35937 q 0,1.81641 -1.289063,3.09375 -1.277344,1.27734 -3.082031,1.27734 h -2.179688 q -0.902343,0 -1.546875,0.63282 -0.632812,0.64453 -0.632812,1.54687 v 4.35938 q 0,0.90234 -0.644531,1.54687 -0.632813,0.63281 -1.535157,0.63281 z m 18.972657,0 q -1.804688,0 -3.082032,-1.27734 -1.277343,-1.26562 -1.277343,-3.08203 v -8.73047 q 0,-1.80469 1.277343,-3.08203 1.277344,-1.27734 3.082032,-1.27734 h 6.539062 q 0.902344,0 1.546875,0.63281 0.644531,0.64453 0.644531,1.54687 0,0.90235 -0.644531,1.54688 -0.644531,0.63281 -1.546875,0.63281 h -4.359375 q -0.902344,0 -1.546875,0.64453 -0.632812,0.64453 -0.632812,1.54688 v 4.35937 q 0,0.90235 0.632812,1.54688 0.644531,0.63281 1.546875,0.63281 h 4.359375 q 0.902344,0 1.546875,0.64453 0.644531,0.63281 0.644531,1.53516 0,0.90234 -0.644531,1.54687 -0.644531,0.63281 -1.546875,0.63281 z m 14.613281,0 q -0.902344,0 -1.546875,-0.63281 -0.632813,-0.64453 -0.632813,-1.54687 0,-0.90235 0.632813,-1.53516 0.644531,-0.64453 1.546875,-0.64453 h 5.449219 q 0.457031,0 0.773437,-0.31641 0.316404,-0.3164 0.316404,-0.77343 0,-0.44532 -0.316404,-0.77344 -0.316406,-0.31641 -0.773437,-0.31641 h -3.269532 q -1.816406,0 -3.082031,-1.27734 -1.277344,-1.27735 -1.277344,-3.08203 v -2.19141 q 0,-1.80469 1.277344,-3.08203 1.277344,-1.27734 3.082031,-1.27734 h 6.539063 q 0.90234,0 1.54688,0.63281 0.64453,0.64453 0.64453,1.54687 0,0.90235 -0.64453,1.54688 -0.64454,0.63281 -1.54688,0.63281 h -5.449219 q -0.457031,0 -0.773437,0.32813 -0.316407,0.3164 -0.316407,0.76171 0,0.45704 0.316407,0.77344 0.316406,0.32813 0.773437,0.32813 h 3.269529 q 1.81641,0 3.08203,1.27734 1.28907,1.27734 1.28907,3.08203 v 2.17969 q 0,1.81641 -1.28907,3.08203 -1.27734,1.27734 -3.08203,1.27734 z"
         id="path49" /><path
         style="font-family:Lectus;-inkscape-font-specification:Lectus;fill:#ffffff"
         d="m 9.5039063,339.4487 q -0.9023438,0 -1.5468751,-0.63281 -0.6328125,-0.64453 -0.6328125,-1.54688 0,-0.90234 0.6328125,-1.53515 0.6445313,-0.64454 1.5468751,-0.64454 h 4.3593747 q 0.902344,0 1.546875,-0.63281 0.632813,-0.64453 0.632813,-1.54687 0,-0.90235 -0.632813,-1.54688 -0.644531,-0.63281 -1.546875,-0.63281 H 9.5039063 q -0.9023438,0 -1.5468751,-0.64453 -0.6328125,-0.63281 -0.6328125,-1.53516 v -8.73047 q 0,-0.90234 0.6328125,-1.54687 0.6445313,-0.63281 1.5468751,-0.63281 h 8.7187497 q 0.902344,0 1.546875,0.63281 0.644531,0.64453 0.644531,1.54687 0,0.90235 -0.644531,1.54688 -0.644531,0.63281 -1.546875,0.63281 h -4.359375 q -0.902343,0 -1.546875,0.63281 -0.632812,0.64453 -0.632812,1.54688 0,0.90234 0.632812,1.54687 0.644532,0.63282 1.546875,0.63282 h 2.179688 q 1.816406,0 3.082031,1.28906 1.289062,1.27734 1.289062,3.08203 v 4.35937 q 0,1.81641 -1.289062,3.08204 -1.277344,1.27734 -3.082031,1.27734 z m 35.7656247,0 q -1.804687,0 -3.082031,-1.27734 -1.277344,-1.26563 -1.277344,-3.08204 v -13.08984 q 0,-1.80469 1.277344,-3.08203 1.265625,-1.27734 3.082031,-1.27734 h 6.539063 q 0.902343,0 1.546875,0.63281 Q 54,318.91745 54,319.81979 q 0,0.90235 -0.644531,1.54688 -0.644532,0.63281 -1.546875,0.63281 h -4.359375 q -0.902344,0 -1.546875,0.63281 -0.632813,0.64453 -0.632813,1.54688 v 8.73047 q 0,0.90234 0.632813,1.54687 0.644531,0.63281 1.546875,0.63281 h 4.359375 q 0.902343,0 1.546875,0.64454 Q 54,336.36667 54,337.26901 q 0,0.90235 -0.644531,1.54688 -0.644532,0.63281 -1.546875,0.63281 z m 18.972656,-4.35938 q 0.902344,0 1.546875,-0.63281 0.632813,-0.64453 0.632813,-1.54687 v -4.35938 q 0,-0.90234 -0.632813,-1.54687 -0.644531,-0.64453 -1.546875,-0.64453 -0.902343,0 -1.546875,0.64453 -0.632812,0.64453 -0.632812,1.54687 v 4.35938 q 0,0.90234 0.632812,1.54687 0.644532,0.63281 1.546875,0.63281 z M 62.0625,339.4487 q -1.804688,0 -3.082031,-1.27734 -1.277344,-1.26563 -1.277344,-3.08204 v -8.73046 q 0,-1.80469 1.277344,-3.08204 1.277343,-1.27734 3.082031,-1.27734 h 4.359375 q 1.804687,0 3.082031,1.27734 1.289063,1.27735 1.289063,3.08204 v 8.73046 q 0,1.81641 -1.289063,3.08204 -1.277344,1.27734 -3.082031,1.27734 z m 14.613281,0 q -0.902344,0 -1.546875,-0.63281 -0.632812,-0.64453 -0.632812,-1.54688 0,-0.90234 0.632812,-1.53515 0.644531,-0.64454 1.546875,-0.64454 0.902344,0 1.535156,-0.63281 0.644532,-0.64453 0.644532,-1.54687 v -8.73047 q 0,-0.90235 -0.644532,-1.54688 -0.632812,-0.63281 -1.535156,-0.63281 -0.902344,0 -1.546875,-0.63281 -0.632812,-0.64453 -0.632812,-1.54688 0,-0.90234 0.632812,-1.54687 0.644531,-0.63281 1.546875,-0.63281 h 4.359375 q 0.902344,0 1.546875,0.63281 0.632813,0.64453 0.632813,1.54687 v 13.08985 q 0,0.90234 0.644531,1.54687 0.632812,0.63281 1.535156,0.63281 0.902344,0 1.546875,0.64454 0.644531,0.63281 0.644531,1.53515 0,0.90235 -0.644531,1.54688 -0.644531,0.63281 -1.546875,0.63281 z m 21.152344,-4.35938 q 0.902344,0 1.546875,-0.63281 0.63281,-0.64453 0.63281,-1.54687 v -4.35938 q 0,-0.90234 -0.63281,-1.54687 -0.644531,-0.64453 -1.546875,-0.64453 -0.902344,0 -1.546875,0.64453 -0.632813,0.64453 -0.632813,1.54687 v 4.35938 q 0,0.90234 0.632813,1.54687 0.644531,0.63281 1.546875,0.63281 z m -2.179688,4.35938 q -1.804687,0 -3.082031,-1.27734 -1.277344,-1.26563 -1.277344,-3.08204 v -8.73046 q 0,-1.80469 1.277344,-3.08204 1.277344,-1.27734 3.082031,-1.27734 h 4.359373 q 1.80469,0 3.08203,1.27734 1.28907,1.27735 1.28907,3.08204 v 8.73046 q 0,1.81641 -1.28907,3.08204 -1.27734,1.27734 -3.08203,1.27734 z m 14.613283,0 q -0.90234,0 -1.54688,-0.63281 -0.63281,-0.64453 -0.63281,-1.54688 v -10.91015 q 0,-1.80469 1.27735,-3.08204 1.27734,-1.27734 3.08203,-1.27734 h 6.53906 q 0.90234,0 1.54687,0.63281 0.64454,0.64453 0.64454,1.54688 0,0.90234 -0.64454,1.54687 -0.64453,0.63282 -1.54687,0.63282 h -4.35938 q -0.90234,0 -1.54687,0.64453 -0.63281,0.64453 -0.63281,1.54687 v 8.71875 q 0,0.90235 -0.64453,1.54688 -0.63282,0.63281 -1.53516,0.63281 z"
         id="path50" /><path
         style="font-family:Lectus;-inkscape-font-specification:Lectus;fill:#ffffff"
         d="m 9.5039063,372.05283 q -0.9023438,0 -1.5468751,-0.63282 -0.6328125,-0.64453 -0.6328125,-1.54687 0,-0.90235 0.6328125,-1.53516 0.6445313,-0.64453 1.5468751,-0.64453 0.9023437,0 1.5351567,-0.63281 0.644531,-0.64453 0.644531,-1.54688 v -4.35937 q 0,-0.90235 -0.644531,-1.54688 -0.632813,-0.64453 -1.5351567,-0.64453 -0.9023438,0 -1.5468751,-0.63281 -0.6328125,-0.64453 -0.6328125,-1.54688 0,-0.90234 0.6328125,-1.54687 0.6445313,-0.63281 1.5468751,-0.63281 0.9023437,0 1.5351567,-0.63282 0.644531,-0.64453 0.644531,-1.54687 0,-0.90234 0.632812,-1.54688 0.644532,-0.63281 1.546875,-0.63281 0.902344,0 1.546875,0.63281 0.632813,0.64454 0.632813,1.54688 v 13.08984 q 0,0.90235 0.644531,1.54688 0.632812,0.63281 1.535156,0.63281 0.902344,0 1.546875,0.64453 0.644531,0.63281 0.644531,1.53516 0,0.90234 -0.644531,1.54687 -0.644531,0.63282 -1.546875,0.63282 z M 30.65625,363.33408 q -0.445313,0 -0.773438,-0.31641 -0.316406,-0.32813 -0.316406,-0.77344 v -2.1914 q 0,-0.44532 0.316406,-0.76172 0.328125,-0.32813 0.773438,-0.32813 0.457031,0 0.773437,0.32813 0.316407,0.3164 0.316407,0.76172 v 2.1914 q 0,0.44531 -0.316407,0.77344 -0.316406,0.31641 -0.773437,0.31641 z m 0,4.35937 q 0.902344,0 1.546875,-0.63281 0.632812,-0.64453 0.632812,-1.54688 v -8.73047 q 0,-0.90234 -0.632812,-1.54687 -0.644531,-0.63281 -1.546875,-0.63281 -0.902344,0 -1.546875,0.63281 -0.632813,0.64453 -0.632813,1.54687 v 8.73047 q 0,0.90235 0.632813,1.54688 0.644531,0.63281 1.546875,0.63281 z m -2.179688,4.35938 q -1.816406,0 -3.082031,-1.27735 -1.277344,-1.27734 -1.277344,-3.08203 v -13.08984 q 0,-1.80469 1.277344,-3.08203 1.277344,-1.27735 3.082031,-1.27735 h 4.359375 q 1.816407,0 3.082032,1.27735 1.289062,1.27734 1.289062,3.08203 v 13.08984 q 0,1.81641 -1.289062,3.08203 -1.277344,1.27735 -3.082032,1.27735 z m 14.613282,0 q -0.902344,0 -1.546875,-0.63282 -0.632813,-0.64453 -0.632813,-1.54687 0,-0.90235 0.632813,-1.53516 0.644531,-0.64453 1.546875,-0.64453 h 4.359375 q 0.902343,0 1.546875,-0.63281 0.632812,-0.64453 0.632812,-1.54688 0,-0.90234 -0.632812,-1.54687 -0.644532,-0.63281 -1.546875,-0.63281 h -4.359375 q -0.902344,0 -1.546875,-0.64454 -0.632813,-0.63281 -0.632813,-1.53515 0,-0.90235 0.632813,-1.54688 0.644531,-0.64453 1.546875,-0.64453 h 4.359375 q 0.902343,0 1.546875,-0.63281 0.632812,-0.64453 0.632812,-1.54688 0,-0.90234 -0.632812,-1.54687 -0.644532,-0.63281 -1.546875,-0.63281 h -4.359375 q -0.902344,0 -1.546875,-0.63282 -0.632813,-0.64453 -0.632813,-1.54687 0,-0.90234 0.632813,-1.54688 0.644531,-0.63281 1.546875,-0.63281 h 6.539062 q 1.816406,0 3.082031,1.27735 Q 54,352.79892 54,354.60361 v 4.35937 q 0,0.90235 -0.644531,1.54688 -0.644532,0.64453 -1.546875,0.64453 0.902343,0 1.546875,0.63281 Q 54,362.43173 54,363.33408 v 4.35937 q 0,1.81641 -1.289063,3.08203 -1.277343,1.27735 -3.082031,1.27735 z m 16.792968,0 q -0.902343,0 -1.546875,-0.63282 -0.632812,-0.64453 -0.632812,-1.54687 0,-0.90235 0.632812,-1.53516 0.644532,-0.64453 1.546875,-0.64453 0.902344,0 1.535157,-0.63281 0.644531,-0.64453 0.644531,-1.54688 v -4.35937 q 0,-0.90235 -0.644531,-1.54688 -0.632813,-0.64453 -1.535157,-0.64453 -0.902343,0 -1.546875,-0.63281 -0.632812,-0.64453 -0.632812,-1.54688 0,-0.90234 0.632812,-1.54687 0.644532,-0.63281 1.546875,-0.63281 0.902344,0 1.535157,-0.63282 0.644531,-0.64453 0.644531,-1.54687 0,-0.90234 0.632812,-1.54688 0.644532,-0.63281 1.546875,-0.63281 0.902344,0 1.546875,0.63281 0.632813,0.64454 0.632813,1.54688 v 13.08984 q 0,0.90235 0.644531,1.54688 0.632813,0.63281 1.535156,0.63281 0.902344,0 1.546875,0.64453 0.644532,0.63281 0.644532,1.53516 0,0.90234 -0.644532,1.54687 -0.644531,0.63282 -1.546875,0.63282 z m 16.792969,0 q -0.902344,0 -1.546875,-0.63282 -0.632812,-0.64453 -0.632812,-1.54687 v -6.53906 q 0,-1.80469 1.277343,-3.08204 1.265625,-1.28906 3.082032,-1.28906 h 2.179687 q 0.902344,0 1.546875,-0.63281 0.632813,-0.64453 0.632813,-1.54688 0,-0.90234 -0.632813,-1.54687 -0.644531,-0.63281 -1.546875,-0.63281 h -4.359375 q -0.902344,0 -1.546875,-0.63282 -0.632812,-0.64453 -0.632812,-1.54687 0,-0.90234 0.632812,-1.54688 0.644531,-0.63281 1.546875,-0.63281 h 6.539063 q 1.804687,0 3.082031,1.27735 1.289062,1.27734 1.289062,3.08203 v 4.35937 q 0,1.81641 -1.289062,3.09375 -1.265625,1.27735 -3.082031,1.27735 h -2.179688 q -0.902344,0 -1.546875,0.63281 -0.632812,0.64453 -0.632812,1.54687 0,0.90235 0.632812,1.54688 0.644531,0.63281 1.546875,0.63281 h 4.359375 q 0.902344,0 1.546875,0.64453 0.644531,0.63281 0.644531,1.53516 0,0.90234 -0.644531,1.54687 -0.644531,0.63282 -1.546875,0.63282 z m 16.792969,0 q -0.902344,0 -1.546875,-0.63282 -0.632813,-0.64453 -0.632813,-1.54687 0,-0.90235 0.632813,-1.53516 0.644531,-0.64453 1.546875,-0.64453 h 4.359375 q 0.902344,0 1.546875,-0.63281 0.63281,-0.64453 0.63281,-1.54688 0,-0.90234 -0.63281,-1.54687 -0.644531,-0.63281 -1.546875,-0.63281 H 93.46875 q -0.902344,0 -1.546875,-0.64454 -0.632813,-0.63281 -0.632813,-1.53515 v -8.73047 q 0,-0.90234 0.632813,-1.54688 0.644531,-0.63281 1.546875,-0.63281 h 8.71875 q 0.90234,0 1.54688,0.63281 0.64453,0.64454 0.64453,1.54688 0,0.90234 -0.64453,1.54687 -0.64454,0.63282 -1.54688,0.63282 h -4.359375 q -0.902344,0 -1.546875,0.63281 -0.632813,0.64453 -0.632813,1.54687 0,0.90235 0.632813,1.54688 0.644531,0.63281 1.546875,0.63281 h 2.179685 q 1.81641,0 3.08203,1.28906 1.28907,1.27735 1.28907,3.08204 v 4.35937 q 0,1.81641 -1.28907,3.08203 -1.27734,1.27735 -3.08203,1.27735 z"
         id="path51" /><path
         style="font-family:Lectus;-inkscape-font-specification:Lectus;fill:#ffffff"
         d="m 13.863281,400.29758 q 0.902344,0 1.546875,-0.63282 0.632813,-0.64453 0.632813,-1.54687 0,-0.90234 -0.632813,-1.54688 -0.644531,-0.63281 -1.546875,-0.63281 -0.902343,0 -1.546875,0.63281 -0.632812,0.64454 -0.632812,1.54688 0,0.90234 0.632812,1.54687 0.644532,0.63282 1.546875,0.63282 z m 0,-8.73047 q 0.902344,0 1.546875,-0.63281 0.632813,-0.64454 0.632813,-1.54688 0,-0.90234 -0.632813,-1.54687 -0.644531,-0.63282 -1.546875,-0.63282 -0.902343,0 -1.546875,0.63282 -0.632812,0.64453 -0.632812,1.54687 0,0.90234 0.632812,1.54688 0.644532,0.63281 1.546875,0.63281 z m -4.3593747,13.08984 q -0.9023438,0 -1.5468751,-0.63281 -0.6328125,-0.64453 -0.6328125,-1.54688 v -17.44921 q 0,-0.90235 0.6328125,-1.54688 0.6445313,-0.63281 1.5468751,-0.63281 h 6.5390627 q 1.816406,0 3.082031,1.27734 1.289062,1.27735 1.289062,3.08203 v 4.35938 q 0,0.90234 -0.644531,1.54687 -0.644531,0.64453 -1.546875,0.64453 0.902344,0 1.546875,0.63282 0.644531,0.64453 0.644531,1.54687 v 4.35938 q 0,1.8164 -1.289062,3.08203 -1.277344,1.27734 -3.082031,1.27734 z m 16.7929687,0 q -0.902344,0 -1.546875,-0.63281 -0.632813,-0.64453 -0.632813,-1.54688 0,-0.90234 0.632813,-1.53515 0.644531,-0.64453 1.546875,-0.64453 0.902344,0 1.535156,-0.63282 0.644531,-0.64453 0.644531,-1.54687 v -4.35938 q 0,-0.90234 -0.644531,-1.54687 -0.632812,-0.64453 -1.535156,-0.64453 -0.902344,0 -1.546875,-0.63281 -0.632813,-0.64454 -0.632813,-1.54688 0,-0.90234 0.632813,-1.54687 0.644531,-0.63282 1.546875,-0.63282 h 4.359375 q 0.902344,0 1.546875,0.63282 0.632812,0.64453 0.632812,1.54687 v 8.73047 q 0,0.90234 0.644532,1.54687 0.632812,0.63282 1.535156,0.63282 0.902344,0 1.546875,0.64453 0.644531,0.63281 0.644531,1.53515 0,0.90235 -0.644531,1.54688 -0.644531,0.63281 -1.546875,0.63281 z m 2.71875,-18.53906 q -0.445313,0 -0.761719,-0.31641 -0.328125,-0.32812 -0.328125,-0.77343 v -1.08985 q 0,-0.45703 0.328125,-0.77344 0.316406,-0.3164 0.761719,-0.3164 h 2.191406 q 0.445313,0 0.761719,0.3164 0.328125,0.31641 0.328125,0.77344 v 1.08985 q 0,0.44531 -0.328125,0.77343 -0.316406,0.31641 -0.761719,0.31641 z m 14.074219,18.53906 q -0.902344,0 -1.546875,-0.63281 -0.632813,-0.64453 -0.632813,-1.54688 v -10.91015 q 0,-1.80469 1.277344,-3.08203 1.277344,-1.27735 3.082031,-1.27735 h 6.539063 q 0.902343,0 1.546875,0.63282 Q 54,388.48508 54,389.38742 q 0,0.90234 -0.644531,1.54688 -0.644532,0.63281 -1.546875,0.63281 h -4.359375 q -0.902344,0 -1.546875,0.64453 -0.632813,0.64453 -0.632813,1.54687 v 8.71875 q 0,0.90235 -0.644531,1.54688 -0.632813,0.63281 -1.535156,0.63281 z m 23.332031,0 q -1.804688,0 -3.082031,-1.27734 -1.277344,-1.26563 -1.277344,-3.08203 v -6.53907 q 0,-0.90234 -0.644531,-1.54687 -0.632813,-0.64453 -1.535157,-0.64453 -0.902343,0 -1.546875,-0.63281 -0.632812,-0.64454 -0.632812,-1.54688 0,-0.90234 0.632812,-1.54687 0.644532,-0.63282 1.546875,-0.63282 0.902344,0 1.535157,-0.63281 0.644531,-0.64453 0.644531,-1.54687 0,-0.90235 0.632812,-1.54688 0.644532,-0.63281 1.546875,-0.63281 0.902344,0 1.546875,0.63281 0.632813,0.64453 0.632813,1.54688 0,0.90234 0.644531,1.54687 0.632813,0.63281 1.535156,0.63281 0.902344,0 1.546875,0.63282 0.644532,0.64453 0.644532,1.54687 0,0.90234 -0.644532,1.54688 -0.644531,0.63281 -1.546875,0.63281 -0.902343,0 -1.535156,0.64453 -0.644531,0.64453 -0.644531,1.54687 v 4.35938 q 0,0.90234 0.644531,1.54687 0.632813,0.63282 1.535156,0.63282 0.902344,0 1.546875,0.64453 0.644532,0.63281 0.644532,1.53515 0,0.90235 -0.644532,1.54688 -0.644531,0.63281 -1.546875,0.63281 z m 10.253906,0 q -0.902344,0 -1.546875,-0.63281 -0.632812,-0.64453 -0.632812,-1.54688 v -13.07812 q 0,-0.0117 0,-0.0117 v -4.35937 q 0,-0.90235 0.632812,-1.54688 0.644531,-0.63281 1.546875,-0.63281 0.902344,0 1.535156,0.63281 0.644532,0.64453 0.644532,1.54688 0,0.90234 0.632812,1.54687 0.644531,0.63281 1.546875,0.63281 h 2.179688 q 1.804687,0 3.082031,1.27735 1.289062,1.27734 1.289062,3.08203 v 10.91015 q 0,0.90235 -0.644531,1.54688 -0.644531,0.63281 -1.546875,0.63281 -0.902344,0 -1.535156,-0.63281 -0.644531,-0.64453 -0.644531,-1.54688 v -8.71875 q 0,-0.90234 -0.632813,-1.54687 -0.644531,-0.64453 -1.546875,-0.64453 -0.902344,0 -1.546875,0.64453 -0.632812,0.64453 -0.632812,1.54687 v 8.71875 q 0,0.90235 -0.644532,1.54688 -0.632812,0.63281 -1.535156,0.63281 z m 21.152344,-4.35937 q 0.902344,0 1.546875,-0.63282 0.63281,-0.64453 0.63281,-1.54687 v -4.35938 q 0,-0.90234 -0.63281,-1.54687 -0.644531,-0.64453 -1.546875,-0.64453 -0.902344,0 -1.546875,0.64453 -0.632813,0.64453 -0.632813,1.54687 v 4.35938 q 0,0.90234 0.632813,1.54687 0.644531,0.63282 1.546875,0.63282 z m -2.179688,4.35937 q -1.804687,0 -3.082031,-1.27734 -1.277344,-1.26563 -1.277344,-3.08203 v -8.73047 q 0,-1.80469 1.277344,-3.08203 1.277344,-1.27735 3.082031,-1.27735 h 2.179688 q 0.902344,0 1.546875,-0.63281 0.63281,-0.64453 0.63281,-1.54687 0,-0.90235 0.64453,-1.54688 0.63282,-0.63281 1.53516,-0.63281 0.90234,0 1.54688,0.63281 0.64453,0.64453 0.64453,1.54688 v 4.35937 q 0,0 0,0.0117 v 13.07812 q 0,0.90235 -0.64453,1.54688 -0.64454,0.63281 -1.54688,0.63281 z m 20.062503,-4.35937 q 0.45703,0 0.77344,-0.31641 0.3164,-0.31641 0.3164,-0.77344 0,-0.44531 -0.3164,-0.77343 -0.31641,-0.31641 -0.77344,-0.31641 h -2.17969 q -0.45703,0 -0.77344,0.31641 -0.3164,0.32812 -0.3164,0.77343 0,0.45703 0.3164,0.77344 0.31641,0.31641 0.77344,0.31641 z m -3.26953,4.35937 q -1.80469,0 -3.08203,-1.27734 -1.27735,-1.26563 -1.27735,-3.08203 v -2.17969 q 0,-1.80469 1.27735,-3.08203 1.26562,-1.27735 3.08203,-1.27735 h 3.26953 q 0.45703,0 0.77344,-0.32812 0.3164,-0.31641 0.3164,-0.77344 0,-0.44531 -0.3164,-0.76172 -0.31641,-0.32812 -0.77344,-0.32812 h -5.44922 q -0.90234,0 -1.54688,-0.63281 -0.63281,-0.64454 -0.63281,-1.54688 0,-0.90234 0.63281,-1.54687 0.64454,-0.63282 1.54688,-0.63282 h 6.53906 q 1.80469,0 3.08203,1.27735 1.28907,1.27734 1.28907,3.08203 v 10.91015 q 0,0.90235 -0.64454,1.54688 -0.64453,0.63281 -1.54687,0.63281 z m 23.33203,4.35938 q -0.90235,0 -1.53516,-0.64453 -0.64453,-0.63282 -0.64453,-1.53516 0,-0.90234 -0.63281,-1.54688 -0.64453,-0.63281 -1.54688,-0.63281 h -2.17969 q -1.80468,0 -3.08203,-1.27734 -1.27734,-1.26563 -1.27734,-3.08203 v -10.91016 q 0,-0.90234 0.63281,-1.54687 0.64453,-0.63282 1.54688,-0.63282 0.90234,0 1.53515,0.63282 0.64453,0.64453 0.64453,1.54687 v 8.73047 q 0,0.90234 0.63282,1.54687 0.64453,0.63282 1.54687,0.63282 0.90235,0 1.54688,-0.63282 0.63281,-0.64453 0.63281,-1.54687 v -8.73047 q 0,-0.90234 0.64453,-1.54687 0.63281,-0.63282 1.53516,-0.63282 0.90234,0 1.54687,0.63282 0.64453,0.64453 0.64453,1.54687 v 13.08984 q 0,0 0,0 v 4.35938 q 0,0.90234 -0.64453,1.53516 -0.64453,0.64453 -1.54687,0.64453 z m 24.86718,-4.35938 q -0.90234,0 -1.54687,-0.63281 -0.63281,-0.64453 -0.63281,-1.54688 0,-0.90234 0.63281,-1.53515 0.64453,-0.64453 1.54687,-0.64453 H 165 q 0.90234,0 1.54687,-0.63282 0.63282,-0.64453 0.63282,-1.54687 0,-0.90234 -0.63282,-1.54688 Q 165.90234,395.9382 165,395.9382 h -2.17969 q -1.8164,0 -3.08203,-1.27734 -1.27734,-1.27735 -1.27734,-3.09375 v -4.35938 q 0,-1.80468 1.27734,-3.08203 1.27734,-1.27734 3.08203,-1.27734 h 6.53906 q 0.90235,0 1.54688,0.63281 0.64453,0.64453 0.64453,1.54688 0,0.90234 -0.64453,1.54687 -0.64453,0.63281 -1.54688,0.63281 H 165 q -0.90234,0 -1.54688,0.63282 -0.63281,0.64453 -0.63281,1.54687 0,0.90234 0.63281,1.54688 0.64454,0.63281 1.54688,0.63281 h 2.17969 q 1.8164,0 3.08203,1.28906 1.28906,1.27734 1.28906,3.08203 v 4.35938 q 0,1.8164 -1.28906,3.08203 -1.27735,1.27734 -3.08203,1.27734 z m 18.97266,0 q -1.81641,0 -3.08203,-1.27734 -1.27734,-1.27735 -1.27734,-3.08203 v -10.91016 q 0,-0.90234 0.63281,-1.54687 0.64453,-0.63282 1.54687,-0.63282 0.90235,0 1.53516,0.63282 0.64453,0.64453 0.64453,1.54687 v 8.73047 q 0,0.90234 0.63281,1.54687 0.64453,0.63282 1.54688,0.63282 0.90234,0 1.54687,-0.63282 0.63282,-0.64453 0.63282,-1.54687 v -8.73047 q 0,-0.90234 0.64453,-1.54687 0.63281,-0.63282 1.53515,-0.63282 0.90235,0 1.54688,0.63282 0.64453,0.64453 0.64453,1.54687 v 10.91016 q 0,1.8164 -1.28906,3.08203 -1.27735,1.27734 -3.08203,1.27734 z m 14.61328,0 q -0.90234,0 -1.54687,-0.63281 -0.63282,-0.64453 -0.63282,-1.54688 v -10.91015 q 0,-1.80469 1.27735,-3.08203 1.27734,-1.27735 3.08203,-1.27735 h 6.53906 q 0.90235,0 1.54688,0.63282 0.64453,0.64453 0.64453,1.54687 0,0.90234 -0.64453,1.54688 -0.64453,0.63281 -1.54688,0.63281 h -4.35937 q -0.90235,0 -1.54688,0.64453 -0.63281,0.64453 -0.63281,1.54687 v 8.71875 q 0,0.90235 -0.64453,1.54688 -0.63281,0.63281 -1.53516,0.63281 z m 21.15235,-4.35937 q 0.90234,0 1.54687,-0.63282 0.63281,-0.64453 0.63281,-1.54687 v -4.35938 q 0,-0.90234 -0.63281,-1.54687 -0.64453,-0.64453 -1.54687,-0.64453 -0.90235,0 -1.54688,0.64453 -0.63281,0.64453 -0.63281,1.54687 v 4.35938 q 0,0.90234 0.63281,1.54687 0.64453,0.63282 1.54688,0.63282 z m -4.35938,8.71875 q -0.90234,0 -1.54687,-0.64453 -0.63282,-0.63282 -0.63282,-1.53516 v -4.35938 q 0,0 0,0 v -13.07812 q 0,-0.90234 0.63282,-1.54688 0.64453,-0.64453 1.54687,-0.64453 h 6.53906 q 1.80469,0 3.08203,1.27735 1.28907,1.27734 1.28907,3.08203 v 8.73047 q 0,1.8164 -1.28907,3.08203 -1.27734,1.27734 -3.08203,1.27734 h -2.17968 q -0.90235,0 -1.54688,0.63281 -0.63281,0.64454 -0.63281,1.54688 0,0.90234 -0.64453,1.53516 -0.63282,0.64453 -1.53516,0.64453 z m 16.79297,-4.35938 q -0.90234,0 -1.54688,-0.63281 -0.63281,-0.64453 -0.63281,-1.54688 v -10.91015 q 0,-1.80469 1.27735,-3.08203 1.27734,-1.27735 3.08203,-1.27735 h 6.53906 q 0.90234,0 1.54687,0.63282 0.64454,0.64453 0.64454,1.54687 0,0.90234 -0.64454,1.54688 -0.64453,0.63281 -1.54687,0.63281 h -4.35938 q -0.90234,0 -1.54687,0.64453 -0.63281,0.64453 -0.63281,1.54687 v 8.71875 q 0,0.90235 -0.64453,1.54688 -0.63282,0.63281 -1.53516,0.63281 z m 16.79297,0 q -0.90235,0 -1.54688,-0.63281 -0.63281,-0.64453 -0.63281,-1.54688 0,-0.90234 0.63281,-1.53515 0.64453,-0.64453 1.54688,-0.64453 0.90234,0 1.53515,-0.63282 0.64454,-0.64453 0.64454,-1.54687 v -4.35938 q 0,-0.90234 -0.64454,-1.54687 -0.63281,-0.64453 -1.53515,-0.64453 -0.90235,0 -1.54688,-0.63281 -0.63281,-0.64454 -0.63281,-1.54688 0,-0.90234 0.63281,-1.54687 0.64453,-0.63282 1.54688,-0.63282 h 4.35937 q 0.90235,0 1.54688,0.63282 0.63281,0.64453 0.63281,1.54687 v 8.73047 q 0,0.90234 0.64453,1.54687 0.63281,0.63282 1.53516,0.63282 0.90234,0 1.54687,0.64453 0.64453,0.63281 0.64453,1.53515 0,0.90235 -0.64453,1.54688 -0.64453,0.63281 -1.54687,0.63281 z m 2.71875,-18.53906 q -0.44531,0 -0.76172,-0.31641 -0.32813,-0.32812 -0.32813,-0.77343 v -1.08985 q 0,-0.45703 0.32813,-0.77344 0.31641,-0.3164 0.76172,-0.3164 h 2.1914 q 0.44532,0 0.76172,0.3164 0.32813,0.31641 0.32813,0.77344 v 1.08985 q 0,0.44531 -0.32813,0.77343 -0.3164,0.31641 -0.76172,0.31641 z m 14.07422,18.53906 q -0.90235,0 -1.54688,-0.63281 -0.63281,-0.64453 -0.63281,-1.54688 0,-0.90234 0.63281,-1.53515 0.64453,-0.64453 1.54688,-0.64453 h 5.44922 q 0.45703,0 0.77343,-0.31641 0.31641,-0.31641 0.31641,-0.77344 0,-0.44531 -0.31641,-0.77343 -0.3164,-0.31641 -0.77343,-0.31641 h -3.26954 q -1.8164,0 -3.08203,-1.27734 -1.27734,-1.27735 -1.27734,-3.08204 v -2.1914 q 0,-1.80469 1.27734,-3.08203 1.27735,-1.27735 3.08203,-1.27735 h 6.53907 q 0.90234,0 1.54687,0.63282 0.64453,0.64453 0.64453,1.54687 0,0.90234 -0.64453,1.54688 -0.64453,0.63281 -1.54687,0.63281 h -5.44922 q -0.45703,0 -0.77344,0.32812 -0.31641,0.31641 -0.31641,0.76172 0,0.45703 0.31641,0.77344 0.31641,0.32812 0.77344,0.32812 h 3.26953 q 1.81641,0 3.08203,1.27735 1.28906,1.27734 1.28906,3.08203 v 2.17969 q 0,1.8164 -1.28906,3.08203 -1.27734,1.27734 -3.08203,1.27734 z m 22.24218,-10.89844 q 0.45704,0 0.77344,-0.32812 0.31641,-0.31641 0.31641,-0.77344 0,-0.44531 -0.31641,-0.76172 -0.3164,-0.32812 -0.77344,-0.32812 h -2.17968 q -0.45703,0 -0.77344,0.32812 -0.31641,0.31641 -0.31641,0.76172 0,0.45703 0.31641,0.77344 0.31641,0.32812 0.77344,0.32812 z m -3.26953,10.89844 q -1.80468,0 -3.08203,-1.27734 -1.27734,-1.26563 -1.27734,-3.08203 v -8.73047 q 0,-1.80469 1.27734,-3.08203 1.27735,-1.27735 3.08203,-1.27735 h 4.35938 q 1.80469,0 3.08203,1.27735 1.28906,1.27734 1.28906,3.08203 v 4.37109 q 0,0.90235 -0.64453,1.54688 -0.64453,0.63281 -1.54687,0.63281 h -5.44922 q -0.45703,0 -0.77344,0.31641 -0.31641,0.32812 -0.31641,0.77343 0,0.45703 0.31641,0.77344 0.31641,0.31641 0.77344,0.31641 h 5.44922 q 0.90234,0 1.54687,0.64453 0.64453,0.63281 0.64453,1.53515 0,0.90235 -0.64453,1.54688 -0.64453,0.63281 -1.54687,0.63281 z"
         id="path52" /><path
         style="font-family:Lectus;-inkscape-font-specification:Lectus;fill:#ffffff"
         d="m 13.863281,437.26108 q -0.902343,0 -1.546875,-0.63281 -0.632812,-0.64454 -0.632812,-1.54688 v -2.17969 q 0,-0.90234 -0.644531,-1.54687 -0.632813,-0.63281 -1.5351567,-0.63281 -0.9023438,0 -1.5468751,-0.63282 -0.6328125,-0.64453 -0.6328125,-1.54687 0,-0.90235 0.6328125,-1.54688 0.6445313,-0.63281 1.5468751,-0.63281 0.9023437,0 1.5351567,-0.64453 0.644531,-0.64453 0.644531,-1.54688 v -4.35937 q 0,-1.80469 1.277344,-3.08203 1.277343,-1.27735 3.082031,-1.27735 h 2.179687 q 0.902344,0 1.546875,0.63282 0.644531,0.64453 0.644531,1.54687 0,0.90235 -0.644531,1.54688 -0.644531,0.63281 -1.546875,0.63281 -0.902344,0 -1.535156,0.63281 -0.644531,0.64453 -0.644531,1.54688 v 2.17968 q 0,0.90235 0.644531,1.54688 0.632812,0.64453 1.535156,0.64453 0.902344,0 1.546875,0.63281 0.644531,0.64453 0.644531,1.54688 0,0.90234 -0.644531,1.54687 -0.644531,0.63282 -1.546875,0.63282 -0.902344,0 -1.535156,0.63281 -0.644531,0.64453 -0.644531,1.54687 v 2.17969 q 0,0.90234 -0.632813,1.54688 -0.644531,0.63281 -1.546875,0.63281 z m 12.433594,-8.71875 q -0.902344,0 -1.546875,-0.64453 -0.632813,-0.63282 -0.632813,-1.53516 0,-0.90234 0.632813,-1.54687 0.644531,-0.64454 1.546875,-0.64454 h 8.71875 q 0.902344,0 1.546875,0.64454 0.644531,0.64453 0.644531,1.54687 0,0.90234 -0.644531,1.53516 -0.644531,0.64453 -1.546875,0.64453 z m 21.152344,4.35937 q 0.902343,0 1.546875,-0.63281 0.632812,-0.64453 0.632812,-1.54687 v -4.35938 q 0,-0.90234 -0.632812,-1.54687 -0.644532,-0.64454 -1.546875,-0.64454 -0.902344,0 -1.546875,0.64454 -0.632813,0.64453 -0.632813,1.54687 v 4.35938 q 0,0.90234 0.632813,1.54687 0.644531,0.63281 1.546875,0.63281 z m -2.179688,4.35938 q -1.804687,0 -3.082031,-1.27735 -1.277344,-1.26562 -1.277344,-3.08203 v -8.73047 q 0,-1.80468 1.277344,-3.08203 1.277344,-1.27734 3.082031,-1.27734 h 2.179688 q 0.902343,0 1.546875,-0.63281 0.632812,-0.64453 0.632812,-1.54688 0,-0.90234 0.644531,-1.54687 0.632813,-0.63282 1.535157,-0.63282 0.902343,0 1.546875,0.63282 Q 54,416.72983 54,417.63217 v 4.35938 q 0,0 0,0.0117 v 13.07812 q 0,0.90234 -0.644531,1.54688 -0.644532,0.63281 -1.546875,0.63281 z m 20.0625,-10.89844 q 0.457031,0 0.773438,-0.32812 0.316406,-0.31641 0.316406,-0.77344 0,-0.44531 -0.316406,-0.76172 -0.316407,-0.32813 -0.773438,-0.32813 h -2.179687 q -0.457032,0 -0.773438,0.32813 -0.316406,0.31641 -0.316406,0.76172 0,0.45703 0.316406,0.77344 0.316406,0.32812 0.773438,0.32812 z M 62.0625,437.26108 q -1.804688,0 -3.082031,-1.27735 -1.277344,-1.26562 -1.277344,-3.08203 v -8.73047 q 0,-1.80468 1.277344,-3.08203 1.277343,-1.27734 3.082031,-1.27734 h 4.359375 q 1.804687,0 3.082031,1.27734 1.289063,1.27735 1.289063,3.08203 v 4.3711 q 0,0.90234 -0.644532,1.54687 -0.644531,0.63282 -1.546875,0.63282 h -5.449218 q -0.457032,0 -0.773438,0.3164 -0.316406,0.32813 -0.316406,0.77344 0,0.45703 0.316406,0.77344 0.316406,0.3164 0.773438,0.3164 h 5.449218 q 0.902344,0 1.546875,0.64453 0.644532,0.63282 0.644532,1.53516 0,0.90234 -0.644532,1.54688 -0.644531,0.63281 -1.546875,0.63281 z M 82.125,426.36264 q 0.457031,0 0.773437,-0.32812 0.316407,-0.31641 0.316407,-0.77344 0,-0.44531 -0.316407,-0.76172 -0.316406,-0.32813 -0.773437,-0.32813 h -2.179688 q -0.457031,0 -0.773437,0.32813 -0.316406,0.31641 -0.316406,0.76172 0,0.45703 0.316406,0.77344 0.316406,0.32812 0.773437,0.32812 z m -3.269531,10.89844 q -1.804688,0 -3.082032,-1.27735 -1.277343,-1.26562 -1.277343,-3.08203 v -8.73047 q 0,-1.80468 1.277343,-3.08203 1.277344,-1.27734 3.082032,-1.27734 h 4.359375 q 1.804687,0 3.082031,1.27734 1.289062,1.27735 1.289062,3.08203 v 4.3711 q 0,0.90234 -0.644531,1.54687 -0.644531,0.63282 -1.546875,0.63282 h -5.449219 q -0.457031,0 -0.773437,0.3164 -0.316406,0.32813 -0.316406,0.77344 0,0.45703 0.316406,0.77344 0.316406,0.3164 0.773437,0.3164 h 5.449219 q 0.902344,0 1.546875,0.64453 0.644531,0.63282 0.644531,1.53516 0,0.90234 -0.644531,1.54688 -0.644531,0.63281 -1.546875,0.63281 z m 14.613281,0 q -0.902344,0 -1.546875,-0.63281 -0.632813,-0.64454 -0.632813,-1.54688 v -13.08984 q 0,-0.90235 0.632813,-1.54688 0.644531,-0.63281 1.546875,-0.63281 0.902344,0 1.535156,0.63281 0.222656,0.22266 0.363281,0.45703 h 0.01172 l 2.449219,4.91016 2.460934,-4.91016 h 0.0117 q 0.14063,-0.23437 0.35156,-0.45703 0.63282,-0.63281 1.53516,-0.63281 0.90234,0 1.54688,0.63281 0.64453,0.64453 0.64453,1.54688 v 13.08984 q 0,0.90234 -0.64453,1.54688 -0.64454,0.63281 -1.54688,0.63281 -0.90234,0 -1.53516,-0.63281 -0.64453,-0.64454 -0.64453,-1.54688 v -4.91016 l -0.480465,0.97266 q -0.105469,0.45703 -0.46875,0.80859 -0.503907,0.51563 -1.230469,0.51563 -0.726563,0 -1.230469,-0.51563 -0.363281,-0.35156 -0.46875,-0.80859 l -0.480469,-0.97266 v 4.91016 q 0,0.90234 -0.644531,1.54688 -0.632812,0.63281 -1.535156,0.63281 z m 20.42578,0 q -0.60937,0 -1.03125,-0.42188 -0.42187,-0.42187 -0.42187,-1.03125 v -1.45312 q 0,-0.59766 0.42187,-1.01953 0.4336,-0.4336 1.03125,-0.4336 h 1.45313 q 0.60937,0 1.03125,0.4336 0.42187,0.42187 0.42187,1.01953 v 1.45312 q 0,0.60938 -0.42187,1.03125 -0.4336,0.42188 -1.03125,0.42188 z m 17.51953,-4.35938 q 0.90235,0 1.54688,-0.63281 0.63281,-0.64453 0.63281,-1.54687 v -4.35938 q 0,-0.90234 -0.63281,-1.54687 -0.64453,-0.64454 -1.54688,-0.64454 -0.90234,0 -1.54687,0.64454 -0.63282,0.64453 -0.63282,1.54687 v 4.35938 q 0,0.90234 0.63282,1.54687 0.64453,0.63281 1.54687,0.63281 z m -2.17969,4.35938 q -1.80468,0 -3.08203,-1.27735 -1.27734,-1.26562 -1.27734,-3.08203 v -8.73047 q 0,-1.80468 1.27734,-3.08203 1.27735,-1.27734 3.08203,-1.27734 h 4.35938 q 1.80469,0 3.08203,1.27734 1.28906,1.27735 1.28906,3.08203 v 8.73047 q 0,1.81641 -1.28906,3.08203 -1.27734,1.27735 -3.08203,1.27735 z m 14.61329,0 q -0.90235,0 -1.54688,-0.63281 -0.63281,-0.64454 -0.63281,-1.54688 v -10.91016 q 0,-1.80468 1.27734,-3.08203 1.27735,-1.27734 3.08203,-1.27734 h 6.53907 q 0.90234,0 1.54687,0.63281 0.64453,0.64453 0.64453,1.54688 0,0.90234 -0.64453,1.54687 -0.64453,0.63281 -1.54687,0.63281 h -4.35938 q -0.90234,0 -1.54687,0.64454 -0.63282,0.64453 -0.63282,1.54687 v 8.71875 q 0,0.90234 -0.64453,1.54688 -0.63281,0.63281 -1.53515,0.63281 z m 21.70312,-10.89844 q 0.44531,0 0.76172,-0.32812 0.32812,-0.31641 0.32812,-0.77344 0,-0.44531 -0.32812,-0.76172 -0.31641,-0.32813 -0.76172,-0.32813 h -1.64062 q -0.45704,0 -0.77344,0.32813 -0.31641,0.31641 -0.31641,0.76172 0,0.45703 0.31641,0.77344 0.3164,0.32812 0.77344,0.32812 z m 3.80859,15.25781 q -0.90234,0 -1.53515,-0.64453 -0.64453,-0.63281 -0.64453,-1.53515 0,-0.90235 -0.63282,-1.54688 -0.64453,-0.63281 -1.54687,-0.63281 h -4.35938 q -0.90234,0 -1.54687,-0.63281 -0.63281,-0.63282 -0.63281,-1.53516 v -2.19141 q 0,-0.90234 0.63281,-1.53515 0.64453,-0.64453 1.54687,-0.64453 -0.90234,0 -1.54687,-0.63282 -0.63281,-0.64453 -0.63281,-1.54687 v -4.3711 q 0,-1.80468 1.27734,-3.08203 1.07813,-1.07812 2.53125,-1.24218 v -0.0352 h 4.37109 q 0.67969,0 1.28907,0.1875 0.0937,-0.50391 0.46875,-0.87891 0.51562,-0.5039 1.24218,-0.5039 0.71485,0 1.23047,0.5039 0.51563,0.51563 0.51563,1.24219 0,0.71484 -0.51563,1.23047 -0.22265,0.22266 -0.48047,0.33984 Q 171,422.92905 171,424.17123 v 2.19141 q 0,1.80469 -1.27734,3.08203 -1.27735,1.27735 -3.08204,1.27735 H 165 q -0.44531,0 -0.77344,0.3164 -0.3164,0.32813 -0.3164,0.77344 0,0.45703 0.3164,0.77344 0.32813,0.3164 0.77344,0.3164 h 4.35937 q 0.90235,0 1.54688,0.64453 0.64453,0.63282 0.64453,1.53516 v 4.35938 q 0,0.90234 -0.64453,1.53515 -0.64453,0.64453 -1.54688,0.64453 z m 8.07422,-4.35937 q -0.90234,0 -1.54687,-0.63281 -0.63281,-0.64454 -0.63281,-1.54688 0,-0.59766 0.28125,-1.08984 h -0.0117 l 8.44922,-16.91016 v 0.55078 q 0,-0.90234 0.64453,-1.54687 0.63281,-0.63282 1.53515,-0.63282 0.90235,0 1.54688,0.63282 0.64453,0.64453 0.64453,1.54687 0,0.59766 -0.29297,1.08985 h 0.0117 l -8.71875,17.44921 v -0.0117 q -0.15234,0.24609 -0.375,0.46875 -0.63281,0.63281 -1.53516,0.63281 z m 16.79297,0 q -0.90234,0 -1.54687,-0.63281 -0.63282,-0.64454 -0.63282,-1.54688 0,-0.90234 0.63282,-1.53516 0.64453,-0.64453 1.54687,-0.64453 h 5.44922 q 0.45703,0 0.77344,-0.3164 0.3164,-0.31641 0.3164,-0.77344 0,-0.44531 -0.3164,-0.77344 -0.31641,-0.3164 -0.77344,-0.3164 h -3.26953 q -1.81641,0 -3.08203,-1.27735 -1.27735,-1.27734 -1.27735,-3.08203 v -2.19141 q 0,-1.80468 1.27735,-3.08203 1.27734,-1.27734 3.08203,-1.27734 h 6.53906 q 0.90235,0 1.54688,0.63281 0.64453,0.64453 0.64453,1.54688 0,0.90234 -0.64453,1.54687 -0.64453,0.63281 -1.54688,0.63281 h -5.44922 q -0.45703,0 -0.77343,0.32813 -0.31641,0.31641 -0.31641,0.76172 0,0.45703 0.31641,0.77344 0.3164,0.32812 0.77343,0.32812 h 3.26953 q 1.81641,0 3.08204,1.27734 1.28906,1.27735 1.28906,3.08204 v 2.17968 q 0,1.81641 -1.28906,3.08203 -1.27735,1.27735 -3.08204,1.27735 z m 22.24219,-10.89844 q 0.45703,0 0.77344,-0.32812 0.3164,-0.31641 0.3164,-0.77344 0,-0.44531 -0.3164,-0.76172 -0.31641,-0.32813 -0.77344,-0.32813 h -2.17969 q -0.45703,0 -0.77344,0.32813 -0.3164,0.31641 -0.3164,0.76172 0,0.45703 0.3164,0.77344 0.31641,0.32812 0.77344,0.32812 z m -3.26953,10.89844 q -1.80469,0 -3.08203,-1.27735 -1.27735,-1.26562 -1.27735,-3.08203 v -8.73047 q 0,-1.80468 1.27735,-3.08203 1.27734,-1.27734 3.08203,-1.27734 h 4.35937 q 1.80469,0 3.08203,1.27734 1.28907,1.27735 1.28907,3.08203 v 4.3711 q 0,0.90234 -0.64453,1.54687 -0.64454,0.63282 -1.54688,0.63282 h -5.44922 q -0.45703,0 -0.77344,0.3164 -0.3164,0.32813 -0.3164,0.77344 0,0.45703 0.3164,0.77344 0.31641,0.3164 0.77344,0.3164 h 5.44922 q 0.90234,0 1.54688,0.64453 0.64453,0.63282 0.64453,1.53516 0,0.90234 -0.64453,1.54688 -0.64454,0.63281 -1.54688,0.63281 z m 21.15234,0 q -1.80469,0 -3.08203,-1.27735 -1.27734,-1.26562 -1.27734,-3.08203 v -6.53906 q 0,-0.90234 -0.64453,-1.54687 -0.63282,-0.64454 -1.53516,-0.64454 -0.90234,0 -1.54688,-0.63281 -0.63281,-0.64453 -0.63281,-1.54687 0,-0.90235 0.63281,-1.54688 0.64454,-0.63281 1.54688,-0.63281 0.90234,0 1.53516,-0.63281 0.64453,-0.64453 0.64453,-1.54688 0,-0.90234 0.63281,-1.54687 0.64453,-0.63282 1.54687,-0.63282 0.90235,0 1.54688,0.63282 0.63281,0.64453 0.63281,1.54687 0,0.90235 0.64453,1.54688 0.63282,0.63281 1.53516,0.63281 0.90234,0 1.54687,0.63281 0.64454,0.64453 0.64454,1.54688 0,0.90234 -0.64454,1.54687 -0.64453,0.63281 -1.54687,0.63281 -0.90234,0 -1.53516,0.64454 -0.64453,0.64453 -0.64453,1.54687 v 4.35938 q 0,0.90234 0.64453,1.54687 0.63282,0.63281 1.53516,0.63281 0.90234,0 1.54687,0.64453 0.64454,0.63282 0.64454,1.53516 0,0.90234 -0.64454,1.54688 -0.64453,0.63281 -1.54687,0.63281 z m 10.25391,0 q -0.90235,0 -1.54688,-0.63281 -0.63281,-0.64454 -0.63281,-1.54688 0,-0.90234 0.63281,-1.53516 0.64453,-0.64453 1.54688,-0.64453 h 5.44922 q 0.45703,0 0.77343,-0.3164 0.31641,-0.31641 0.31641,-0.77344 0,-0.44531 -0.31641,-0.77344 -0.3164,-0.3164 -0.77343,-0.3164 h -3.26953 q -1.81641,0 -3.08204,-1.27735 -1.27734,-1.27734 -1.27734,-3.08203 v -2.19141 q 0,-1.80468 1.27734,-3.08203 1.27735,-1.27734 3.08204,-1.27734 h 6.53906 q 0.90234,0 1.54687,0.63281 0.64453,0.64453 0.64453,1.54688 0,0.90234 -0.64453,1.54687 -0.64453,0.63281 -1.54687,0.63281 H 247.875 q -0.45703,0 -0.77344,0.32813 -0.3164,0.31641 -0.3164,0.76172 0,0.45703 0.3164,0.77344 0.31641,0.32812 0.77344,0.32812 h 3.26953 q 1.81641,0 3.08203,1.27734 1.28906,1.27735 1.28906,3.08204 v 2.17968 q 0,1.81641 -1.28906,3.08203 -1.27734,1.27735 -3.08203,1.27735 z m 16.79297,0 q -0.90235,0 -1.54688,-0.63281 -0.63281,-0.64454 -0.63281,-1.54688 0,-0.59766 0.28125,-1.08984 h -0.0117 l 8.44922,-16.91016 v 0.55078 q 0,-0.90234 0.64453,-1.54687 0.63281,-0.63282 1.53516,-0.63282 0.90234,0 1.54687,0.63282 0.64453,0.64453 0.64453,1.54687 0,0.59766 -0.29297,1.08985 h 0.0117 l -8.71875,17.44921 v -0.0117 q -0.15234,0.24609 -0.375,0.46875 -0.63281,0.63281 -1.53515,0.63281 z m 21.15234,-8.71875 q -0.44531,0 -0.77344,-0.31641 -0.3164,-0.32812 -0.3164,-0.77344 v -2.1914 q 0,-0.44531 0.3164,-0.76172 0.32813,-0.32813 0.77344,-0.32813 0.45703,0 0.77344,0.32813 0.3164,0.31641 0.3164,0.76172 v 2.1914 q 0,0.44532 -0.3164,0.77344 -0.31641,0.31641 -0.77344,0.31641 z m 0,4.35937 q 0.90234,0 1.54688,-0.63281 0.63281,-0.64453 0.63281,-1.54687 v -8.73047 q 0,-0.90235 -0.63281,-1.54688 -0.64454,-0.63281 -1.54688,-0.63281 -0.90234,0 -1.54687,0.63281 -0.63282,0.64453 -0.63282,1.54688 v 8.73047 q 0,0.90234 0.63282,1.54687 0.64453,0.63281 1.54687,0.63281 z m -2.17969,4.35938 q -1.8164,0 -3.08203,-1.27735 -1.27734,-1.27734 -1.27734,-3.08203 v -13.08984 q 0,-1.80469 1.27734,-3.08203 1.27735,-1.27735 3.08203,-1.27735 h 4.35938 q 1.8164,0 3.08203,1.27735 1.28906,1.27734 1.28906,3.08203 v 13.08984 q 0,1.81641 -1.28906,3.08203 -1.27734,1.27735 -3.08203,1.27735 z m 18.97266,-8.71875 q -0.44531,0 -0.77344,-0.31641 -0.3164,-0.32812 -0.3164,-0.77344 v -2.1914 q 0,-0.44531 0.3164,-0.76172 0.32813,-0.32813 0.77344,-0.32813 0.45703,0 0.77344,0.32813 0.3164,0.31641 0.3164,0.76172 v 2.1914 q 0,0.44532 -0.3164,0.77344 -0.31641,0.31641 -0.77344,0.31641 z m 0,4.35937 q 0.90234,0 1.54687,-0.63281 0.63282,-0.64453 0.63282,-1.54687 v -8.73047 q 0,-0.90235 -0.63282,-1.54688 -0.64453,-0.63281 -1.54687,-0.63281 -0.90234,0 -1.54688,0.63281 -0.63281,0.64453 -0.63281,1.54688 v 8.73047 q 0,0.90234 0.63281,1.54687 0.64454,0.63281 1.54688,0.63281 z m -2.17969,4.35938 q -1.8164,0 -3.08203,-1.27735 -1.27734,-1.27734 -1.27734,-3.08203 v -13.08984 q 0,-1.80469 1.27734,-3.08203 1.27734,-1.27735 3.08203,-1.27735 h 4.35938 q 1.8164,0 3.08203,1.27735 1.28906,1.27734 1.28906,3.08203 v 13.08984 q 0,1.81641 -1.28906,3.08203 -1.27735,1.27735 -3.08203,1.27735 z m 18.97266,-8.71875 q -0.44531,0 -0.77344,-0.31641 -0.31641,-0.32812 -0.31641,-0.77344 v -2.1914 q 0,-0.44531 0.31641,-0.76172 0.32813,-0.32813 0.77344,-0.32813 0.45703,0 0.77344,0.32813 0.3164,0.31641 0.3164,0.76172 v 2.1914 q 0,0.44532 -0.3164,0.77344 -0.31641,0.31641 -0.77344,0.31641 z m 0,4.35937 q 0.90234,0 1.54687,-0.63281 0.63282,-0.64453 0.63282,-1.54687 v -8.73047 q 0,-0.90235 -0.63282,-1.54688 -0.64453,-0.63281 -1.54687,-0.63281 -0.90235,0 -1.54688,0.63281 -0.63281,0.64453 -0.63281,1.54688 v 8.73047 q 0,0.90234 0.63281,1.54687 0.64453,0.63281 1.54688,0.63281 z m -2.17969,4.35938 q -1.81641,0 -3.08203,-1.27735 -1.27734,-1.27734 -1.27734,-3.08203 v -13.08984 q 0,-1.80469 1.27734,-3.08203 1.27734,-1.27735 3.08203,-1.27735 h 4.35938 q 1.8164,0 3.08203,1.27735 1.28906,1.27734 1.28906,3.08203 v 13.08984 q 0,1.81641 -1.28906,3.08203 -1.27735,1.27735 -3.08203,1.27735 z m 14.61328,0 q -0.90234,0 -1.54687,-0.63281 -0.63282,-0.64454 -0.63282,-1.54688 v -6.53906 q 0,-1.80469 1.27735,-3.08203 1.26562,-1.28907 3.08203,-1.28907 h 2.17969 q 0.90234,0 1.54687,-0.63281 0.63281,-0.64453 0.63281,-1.54687 0,-0.90235 -0.63281,-1.54688 -0.64453,-0.63281 -1.54687,-0.63281 h -4.35938 q -0.90234,0 -1.54687,-0.63281 -0.63282,-0.64453 -0.63282,-1.54688 0,-0.90234 0.63282,-1.54687 0.64453,-0.63282 1.54687,-0.63282 h 6.53906 q 1.80469,0 3.08204,1.27735 1.28906,1.27734 1.28906,3.08203 v 4.35937 q 0,1.81641 -1.28906,3.09375 -1.26563,1.27735 -3.08204,1.27735 h -2.17968 q -0.90235,0 -1.54688,0.63281 -0.63281,0.64453 -0.63281,1.54688 0,0.90234 0.63281,1.54687 0.64453,0.63281 1.54688,0.63281 h 4.35937 q 0.90235,0 1.54688,0.64453 0.64453,0.63282 0.64453,1.53516 0,0.90234 -0.64453,1.54688 -0.64453,0.63281 -1.54688,0.63281 z"
         id="path53" /></g><path
       id="rect47"
       style="fill:none;stroke:#ffffff;stroke-width:2.2287;stroke-linejoin:round"
       d="M 45.213316,4.7231288 H 151.16863 c 2.76455,0 4.99016,2.2256096 4.99016,4.9901562 v 57.388813 c 0,2.764547 -2.22561,4.990156 -4.99016,4.990156 H 45.213316 c -2.764547,0 -4.990156,-2.225609 -4.990156,-4.990156 V 9.713285 c 0,-2.7645466 2.225609,-4.9901562 4.990156,-4.9901562 z" /></g></svg>
