<svg xmlns="http://www.w3.org/2000/svg"
 viewBox="0 0 4270.912881055941 4270.912881055941"
width="4270.912881055941mm" height="4270.912881055941mm">
<defs><style>.seam{stroke: #000; stroke-width:1px; fill:white} .sewinguide{stroke-width:1px;}</style></defs>
<g><path class="seam" d="M 2562.2912276849597,4249.08835601866 2578.5244080051734,4248.27561151627 2594.7155848949387,4247.430839398163 2610.8624672580495,4246.556557483607 2626.960727468338,4245.653839723949 2643.0096018270688,4244.722483261713 2659.0042535755847,4243.764019471967 2674.942391617679,4242.7822469604 2690.821215724655,4241.779385226462 2706.6366528365907,4240.757293797022 2722.3851390260543,4239.722207556287 2738.0615829681424,4238.678911554145 2753.6647118316296,4237.637666003557 2769.2019080376253,4236.637139119399 2784.70142843934,4235.655551566119 2800.166327831715,4234.690347737273 2815.6004247084284,4233.73557714688 2831.0072829969113,4232.787473010032 2846.38868466088,4231.84327089641 2861.7466662302954,4230.8992716402645 2877.0817368376484,4229.951028287501 2892.3941510491836,4228.996305428279 2907.6849271298815,4228.033086420625 2922.954574212233,4227.060408685926 2938.203601428728,4226.074318492186 2953.433536176837,4225.076021051471 2968.645651287786,4224.062747955866 2983.841983291537,4223.034741838824 2999.0240595855594,4221.989457037893 3014.19417126606,4220.926129854337 3029.3546094292456,4219.843236868284 3044.5084288700573,4218.739278525445 3059.6576661184567,4217.615631074584 3074.8069033668557,4216.472218941345 3089.959704542687,4215.308739828314 3105.119633573382,4214.125476144918 3120.2925454825795,4212.920490801136 3135.4809859327306,4211.694813994742 3150.6905553812285,4210.448807687114 3165.9255814542403,4209.179997812557 3181.189628079199,4207.887946835339 3196.4834589548386,4206.568780575416 3211.7627795545054,4205.160496241705 3226.9891503751824,4203.773659114147 3242.178354524069,4202.445905221048 3257.343120313422,4201.210121339202 3272.4961760554984,4200.10036365909 3287.6477044001035,4199.15177027774 3302.809415394515,4198.397721194044 3317.788093258669,4197.877888966269 3316.7586273633146,4185.787066273371 3315.7019228797303,4173.487714049727 3314.6167069766902,4161.189077793647 3313.484650884544,4148.889359631025 3312.279788846287,4136.588551606666 3310.974882273689,4124.287481060867 3309.5307279649987,4111.9825761110005 3307.8956489724515,4099.669795517925 3306.877893124374,4080.994036165184 3305.405991094963,4062.221287073043 3303.554021661555,4043.1631214889276 3301.3499871111158,4023.6589240225426 3298.793378311155,4003.514492449626 3295.8735034793767,3982.5662997784534 3292.5707610149043,3960.6380588842653 3288.8650401843724,3937.5524007357585 3284.7392850493566,3913.182233135046 3280.1955321398173,3887.627059663197 3275.2617837427206,3861.071154460915 3269.977243059818,3833.6670663506 3264.390786810178,3805.571003544428 3258.5546010740527,3776.9332874101556 3252.495160740938,3747.9079623468733 3246.289853949357,3718.675197614581 3239.983484358455,3689.2317474936535 3233.4836444212447,3658.864412827544 3226.6986902894755,3626.631107584544 3219.5838183040023,3591.5022385861766 3212.1558298370046,3552.3742611597513 3204.4938949907214,3508.084698546827 3196.734715838794,3457.441798870772 3192.8935657658462,3428.374215810796 3189.047069801751,3399.2578196733148 3185.3650236320173,3366.0481255970726 3181.677377004891,3332.7851635340344 3178.382526094018,3295.91327945518 3175.0825838582427,3258.983799763362 3172.3406508318185,3219.179758031401 3169.5941356129815,3179.315638665586 3167.484799705735,3137.329518721829 3165.3718998710565,3095.2812846142574 3163.9195994425218,3051.864629655925 3162.4662807490063,3008.3845877025524 3161.677125389066,2964.281367581072 3160.886951764145,2920.1138694826936 3160.768069327664,2876.052270942294 3160.649696023673,2831.9269035574866 3161.232143592558,2788.620093933933 3161.816882257649,2745.2495154659714 3163.095059374507,2703.2953435859795 3164.376800418797,2661.278548409683 3166.1116693794393,2620.8731575651354 3167.8511205324944,2580.4042524424244 3169.75298494995,2541.6470507520485 3171.658667861083,2502.823152705445 3173.4439409382635,2465.814311986704 3175.2335416416117,2428.7320289062395 3176.6652222042903,2392.631480550165 3178.027406182045,2358.3078045851817 3178.772776147821,2325.0403239712928 3179.524001137235,2291.686163550932 3179.3941723522125,2260.3574594600445 3179.266380097151,2228.937747936518 3178.101230393136,2199.5187998166853 3176.9358261228763,2170.009098830459 3172.448586919759,2114.4964741679605 3166.0210437961687,2061.714708900223 3157.996097484313,2010.938161945468 3148.7884363975277,1961.595332083353 3138.918903073373,1913.3850674458745 3128.956962202232,1866.0433828368207 3119.4774243656348,1819.2864368928579 3111.0001138361617,1773.0434601978366 3103.7526128369695,1726.8096478876407 3097.804417952982,1680.215878906814 3093.03130085657,1633.1659272146926 3089.1453471244777,1585.2336489169093 3085.8634790921074,1537.5085875426714 3082.6004489618776,1487.621495048443 3078.8244678476863,1435.4761453935598 3074.104045964019,1384.0703106808141 3066.8491625437173,1329.6040805689718 3058.4237835282534,1274.8944851267734 3048.5298118445653,1219.6416453174422 3037.122443833508,1164.7859288505324 3023.978170331847,1110.635360882666 3008.8566808041683,1057.5931743461476 2991.5746875539694,1006.1718110924484 2972.0400376005095,956.9030600076698 2950.28251519447,910.208991926257 2926.343105501318,866.0134915409127 2900.3557103659987,824.2384070143785 2872.360551255245,784.6452097749561 2842.4271247539805,747.0417023075635 2810.572741366874,711.2323777359314 2776.8047835150355,677.03751229099 2741.0809932017714,644.337205271277 2703.383296223676,613.1266199181349 2663.9418204663584,583.7715679258326 2622.9597097934416,556.6022217143194 2580.698149172441,531.9815927491677 2537.3338075774855,510.23781692036556 2493.112850567627,491.58269334387103 2448.0724448146566,476.2606056150204 2402.347001296009,464.3211941516164 2355.9403385053615,455.7919521081344 2309.017160803321,450.61611121190765 2261.8325435675197,448.72366574552217 2214.7235325065253,450.0097344159795 2168.0915785889274,454.33990624584453 2122.3324050427987,461.5227474187706 2077.9430524617787,471.3566414686053 2035.3058793460712,483.6277527494293 1994.7788058363453,498.01736432232485 1956.2663695906733,514.3824099575221 1919.597374809197,532.611389639649 1884.63537398452,552.6345522175366 1851.296869388236,574.3930928885569 1819.5390938911612,597.8304979462887 1789.3272992008337,622.9134192126182 1760.765475628394,649.5127916012585 1733.8766614190272,677.6013765239794 1708.701078039466,707.1603360786404 1685.2270154424336,738.1614134120307 1663.4459456587183,770.6303197149095 1643.3567231402162,804.608040152745 1624.9616389831342,840.1470153720362 1608.2650208136397,877.3096141028429 1593.275523884067,916.168896857521 1580.0420249134838,956.7760314513439 1568.7340650211545,999.0498112521112 1559.531749825517,1042.8604074748007 1552.582982314999,1088.0782459006352 1548.0701592042446,1134.577061672024 1546.1386378192299,1182.203860475637 1546.9295751428858,1230.8183763104007 1550.5682177678227,1280.2592141768955 1557.0454013092153,1330.3349402587744 1566.0762661387496,1380.822809091538 1577.22486756162,1431.5357144850072 1589.991492038613,1482.3313539081475 1603.8619157545413,1533.1160469827466 1618.3492807655714,1583.7311989380812 1633.2263866979138,1635.1721637926566 1647.4666951680335,1684.4819000429031 1663.2122538456779,1731.673136001078 1679.0322731500262,1776.6542278189304 1694.719790723778,1820.6119633313122 1710.3189738104659,1864.5765721323125 1725.3385095569652,1907.9182573314506 1739.9966885184854,1951.9365796101758 1753.7585397308608,1995.875477220417 1766.02545066864,2038.5186326428854 1776.6080240454373,2079.797822123883 1786.3061070034887,2123.330686573123 1795.1413376736314,2168.2152977840665 1804.2899393915438,2214.5593372784087 1814.91998937306,2261.813960231624 1826.7451005923951,2308.686861100249 1838.3752140679517,2354.7132019206547 1848.4342719616145,2400.118528386036 1856.1672307902925,2445.5858417321097 1861.0685219911336,2492.247325334144 1862.9936792200197,2541.3663914667795 1861.922209894217,2594.072295993465 1857.8387127558947,2651.189578982216 1854.233800158439,2682.6193458724256 1850.6320696390478,2714.0278564811656 1845.4347178951066,2748.6786500711564 1840.2405482292295,2783.3154425176645 1833.4205912387533,2821.642554536873 1826.6026707782382,2859.961393153115 1818.214458434565,2902.127745998432 1809.827264355872,2944.2909167656853 1800.1972778683962,2989.358306540641 1790.5674186640429,3034.427223713067 1780.098636398824,3081.190151963791 1769.6289631517473,3127.9593170875205 1758.6987795672087,3175.205030222156 1747.7665594527089,3222.4611805728423 1736.7271669490044,3268.9676969731468 1725.6847196503581,3315.4885963663014 1714.8762187309974,3360.0315796762643 1704.063135619224,3404.5926371896326 1693.8211718784269,3445.9519513962887 1683.5741168127267,3487.3314399778724 1674.2291172366872,3524.290703920372 1664.8787717694997,3561.271287785902 1656.674610821064,3592.9199180053724 1648.465231264603,3624.5899954309957 1634.2591619544548,3677.90227675361 1622.0398549045171,3722.44710566885 1611.5966565469353,3759.432271726793 1602.7386421978524,3790.0610459266627 1595.2715778122251,3815.589076272623 1588.9998292306623,3837.318787316381 1583.7188524751919,3856.619299965872 1579.2267765134166,3874.710400205474 1575.3970819215006,3891.972760034016 1572.1497076153469,3908.5011417362525 1569.4264852079407,3924.3066825854085 1567.1845202869752,3939.3129808871604 1565.36437163421,3953.5033943732324 1563.9124530550428,3966.6889076066063 1562.7343204725257,3978.808615613132 1561.71567364259,3989.8884523290335 1560.7922345883376,4000.1384667273333 1559.9300187160416,4009.785413690892 1559.1132429185036,4019.0240363972425 1558.342034478846,4028.01199090408 1557.6314128055321,4036.862734204786 1557.0129441129598,4045.6586343900544 1556.5273590003515,4054.445402011278 1552.859823106591,4079.9501713665886 1550.3613826936448,4105.511502159492 1548.6772996989082,4131.07805156042 1547.582919411043,4156.629088330785 1546.9092098432745,4182.158311956019 1546.5195962050848,4207.664254702616 1546.2979962886886,4233.155846277143 1546.1450019753584,4258.410040906483 1561.574134810291,4256.877919044105 1577.2205399354525,4255.608189350109 1592.875600312949,4254.598853081709 1608.5418616052316,4253.830034183798 1624.222124040997,4253.2755531035 1639.921733511393,4252.908120538217 1655.6507453831032,4252.701390870376 1671.4150146797654,4252.6239510230835 1687.1959580654843,4252.573093460422 1702.9608637777594,4252.597032631458 1718.7129138946548,4252.685846419031 1734.4550359279897,4252.830581250986 1750.1911756545637,4253.021291144573 1765.9237514537058,4253.250526059524 1781.6576000840735,4253.5112854241 1797.3970491718344,4253.797081776644 1813.1452807950527,4254.103895754802 1828.908022694244,4254.424230581535 1844.6878205318599,4254.753101332676 1860.4898929159258,4255.086467763483 1876.315894527035,4255.419358871378 1892.1692620094968,4255.747782142791 1908.051650043905,4256.070685503162 1923.9667498408137,4256.3850698439155 1939.9162160808169,4256.687456755967 1955.9011943120172,4256.976830957535 1971.923084648763,4257.250706450131 1987.9827780729124,4257.505610791067 2004.0791290363625,4257.740088179629 2020.2131558040935,4257.953128306032 2036.3839673942473,4258.144750063865 2052.590800108089,4258.313000452715 2068.834035794986,4258.457384261683 2085.1111287924864,4258.577437106253 2101.4214426849785,4258.672707529097 2117.763577358113,4258.740236197618 2134.1352417156836,4258.78057400908 2150.534144661485,4258.792763356865 2166.9582496655553,4258.776855949742 2183.405011065443,4258.733369869795 2199.873156029923,4258.660876165095 2216.3603934627886,4258.559901867319 2232.8644322678333,4258.429508263441 2249.3822176501158,4258.268013824081 2265.910694814694,4258.075968452106 2282.447318099117,4257.853174262037 2298.989032708443,4257.599416463603 2315.5350749439363,4257.314754720769 2332.0813717456745,4256.99778195839 2348.625886583697,4256.648501159665 2365.1648009643263,4256.267492059441 2381.6970966225817,4255.853303829 2398.219464197277,4255.4057326164675 2414.7283397609795,4254.924842063403 2431.2216867837283,4254.409957967018 2447.6967050368266,4253.862839419841 2464.150848857824,4253.281079975338 2480.5815725842676,4252.665703864885 2496.9868396861975,4252.01723812016 2513.362577103691,4251.335036381558 2529.7070028730313,4250.6191443914495 2546.0178258980136,4249.869808760886 2562.2912276849597,4249.08835601866 "/><path class="sewinguide" stroke="#5fff00" d="M 3078.0489638512418,4259.05800945151 3071.5648428824697,4173.886205685716 "/>
<path class="sewinguide" stroke="#0046ff" d="M 3108.471951819696,4256.702873924189 3101.767315327068,4171.5481579176 "/>
<path class="sewinguide" stroke="#fff200" d="M 3138.9422714591574,4254.263560499275 3132.019700406304,4169.126274325283 "/>
<path class="sewinguide" stroke="#001dff" d="M 3200.2784962418373,4249.108900310163 3192.68842166784,4164.028533557546 "/>
<path class="sewinguide" stroke="#0cff00" d="M 3230.78584980077,4246.3136157673935 3223.192450949595,4161.233543356998 "/>
<path class="sewinguide" stroke="#00ff67" d="M 3260.637472284398,4243.791981982957 3254.048768342446,4158.628212964275 "/>
<path class="sewinguide" stroke="#37ff00" d="M 3346.4296497634055,4229.559535234454 3289.146536753932,4166.19611541496 "/>
<path class="sewinguide" stroke="#ff0013" d="M 3346.4296497634055,4229.559535234454 3289.146536753932,4166.19611541496 "/>
<path class="sewinguide" stroke="#005eff" d="M 1899.4789229148757,494.9375582470359 1939.715826703518,570.2852210322621 "/>
<path class="sewinguide" stroke="#ff0600" d="M 1702.180914567419,648.975352537794 1765.5724082706352,706.2274005101648 "/>
<path class="sewinguide" stroke="#ff000a" d="M 1514.128058152741,4049.310459767772 1598.9266598479617,4059.5805988210295 "/>
<path class="sewinguide" stroke="#00ffef" d="M 1510.2370727597097,4281.5334921983995 1582.052931191007,4235.286736785677 "/>
<path class="sewinguide" stroke="#00a7ff" d="M 1510.2370727597097,4281.5334921983995 1582.052931191007,4235.286736785677 "/>
<path class="sewinguide" stroke="#ff004a" d="M 1610.3432320198199,4296.501080520499 1606.740491190643,4211.158836698388 "/>
<path class="sewinguide" stroke="#00ffb0" d="M 1671.5887153716994,4295.332597589712 1671.241313987831,4209.91504989021 "/>
<path class="sewinguide" stroke="#ff00fb" d="M 1702.8080714362686,4295.305951663521 1703.1136561192502,4209.888236904921 "/>
<path class="sewinguide" stroke="#b600ff" d="M 1733.9999365526862,4295.537229074831 1734.9101353032931,4210.123833987202 "/>
<path class="sewinguide" stroke="#ff0035" d="M 1796.5933891294178,4296.4986860067565 1798.200709214251,4211.095553120885 "/>
</g>
<g><path class="seam" d="M 320.70354207406575,4249.013931190335 336.1258016203797,4248.0163159076055 351.565403492144,4247.07497965304 367.02342959590044,4246.183663676847 382.49997539399095,4245.334233791972 397.99478632017036,4244.522752176814 413.50958069659345,4243.742102909299 429.0433402582796,4242.992815009907 444.59762422348035,4242.270918836251 460.1728144415634,4241.5788765212355 475.7697382528254,4240.914001197693 491.3902730833243,4240.278836539277 507.03674185004706,4239.673782294544 522.7119129609097,4239.10272656513 538.4261281696208,4238.567473191536 554.1960615652374,4238.078007932488 570.0297638052622,4237.599900703331 585.9231618297727,4237.127035947784 601.8719916541628,4236.656700944299 617.8740258237876,4236.184778879379 633.9264641099505,4235.709519610089 650.0273972658131,4235.2283416756 666.1749796860978,4234.740942778495 682.3667293499147,4234.242812323118 698.6003551610575,4233.732852492538 714.8744570051778,4233.205975939448 731.1856618795275,4232.659839858874 747.5318696125844,4232.091767327644 763.9098344847226,4231.497375033226 780.2764711589521,4230.877784658135 796.7053492801186,4230.22798840702 813.1989508691127,4229.546908350936 829.6665867011022,4228.835550822069 846.1481600350132,4228.096906973802 862.63991601873,4227.329441453468 879.1403908963428,4226.538173989213 895.6444933429489,4225.725085424631 912.1511414520064,4224.894053917365 928.6585532597993,4224.047024512632 945.1634830467021,4223.186861080687 961.6652307555407,4222.314434715402 978.1615052901087,4221.4302903476455 994.6501428373224,4220.53340573484 1011.1294887165885,4219.622408605818 1027.598015530436,4218.695914756624 1043.9943728137857,4217.756036291572 1060.4283422598553,4216.79830636858 1076.8429646712939,4215.82401770686 1093.2934172817363,4214.831718483297 1109.6578265013209,4213.830533306738 1125.9927060364687,4212.821683299643 1142.2951283753612,4211.81103939604 1158.5648389517528,4210.802591126299 1174.7989102538245,4209.804862482039 1190.996578582841,4208.823907366775 1207.157589372557,4207.868253749719 1223.2802879423791,4206.944516375648 1239.3655652741654,4206.060252679964 1255.413039518548,4205.22335023867 1271.4236016573852,4204.440881220262 1287.3975062569218,4203.718290955829 1303.335644299016,4203.062989709662 1319.238779482403,4202.482833236984 1335.107548222696,4201.988362171381 1350.9432233511207,4201.586513443034 1366.746059433922,4201.292847413677 1382.5194931154092,4201.115549979131 1398.263142546215,4201.069234832906 1413.9789169731778,4201.170218080276 1429.6675800950327,4201.432707699798 1445.3286227792898,4201.873855092238 1460.9607721947234,4202.5145028689185 1476.561737245127,4203.378779136761 1491.9894699657116,4204.479630975889 1496.7625870621237,4179.868552222529 1501.5140660276988,4155.059130565824 1506.0480181368,4130.226161531443 1510.276745317976,4105.364187855506 1514.1069490423822,4080.4713798431267 1517.4286566921173,4055.5500604112913 1520.1009658504952,4030.610857700735 1521.9036767154682,4005.747404358498 1520.917232515543,3997.257413247939 1519.7840308752934,3988.7615193825704 1518.456213340633,3980.202747654652 1516.875102392056,3971.5228342148266 1514.974510805826,3962.6265394666307 1512.679341539626,3953.3879485810603 1509.8998599920433,3943.6413707533093 1506.5341123818987,3933.1925719383344 1502.5001283782562,3921.851932104285 1497.850475910738,3909.5668833215395 1492.7042919820703,3896.4064766840925 1487.1501656455625,3882.331445348631 1481.3584017192147,3867.4704725520746 1475.451828416308,3851.7839414225227 1469.5570924438005,3835.2028645075416 1463.7873484976574,3817.5808343953945 1458.1425965778792,3798.513472605673 1452.2322047812952,3776.8543082326 1445.5927352586248,3751.3190227486534 1437.784042972017,3720.6701696361974 1428.3880028638266,3683.7138968470786 1416.993490448149,3639.234618739962 1403.216365261065,3586.030909920901 1394.9607819311107,3554.4477032264326 1386.702652938705,3522.8511954456553 1377.0399546887281,3485.962191786815 1367.3712741319907,3449.0472860125315 1356.6852195765432,3407.6980271725583 1345.99343728058,3366.3247118224194 1334.7790304833404,3321.697085235947 1323.5601687768108,3277.048266009566 1312.3009583204262,3230.3576345724623 1301.0385657859772,3183.6496289891284 1290.18717045431,3136.1455311156737 1279.3327203277013,3088.6285776468394 1269.301155588514,3041.5907178513626 1259.2674270362427,2994.543057255448 1250.4123401989789,2949.266541310108 1241.5557259642444,2903.9851886061106 1234.1601946935023,2861.770595457339 1226.7644088565148,2819.555111326709 1220.9730267795348,2781.412814401473 1215.1808810038192,2743.272808572444 1210.8121423878151,2708.3365189385263 1206.6216001434104,2674.8344555297385 1203.6948520230133,2644.0792891891556 1200.7608487646294,2613.1982398403497 1197.3228043408642,2557.71030810363 1196.0366083872843,2507.303136770576 1196.6843521980481,2461.02821201179 1199.1255152058372,2417.988569662513 1203.2538160033048,2377.282536082452 1208.9628458999814,2338.1596499809298 1216.054170507779,2300.1489638044322 1224.305935344056,2262.9439797938094 1233.5435079646456,2226.0911881833404 1243.5568712173056,2189.3453143958313 1254.1539548700757,2152.425826429135 1265.16165387626,2115.072557580717 1276.4050812254459,2077.0296687742093 1287.7615359874749,2038.0886702548407 1299.316679703837,1998.2149410132718 1311.192576889078,1957.4156089043668 1323.5016185404281,1915.6983109154796 1336.3592504500593,1873.068902070249 1349.9276313161267,1829.5159268876432 1364.3863576245783,1785.0096011169805 1380.5239483197413,1738.7798618667068 1398.6597567561462,1693.0913304536048 1417.0170378258247,1645.7351355685778 1434.6876264492325,1597.613714550654 1451.3139843350682,1548.9907980298005 1466.6020874701921,1500.0868403743102 1480.331226920067,1451.105749146542 1492.3159511751062,1402.2427766565195 1502.3960107839932,1353.682483431971 1510.4483229672016,1305.5740452925495 1516.4068277841175,1258.0014690991518 1520.235758677298,1210.99555736744 1521.9029130167328,1164.8248774860392 1521.4137639766925,1119.5576532086473 1518.7884222905432,1075.3634256545288 1514.0809832853777,1032.4244642552053 1507.3974738022976,990.9446765730357 1498.9148173816766,950.7346653216343 1488.5015305578988,911.7781382613122 1476.087989462918,873.8979172854501 1461.664647862541,837.0728733957017 1445.2166136314274,801.2485294156063 1426.7264489817849,766.378045156058 1406.1718793671635,732.4214537165693 1383.526557181191,699.3499891114393 1358.7472061621932,667.1776524841508 1331.747273786822,636.0467463657382 1302.412332527886,606.1237570805241 1270.6078441248276,577.5744072540963 1236.1749592406784,550.5702745356803 1198.9317902932842,525.2938829230428 1158.6729023228156,501.94812171356216 1115.1675310280511,480.7666827202786 1068.2866113227042,462.0705739783162 1018.4041646624495,446.3898024100605 966.2544237398378,434.61738640346965 912.8667271671005,426.7889652328635 858.8553432937654,423.0659338976621 804.8132841878908,423.60841456605965 751.3041595162208,428.5462360230786 698.832774142872,437.96391426210613 647.7564754344628,451.84770270590457 598.1506786411161,469.9269974358879 550.035430854637,491.89657352413104 503.6413372723434,517.527066783761 459.2004668474629,546.3941152841261 416.9199092204186,578.0583376861111 377.0090133070591,612.0658423746282 339.6815192909616,647.9400813387714 305.09732659485604,685.2612748403016 273.18709773772184,723.95076190947 243.8348777948968,764.043672688106 216.9332557213214,805.6072126649273 192.38147101509028,848.7345530856558 170.08511142003647,893.5427944230566 149.9572743842246,940.1688933170166 131.91981602559127,988.7640621171496 115.93506053985544,1039.3962700109087 102.09442107460859,1091.74450896317 90.41376824419626,1145.3928177293712 80.96687852853869,1199.9786939764306 73.78853999607355,1255.083121664844 68.81158693405915,1310.2677377204773 65.91712895081903,1365.0776322632614 64.79463102565822,1418.9833075033014 63.77856167895465,1471.240920872292 63.33143993494825,1521.1356503538748 63.35178136897412,1570.81959898448 63.53407068848368,1620.5361320944635 63.48561161716236,1668.422079335631 62.76831951270629,1715.7573997885565 60.92667990021454,1762.4425580513891 57.485330092860266,1808.8960610311428 52.12999612822296,1855.4468083165407 45.28620935064292,1902.247794220913 37.80058151710835,1948.4963713733273 29.768016117087434,1998.3895734574392 22.601337911929065,2048.1560015514706 16.821118962558266,2099.509141051472 13.125638456997063,2152.938522846851 12.122175111424998,2209.02048491661 13.144264552066415,2238.61406548061 14.16964943230315,2268.348675744419 16.625833837354328,2299.7923164949884 19.087810618881882,2331.3316741537315 22.842129736650314,2364.601827713195 26.60514189393059,2397.9632432715416 31.54197491795085,2433.0345802985066 36.48978810009165,2468.1918334332076 42.50583682120222,2505.013313395524 48.53332511295386,2541.9137088938346 55.68668035501687,2581.2907793911313 62.53581302374489,2618.995476940968 70.41902957861785,2659.1107895491764 78.31391640479156,2699.292925796735 87.0007269988213,2740.9459458087235 95.70024203952266,2782.663498363856 105.06824803996687,2825.6934671958174 114.44949944035362,2868.7878412878 124.15085993881125,2912.6553330662787 133.8658715521646,2956.587357387901 143.52763108911233,3000.621844623193 153.20347132149448,3044.722391799099 162.49085937418027,3088.2217807871025 171.7923917638618,3131.7874842819656 180.40250632134735,3174.0266430733936 189.02635154568026,3216.3315435976297 196.69170712588266,3256.5717209490804 204.36983874951312,3296.876494485236 210.8603711083853,3334.3705384672176 217.36261351453396,3371.926951179259 222.49692829202192,3405.92573697388 227.64134616736393,3439.983645778935 231.35258790333725,3469.952393346713 235.07145071627448,3499.9765090728097 240.01670232557356,3552.525982641856 242.91470037066017,3598.7075452302365 244.15179685970827,3639.6216230741393 244.0533274540093,3676.36558761481 242.88157493801108,3710.015744936709 240.84219701700772,3741.602674662513 238.09506129294837,3772.097928866806 234.77209672237785,3802.2529234636863 231.03019566425525,3832.1186353437433 227.03232824664238,3861.5643447400967 222.95492478781298,3890.431647806707 218.93802854337576,3918.5525944633414 215.1040063252924,3945.7586618557166 211.56074649033215,3971.8732446512645 208.3965994359496,3996.7538175734867 205.6711813946789,4020.2842984145987 203.36396796300556,4042.591317971168 201.4390812107548,4063.856413796761 199.8629820351292,4084.2594687643523 198.61201168572086,4103.992616747461 197.6760352438951,4123.199226273276 197.06373978276736,4142.062839604541 196.8296661203593,4160.730993790709 198.53777380448133,4173.026766176531 200.4087720647136,4185.3167074043 202.40490554482346,4197.601167502604 204.50243594245146,4209.881101094861 206.6804092735443,4222.156066667741 208.92052858923245,4234.42608410923 211.23865654866626,4246.687177810548 213.51894959991586,4258.780325409231 228.5477770143629,4256.960983214375 243.85112230341494,4255.310291156926 259.18243805865194,4253.8213351778895 274.5361079122905,4252.467002977758 289.9086633992405,4251.226042252661 305.2977656921247,4250.079873644299 320.70354207406575,4249.013931190335 "/><path class="sewinguide" stroke="#00ffef" d="M 1524.3831181335715,4232.313558168725 1459.5958217978516,4176.645934483715 "/>
<path class="sewinguide" stroke="#0040ff" d="M 1524.3831181335715,4232.313558168725 1459.5958217978516,4176.645934483715 "/>
<path class="sewinguide" stroke="#ff000a" d="M 1564.6000165951834,4006.792433350185 1479.207336835753,4004.702598112276 "/>
<path class="sewinguide" stroke="#ff0600" d="M 1442.0709504730007,709.2843353993668 1370.2728082613262,755.5585720337718 "/>
<path class="sewinguide" stroke="#005eff" d="M 1261.343249695076,516.06481440608 1211.0066687862807,585.0757346652805 "/>
<path class="sewinguide" stroke="#37ff00" d="M 191.71975191522796,4295.507142526733 235.31814728460375,4222.053365098216 "/>
<path class="sewinguide" stroke="#ff00fc" d="M 191.71975191522796,4295.507142526733 235.31814728460375,4222.053365098216 "/>
</g>
<g><path class="seam" d="M 4245.133721109149,3885.8289628114176 4248.51614280835,3870.193949525726 4251.457146638475,3854.2439105116714 4253.898691495632,3838.29501704572 4255.855033089548,3822.267780817826 4257.325153155243,3806.1790668417307 4258.305233199039,3790.0457401311737 4258.79934628086,3773.7775887730336 4258.79934628086,3757.7160497436066 4258.309051692717,3741.6618613145083 4257.318279866624,3725.4163027106247 4255.845614138478,3709.32071544591 4253.885199484639,3693.2848876072426 4251.440599832541,3677.324347735576 4248.512069748428,3661.4576791668055 4245.0853535225715,3645.6050117415175 4241.22765664369,3630.0803529230952 4236.899266777541,3614.699905882546 4232.039342591535,3599.268545592968 4226.753783643652,3584.122872272001 4221.010260020759,3569.1702238064127 4214.8181906739255,3554.426383303402 4208.182157795564,3539.908088493587 4201.069576906298,3525.548452096057 4193.6176592122565,3511.6186508034493 4185.744943514996,3497.9588170138145 4177.346039389026,3484.397245794805 4168.606271060812,3471.233179767584 4159.4726887513625,3458.383884902481 4149.953947713014,3445.861198529896 4140.061757993041,3433.680649190781 4129.751315932302,3421.7890961814637 4119.211255118443,3410.4033663012433 4108.329820969849,3399.395858219743 4096.965983786711,3388.6311426945467 4085.3684547905323,3378.346029975198 4073.4649371676937,3368.4750965366948 4061.270195760412,3359.027252197618 4048.796449748455,3350.013761514315 4035.988712822872,3341.397712381239 4023.077876568006,3333.332035470161 4009.9290208739326,3325.727441670596 3996.378459645025,3318.4959783448476 3982.7130890395583,3311.7903852400013 3968.852720690313,3305.5703772477636 3954.812374005752,3299.8409820514757 3940.606304695604,3294.609645713808 3926.170616632338,3289.8535209142588 3911.7687858796753,3285.6592874593 3897.248581823022,3281.9769230817597 3882.382676805466,3278.7570419300814 3867.635399658146,3276.100197671096 3852.7621122194805,3273.955286131091 3837.839438929258,3272.335162905446 3822.9048010255133,3271.242691864419 3807.780256702893,3270.671317927198 3792.870311724927,3270.634533104775 3777.968767433051,3271.126482373512 3762.8689160362096,3272.1597667625433 3747.9744995991973,3273.7078477408127 3733.1078308829055,3275.7826899218426 3718.3063311253704,3278.3807930197613 3703.6491704288305,3281.486628493616 3688.887892138028,3285.159382995402 3674.4860613853657,3289.2834198082637 3660.2191507426282,3293.915507204867 3645.9356932939572,3299.1102496447957 3631.896619440622,3304.7730757679788 3618.0377784888474,3310.928742141757 3604.3731715821164,3317.5687207969177 3590.919854658853,3324.6887477488553 3577.5956028218766,3332.330762786456 3564.6855302657464,3340.333625476546 3552.026460027326,3348.789552441427 3539.488054189103,3357.792924116486 3527.2948401792924,3367.182918276354 3515.3948864838853,3376.9986744812227 3503.7983757526877,3387.2281008344466 3492.5205819604075,3397.8629239330594 3481.490481124651,3408.9695219254813 3470.9506748770377,3420.304656764479 3460.7626791802104,3432.007003412095 3450.8208490424354,3444.2076634845757 3441.304908232783,3456.684846140842 3432.1738715857855,3469.4922012170578 3423.435885221287,3482.6145183800754 3415.1031683190545,3496.0395148085668 3407.121752835118,3509.8511337218674 3399.670089707322,3523.745168457033 3392.646607003855,3537.8959332504237 3385.97671681489,3552.465905008002 3379.7869385642625,3567.1804067512603 3374.0474880012916,3582.1063257611086 3368.7634564508794,3597.2272425147357 3363.9422263341357,3612.527628471188 3359.5563044965843,3628.0995729696456 3355.7001350151736,3643.605457527489 3352.3179678822175,3659.240216246935 3349.3767094858467,3675.1905098272346 3346.934910062445,3691.1392123685023 3344.979077601019,3707.16663952108 3343.5094666678146,3723.2548443646856 3342.529386624018,3739.387980150558 3342.034509843462,3755.656290612602 3342.0350189759524,3771.718147849835 3342.5250589978505,3787.772081712688 3343.5163399564335,3804.017131184082 3344.9882419858445,3820.1137685345575 3346.9489112059277,3836.1495327316634 3349.393256291781,3852.11007260333 3352.321022677159,3867.9763275019523 3355.7485026017507,3883.8294085973885 3359.6059449143872,3899.3540037742496 3363.934334780536,3914.7344826355798 3368.794513532787,3930.1659065667186 3374.08058161316,3945.311484425344 3379.823850669808,3960.263910145468 3386.016174582887,3975.00733697833 3392.651952895003,3989.52588635439 3399.7640246517794,4003.8854591103586 3407.2161969120657,4017.8153876860893 3415.0886580430815,4031.475126013382 3423.4875621690508,4045.0368881570757 3432.226821364775,4058.201081467419 3441.36218563794,4071.0504081533027 3450.8799084113084,4083.572792228472 3460.7718435650354,4095.7539302520286 3471.082285625776,4107.645355978223 3481.6228555721245,4119.031133589614 3492.5035260219834,4130.038943968531 3503.8676177713664,4140.803094674871 3515.4651467675444,4151.088708571515 3527.3686643903834,4160.958949908038 3539.563405797665,4170.406881754262 3552.037151809622,4179.420181512882 3564.844888735205,4188.03662045052 3577.755724990071,4196.1022894064035 3590.9045806841445,4203.706564998162 3604.4556510455423,4210.938235158985 3618.120767084764,4217.643716891099 3631.9813900002546,4223.8635936226165 3646.02199125106,4229.5932234971615 3660.227296862473,4234.824535969244 3674.6632394919843,4239.5803823369615 3689.064051979666,4243.774898201349 3703.5852743013,4247.457067676608 3718.4516884513464,4250.677052245823 3733.197947333686,4253.333321741959 3748.0714893385966,4255.4787284928625 3762.993908062574,4257.098750289769 3777.929055098809,4258.191315798738 3793.053344855184,4258.7629631957925 3807.9630352669046,4258.799085748219 3822.864579558781,4258.307062893927 3837.9644309556224,4257.27414842147 3852.86012022386,4255.726129095963 3867.725516108926,4253.651249127756 3882.525997601481,4251.052646841341 3897.185449394227,4247.947010247365 3911.9462185525394,4244.27445263666 3926.3475401727114,4240.150791706769 3940.6141962492034,4235.518594926233 3954.89841739661,4230.324166716513 3968.93672755121,4224.660696222521 3982.796077635475,4218.5052486166105 3996.4601754097157,4211.865166543913 4009.914001465469,4204.745935111491 4023.237744169955,4197.1031245543745 4036.148580424821,4189.100802817556 4048.8066323982607,4180.644820166308 4061.345292802729,4171.641472356835 4073.538761378785,4162.251342958649 4085.438969640437,4152.435904961587 4097.034716672899,4142.206017207043 4108.312510465179,4131.571448674676 4119.343374999671,4120.464405191325 4129.882672114794,4109.130002230281 4140.070413245377,4097.427496478763 4150.013516214377,4085.226629571208 4159.528438759049,4072.7492559902576 4168.6592208398015,4059.942266853019 4177.39822546928,4046.8196314821953 4185.730433239022,4033.394619143314 4193.711848722959,4019.583270706649 4201.16325728451,4005.6891882403124 4208.187249120468,3991.538423446921 4214.856375610697,3976.9685153309038 4221.046662993815,3962.2543317954523 4226.78585899054,3947.328126398578 4232.069635974707,3932.207400569635 4236.890611525206,3916.907332820989 4241.277042495248,3901.3348473692604 4245.133721109149,3885.8289628114176 "/><path class="sewinguide" stroke="#ff0035" d="M 3922.991407410318,3244.4510066103667 3900.546164349033,3326.8675683082324 "/>
<path class="sewinguide" stroke="#b600ff" d="M 3858.1162867144235,3231.583156252552 3847.407937724538,3316.327543292752 "/>
<path class="sewinguide" stroke="#ff00fb" d="M 3825.265236204411,3228.598844339972 3820.544365846616,3313.8865393888664 "/>
<path class="sewinguide" stroke="#00ffb0" d="M 3792.2183009463592,3227.930381223412 3793.522322503495,3313.338684986138 "/>
<path class="sewinguide" stroke="#ff004a" d="M 3726.46276488044,3233.593617039146 3739.7528968853717,3317.9716355214164 "/>
<path class="sewinguide" stroke="#00a7ff" d="M 3662.0105741800676,3248.4371043167394 3686.9615485906634,3330.1299898660327 "/>
<path class="sewinguide" stroke="#0040ff" d="M 3662.0105741800676,3248.4371043167394 3686.9615485906634,3330.1299898660327 "/>
<path class="sewinguide" stroke="#ff00fc" d="M 3677.841313109895,4284.983095520733 3700.2867908494372,4202.566597464428 "/>
<path class="sewinguide" stroke="#ff0013" d="M 3677.841313109895,4284.983095520733 3700.2867908494372,4202.566597464428 "/>
<path class="sewinguide" stroke="#00ff67" d="M 3742.7167644435885,4297.850902124975 3753.4262142336042,4213.106666233482 "/>
<path class="sewinguide" stroke="#0cff00" d="M 3775.568119239816,4300.835269723921 3780.289990957802,4215.547614451002 "/>
<path class="sewinguide" stroke="#001dff" d="M 3808.6161054537283,4301.50322370799 3807.3099650800814,4216.09495972124 "/>
<path class="sewinguide" stroke="#fff200" d="M 3874.371828093834,4295.840067444207 3861.079204124018,4211.462438766501 "/>
<path class="sewinguide" stroke="#0046ff" d="M 3906.774110631642,4289.565765244998 3887.596788156812,4206.328100123427 "/>
<path class="sewinguide" stroke="#5fff00" d="M 3938.822983624436,4280.997296134179 3913.872096720987,4199.3043867193 "/>
</g>
</svg>