<svg xmlns="http://www.w3.org/2000/svg"
 viewBox="0 0 8637.831701292602 8637.831701292602"
width="8637.831701292602mm" height="8637.831701292602mm">
<defs><style>.seam{stroke: #000; stroke-width:1px; fill:white} .sewinguide{stroke-width:1px;}</style></defs>
<g><path class="seam" d="M 1109.5126744901736,8113.523174327591 1106.931578211953,8026.782803633063 1104.7730490848517,7936.262818832825 1103.1062063778772,7843.89843074536 1102.0300309436677,7751.0469899317795 1101.3627790059877,7657.963285205865 1100.955914929019,7564.679108857084 1100.6935963624696,7471.132807012337 1099.8521947581844,7377.6794364752695 1099.172328875695,7284.766406145451 1099.2449234152111,7191.906534583044 1099.441855410707,7098.588957023262 1098.9602086609386,7005.266488342024 1098.5627406857159,6912.428626826172 1098.8631585141388,6819.601577263014 1099.2396461525866,6726.296227506875 1098.9092380268105,6632.982768786214 1098.6583749815677,6540.1506993878775 1099.114150273104,6447.325966671726 1099.6745698210707,6354.029626876164 1099.5982425836007,6260.731999943378 1099.6902728952214,6167.912930631018 1100.5898531020973,6075.131703153086 1101.8215147131427,5981.993423808812 1103.3269504120442,5888.421121792111 1104.9876148603364,5793.901229350025 1106.6579328378195,5697.9333075292925 1108.1799726069294,5600.147433091316 1109.4082876611885,5500.47049664169 1110.3417195770942,5399.57464123955 1111.0592985802898,5298.240129470973 1111.6917978128822,5197.13884696765 1112.4132382277542,5096.633766427161 1113.3564523865734,4996.3310238585145 1114.642817329701,4895.560793049581 1116.4145617205506,4793.538177720271 1118.8507263471843,4689.698639483498 1122.2140159173189,4584.909451401778 1126.9963742785262,4480.443592191095 1133.9458855862454,4377.580991108448 1143.8380500188177,4277.331536020936 1156.716115387019,4179.270214216711 1171.9927609748704,4083.1674004147503 1189.3534104444686,3989.8859914110044 1208.8886782564864,3898.6161204632117 1232.6476868738607,3808.4099397185414 1263.960002871419,3716.7405413759648 1288.2088959168043,3663.7341710118426 1312.3766993169857,3610.8982176163718 1303.494294037789,3504.6234157490226 1302.5159410327144,3418.3877959174606 1304.914392538642,3339.2757083465 1308.3087021159101,3265.826509712686 1310.7053516297221,3197.632434942992 1310.9811851371387,3135.348379457733 1308.1695625818377,3079.423296721151 1301.2492692891365,3030.9543425042307 1289.674559075439,2990.3503115897784 1274.9322041498772,2956.84767417565 1259.0527921993416,2929.6067019359534 1244.6404592583888,2907.9807371286165 1233.5735246801362,2891.2999535415074 1225.2620934741547,2878.307075532795 1218.892566200229,2867.8297785175273 1213.3805297459069,2858.4738354530828 1151.9808662482637,2887.66404830702 1089.1851737158834,2915.432231954266 1024.8845603394918,2940.5828933398107 958.9373123105657,2962.29792804315 891.399741882719,2979.8791928331925 822.4618305104299,2992.765495879637 752.4290802141619,3000.5670920306125 681.6743102912707,3003.076494765375 610.9048026471478,3000.565547465942 540.8723741351863,2992.761891895406 471.93594297070644,2979.8761037038516 404.4005284977123,2962.294838913809 338.455597315792,2940.578774500689 274.157686927574,2915.428627970035 211.36466520493656,2887.6625037423496 149.96791385526595,2858.4738354530828 144.45637616661855,2867.8308082273074 138.046867192627,2878.284421917627 129.77481434113702,2891.3014981061783 118.70664893791275,2907.9843411128477 104.291902614662,2929.6082465006243 88.41636012041045,2956.84767417565 73.67081148560808,2990.3534007191192 62.09717522703305,3030.958461343352 55.17767432818628,3079.428960124943 52.36203751366324,3135.354042861525 52.64637819367948,3197.640672621235 55.04466880745384,3265.835777100709 58.440321834201086,3339.2854905894133 60.84032594940684,3418.3991227250444 59.85671177092342,3504.6337128468263 50.97244416505351,3610.907999859285 75.14012689611992,3663.7352007216227 99.38194873137299,3716.754442458 130.69440148726133,3808.4217813810155 154.4607146083901,3898.6228135767838 173.99556410080964,3989.8895953952356 191.35550564493394,4083.1679152696406 206.63910177380276,4179.2630062482485 219.51235646662386,4277.325357762254 229.40471396978012,4377.574555422321 236.3537747794704,4480.436126795187 241.13561828578756,4584.903015715651 244.4996318706114,4689.690916660145 246.9343002002204,4793.5314846066985 248.7060767695007,4895.553585081118 249.99239344498235,4996.324588172388 250.93589720967728,5096.627073313589 251.65738589219518,5197.132411281523 252.289852946357,5298.233693784846 253.00743194955257,5399.567948125979 253.94112129290335,5500.464060955563 255.1692110981481,5600.1409974051885 256.6915243839184,5697.92661441572 258.3617780045403,5793.894793663897 260.02249072047846,5888.413913823649 261.5280390438871,5981.987502977575 262.75989372551635,6075.125524894404 263.66008532257445,6167.913188058463 263.7527592028078,6260.72556425725 263.67569186143317,6354.014181229459 264.2355804652942,6447.319016130708 264.69225675288845,6540.1508281016 264.4423268821342,6632.976204386365 264.1105511730558,6726.280910573892 264.4865722242595,6819.59527029061 264.787923227171,6912.429141681063 264.3911631774221,7005.260181369619 263.90916246491685,7098.573511376557 264.10504866141696,7191.899584042027 264.1784798401296,7284.766277431729 263.4995632213439,7377.673000789143 262.6581294386282,7471.117361365632 262.39457200249933,7564.672093959205 261.9881906019901,7657.957750515796 261.32098693195604,7751.0413908848495 260.2448597653925,7843.893603980765 258.5784031995857,7936.258571279981 256.41989016169975,8026.779907574306 253.83879388347904,8113.520310447264 250.8618224623519,8194.088568539823 247.50191162743423,8266.54020364547 243.62400850534434,8330.791937985725 239.0365548985027,8387.784218374369 233.49317665274043,8438.32139295281 226.91746608451095,8483.48769785213 219.99014180471568,8522.826601587674 213.7137710874829,8556.2348113971 210.44706507690407,8586.758792044797 267.32868384258876,8562.248445228186 322.3244535023865,8548.21480414818 376.9574757136182,8541.644982232756 433.14729039904717,8538.980769068201 492.43295971759017,8537.293275853366 554.3021708750822,8536.007538389635 617.6261688816537,8535.179941332093 681.677206350028,8534.88560522706 745.7266992537316,8535.180045911993 809.0506329034419,8536.00662934897 870.9199084177952,8537.293428700912 930.2061569480896,8538.980720800555 986.3971622354522,8541.642930857803 1041.0318255466464,8548.210452015435 1096.0286249162245,8562.242146300388 1152.9046446349785,8586.758072052411 1149.6309398157362,8556.232824379009 1143.3623241002867,8522.82472719409 1136.435080266568,8483.486989926656 1129.8592248954008,8438.322197413576 1124.315010010442,8387.786615667452 1119.7266232291117,8330.793933048426 1115.8525976079136,8266.54268138463 1112.489308037779,8194.092172524053 1109.5126744901736,8113.523174327591 "/><path class="sewinguide" stroke="#00a1ff" d="M 1398.3591633901224,3619.1583518788266 1226.394235243849,3602.6380833539165 "/>
<path class="sewinguide" stroke="#00ff4f" d="M 1188.8316955151022,2775.65736694724 1237.9293639767116,2941.290303958925 "/>
<path class="sewinguide" stroke="#00fff0" d="M 1188.8316955151022,2775.65736694724 1237.9293639767116,2941.290303958925 "/>
<path class="sewinguide" stroke="#ff00a8" d="M 174.5149722389299,2775.6568279585267 125.42085547160202,2941.2908429476383 "/>
<path class="sewinguide" stroke="#00f8ff" d="M 174.5149722389299,2775.6568279585267 125.42085547160202,2941.2908429476383 "/>
<path class="sewinguide" stroke="#00ff69" d="M -35.010068175729174,3619.167548373745 136.9549565058362,3602.6484513448254 "/>
<path class="sewinguide" stroke="#00dbff" d="M 178.40962423416613,6912.385011233847 351.1662222201758,6912.473786983169 "/>
<path class="sewinguide" stroke="#ff0045" d="M 153.03907154286634,8379.681978140381 325.03403825413903,8395.886394251498 "/>
<path class="sewinguide" stroke="#ff0011" d="M 200.81894980710365,8672.598653380264 220.0751803467045,8500.918568701985 "/>
<path class="sewinguide" stroke="#5e00ff" d="M 200.81894980710365,8672.598653380264 220.0751803467045,8500.918568701985 "/>
<path class="sewinguide" stroke="#ff4300" d="M 1162.528176489565,8672.598653380264 1143.2811127803918,8500.917538992206 "/>
<path class="sewinguide" stroke="#ff0051" d="M 1162.528176489565,8672.598653380264 1143.2811127803918,8500.917538992206 "/>
<path class="sewinguide" stroke="#0018ff" d="M 1210.3123566077481,8379.6830606429 1038.3176634131357,8395.890460297882 "/>
</g>
<g><path class="seam" d="M 5140.727741214733,7821.119577125176 5146.993525228287,7824.574639579486 5153.026079976586,7828.397951994001 5158.812019232487,7832.569177600559 5164.331263655272,7837.066756850632 5169.567337888455,7841.8706747603665 5174.499132881539,7846.961431200794 5179.112747552487,7852.32551123105 5183.395825383937,7857.944959286837 5187.3385841329755,7863.809735697797 5190.977578496804,7869.867067837687 5194.262352696185,7876.091599103164 5197.215045491397,7882.488542399992 5199.852132238926,7888.969149616475 5202.152503888273,7895.532841540861 5204.116160439439,7902.16082596966 5205.744131602205,7908.839716675726 5207.03847679613,7915.556384859359 5208.0450181064425,7922.279810513425 5208.723081996816,7928.999953967567 5209.078331871044,7935.705874555368 5209.115401423137,7942.382705841873 5208.837894637327,7949.012299192203 5208.250445207626,7955.580303026295 5207.360775957386,7962.073009332697 5206.172490870838,7968.475873460762 5204.694342481117,7974.776667606849 5202.932509046904,7980.962391684978 5200.895743101331,7987.020753534648 5198.594341742203,7992.940555061997 5196.036027792873,7998.710083318273 5193.230068641365,8004.320070915453 5190.184701965919,8009.760735610623 5186.908165444781,8015.025062505905 5183.407667046412,8020.103205001524 5179.688870174605,8024.98859869763 5175.761042217382,8029.672684131672 5171.631391143207,8034.147802837162 5167.308154630322,8038.407068629941 5162.801629776532,8042.443724039576 5158.117994840517,8046.250689811328 5153.2665172103025,8049.821852043375 5148.25543456413,8053.15128990448 5143.095043999804,8056.232760779099 5137.791008921117,8059.059957694829 5132.354141280762,8061.627796459627 5126.794223321653,8063.929841387368 5121.119492722031,8065.960300360535 5115.3402465797035,8067.7140891870895 5109.4672968473615,8069.185930604406 5103.510940622809,8070.372091914532 5097.482504713631,8071.26723149798 5091.392801072521,8071.8676810136585 5085.2547010717335,8072.171187971422 5079.080046373743,8072.172282038064 5072.881193495914,8071.869354292051 5066.6720435202815,8071.26015224324 5060.4670123837695,8070.344289750462 5054.279486313524,8069.119256896127 5048.1223366818,8067.584924966514 5042.008434860852,8065.739363255784 5035.961464175627,8063.5897797324 5029.99172172393,8061.135466470887 5024.102296635102,8058.375393761466 5018.346733817722,8055.326487458651 5012.671488363211,8052.107614685213 5007.157392489328,8048.620695584573 5001.821436407449,8044.872551984025 4996.677521199609,8040.8725156284545 4991.736973673393,8036.631527184277 4987.013180055944,8032.161042172799 4982.516952299957,8027.473095327079 4978.256528083675,8022.58145901543 4974.241689650011,8017.501514527696 4970.479644967428,8012.247742157662 4966.977087149498,8006.838097469626 4963.7381350353435,8001.28847660832 4960.772056012987,7995.612523228335 4958.078850082428,7989.827227541047 4955.660576663229,7983.947842122578 4953.519295174949,7977.991099756858 4951.655005617588,7971.973604514096 4950.066678281367,7965.910158472386 4948.7558577309555,7959.816335992155 4947.724088531025,7953.701340104564 4946.968281552233,7947.58261151902 4946.491011069032,7941.466843349094 4946.2891879520785,7935.369288170909 4946.361267636705,7929.300951007742 4946.711883816921,7923.268589330026 4947.335887943825,7917.285460651185 4948.234309727198,7911.355941237784 4949.408178876821,7905.4939965287185 4950.857495392692,7899.70561171209 4952.5801998552515,7893.996771975994 4954.57886653895,7888.382729896554 4956.851950879117,7882.864901324717 4959.400997440424,7877.452618005368 4962.224461658199,7872.153216620693 4965.325432661784,7866.975514060684 4968.702880741399,7861.92794107417 4972.358865316604,7857.021373970706 4976.2882378384975,7852.267461342181 4980.490998307078,7847.679846843186 4984.9630278832265,7843.270243422473 4989.69917801804,7839.052616518938 4994.691725888165,7835.040159289141 4999.933978380031,7831.246193603366 5005.420786944734,7827.678957139858 5011.152666437165,7824.352093553203 5017.125498018203,7821.273647451064 5023.328469735154,7818.461252613428 5029.727086310375,7815.935310165318 5036.317228904745,7813.708627122128 5043.084481581339,7811.793366930639 5050.047379116202,7810.089969526462 5057.108613935092,7808.713440620691 5064.243987858168,7807.686047687326 5071.42415415669,7807.020082886872 5078.62697407038,7806.73086315231 5085.822071160718,7806.816586491526 5092.969801601158,7807.281693527947 5100.068105972141,7808.136417002515 5107.097419787839,7809.377796499613 5114.062891597154,7810.955376240002 5120.900679393703,7812.93074573992 5127.631892227983,7815.293543544702 5134.239025033729,7818.045314219019 5140.727741214733,7821.119577125176 M 4634.304629566142,5936.404310420142 4609.361969556232,5947.359907628392 4566.5224387085955,5971.97949619471 4548.283189368896,5997.479744050691 4519.1763830071695,6025.743218102295 4486.225155180429,6057.702320555648 4456.955139818513,6093.4486955812035 4437.03746353681,6131.722235835233 4425.186018819638,6171.532103081574 4418.804392455793,6211.83906272439 4415.315220865008,6252.282201485658 4412.59472762527,6292.919440540528 4410.167186818047,6333.9502861589435 4407.760240206431,6375.085132465177 4405.050044064496,6416.3829303441535 4401.914577783269,6457.606074264053 4398.804854246551,6498.823039925271 4396.352600404599,6540.134867600004 4395.177186690306,6581.709142555011 4396.349511275258,6623.30684340752 4398.8022799721,6664.620730501815 4401.913033218599,6705.839498155148 4405.049529209607,6747.062770788771 4407.763844190663,6788.359796385412 4410.157404575133,6829.494642691645 4412.598331609502,6870.525874451228 4415.313676300338,6911.163628360988 4418.799758761781,6951.608569114373 4425.1762365767245,6991.919390168864 4437.025107019445,7031.735178246443 4456.94896155983,7070.0080749318595 4486.230303729331,7105.753420247634 4519.174838442498,7137.717671249889 4548.31922921121,7165.974967042811 4566.521408998816,7191.481393157474 4609.3578507171105,7216.139467126834 4634.304629566142,7227.067905739626 4660.043770091168,7236.773821415674 4698.4704796750275,7255.67208501481 4729.097652527472,7337.169109150831 4752.187349787605,7412.709133493687 4772.206452482675,7488.05943380951 4787.392612323576,7560.648245564963 4794.770482899929,7626.93317404499 4794.0769733628495,7688.503833723035 4786.161594281143,7747.936558469588 4772.19255140064,7807.727300435402 4753.773617704266,7870.285194365379 4733.87447619861,7939.1745163074065 4715.256808514624,8018.8164539172285 4699.757616900491,8124.841422449115 4723.011038015703,8220.784759948841 4739.166154759932,8305.15293673684 4755.253310658658,8394.695228189832 4765.779518888493,8462.571122637391 4776.22438004568,8529.968628401286 4800.309806663431,8534.769947902745 4831.898213595851,8543.52812835047 4872.666998075162,8554.98413233355 4924.290468204247,8567.775677946376 4985.849608004126,8579.46499566309 5058.575950372119,8586.791750802377 5139.832408560701,8584.891332912019 5227.0163910999845,8568.915993037452 5318.5524420260035,8534.530097925388 5407.16463203066,8481.13135182269 5485.017899395118,8409.34708127923 5544.014606406545,8321.065009794473 5579.010837857099,8220.12960710108 5591.474959893592,8112.572494772864 5585.12885851717,8006.216860687756 5565.209122815906,7907.7153379524225 5535.862908930243,7820.217229573265 5495.181649782263,7740.592539602264 5467.662655901867,7701.835035751461 5440.1771275893325,7663.145428389301 5403.674945584985,7621.2509136926 5367.09450563733,7579.2535567315845 5320.771981457591,7530.546289057369 5274.287792842334,7481.675490598659 5222.644758227422,7427.643529293288 5170.839029467212,7373.438190603647 5120.179367692554,7319.27957499529 5069.3925367600195,7264.987354542931 5026.031972763516,7216.200734858766 4982.597784517716,7167.332381960784 4950.621691852987,7127.687139565579 4918.618311879078,7088.0076593201775 4872.827632800901,7024.657725498512 4838.882220181213,6972.256567057803 4813.564230956358,6928.864210771831 4792.302268556381,6890.1487963083 4774.680845084905,6856.122937612021 4760.397225866498,6825.465130893611 4749.548203620516,6797.3843016143 4742.247046422801,6770.728976812189 4737.87953238936,6744.416287939496 4735.593576676938,6717.72376487157 4734.538124152058,6690.6543680240275 4733.971783772855,6663.465138700794 4733.692732422374,6636.254285472174 4733.630434980661,6609.012798377587 4733.690158147923,6581.735014013242 4733.630434980661,6554.452595954886 4733.693247277264,6527.210722719132 4733.970754063074,6499.999869490511 4734.536579587388,6472.811026308445 4735.591002402487,6445.741243319736 4737.871809566007,6419.046532118526 4742.247046422801,6392.7343581007235 4749.546659055845,6366.0764590241615 4760.402374415399,6337.9988475879145 4774.685993633806,6307.342328006729 4792.302268556381,6273.312479185051 4813.559082407456,6234.595134015683 4838.883764745883,6191.20831241978 4872.816305993316,6138.793252897035 4918.619341588858,6075.454002314342 4950.624266127437,6035.7713042258765 4982.598814227496,5996.129279673735 5026.034547037967,5947.257451505245 5069.3935664698,5898.474693232756 5120.181941967005,5844.17706680405 5170.840059176992,5790.023599744595 5222.6493919214345,5735.809379808098 5274.288307697225,5681.78668589075 5320.7766151516025,5632.9012140676705 5367.09707991178,5584.193367181703 5403.6759752947655,5542.211842008561 5440.197206930049,5500.315010464854 5467.663170756757,5461.627784306561 5495.180620072482,5422.86230020496 5535.854156397109,5343.2428231397225 5565.198825718103,5255.749155383993 5585.121135693817,5157.25123663289 5591.46981134469,5050.896889685008 5579.007748727759,4943.339326858762 5544.016150971215,4842.399193936068 5485.017384540228,4754.122689319811 5407.165661740441,4682.338273973411 5318.555531155344,4628.937267335962 5227.020509939106,4594.550881502831 5139.834982835152,4578.579053099506 5058.57852464657,4576.674604860712 4985.851152568796,4584.000475093157 4924.293042478698,4595.68871081014 4872.670087204504,4608.48028055679 4831.900273015412,4619.93683157319 4800.313925502553,4628.702493506037 4776.220776061448,4633.507891623581 4765.782608017835,4700.893386788239 4755.2383798668425,4768.769538663244 4739.168214179494,4858.313101164245 4723.014641999934,4942.6805700267705 4699.759676320051,5038.6214619657685 4715.251659965722,5144.649390913273 4733.852852293222,5224.292808730906 4753.767954300473,5293.175759343667 4772.167838365911,5355.729083936492 4786.1471783442175,5415.526132874712 4794.064101990595,5474.961238825132 4794.7622452216865,5536.532735142374 4787.387978629564,5602.816955696926 4772.207482192455,5675.4048020994605 4752.190438916947,5750.7553598427285 4729.101256511703,5826.294354475804 4698.463271706565,5907.8041212703565 4660.037591832486,5926.675097560313 4634.304629566142,5936.404310420142 M 5198.601549710666,5170.529859105656 5200.902951069794,5176.44991806045 5202.9386873055855,5182.508987835594 5204.700005884909,5188.695226768614 5206.178669129521,5194.996020914699 5207.365924506288,5201.399013756487 5208.255593756528,5207.892106204057 5208.842013476448,5214.460367465595 5209.119520262258,5221.090153886508 5209.081421000385,5227.767306957319 5208.726171126157,5234.473034474536 5208.047077526003,5241.193692783568 5207.040536215691,5247.916153084716 5205.744131602205,5254.634494546742 5204.115645584549,5261.313192182223 5202.151989033383,5267.941434038467 5199.8511025291455,5274.505319033437 5197.212986071837,5280.983738116637 5194.258233857064,5287.385186393754 5190.973459657683,5293.608237451423 5187.333435584073,5299.663703242335 5183.388102560585,5305.52918757877 5179.105539584025,5311.14779899536 5174.490895203296,5316.511299813864 5169.558585355321,5321.601155258234 5164.323025977029,5326.405008811107 5158.802236989573,5330.902008849429 5153.016297733672,5335.072590887374 5146.982713275593,5338.895131019553 5140.71744411693,5342.350322187586 5134.23953988862,5345.417312768419 5127.619535710619,5348.17178643091 5120.890382295899,5350.535227804305 5114.046931095559,5352.513042864951 5107.091756384047,5354.085409699576 5100.057808874338,5355.3290416868185 5092.958474793574,5356.182928522191 5085.812288917805,5356.646812778247 5078.616676972577,5356.733308399799 5071.413342203996,5356.442930241735 5064.232661050584,5355.7759357315 5057.098316837289,5354.747255660909 5050.0381117281795,5353.370018829664 5043.076758757986,5351.667393707822 5036.3084763716115,5349.747242394877 5029.718333777242,5347.517920720375 5023.321261766691,5344.992814911461 5017.119834614411,5342.180420073825 5011.147517888263,5339.102360112854 5005.416153250722,5335.775625239922 4999.929344686019,5332.208710560719 4994.687092194154,5328.414230020055 4989.695574033809,5324.401965860841 4984.959938753886,5320.183244890664 4980.488424032627,5315.773512756229 4976.287208128717,5311.185640829789 4972.357320751933,5306.4314707738195 4968.702365886509,5301.52567595269 4965.3249178068945,5296.478296036759 4962.224976513089,5291.300657833613 4959.400997440424,5286.001513876382 4956.851950879117,5280.589874125646 4954.57886653895,5275.0719168400865 4952.5801998552515,5269.4579391175075 4950.857495392692,5263.7497429500245 4949.408693731711,5257.960714564783 4948.235339436978,5252.09883421258 4947.336402798715,5246.169507869762 4946.712913526701,5240.186379190921 4946.363327056265,5234.154339297512 4946.29124737164,5228.086002134344 4946.493070488592,5221.988318242436 4946.971370681574,5215.872871856817 4947.727177660366,5209.753821486966 4948.758946860297,5203.639147383683 4950.0702822655985,5197.545324903451 4951.65912445671,5191.481621434295 4953.52341401407,5185.464254905257 4955.664695502351,5179.507641253259 4958.0834837764405,5173.62825583479 4960.777719416779,5167.84283143378 4963.744313294026,5162.167328551824 4966.983265408181,5156.617707690518 4970.486338081,5151.207869931897 4974.248897618474,5145.954805487338 4978.264250907027,5140.874989713327 4982.52467512331,5135.983353401677 4987.022447443967,5131.295857053987 4991.746241061416,5126.825886897399 4996.685758877852,5122.585284594389 5001.830703795473,5118.585634379985 5007.166659877352,5114.838005634328 5012.680755751235,5111.351665745439 5018.357030915526,5108.132792972001 5024.121861120929,5105.08305002999 5030.001503966843,5102.326002093048 5035.972276128321,5099.871688831536 5042.018731958655,5097.722941947348 5048.132633779604,5095.877444593479 5054.289268556438,5094.343691875618 5060.477309481574,5093.118852091867 5066.682340618085,5092.203182669673 5072.890975738827,5091.594366762029 5079.090858326437,5091.291889514045 5085.264998169538,5091.293691506161 5091.403098170325,5091.596683609035 5097.492286956544,5092.197519265881 5103.520722865723,5093.093109347357 5109.477593945165,5094.279335014345 5115.350028822617,5095.751562572828 5121.128760110055,5097.505673183689 5126.803490709675,5099.536518298025 5132.363408668785,5101.838949366933 5137.800791164031,5104.406273276842 5143.103796532938,5107.234113761183 5148.264187097264,5110.315520278941 5153.275269743435,5113.645086853769 5158.12623251876,5117.216892654428 5162.809867454775,5121.023987139903 5167.316907163456,5125.060706906399 5171.639113966559,5129.320358840346 5175.769279895625,5133.795734973281 5179.697107852848,5138.48014219163 5183.414875014874,5143.365857672042 5186.916403123024,5148.444386308828 5190.192424789272,5153.708777560972 5193.237791464717,5159.149506613003 5196.0427209064455,5164.759880351351 5198.601549710666,5170.529859105656 "/><path class="sewinguide" stroke="#00ffd5" d="M 5115.807831355283,7965.836988743422 5264.561572576555,8053.684482477824 "/>
<path class="sewinguide" stroke="#ffde00" d="M 5115.807831355283,7965.836988743422 5264.561572576555,8053.684482477824 "/>
<path class="sewinguide" stroke="#bf00ff" d="M 4511.728685236335,5905.204820045003 4621.316192180857,6038.754172344417 "/>
<path class="sewinguide" stroke="#0059ff" d="M 4511.728685236335,5905.204820045003 4621.316192180857,6038.754172344417 "/>
<path class="sewinguide" stroke="#ff9300" d="M 4511.676958409086,7258.214309748822 4621.3658595885445,7124.74821913868 "/>
<path class="sewinguide" stroke="#27ff00" d="M 4511.676958409086,7258.214309748822 4621.3658595885445,7124.74821913868 "/>
<path class="sewinguide" stroke="#00a6ff" d="M 4627.303809750772,7304.6260767836275 4769.637149599283,7206.717578391103 "/>
<path class="sewinguide" stroke="#004cff" d="M 4698.299716788247,8567.23733682413 4854.149043303112,8492.699807353934 "/>
<path class="sewinguide" stroke="#00ff23" d="M 4698.299716788247,8567.23733682413 4854.149043303112,8492.699807353934 "/>
<path class="sewinguide" stroke="#3600ff" d="M 4831.536544124711,6770.197202100945 4667.559863116321,6824.570886272765 "/>
<path class="sewinguide" stroke="#ff008e" d="M 4831.532602266959,6393.270792650954 4667.560715844733,6338.882640252259 "/>
<path class="sewinguide" stroke="#00ffe4" d="M 4698.298140045145,4596.234633975105 4854.143412077751,4670.780634417166 "/>
<path class="sewinguide" stroke="#2800ff" d="M 4698.298140045145,4596.234633975105 4854.143412077751,4670.780634417166 "/>
<path class="sewinguide" stroke="#ff00d2" d="M 4627.301098717991,5858.843589235513 4769.625444695138,5956.765168160091 "/>
<path class="sewinguide" stroke="#ff00d8" d="M 5115.813760231128,5197.629483566478 5264.571089347415,5109.788071555466 "/>
<path class="sewinguide" stroke="#d4ff00" d="M 5115.813760231128,5197.629483566478 5264.571089347415,5109.788071555466 "/>
</g>
<g><path class="seam" d="M 172.7337673894731,2079.951973761198 171.01730554245705,2145.3462676380655 165.5702051611594,2210.3317667321257 156.1623743773133,2274.7215787182417 142.45008319485893,2338.1228693152025 124.36487200261695,2400.0449818126613 102.29795007105149,2460.2835188192144 77.34427699325617,2518.86164880492 50.903127803158505,2575.800995675167 57.96273761130074,2580.1654205792665 67.41283476378796,2584.871709130449 82.68917063424442,2590.9583236422177 106.69271119063367,2599.2938243143153 140.89448132259514,2610.4666902862236 181.67335373991108,2623.134694859229 225.09476714874828,2634.757029150269 267.69209094898287,2642.349079360939 307.45805072672084,2643.108490323962 345.31137285506685,2638.6961839150754 382.0439846012024,2631.3445709381217 417.56903638083924,2623.128001745657 451.3746015409803,2615.5920707180167 483.8487197766718,2608.554004369186 514.9221752836147,2601.5766908973965 544.904588921394,2594.1885232232394 574.1923024201602,2586.0054195986368 603.9081821169767,2576.8919731874694 635.7159815894768,2566.9429172895316 674.233434347731,2556.7801966121665 707.4282528943899,2600.6453184010516 742.3397263586486,2635.750699088326 783.9002933022035,2669.3624857391737 856.29616318756,2712.343601681611 861.701174181585,2739.1299570532738 870.7437636884906,2754.5843562919617 882.0932248877322,2756.5444088588965 894.0597396728606,2742.228868637298 905.1784171675766,2711.963123917764 918.7732892566381,2666.6651609694936 935.6717277485727,2617.975848859574 958.0334201939845,2571.4823928562937 985.8254158799016,2531.716030848173 1015.8950008862753,2496.50459005352 1046.3360536959176,2462.582345903891 1075.1531898250546,2427.6309068287815 1100.7104578601231,2390.044955280595 1122.717286572475,2349.7709463507513 1140.960268610128,2307.3726461440037 1155.23809571102,2263.0410658246115 1165.1938447225305,2217.484645721468 1171.1584386253253,2171.644540573833 1174.0018534700955,2125.745227113827 1174.7263830143086,2079.9524886160884 1174.0018534700955,2034.1597501183503 1171.1586960527704,1988.2609515132342 1165.194488291143,1942.420846365599 1155.2424719775865,1896.861851988005 1140.9665755825326,1852.5282122490514 1122.7157420078042,1810.1340308814256 1100.7081410131173,1769.8584773869115 1075.1501006957135,1732.2725258387247 1046.331677429351,1697.3200570538352 1015.897060305836,1663.3890603710727 985.8247079544276,1628.1874018193334 958.0497024798866,1588.3911782275818 935.6811238503186,1541.9157421454581 918.7726456880254,1493.239301407793 905.2056401198952,1447.9325859263897 894.0589673905253,1417.6750788850984 882.0925813191194,1403.3600535183903 870.7422834806813,1405.3206209402153 861.7003375423884,1420.7760498886835 856.1595979279383,1447.5382070805078 783.8934714749086,1490.5404320734424 742.3361867312785,1524.1583969829721 707.4234261297944,1559.2648073800274 674.2064688228576,1603.1448599607274 635.7065854877309,1592.9713273306688 603.9034840661037,1583.0104297702567 574.1874756555646,1573.89852792376 544.8997621567984,1565.7149094442668 514.9173163405885,1558.32674177011 483.8436355846312,1551.3489134434305 451.3708688430264,1544.3041539810272 417.56250415942003,1536.7774903414104 382.03677663273976,1528.5624657136161 345.3042614218962,1521.2098230268818 307.4513254347178,1516.7985463277755 267.6919300568297,1517.5553830163476 225.08829928419033,1525.147948081908 181.66553438126638,1536.7687378082771 140.88498868555735,1549.4413760752946 106.69084484165676,1560.6111529178615 82.68781109555002,1568.9456238801788 67.41295543290285,1575.0322383919477 57.987454668333456,1579.7946461261604 50.90317607080446,1584.10346670212 77.34706042750624,1641.0464175565978 102.30215740085723,1699.6286663814253 124.3696263657435,1759.8702925173195 142.45421812319574,1821.794464434339 156.16525434685528,1885.1952401764092 165.57208759935165,1949.5860818723058 171.01841569831402,2014.5710661114758 172.7337673894731,2079.951973761198 "/><path class="sewinguide" stroke="#ff0026" d="M -31.457066645472914,2549.762346362383 133.26332225178993,2601.839644987951 "/>
<path class="sewinguide" stroke="#efff00" d="M -31.457066645472914,2549.762346362383 133.26332225178993,2601.839644987951 "/>
<path class="sewinguide" stroke="#8900ff" d="M 637.4935663654869,2634.955610290335 710.973302329975,2478.6047829339986 "/>
<path class="sewinguide" stroke="#3800ff" d="M 798.6278944173183,2776.652106818116 913.9644319578016,2648.0350965451057 "/>
<path class="sewinguide" stroke="#00fff4" d="M 922.5385799384115,2832.8686296009732 841.6478698370528,2680.2201881168194 "/>
<path class="sewinguide" stroke="#007dff" d="M 970.7642853312387,2781.948209913651 817.3551940144824,2702.509527360945 "/>
<path class="sewinguide" stroke="#27ff00" d="M 970.7642853312387,2781.948209913651 817.3551940144824,2702.509527360945 "/>
<path class="sewinguide" stroke="#000eff" d="M 970.7407387646205,1377.911793939407 817.3771960164302,1457.4383638307897 "/>
<path class="sewinguide" stroke="#0059ff" d="M 970.7407387646205,1377.911793939407 817.3771960164302,1457.4383638307897 "/>
<path class="sewinguide" stroke="#00ff36" d="M 922.5343484747829,1327.0339262042983 841.6508141634561,1479.6861808324825 "/>
<path class="sewinguide" stroke="#ffde00" d="M 798.4952066585884,1383.226226673494 913.8239891972883,1511.8501874875217 "/>
<path class="sewinguide" stroke="#008cff" d="M 637.4648430938399,1524.9702748771483 710.9480945518751,1681.3194450443068 "/>
<path class="sewinguide" stroke="#3500ff" d="M -31.459150198856634,1610.1353987675084 133.26550234046556,1558.0715346367313 "/>
<path class="sewinguide" stroke="#a2ff00" d="M -31.459150198856634,1610.1353987675084 133.26550234046556,1558.0715346367313 "/>
</g>
<g><path class="seam" d="M 4438.353947491014,2087.959511868248 4464.452456729389,2175.421001193341 4493.160250551223,2255.190558459068 4522.748961090164,2326.1859586862597 4552.056560859063,2387.712662628056 4580.926019116416,2440.770518481197 4609.297612694959,2486.3084038082934 4636.602941795928,2525.437890317255 4661.147618975725,2559.634037268463 4681.033889109127,2589.559462905585 4694.9184957876405,2619.2444513089904 4699.793656742803,2657.4909616812847 4690.083493513911,2705.662329771678 4663.298167852028,2760.556158163219 4625.044964366162,2821.647294867919 4583.248529526041,2888.4718556297207 4540.804922088957,2960.7780764073236 4500.260614341767,3037.9852008845987 4464.785567843339,3119.459957546619 4436.14830914146,3203.656237158158 4414.886861596374,3289.841401210482 4401.202018615253,3377.2920785828815 4395.2147710972895,3465.2318681009565 4396.479254707585,3553.256093821022 4405.541215629733,3641.136160171836 4422.997370681461,3727.6250886093694 4447.8370597133335,3811.6859613847896 4479.440912292459,3893.462423012458 4518.4823586152,3972.6568873658484 4565.1997764957105,4047.642927846865 4618.139215724109,4117.749173678707 4676.739484470092,4183.345805527417 4741.484546330436,4243.892225758301 4812.035111932508,4297.89072149581 4886.9840828614315,4345.156974689257 4965.935535706654,4386.047779777543 5049.005827673358,4419.78287417459 5135.198714549035,4445.014882632784 5222.972720792471,4462.2710165596745 5311.720832488137,4471.851178928795 5401.070809550429,4474.668464887888 5490.598411549835,4471.730445457047 5579.996270116914,4463.959483172037 5667.266233422859,4451.5344901071985 5748.808950930383,4431.410099587087 5820.720792862105,4401.907884669697 5884.80375133367,4368.046135969665 5944.945495620868,4334.814827082663 6006.265227896811,4301.420051768029 6074.622511666693,4265.356011275229 6167.921940591596,4218.288492069393 6237.568421006502,4221.9259418685515 6307.165475351951,4225.561332248149 6417.411867842188,4227.331403360605 6510.805515211994,4227.035876653639 6583.046349418544,4225.968067611395 6631.681601764994,4224.972853108667 6661.250232963218,4224.053837129686 6678.131809957499,4223.127098327353 6688.656988477554,4222.182854458753 6689.305705639187,4156.2973890166495 6691.269877045243,4090.0865352839487 6694.613859556996,4023.8782558256985 6699.330960060873,3957.7224915662473 6705.393376392803,3891.6460149598847 6712.762494436023,3825.6642716533165 6721.40433376778,3759.803004391051 6731.30087446692,3694.0874410627084 6742.45366109811,3628.52427478186 6754.8740204689375,3563.118654097409 6768.594388437481,3497.9045594321065 6783.674488171005,3432.92987229074 6800.173527981878,3368.2574049699124 6818.102319822796,3303.96078171892 6837.346565908136,3240.121349610412 6857.394500477056,3176.952773423815 6847.212215313864,3174.7661847051986 6835.445206798682,3172.303633765443 6820.781109816428,3169.3221090963807 6801.5883492201065,3165.472024227576 6776.814561614177,3160.024344634527 6747.389574930316,3150.8527196207688 6714.878548034684,3135.382359880485 6680.777649238161,3111.248022048166 6646.642770018885,3076.6852984151465 6613.017082286002,3031.8084867670477 6580.836592229869,2978.0638144903996 6550.561580122312,2916.352277643027 6522.4829389762845,2847.588258509898 6495.754247352322,2772.0858185740253 6468.97304052956,2688.9182190330766 6437.029898577804,2586.0095384377582 6454.359914181436,2529.6030663788533 6471.673454428582,2473.245505534516 6498.619414816202,2379.3545083407903 6522.858268191229,2287.993508077435 6545.283287788134,2196.6242701358365 6566.232218414877,2103.0627800718294 6583.622986895552,2007.2827802860147 6595.02187416425,1909.133418295568 6598.10534010157,1808.6327140216456 6591.102283885271,1706.045302877803 6573.956071477435,1603.0949190363797 6547.142943651483,1501.8656950928453 6511.289478808769,1404.340852084193 6467.08094880813,1312.0103800626189 6414.85973215154,1225.035943463641 6354.892008817224,1143.3845915742872 6287.442414218738,1067.0975127857728 6212.937248205154,996.3760153601596 6132.393349184589,931.8075487271493 6047.070567073325,874.0114833196345 5958.307524585844,823.5340801761017 5867.303318761386,780.8036985651848 5774.476526625674,746.0684985439533 5679.966673853946,719.5833332830487 5583.82164195099,701.6699870888366 5486.140283055722,692.7182051131873 5387.518284276085,693.1084651199477 5289.665993557275,703.8910710850953 5194.226827708762,723.5585278901682 5100.959319787052,751.0770069156745 5010.008658871174,787.3351477020738 4923.3802047584,832.8081613130068 4842.075350210141,885.6070451563845 4765.542170784118,944.8997937296675 4694.263085512434,1011.4314020589538 4630.243969047252,1084.8965611943636 4573.7149615244825,1163.210108830647 4523.8754635898895,1245.8036451690396 4481.410747102308,1333.148777288951 4447.972981404343,1424.2430827191904 4423.006638069484,1517.1290831672743 4405.573136632925,1611.507647942005 4396.248599716781,1707.4014306585507 4395.213226532619,1803.8909004830405 4402.259015704803,1900.170824367225 4417.042044166689,1995.4591377329127 4438.353947491014,2087.959511868248 "/><path class="sewinguide" stroke="#0018ff" d="M 4506.224339426934,2484.1395574718695 4655.627698805897,2397.4014794905247 "/>
<path class="sewinguide" stroke="#ff4300" d="M 4611.656734114041,2642.237780202823 4778.180257461239,2596.2511224151576 "/>
<path class="sewinguide" stroke="#b300ff" d="M 4611.656734114041,2642.237780202823 4778.180257461239,2596.2511224151576 "/>
<path class="sewinguide" stroke="#00ff24" d="M 5775.388030952253,4513.597479773985 5722.2298709085135,4349.222719400189 "/>
<path class="sewinguide" stroke="#ff2600" d="M 6190.167802753627,4301.753066346687 6145.676078429564,4134.823917792099 "/>
<path class="sewinguide" stroke="#3bff00" d="M 6773.852657743196,4236.4275297314825 6603.461319211912,4207.938179186025 "/>
<path class="sewinguide" stroke="#00fff8" d="M 6773.852657743196,4236.4275297314825 6603.461319211912,4207.938179186025 "/>
<path class="sewinguide" stroke="#00fff0" d="M 6942.805161882388,3189.8458872362185 6771.983839071723,3164.059659611411 "/>
<path class="sewinguide" stroke="#ff2600" d="M 6942.805161882388,3189.8458872362185 6771.983839071723,3164.059659611411 "/>
<path class="sewinguide" stroke="#00a1ff" d="M 6523.0471314452425,2578.11963863966 6351.012665710364,2593.8994382358565 "/>
</g>
<g><path class="seam" d="M 1950.2427792847368,2690.9508661395275 1969.9586324494871,2713.8922851912876 1986.8846156780467,2734.739789404665 2001.5587523306588,2787.1746708406818 2016.1269575896154,2839.3026987621483 2035.5678782430068,2910.4504960368345 2054.1939123189577,2976.7890337823014 2080.2052823671693,3051.955788329773 2079.3573163630344,3139.381237812553 2077.056429858797,3206.5250086062697 2076.978944197824,3266.501484473719 2081.060456339767,3323.4809900254 2092.2461936839295,3379.6861538222424 2112.01005706719,3436.3912417174547 2141.5847378103726,3494.5590323556835 2182.233561100271,3555.163116334268 2234.0053094377295,3618.615377565357 2291.9280291482296,3682.569107459486 2353.4058218754585,3747.7492217020363 2423.0476685963536,3819.114802595271 2472.447737882174,3824.0625580899505 2504.5836929903057,3825.9062534517034 2535.5424323920292,3832.1807899983896 2583.990277558452,3860.403075658779 2582.5455947365926,3841.4677425075497 2589.2883918059024,3831.5320728367565 2606.7738935863704,3824.9548016146414 2634.090292067479,3820.9960823640076 2683.3534099525104,3752.603273606702 2723.39521932688,3715.7113464504846 2764.934741576799,3687.4283079130537 2816.614588316359,3664.9188521141587 2819.915323017336,3623.496201924312 2822.198189600417,3590.299388314954 2825.466745870757,3558.5796933855368 2830.278837101873,3527.5221018448974 2836.909138377677,3496.1694984521823 2845.1259649975873,3463.9869489764887 2854.585393894959,3430.640827448977 2865.028195632585,3395.565308345333 2876.4945288918984,3358.8927093723346 2890.4872550973505,3321.97915831073 2909.053437292317,3286.501537537851 2934.626537115259,3253.794350929059 2968.963239451487,3224.7627133812985 3008.5985708900557,3199.8648457468344 3048.257328226128,3179.8189705974755 3082.413316495901,3165.226953299848 3106.834685929499,3156.0764373365873 3122.902019914952,3151.2646035329167 3133.599674823219,3149.254610041634 3141.6893322852534,3148.5858135392837 3128.7626131299294,3085.9737954889765 3117.391270597855,3022.5560295355303 3108.264952814433,2958.7304985090573 3101.5584530148813,2894.666074813538 3097.243711607685,2830.5269971589423 3095.0885290373694,2766.4249890564397 3094.8323887295023,2702.445516417801 3096.219150376216,2638.6431538613865 3099.0222778258294,2575.0328321790107 3103.0806214977138,2511.5625510267655 3108.1017438142444,2448.178250641181 3113.878673109567,2384.8835350064887 3120.235843866128,2321.6557505075207 3127.031670989127,2258.4223026047603 3134.1938173664926,2195.2650532257476 3141.7119859004215,2132.467687414974 3130.379772340001,2130.6981311574077 3112.763754844871,2128.268016075734 3082.967557785186,2124.5631202859613 3034.921042005662,2118.8997164939246 2964.597527410162,2110.6960186737147 2876.0913975128833,2100.0606612071597 2775.4866925511433,2087.3653693249744 2722.154419041534,2080.2675798088817 2668.8548388174513,2073.174423986801 2615.071037569149,2065.7023349655437 2561.3624051348147,2058.2415727518705 2507.852506688091,2051.087664052748 2454.393836302941,2043.9404484671977 2348.605314879372,2031.8120118191061 2244.6002507954045,2023.3215398250627 2142.3411883577774,2019.396286142291 2041.4485507987015,2019.2016709938011 1940.6698248840792,2021.3990716651113 1838.76652717557,2024.5571915615071 1734.685264567855,2027.196337728596 1629.203725372559,2028.3650583293165 1575.4437361629282,2027.7286976850476 1521.8074408406642,2027.087188491877 1467.8286383027048,2024.95465953673 1414.4739686053722,2022.844269341861 1440.8755986603444,2065.8403160761136 1456.8642885613217,2112.316781868017 1464.5696068478328,2159.974324778006 1465.9220019306265,2205.7392611116743 1462.3288296520243,2247.309159800114 1455.5287549761815,2284.9893297932044 1446.461516791408,2320.4422375313543 1436.187458744041,2355.013713697507 1494.4337647530226,2393.585612360398 1552.7708139363995,2432.217234190551 1610.9630601819117,2467.1748515243426 1669.105880357966,2502.1046666940642 1723.6353202009786,2532.499125136145 1778.1287202016783,2562.874019092398 1828.6879852727504,2590.7961443518097 1879.8380463303101,2619.041598482257 1923.8927634325057,2663.142008955957 1950.2427792847368,2690.9508661395275 "/><path class="sewinguide" stroke="#ff7800" d="M 1907.566401125036,2768.9426214248374 2066.2028302310573,2700.5369573844923 "/>
<path class="sewinguide" stroke="#00ff23" d="M 1907.566401125036,2768.9426214248374 2066.2028302310573,2700.5369573844923 "/>
<path class="sewinguide" stroke="#00a6ff" d="M 2376.430309545907,3891.833679567357 2469.6650276467994,3746.3959256231847 "/>
<path class="sewinguide" stroke="#007dff" d="M 2567.2472085965424,3945.1431627034685 2600.733346520362,3775.66298861409 "/>
<path class="sewinguide" stroke="#ff9300" d="M 2567.2472085965424,3945.1431627034685 2600.733346520362,3775.66298861409 "/>
<path class="sewinguide" stroke="#00fff4" d="M 2667.5052030350844,3857.0586708051246 2497.5859864381005,3825.876814209975 "/>
<path class="sewinguide" stroke="#3800ff" d="M 2693.411128388404,3883.7834366605493 2574.7694557465543,3758.208728067466 "/>
<path class="sewinguide" stroke="#8900ff" d="M 2882.1058760277724,3721.240300714714 2751.1233006049456,3608.5974035136032 "/>
<path class="sewinguide" stroke="#ff0026" d="M 3227.816406225671,3142.0024284153474 3055.5622583448358,3155.16919866322 "/>
<path class="sewinguide" stroke="#4900ff" d="M 3227.816406225671,3142.0024284153474 3055.5622583448358,3155.16919866322 "/>
<path class="sewinguide" stroke="#9500ff" d="M 3227.9399874885307,2127.374096255922 3055.4839843123123,2137.5612785740263 "/>
<path class="sewinguide" stroke="#00ff37" d="M 3227.9399874885307,2127.374096255922 3055.4839843123123,2137.5612785740263 "/>
<path class="sewinguide" stroke="#4300ff" d="M 1342.356281252869,1975.3021464402618 1486.5916559578754,2070.3863922434603 "/>
<path class="sewinguide" stroke="#ff00ec" d="M 1342.356281252869,1975.3021464402618 1486.5916559578754,2070.3863922434603 "/>
<path class="sewinguide" stroke="#ff6a00" d="M 1363.9583294416354,2402.386340738032 1508.4165880464463,2307.6410866569818 "/>
<path class="sewinguide" stroke="#00c0ff" d="M 1363.9583294416354,2402.386340738032 1508.4165880464463,2307.6410866569818 "/>
</g>
<g><path class="seam" d="M 3388.125397754712,8586.241395058592 3417.939099880664,8586.872337659603 3448.1044478966123,8584.08513451085 3477.807198793729,8579.178764500273 3507.2836709666094,8572.435935252533 3536.2754072603807,8564.016722393135 3564.717793386324,8554.041079066883 3592.613403618891,8542.630124886695 3619.8886137087848,8529.689754032173 3646.413937651124,8515.17339626958 3671.890759609601,8499.134861979546 3696.3087824864124,8481.203367150456 3718.195006440738,8460.946771548073 3736.3410670453136,8437.429068982043 3749.4853123917405,8409.606745125251 3756.4448633698184,8376.820946610413 3757.010946321577,8339.246305780594 3751.187937513583,8296.668771715202 3738.98716375342,8249.120410220363 3720.6243492400768,8195.391988051186 3696.4820311569592,8130.47036314194 3666.584922538798,8048.018701504224 3648.5346249437966,7993.611925838798 3630.519852336218,7939.30818550827 3610.135974951452,7868.686634288215 3589.7817017228726,7798.165093630577 3570.0053531085255,7716.920155320164 3550.257321513139,7635.781791972018 3533.3700811150657,7552.320789500524 3516.508840888947,7468.979812575306 3504.2035515860766,7391.594677019749 3491.925807019831,7314.349195853155 3485.7771524937953,7248.799287085729 3479.6369930734472,7183.321844144097 3479.5162596016985,7127.3805434784745 3479.39501127506,7071.590224009398 3490.083913650194,6970.930172146964 3510.321829673592,6874.108234777136 3538.267895685397,6776.4415492462385 3573.271335104415,6680.943689940245 3616.1301730104333,6591.135620739411 3667.892653959868,6510.359650877094 3728.876700847409,6440.095087166521 3797.055072542953,6379.539399547613 3868.8021609098146,6328.233080030882 3939.6896990375126,6285.507332113977 4005.7867698394825,6249.9954734909015 4066.837233007858,6219.940304421452 4122.851900495331,6194.743820950682 4172.479793070059,6175.086146388522 4214.279059612076,6161.251480634357 4248.344690848622,6151.362662758571 4274.627775565129,6143.178271996742 4293.055976649526,6134.736196362376 4269.767030546891,6120.131307692494 4242.658633441417,6104.313678328781 4207.331607723918,6085.588405972747 4149.188530120418,6055.689752789915 4089.3016390038615,6043.525533726955 4030.0127518422546,6031.482562990634 3966.111279719479,6017.70762040373 3902.2507385604736,6003.940400640179 3833.5060264857266,5985.6756659834155 3764.824641562472,5967.4248324086875 3695.457469925491,5943.61562543952 3626.3479831610475,5919.8957457937995 3613.414056037261,5972.983463230571 3600.0795718089107,6026.172349653264 3586.081697054557,6079.1251751088075 3571.540907818503,6131.953405680925 3513.706485721669,6162.627687755822 3455.177009523086,6192.463786069497 3396.662206688872,6222.662599653307 3338.4406137146198,6253.722250613507 3280.670548479059,6285.8733939408985 3223.379298291371,6319.0169200691225 3166.4965854590446,6352.89051043163 3109.669219527413,6387.156935075348 3079.4189204545846,6339.609571111859 3049.1009179636962,6292.498289240356 3018.7646381242066,6245.439265140208 2989.0227582554357,6198.10324910914 2966.735462341656,6107.6157001669835 2948.803066516507,6020.054328993194 2935.569751274078,5935.160163578009 2929.655355723076,5854.441213894781 2933.0914972601718,5778.794614589657 2946.430615182534,5709.518314840793 2968.2977895059225,5649.023637526373 2997.831667999059,5599.931451464883 2986.942487071643,5545.608597146557 2975.9856027261676,5491.1312863611765 2965.3494729772774,5437.290078792619 2954.722353188966,5383.477703097912 2930.016783855986,5277.733974049789 2900.4170039369064,5175.7409628766645 2865.7703589567864,5077.4036788513 2827.3410750984767,4981.723303486737 2786.580528297408,4887.222718103032 2744.6371023861393,4791.957058352512 2702.4215756654075,4694.6296621942465 2659.7380458494977,4595.546096005559 2637.9627731240066,4545.507091801018 2616.2315204916267,4495.563593178607 2593.897630210285,4445.548014871571 2571.5905123832326,4395.591902304351 2548.8184805903434,4346.424547428894 2526.0562310403675,4297.27804417649 2482.2307530780267,4205.158662659891 2443.3859813233375,4124.664189708784 2412.282825124917,4060.564241025842 2391.0811007470925,4016.5724649339713 2378.1958274104286,3989.307809369326 2370.80354089715,3973.0528107764007 2366.2416691426647,3962.4957112531542 2308.633268342622,3989.4056317984614 2250.7066872204455,4015.809964841607 2192.47634171306,4041.644868376208 2133.987796478246,4066.8737877050607 2075.231655414258,4091.50804963575 2016.2098492269351,4115.567733508992 1956.9424572569937,4139.063651277482 1897.4442815825269,4161.980357294513 1837.726262869951,4184.318881269866 1777.7970249386765,4206.07150038019 1717.677161984311,4227.2402740450425 1657.37504039882,4247.801518939476 1596.8777888099487,4267.740304271677 1536.1725358454428,4287.055600331863 1475.3156581157773,4305.742773426024 1414.3626312353697,4323.8399228160315 1417.9552886590816,4334.763856448535 1423.2110560918143,4351.829751493502 1431.6654882435446,4380.776952839273 1444.996883342554,4427.756174431443 1464.2653276077333,4496.3484894586945 1488.6213104702772,4582.343157201651 1516.9663890219758,4680.338577579932 1532.551175261603,4732.209692911196 1548.1431694696928,4784.1039767125185 1564.6052684421954,4836.27628215454 1581.0879616103055,4888.515518732287 1597.9734000162628,4940.294475038208 1614.8890861470186,4992.181808298513 1648.7096464558363,5094.625832355439 1681.7150627597682,5195.448063508282 1713.5556198746563,5294.547332771121 1745.765070518362,5392.292791100217 1780.5136567667384,5489.369195499517 1819.8475406671039,5585.926883596957 1865.3752576101192,5681.876013214198 1917.0800748118534,5777.372585382966 1944.840664349469,5824.6867200812 1972.6160559651778,5872.021963829933 2000.566369529827,5920.047627986404 2028.4688015896888,5967.912399989693 2083.1375096804964,5985.068652067887 2139.6398734626982,6015.791845357351 2195.5868375321133,6058.766010758771 2248.351998380184,6113.07033030105 2297.5031353265995,6177.373131810725 2343.936353307728,6249.665966361183 2388.6623124730027,6327.056379179364 2431.9917277486497,6409.569855582333 2441.163095334963,6464.704636062481 2449.6986171318977,6520.038150530239 2458.279703586614,6575.399853303236 2467.2052279628633,6631.016280533153 2401.9520043259067,6643.1197467190705 2336.92119800151,6655.526462435307 2272.069046324008,6668.750252862267 2207.5165401925933,6683.034515649287 2143.3496603739277,6698.43459769706 2079.5344264452583,6714.673893215835 2015.9459860957152,6731.195457928155 1952.2984661475236,6746.66337210771 1906.3923308602223,6716.7517188389 1860.7812074249969,6686.425864810936 1815.5113040682418,6655.48566018526 1770.6077199658534,6624.354959250215 1734.6457494550332,6687.9633502267525 1698.5540355118865,6751.803940758763 1659.2818054846207,6811.03670873734 1619.9788128776663,6870.316328510923 1581.338824655548,6922.994478882552 1542.6773412417645,6975.702619551535 1506.3146849126576,7024.056889841667 1469.5876400350223,7072.897569289301 1445.93134496824,7133.8472496129225 1431.9307672257125,7171.2985666073255 1422.1446629005181,7201.119347988018 1414.4159187165037,7227.4994828513245 1433.8036806024836,7221.58598829638 1458.8971930952177,7210.267289676827 1490.9447218759603,7195.058347507035 1531.3915933351834,7177.655608650164 1581.5665192307324,7159.442230768696 1640.1909861565553,7141.11918879562 1705.807826059705,7123.096049796076 1778.8200416054744,7105.805549305265 1860.201609532371,7090.72133073262 1947.9205263025567,7081.497576661231 2039.1078917541972,7081.548933436527 2131.3514820130526,7093.657934312514 2223.679122332731,7119.720146281132 2315.32741162481,7158.467867889021 2404.8905386116385,7206.680810511797 2490.6076995687845,7261.18952744548 2570.000125627451,7320.19601669982 2644.7933529520933,7388.405794543664 2681.732131903317,7430.22822955574 2718.7581787584277,7472.151318698847 2757.6176238774874,7525.207372559872 2796.5195445249874,7578.332545689904 2838.5921990136926,7644.262417366286 2880.7413094535905,7710.324349322002 2923.432562092853,7783.858885153863 2966.1832804719324,7857.502827649891 3005.253816095968,7931.309271220632 3044.3722332247908,8005.208453028467 3075.944679655615,8071.477421006898 3107.558057050209,8137.830149440276 3130.118226055787,8190.415239790504 3152.7175240330193,8243.088499040676 3185.0661142107974,8324.614065444672 3210.090893575692,8389.198267330263 3232.002860274527,8441.578381077337 3254.429424436102,8485.243642633537 3278.3251270268206,8520.96129840975 3303.6850769252255,8548.692686021563 3330.6485423791123,8568.60169021621 3358.944194861353,8580.690386502465 3388.125397754712,8586.241395058592 "/><path class="sewinguide" stroke="#3600ff" d="M 3831.471030353839,8436.801599640388 3667.4995944296425,8382.412051502264 "/>
<path class="sewinguide" stroke="#ff7800" d="M 4377.574989831134,6116.910365443736 4208.536963467917,6152.561512426127 "/>
<path class="sewinguide" stroke="#004cff" d="M 4377.574989831134,6116.910365443736 4208.536963467917,6152.561512426127 "/>
<path class="sewinguide" stroke="#cd00ff" d="M 3597.2372550530863,5838.570602745024 3655.4587112690087,6001.220888842576 "/>
<path class="sewinguide" stroke="#ff6a00" d="M 3597.2372550530863,5838.570602745024 3655.4587112690087,6001.220888842576 "/>
<path class="sewinguide" stroke="#2dff00" d="M 3122.692889277517,6301.766079494072 3096.6455497773095,6472.547790656623 "/>
<path class="sewinguide" stroke="#ff00e5" d="M 3069.8345266218357,6167.596349174655 2908.2109898890362,6228.610149043624 "/>
<path class="sewinguide" stroke="#e0ff00" d="M 3069.8345266218357,6167.596349174655 2908.2109898890362,6228.610149043624 "/>
<path class="sewinguide" stroke="#ff00ec" d="M 3082.8394634974293,5615.257507032978 2912.8238725006886,5584.60539589679 "/>
<path class="sewinguide" stroke="#ff0085" d="M 3082.8394634974293,5615.257507032978 2912.8238725006886,5584.60539589679 "/>
<path class="sewinguide" stroke="#ff00a8" d="M 2344.268738395837,3878.958872265258 2388.2145998894925,4046.03255024105 "/>
<path class="sewinguide" stroke="#9500ff" d="M 2344.268738395837,3878.958872265258 2388.2145998894925,4046.03255024105 "/>
<path class="sewinguide" stroke="#00ff4f" d="M 1375.367055265502,4246.764898841127 1453.3582072052375,4400.9149467909365 "/>
<path class="sewinguide" stroke="#ff8d00" d="M 1375.367055265502,4246.764898841127 1453.3582072052375,4400.9149467909365 "/>
<path class="sewinguide" stroke="#a6ff00" d="M 1975.0294221737054,6035.776098812041 2081.9081810056723,5900.049216022235 "/>
<path class="sewinguide" stroke="#11ff00" d="M 1975.0294221737054,6035.776098812041 2081.9081810056723,5900.049216022235 "/>
<path class="sewinguide" stroke="#65ff00" d="M 2351.284619727896,6440.352307462966 2512.698835769404,6378.78688884681 "/>
<path class="sewinguide" stroke="#ff008c" d="M 2351.284619727896,6440.352307462966 2512.698835769404,6378.78688884681 "/>
<path class="sewinguide" stroke="#00ff00" d="M 2400.7966900638507,6575.779462249457 2533.6137658618763,6686.253356244294 "/>
<path class="sewinguide" stroke="#00ffb3" d="M 1738.4153118234738,6544.19946193204 1802.8001281082334,6704.509941713499 "/>
<path class="sewinguide" stroke="#00d5ff" d="M 1738.4153118234738,6544.19946193204 1802.8001281082334,6704.509941713499 "/>
<path class="sewinguide" stroke="#ff8600" d="M 1339.3614025350926,7270.255003861175 1489.470434897915,7184.743961841473 "/>
<path class="sewinguide" stroke="#2800ff" d="M 1339.3614025350926,7270.255003861175 1489.470434897915,7184.743961841473 "/>
<path class="sewinguide" stroke="#ff008e" d="M 3287.364225174002,8643.352522458488 3373.9328595842226,8493.850954509222 "/>
</g>
<g><path class="seam" d="M 3965.5022063843903,2723.7049045433264 3957.948512863039,2723.7352809818476 3950.395849051468,2723.627676309799 3942.8452446594574,2723.3851796565214 3935.3013333810195,2723.005731602455 3927.764372643599,2722.4934509867207 3920.240025850988,2721.847822954429 3912.7300949953024,2721.0724514898097 3905.234837503987,2720.1704257222054 3897.7594019259436,2719.1438050711763 3890.3045605435073,2717.9951638111734 3882.8728876311297,2716.7306802008784 3875.4636109064754,2715.353443369633 3868.07956207144,2713.8665424467786 3860.7238302553646,2712.2761556909963 3853.3935837563536,2710.586916796299 3846.0898522841867,2708.8029446018077 3838.810576419304,2706.9309322210943 3831.558073008711,2704.976028203061 3824.331827197517,2702.9438959515005 3817.1274627191565,2700.8396840153137 3809.9457518559634,2698.6711152178536 3802.784635188378,2696.443852962913 3795.6417958693946,2694.1630457993924 3788.515689334342,2691.8359016957556 3781.402454171544,2689.469628620465 3774.3018329535553,2687.067830557751 3767.2091919863647,2684.640289750528 3760.123244132746,2682.190095328137 3753.0403854084693,2679.7249701139303 3745.9593286763075,2677.2500626568103 3738.8759550971404,2674.7725809252393 3731.786918114181,2672.2981883230095 3724.6917028725393,2669.8315185441325 3717.5854182507587,2667.3792647021805 3710.4685791037296,2664.9455456362753 3703.3357794551043,2662.5375693148794 3696.1862470225483,2660.1599694320043 3689.0179223865002,2657.8163499718817 3681.8284886999545,2655.512889193193 3674.616658825686,2653.255250499731 3667.3811456264693,2651.0470378757273 3660.120404537633,2648.891340450522 3652.8334058493974,2646.7948513376878 3645.5193772794273,2644.760144811676 3638.1783188277223,2642.790824856718 3630.8076562198316,2640.8925548766056 3623.4107360125413,2639.067394290899 3615.9847265039557,2637.3199767936107 3608.5311722587453,2635.6523618043007 3601.04955842202,2634.067638452311 3593.5416869858946,2632.5704404316525 3586.0085876601506,2631.161797452106 3578.4505178722325,2629.844283788122 3570.869022186811,2628.623047988603 3563.2664174508923,2627.497575198658 3555.644763084036,2626.468895128068 3548.005603650914,2625.5406117610646 3540.3489391515254,2624.7147845172076 3532.678373570102,2623.9908985416073 3524.995708898759,2623.371013253824 3517.3027471296123,2622.856158363639 3509.601805109668,2622.446848725942 3501.8949422584865,2622.144114050513 3494.1847328505187,2621.9484691922426 3486.4740085876606,2621.8650627000325 3478.7645714620285,2621.8892608798715 3471.0602828852975,2622.0205488768684 3463.361142857469,2622.258411836134 3455.670497935328,2622.602334902778 3447.989377828656,2623.050773512129 3440.3195845295677,2623.6037276641878 3432.6636923125143,2624.2586230845036 3425.023760597057,2625.0149449181854 3417.4003042380855,2625.8696040358927 3409.79538265516,2626.8226004376256 3402.210797840398,2627.871874703823 3394.647064648688,2629.0143377051436 3387.105985072146,2630.2484448769173 3379.5880739656623,2631.5711070898033 3372.094618466462,2632.9802649242397 3364.6261334294363,2634.4723143959964 3357.18390599181,2636.0436515208416 3349.767421298693,2637.6922168792144 3342.3771942049752,2639.4138916319935 3335.0119375734316,2641.2035272302774 3327.6708791217266,2643.058549399614 3320.355563414531,2644.9743244459933 3313.061871612723,2646.947248385183 3305.791605708418,2648.9726875231713 3298.5406468624956,2651.0454933110564 3291.308995074955,2653.160002345047 3284.094076071345,2655.3126106409113 3276.892800722326,2657.4966250850766 3269.7041393181153,2659.7074119835315 3262.525517584264,2661.939307932484 3255.3530741090945,2664.185104963472 3248.22130417025,2666.4288425748987 3250.8874802190735,2710.6327388815257 3250.6475578402474,2772.7757241268737 3248.466632525423,2864.010584942134 3247.195713229001,2920.6925043672877 3245.925566214914,2977.3316908365564 3245.0083522280493,3041.367282658225 3244.0913956686295,3105.3802208647257 3243.868463501179,3173.0949657316573 3243.6470758983996,3240.8050769045776 3243.6468184709547,3308.512613803047 3243.6470758983996,3376.2309626542096 3244.354486517514,3440.2372077471377 3245.0621545640734,3504.2722847139166 3246.147211245139,3560.8985998109306 3247.2312382164237,3617.573311267622 3249.106854581368,3708.7716173856793 3249.104280306917,3770.869810255581 3246.2903409046103,3815.047448962808 3253.4089820437553,3817.317959028525 3260.5682967192247,3819.590528513802 3267.7340470808217,3821.8476523523736 3274.9098371127775,3824.085726560009 3282.0977262346523,3826.297543168244 3289.2997738660074,3828.4784684830684 3296.5190691361836,3830.620264826239 3303.7576714647416,3832.7219024879746 3311.016610561462,3834.775658644923 3318.297945845906,3836.778444167743 3325.6029644552978,3838.724080797753 3332.932953526864,3840.6084496958306 3340.288427915494,3842.427946877745 3347.668872766298,3844.1784535043744 3355.0766049262825,3845.855850736598 3362.510852113111,3847.4570494450736 3369.9716143267838,3848.9784456455704 3377.4588915673016,3850.416950208748 3384.970881842548,3851.768959150374 3392.5068128701882,3853.0313833411083 3400.065654940441,3854.2031930711696 3407.646635770973,3855.2797546465467 3415.2479533696664,3856.26158292213 3422.868835454187,3857.1445590587973 3430.5067077500835,3857.928168201659 3438.160025692686,3858.6108657860445 3445.8282744271037,3859.190077537503 3453.5075925416604,3859.665803456034 3461.1969503265755,3860.0364989769673 3468.894803217179,3860.302164100303 3476.5985769390195,3860.46073940648 3484.305697217646,3860.5117100406082 3492.0151343432785,3860.455590857578 3499.7243140414657,3860.2877481633777 3507.429889755422,3860.012815652019 3515.1305743479215,3859.6313081783915 3522.823278689623,3859.143740597386 3530.505943360966,3858.5516574736735 3538.177023797279,3857.856088517033 3545.8347180064484,3857.0580634372463 3553.475422004241,3856.159126798983 3561.1004229278833,3855.1597934571337 3568.7058593656984,3854.062637686149 3576.2907016079057,3852.86971890559 3583.8536625172806,3851.582581680127 3591.392940101707,3850.2038002842114 3598.9072472239595,3848.7364638471836 3606.3958116017025,3847.182631788605 3613.8568312428206,3845.545393237816 3621.2915932845394,3843.8278373241583 3628.697780879853,3842.033568031863 3636.0777108757666,3840.1651596353813 3643.4293238527207,3838.226730973834 3650.754164375385,3836.2218860314533 3658.052489871204,3834.15525850225 3665.3250726225147,3832.0299375155655 3672.572427484206,3829.850556765412 3679.796356448394,3827.62072023602 3686.998661507194,3825.346091331182 3694.1803723703865,3823.0307888900193 3701.3427761751973,3820.679961461434 3708.489476905858,3818.299272449218 3715.620217134922,3815.891810982712 3722.7401454112924,3813.4652998852694 3729.8495191624143,3811.023343141121 3736.951170090183,3808.57314871873 3744.0489596062757,3806.1193503121076 3751.143917420472,3803.667611325046 3758.239904944449,3801.2256545808978 3765.339239025212,3798.7975989187844 3772.4444939372124,3796.3906523071687 3779.5582439549007,3794.010478149843 3786.683835635063,3791.6642844152693 3793.8222986874803,3789.35773450724 3800.976722241493,3787.098036394217 3808.1486508617722,3784.889823770213 3815.341173677659,3782.7413343134704 3822.5558352538233,3780.657716572891 3829.7921207353756,3778.644633952267 3837.0533766791023,3776.709294420061 3844.340375367338,3774.857361380065 3851.651572235412,3773.0934685262905 3858.989026702886,3771.4248238272007 3866.351194205088,3769.855546121916 3873.740649016471,3768.390269104449 3881.1540445802466,3767.0341413237015 3888.5895789043007,3765.7912816187945 3896.047509416078,3764.6673533935204 3903.525519268572,3763.6633863576594 3911.022321324558,3762.7845290601135 3918.53508388214,3762.0343854851135 3926.0607178119762,3761.4145001973307 3933.598708259177,3760.9274474712156 3941.1441641022857,3760.5747718714388 3948.696055631521,3760.3569882528905 3956.250521435208,3760.275641180241 3963.8042149565595,3760.3307306534907 3971.355591630905,3760.52277152753 3978.9007900465685,3760.8527935121388 3986.437235929099,3761.3192520426464 3993.961840149155,3761.9206025543826 4001.4709987225056,3762.655815337567 4008.9641967942603,3763.523345827529 4016.435256105737,3764.520619749818 4023.8844340843807,3765.6455776848725 4031.308899028296,3766.893585938681 4038.706076663031,3768.261040527013 4046.074422423916,3769.7469117400874 4053.41290660117,3771.3445064643315 4060.719727202678,3773.049191005735 4067.9938545186587,3774.8583910898456 4075.2365756863383,3776.7659284579813 4082.4466035684914,3778.767169416131 4089.6241955925625,3780.8564505605023 4096.770124040887,3783.0275936324133 4103.886963187917,3785.2749352280716 4110.974713033651,3787.5938416534655 4118.033631005534,3789.9771049401324 4125.0673210877985,3792.4185468293904 4132.077070417669,3794.9125039174473 4139.064938414707,3797.4527979456207 4146.033499353363,3800.0327358003387 4152.985070080644,3802.647168932699 4159.923254580778,3805.2883745193485 4166.848310281214,3807.9522337211665 4173.764098593626,3810.6315385696903 4180.674738357136,3813.3206256611275 4187.387158987925,3815.939692487499 4192.635847165918,3774.7729251780747 4196.32555473643,3711.1528212527855 4198.866106192048,3620.1136052957954 4199.798765825619,3563.374022122941 4200.732197741524,3506.6159041740393 4201.431113254951,3442.437182692899 4202.130543623267,3378.231173902579 4202.669596693291,3310.3218138871575 4203.207620053535,3242.405245903273 4202.8953605626375,3174.4876482096083 4202.582843644295,3106.5772584844062 4202.098622620076,3042.3671308549647 4201.6133718860765,2978.184290534703 4200.870693706984,2921.415875487998 4200.128530382783,2864.665480362449 4197.8943175868235,2773.588679998476 4194.407462843044,2709.919150003729 4189.268953611552,2668.7137685775406 4182.543919035954,2671.3163600474263 4175.622724747194,2673.9884569274873 4168.695094772308,2676.6502567097446 4161.757939981953,2679.2960959904062 4154.80920095657,2681.92134107546 4147.84604599426,2684.5182691415544 4140.866673102911,2687.081216784896 4133.868250580624,2689.6045206016934 4126.848204152949,2692.0820023332644 4119.805246682661,2694.506454011146 4112.737061322754,2696.872212231547 4105.640558943887,2699.1741284455647 4098.515996973505,2701.404479829847 4091.3623457018275,2703.5581178354914 4084.1772882818486,2705.628349348926 4076.960567286123,2707.6105406761385 4069.7124401420965,2709.5000581231184 4062.433421704659,2711.2891788665115 4055.122224836585,2712.975328631868 4047.7803941025445,2714.5518143056147 4040.4087017848733,2716.0160616133016 4033.0097221580227,2717.363436860916 4025.5834552219917,2718.588791499557 4018.1327326786773,2719.690066109663 4010.6611585123105,2720.663141852113 4003.1674455856655,2721.506474162236 3995.658801867205,2722.2169739106916 3988.1341976471494,2722.7930965328087 3980.597751764619,2723.233297463917 3973.0528107764007,2723.5375767040164 3965.5022063843903,2723.7049045433264 "/><path class="sewinguide" stroke="#ff7700" d="M 3162.239451487295,2658.1623279329942 3334.2031568532043,2674.6953572168036 "/>
<path class="sewinguide" stroke="#ffde00" d="M 3162.239451487295,2658.1623279329942 3334.2031568532043,2674.6953572168036 "/>
<path class="sewinguide" stroke="#2fff00" d="M 3160.2806136561167,3823.018621923723 3332.300068153104,3807.076276001894 "/>
<path class="sewinguide" stroke="#d4ff00" d="M 3160.2806136561167,3823.018621923723 3332.300068153104,3807.076276001894 "/>
<path class="sewinguide" stroke="#2fff00" d="M 4269.88518169958,3841.5383098059356 4104.88913627627,3790.3410751690626 "/>
<path class="sewinguide" stroke="#ff00d8" d="M 4269.88518169958,3841.5383098059356 4104.88913627627,3790.3410751690626 "/>
<path class="sewinguide" stroke="#00ffd5" d="M 4271.836087547607,2643.3389502330297 4106.701819675497,2694.0885869220515 "/>
<path class="sewinguide" stroke="#ff7700" d="M 4271.836087547607,2643.3389502330297 4106.701819675497,2694.0885869220515 "/>
</g>
<g><path class="seam" d="M 2020.505541003195,1888.9552254394314 2051.4606764206874,1882.7048870725837 2083.59315625831,1880.7958051397773 2132.9923245480727,1875.8923271656538 2202.621557324158,1804.4387060861975 2264.113765988312,1739.3522954336609 2322.030050012685,1675.39393184552 2373.800768640363,1611.9421854693212 2414.448562220481,1551.3406757651876 2444.023629104832,1493.1744296916297 2463.78993804882,1436.471401215978 2474.980823941885,1380.2662374191352 2479.0607915191567,1323.2795238989916 2478.9936029559876,1263.317978823358 2476.6803599343857,1196.1654554965085 2475.827760236239,1108.738976303948 2501.845437256856,1033.5681029173547 2520.4718574739745,967.2295651718879 2539.9143226920364,896.0807381874212 2554.4813695274897,843.9501359915038 2569.1120009418814,791.4611947920175 2586.0857369615055,770.6734137459018 2605.7985009969148,747.7294204196905 2632.1528931157122,719.9251969301316 2676.202847810174,675.8206676173106 2727.351364303063,647.5736689221923 2777.9111442290255,619.6525733725613 2832.4039006611124,589.2781942711979 2886.933726645292,558.8837358291174 2945.077061676237,523.9534058045057 3003.2693079217493,488.99630332560423 3061.607000673739,450.3636517856711 3119.852534400385,411.7927828325601 3109.579634776521,377.22027695662706 3100.5109807408,341.76839892825774 3093.711292206124,304.0882289351671 3090.125327895985,262.5178153918374 3091.4709011514838,216.75236420327911 3099.179051139891,169.09482129329035 3115.1665826173653,122.61887035627655 3141.566281966499,79.62385333180455 3088.2116122691664,81.73372867178331 3034.2290770332534,83.86934675627134 2980.5961282677754,84.50776682010093 2926.833178642526,85.14515717415014 2821.353055298178,83.98107026744151 2717.2738521100237,81.33523098678 2615.370940542682,78.17814080016464 2514.59272948295,75.9807401288544 2413.700220637597,76.17689984201496 2311.4412869136922,80.100608960116 2207.4362228297246,88.59108095415938 2101.647572692433,100.71951760225105 2048.1880013112254,107.86673318780134 1994.6779741507794,115.01961217714369 1940.9695991438896,122.48037439081675 1887.18541175442,129.95297826696407 1833.8858315303373,137.0466489439351 1780.5534293070052,144.14392360513745 1679.9480807766527,156.84024519710334 1591.442208306819,167.4740580989875 1521.1190798524867,175.67878562897812 1473.0725640729631,181.3421894210148 1443.2762382995552,185.0460555010068 1425.6600920907024,187.4766854375709 1414.3280072440048,189.2457268402471 1421.8472054877138,252.04360750591064 1429.0089657239118,315.2013717398136 1435.804406705743,378.43430478768363 1442.1615774623042,441.662604141542 1447.938764185072,504.9578346311244 1452.9596290741574,568.3431647264892 1457.0190024558224,631.8170498629659 1459.8218724779904,695.4247972708906 1461.208634124704,759.228704391976 1460.9526225305594,823.2102364501752 1458.797568673967,887.3127594075679 1454.48231241188,951.4528667719442 1447.775040329993,1015.5183201772436 1438.6480789779582,1079.3423066390462 1427.2764790184387,1142.755438898481 1414.3507895728953,1205.3643678194467 1422.4409618898198,1206.0321346120168 1433.140032649035,1208.0416132484095 1449.2081389168234,1212.8529321971896 1473.62693407597,1222.004992725121 1507.7860114750843,1236.5964951678584 1547.4450262386017,1256.6434000269976 1587.0802289634478,1281.540237951681 1621.4146144526703,1310.5739349190023 1646.9864271383865,1343.279576963124 1665.552094478463,1378.7556531713321 1679.5444345427477,1415.669204232937 1691.0112826569514,1452.340773496155 1701.460262653259,1487.4152628900185 1710.914543001729,1520.7639586919815 1719.130211198136,1552.9465081676751 1725.75948276416,1584.3001412701706 1730.5717027089981,1615.3582476656998 1733.8424471126218,1647.0779425951168 1736.1370266444546,1680.2752710593654 1739.4257909692349,1721.6963766845413 1791.1114298263096,1744.1991393698638 1832.646189668494,1772.4883561659774 1872.692761450598,1809.3802833221946 1921.9502159318372,1877.7736069343903 1949.2677728364488,1881.7426232828277 1966.7530171894718,1888.3219539245038 1973.5909336997433,1898.2674058382104 1972.0499730134193,1917.1811150840522 2020.505541003195,1888.9552254394314 "/><path class="sewinguide" stroke="#ff00d2" d="M 2179.6323774367256,1948.5966514424847 2086.3522716594202,1803.188002888823 "/>
<path class="sewinguide" stroke="#00ffe4" d="M 2648.427584908188,825.6701326694033 2489.796416975575,757.2522569146317 "/>
<path class="sewinguide" stroke="#ff8600" d="M 2648.427584908188,825.6701326694033 2489.796416975575,757.2522569146317 "/>
<path class="sewinguide" stroke="#ff002c" d="M 3192.081486721422,459.1656713228339 3047.6235820793486,364.4198943422863 "/>
<path class="sewinguide" stroke="#00d5ff" d="M 3192.081486721422,459.1656713228339 3047.6235820793486,364.4198943422863 "/>
<path class="sewinguide" stroke="#a6ff00" d="M 3213.6821271038484,32.078946995955306 3069.4504368291496,127.16875966765382 "/>
<path class="sewinguide" stroke="#ff00e4" d="M 3213.6821271038484,32.078946995955306 3069.4504368291496,127.16875966765382 "/>
<path class="sewinguide" stroke="#ff2600" d="M 1328.0999171652113,184.1536777319256 1500.556097322798,194.33777594856858 "/>
<path class="sewinguide" stroke="#ff8d00" d="M 1328.0999171652113,184.1536777319256 1500.556097322798,194.33777594856858 "/>
<path class="sewinguide" stroke="#a2ff00" d="M 1328.2235869187552,1198.7826464209318 1500.4779922270354,1211.9460892179613 "/>
<path class="sewinguide" stroke="#3bff00" d="M 1328.2235869187552,1198.7826464209318 1500.4779922270354,1211.9460892179613 "/>
<path class="sewinguide" stroke="#008cff" d="M 1673.9349698450656,1778.0183602515062 1804.9166120934042,1665.3743931175766 "/>
<path class="sewinguide" stroke="#ffde00" d="M 1862.622851411797,1940.554799061465 1981.2775804518776,1814.9924148073158 "/>
<path class="sewinguide" stroke="#00ff36" d="M 1888.6318483007492,1913.8612251666627 2058.5500190987377,1882.673586509758 "/>
<path class="sewinguide" stroke="#000eff" d="M 1988.8672967207508,2001.9065046305482 1955.2326493060878,1832.4557255375562 "/>
<path class="sewinguide" stroke="#bf00ff" d="M 1988.8672967207508,2001.9065046305482 1955.2326493060878,1832.4557255375562 "/>
</g>
<g><path class="seam" d="M 7047.197815163374,4848.244084076894 6965.654582800958,4828.1083667491985 6878.381015510783,4815.668442892545 6788.979038104582,4807.8928469135235 6699.446287556274,4804.945302667214 6610.09116194508,4807.753836093173 6521.336871990732,4817.325503356606 6433.557202343504,4834.573657032698 6347.362770903157,4859.793823828418 6264.2760035799665,4893.524284531453 6185.309619942929,4934.414059909958 6110.357045029774,4981.673619989834 6039.800301169021,5035.661303774649 5975.0387639521905,5096.210555707429 5916.424594124172,5161.81079154037 5863.478976637091,5231.912661105645 5816.753321078338,5306.890463908419 5777.695399399111,5386.093938222388 5746.079705157512,5467.879924665524 5721.232293302286,5551.937708311604 5703.766356007644,5638.423547619796 5694.691523713242,5726.317000197754 5693.419317279594,5814.3543547175195 5699.3988419742045,5902.295688800265 5713.075447277082,5989.753831568572 5734.329686853706,6075.94877786381 5762.960767296902,6160.155869428043 5798.428605826867,6241.637319203635 5838.970854154498,6318.864523021628 5881.413946736691,6391.1825854617055 5923.209351867032,6458.016671038976 5961.464614772459,6519.124669241329 5988.248395869671,6574.027765020894 5997.953925404551,6622.208529213032 5993.096784370545,6660.4742179299865 5979.190553786643,6690.158305337334 5959.286263732086,6720.077166574606 5934.734893438716,6754.273828380704 5907.423386079065,6793.40910700718 5879.0409805478275,6838.953299306681 5850.166888596464,6892.025056241857 5820.854140278662,6953.56978010481 5791.255132641918,7024.587447806002 5762.538586286951,7104.3878963651405 5736.434413644783,7191.890316654003 5715.132292563372,7284.446423831201 5700.381699959567,7379.804113893341 5693.417257860033,7476.155216466094 5694.594216138997,7572.643334796497 5704.001129837569,7668.464909114694 5721.471700826222,7762.7740328361115 5746.450915533335,7855.583062478112 5779.881473262838,7946.6077981413155 5822.333833233054,8033.915474567966 5872.159944940503,8116.478537932546 5928.665269138323,8194.752795705022 5992.650920035644,8268.184521451 6063.911985386171,8334.707023284416 6140.429204310599,8393.989973525571 6221.701623000776,8446.771336213467 6308.293522416347,8492.233682674643 6399.23182681486,8528.49568487272 6492.485948509427,8556.015796953581 6587.895252774308,8575.68234874029 6685.714592780146,8586.470412971736 6784.32886873643,8586.871625711825 6881.9937522752125,8577.928905986702 6978.125397951024,8560.026299343715 7072.622894205387,8533.55295965607 7165.438874388406,8498.831274575707 7256.43432767973,8456.115952470327 7345.1891324889675,8405.653689278408 7430.5067660513305,8347.873182142106 7511.047575942554,8283.320386404816 7585.552227101248,8212.615847012148 7653.000791989954,8136.342765840961 7712.973149018281,8054.704735821891 7765.198484513993,7967.743556736335 7809.417311612435,7875.426342228184 7845.2795289882815,7777.911281462445 7872.102439057148,7676.691711048102 7889.258433707898,7573.748342104557 7896.271787021999,7471.165886439032 7893.199133037375,7370.668271294451 7881.809513156699,7272.520582582397 7864.429556628718,7176.74096893775 7843.485774550877,7083.180251156078 7821.070022341995,6991.80946864981 7796.8352878060905,6900.447953531564 7769.905802774956,6806.554639490832 7752.596381366931,6750.192959807374 7735.273058876871,6693.782626336792 7767.218260248189,6590.874074455197 7794.018001846997,6507.7113660357045 7820.755960858983,6432.209569668445 7848.842839683253,6363.446580245096 7879.124544904384,6301.735043397723 7911.312242928979,6247.991915685746 7944.944108920544,6203.115876319982 7979.083621833831,6168.554954679078 8013.189669179256,6144.424220830991 8045.704814914009,6128.953088808372 8075.130316452762,6119.787899480741 8099.906163478251,6114.343309017033 8119.099953784354,6110.495798422679 8133.765080476388,6107.516075745732 8145.53260384646,6105.054554515757 8155.715403864542,6102.868480652031 8135.671588134744,6039.692696496972 8116.433005453195,5975.846056420001 8098.509877016069,5911.544542047552 8082.017015463878,5846.866668750377 8066.942579134147,5781.888892479669 8053.2283894242855,5716.6704215478 8040.814723167031,5651.261969161453 8029.667599939632,5585.694426614038 8019.776207789395,5519.97500187402 8011.1415764261,5454.110388054968 8003.778121786671,5388.124783336722 7997.721368858533,5322.044445318684 7993.01096146823,5255.885849357337 7989.673672070049,5189.674480769746 7987.716708632455,5123.460537907704 7987.073140019724,5057.572240763704 7976.548476354559,5056.627482040214 7959.664839940718,5055.69868381832 7930.095693887603,5054.776836137444 7881.458896976483,5053.7762156583685 7809.213943930812,5052.701198647662 7715.814633157213,5052.395374842892 7605.563606972964,5054.15592113988 7535.962433788394,5057.78487583335 7466.3144088088175,5061.414602809155 7373.013435319244,5014.3360142231795 7304.656666404251,4978.263478624693 7243.3374489831995,4944.860465631815 7183.194674986221,4911.624780478248 7119.109142240204,4877.756081237198 7047.197815163374,4848.244084076894 "/><path class="sewinguide" stroke="#ed00ff" d="M 7073.787129937337,4766.06026765119 7020.6085003894095,4930.428415357489 "/>
<path class="sewinguide" stroke="#32ff00" d="M 5741.271563828756,5264.893826939789 5892.235078327918,5348.887100877049 "/>
<path class="sewinguide" stroke="#5e00ff" d="M 5909.834580243524,6637.482662872142 6076.358988497565,6683.466030415276 "/>
<path class="sewinguide" stroke="#00ffea" d="M 5909.834580243524,6637.482662872142 6076.358988497565,6683.466030415276 "/>
<path class="sewinguide" stroke="#ff0045" d="M 5804.340531683318,6795.582289387133 5953.741429412337,6882.324566653675 "/>
<path class="sewinguide" stroke="#00dbff" d="M 5930.536517281309,8328.209542503368 6054.765322789979,8208.159307328047 "/>
<path class="sewinguide" stroke="#00ff69" d="M 7821.289873424712,6701.677286028685 7649.25624432903,6685.88848149979 "/>
<path class="sewinguide" stroke="#00ff37" d="M 8241.127151291908,6089.982576819242 8070.303656437175,6115.754384484821 "/>
<path class="sewinguide" stroke="#00f8ff" d="M 8241.127151291908,6089.982576819242 8070.303656437175,6115.754384484821 "/>
<path class="sewinguide" stroke="#00ffac" d="M 8072.270104467199,5043.335024853427 7901.876175572249,5071.80894181909 "/>
<path class="sewinguide" stroke="#4900ff" d="M 8072.270104467199,5043.335024853427 7901.876175572249,5071.80894181909 "/>
<path class="sewinguide" stroke="#ff0f00" d="M 7488.568862611829,4977.95257867249 7444.059955005806,5144.877141800712 "/>
<path class="sewinguide" stroke="#ed00ff" d="M 7073.787129937337,4766.06026765119 7020.6085003894095,4930.428415357489 "/>
</g>
<g><path class="seam" d="M 7668.441290146607,797.8510588341055 7602.639746051603,798.8025106711676 7536.84077623105,797.8510588341055 7471.064974880555,795.0471591021571 7405.387510814086,790.4469306583528 7339.864503214673,784.1126709444048 7274.536110763749,776.1149150802687 7209.428591060715,766.5489112206285 7144.576439383213,755.5279274413251 7080.235023756774,743.2743810549184 7079.19244260415,753.5555183570258 7076.822050689737,770.1822421806652 7071.806334349553,799.1294435264352 7062.734076329601,846.5388263793548 7048.185821697639,916.7362015267593 7027.600378623366,1006.8152131135538 7000.141107910231,1113.0447077505664 6979.751309694228,1179.2365118523305 6959.391373061856,1245.3217409918261 6981.5677177468015,1346.6508467840565 6999.717897190499,1421.1096758575236 7017.891759959144,1487.7921366696341 7037.599890300542,1553.1787077231486 7059.00395265021,1622.230015885001 7077.016150983337,1697.3164530696038 7087.439903090026,1780.0232574838371 7093.223782926366,1867.4996776007456 7098.149914515657,1956.115471589634 7102.8330345967815,2044.6514630705435 7107.126409526035,2132.714817762263 7110.858077770097,2220.21389149434 7113.893147347739,2307.3608044815296 7116.388649000466,2394.2394780709333 7118.488227242641,2480.8416745843074 7120.252120096416,2567.1540077945074 7121.670545318875,2653.1630914743882 7122.700769954136,2738.8102321664687 7122.611185203244,2824.587116290876 7122.314628786497,2911.047727709449 7122.985999563299,2997.5448938252257 7123.4859236616685,3083.421659798329 7122.925761541147,3169.3087228692357 7122.1956973068645,3255.846047666447 7122.4361345405805,3342.401907239704 7122.464966414431,3428.332732976277 7121.3781077412505,3514.2965094258216 7120.027128509405,3600.9352606363987 7119.491164568722,3687.64145783759 7118.639594580355,3773.84206753662 7117.23352587526,3859.6251299197093 7114.98206544048,3944.984466728177 7111.626756121143,4029.7429678797976 7107.414728264539,4112.934250745695 7102.602894460869,4193.2006429804505 7097.361671678784,4268.650052862634 7092.669799064526,4336.9352569478915 7092.840216033178,4395.460614307353 7102.065900810405,4441.546562665052 7117.554280471845,4474.752386234988 7179.823920020179,4466.021991862119 7237.317250752265,4455.592576351638 7292.553972500669,4444.28121441427 7349.03355395398,4433.501440151019 7409.074386682702,4424.250012629282 7472.068427061527,4417.021964825972 7536.92572728793,4412.2889038205 7602.646439165175,4410.576496455744 7668.361487638628,4412.294309796847 7733.218273010142,4417.02943022188 7796.212828243856,4424.2585077349695 7856.255720392139,4433.509935256707 7912.737876119902,4444.283273833831 7967.966875044953,4455.593091206528 8025.458146357479,4466.110804330676 8087.7298453253725,4474.752128807543 8103.217710131922,4441.543988390601 8112.443909764041,4395.460614307353 8112.615356442472,4336.932425245995 8107.923998683105,4268.648508297963 8102.690498724372,4193.201157835341 8097.8699123875695,4112.936825020146 8093.657369676074,4029.7476015738093 8090.302575211628,3944.9901301319687 8088.050599921958,3859.6307933235016 8086.644531216863,3773.8497903599728 8085.792961228496,3687.649695515833 8085.258026997593,3600.953280557555 8083.907047765748,3514.304232249174 8082.819159382787,3428.3322181213866 8082.846961546857,3342.4096300630567 8083.088428490353,3255.8656121522736 8082.359908820741,3169.317475402369 8081.798202135549,3083.422174653219 8082.297096524138,2997.553646358359 8082.96949701072,2911.066777340386 8082.673455448864,2824.5958688240094 8082.5828409881915,2738.8102321664687 8083.613065623452,2653.171329152631 8085.032005700802,2567.1622454727503 8086.794868844796,2480.8504271174406 8088.895476796752,2394.2482306040665 8091.390463594589,2307.369557014663 8094.425533172231,2220.2216143176925 8098.156171706512,2132.720996020945 8102.450576345546,2044.658671039006 8107.134211281561,1956.1211349934258 8112.059828015962,1867.5048261496474 8117.843192997412,1780.0278911778487 8128.267459958991,1697.3185124891645 8146.28480684102,1622.2336198692324 8167.683205786896,1553.179737432929 8187.388761853842,1487.7921366696341 8205.565198896938,1421.1101907124137 8223.715893195525,1346.6513616389466 8245.893267590252,1245.3217409918261 8225.53384581277,1179.2344524327698 8205.143532741877,1113.0447077505664 8177.684776883632,1006.8141834037734 8157.09881895447,916.7351718169789 8142.549534612727,846.5372818146842 8133.476761737884,799.1294435264352 8128.462589962371,770.181727325775 8126.092712902849,753.556033211916 8125.049616895333,743.273351345138 8060.707171559115,755.5284422962153 7995.854505026722,766.5499409304089 7930.745955613907,776.1149150802687 7865.418078017874,784.113185799295 7799.895585273351,790.4469306583528 7734.216576642211,795.0471591021571 7668.441290146607,797.8510588341055 "/><path class="sewinguide" stroke="#3500ff" d="M 7082.839574088625,656.9353477918979 7077.630473424923,829.613414317939 "/>
<path class="sewinguide" stroke="#00fff8" d="M 7082.839574088625,656.9353477918979 7077.630473424923,829.613414317939 "/>
<path class="sewinguide" stroke="#ff2600" d="M 6873.018134127069,1246.2588712275576 7045.764611996644,1244.3846107560946 "/>
<path class="sewinguide" stroke="#00ff24" d="M 6992.007172927641,1712.635937198816 7162.025129039033,1681.9969689403915 "/>
<path class="sewinguide" stroke="#b300ff" d="M 7091.619897318931,4557.145225701501 7143.488663624759,4392.359031913586 "/>
<path class="sewinguide" stroke="#ff0051" d="M 7091.619897318931,4557.145225701501 7143.488663624759,4392.359031913586 "/>
<path class="sewinguide" stroke="#ff0011" d="M 8113.751818166479,4557.117592474191 8061.707872484266,4392.386665140895 "/>
<path class="sewinguide" stroke="#00ffea" d="M 8113.751818166479,4557.117592474191 8061.707872484266,4392.386665140895 "/>
<path class="sewinguide" stroke="#32ff00" d="M 8168.176509173162,3083.3905869788173 7995.419895097937,3083.453762327621 "/>
<path class="sewinguide" stroke="#ed00ff" d="M 8213.275923159797,1712.6408544652477 8043.258996758185,1681.9961705130813 "/>
<path class="sewinguide" stroke="#ff0f00" d="M 8332.266490435824,1246.2596535656526 8159.52004474468,1244.383828418 "/>
<path class="sewinguide" stroke="#efff00" d="M 8122.44512815501,656.9343100375098 8127.654105635657,829.6123926527663 "/>
<path class="sewinguide" stroke="#00ffac" d="M 8122.44512815501,656.9343100375098 8127.654105635657,829.6123926527663 "/>
</g>
<g><path class="seam" d="M 3703.0786094374566,50.94798051316206 3635.955432839348,53.26122353476396 3563.6819053472714,59.74273174730485 3487.9943750783777,64.55250613141456 3408.668880155435,64.7002694848977 3326.5085942071337,59.55172058304616 3243.695729685522,50.98916890437687 3252.5664220159674,105.50046011251038 3261.1915285637942,160.2712381852972 3269.589069250159,215.12130391117253 3277.901144024753,270.1381826214679 3324.349550225142,316.27844817008094 3371.556595106219,362.0258794374828 3419.757567352798,406.8877602937661 3469.026091214176,450.2864235521433 3519.6973372238635,492.2162058088222 3571.13031104358,532.6704139502305 3622.8124746301464,572.3693299677371 3674.4696677545385,611.7953728934456 3721.4553250328354,638.5765797162068 3768.442012020913,665.2548155609309 3815.4312732834414,691.9037046769143 3862.12989896046,718.4048304394148 3866.8204844374923,669.3602684552673 3871.697447384771,619.3704328927398 3876.8454814317324,567.7546855870075 3882.2607251666996,513.8478340199514 3887.6800877407886,456.92187337684953 3891.9837597678465,397.6991450686317 3893.8616929797968,336.69090000125175 3891.9811854933955,274.49025100820296 3884.541789757665,212.58718814168122 3869.3687587164636,155.86099119597117 3844.7450513110234,109.31604970367255 3809.630403235725,76.44874322403271 3762.027177516651,57.686916170795534 3703.0786094374566,50.94798051316206 "/><path class="sewinguide" stroke="#87ff00" d="M 3198.1046292787605,-22.377475965639015 3289.2868300922837,124.35581377439276 "/>
<path class="sewinguide" stroke="#e0ff00" d="M 3198.1046292787605,-22.377475965639015 3289.2868300922837,124.35581377439276 "/>
<path class="sewinguide" stroke="#2dff00" d="M 3201.939019118022,311.25957432139097 3353.8632689314845,229.01679092154475 "/>
<path class="sewinguide" stroke="#00ffc8" d="M 3896.8303020312624,797.5066289571793 3827.4294958896585,639.3030319216504 "/>
<path class="sewinguide" stroke="#cd00ff" d="M 3896.8303020312624,797.5066289571793 3827.4294958896585,639.3030319216504 "/>
<path class="sewinguide" stroke="#5200ff" d="M 3855.3665117178466,3.17240711959837 3763.894294753604,149.72507932846707 "/>
</g>
<g><path class="seam" d="M 3337.9432638907006,2380.115463868484 3371.8109334219703,2420.6685241488076 3411.5973747708085,2452.5262001887945 3455.0318204440537,2477.0121839111102 3498.9056947660715,2494.693845404739 3540.1401654935553,2506.1411290331157 3579.090997355623,2512.988184217688 3616.5809284667903,2517.014864313826 3653.575054318709,2519.9124676357883 3675.3711786672525,2475.6035409315637 3697.3912648930263,2430.3503703587394 3719.266934322103,2383.3456634495055 3740.602006116486,2333.5797897642087 3760.786377231305,2280.315991954994 3778.8207143247105,2223.577438491919 3793.411959340003,2163.917598381934 3803.270915632158,2101.578453423426 3807.035792016637,2037.6628227911701 3804.1981692893814,1976.5052698056365 3795.4111408785916,1921.868868859188 3779.6969973478053,1873.7809072610044 3750.238802523527,1828.301200536499 3703.4400375703667,1785.8035333359458 3641.934700106513,1750.842826872813 3570.312464050521,1728.2710736322058 3493.042527276643,1721.1712246965526 3412.250210771563,1727.8004962625766 3329.852834146331,1744.2187038556908 3246.2602218935344,1766.174690647637 3243.6481056081802,1860.2649366838639 3243.656600713868,1952.019800938211 3247.6312804660975,2039.6995887367425 3256.2128817757034,2121.845716175564 3269.61893083379,2198.2403996361277 3287.7008920045373,2267.816859785969 3310.3202693224866,2328.979561320404 3337.9432638907006,2380.115463868484 "/><path class="sewinguide" stroke="#11ff00" d="M 3266.2041316408136,2428.226891587209 3409.6823961405876,2332.0040361497586 "/>
<path class="sewinguide" stroke="#ff00e4" d="M 3266.2041316408136,2428.226891587209 3409.6823961405876,2332.0040361497586 "/>
<path class="sewinguide" stroke="#ff002c" d="M 3703.317658976352,2590.5303505147513 3603.832449661066,2449.294584756825 "/>
<path class="sewinguide" stroke="#19ff00" d="M 3703.317658976352,2590.5303505147513 3603.832449661066,2449.294584756825 "/>
<path class="sewinguide" stroke="#00ff29" d="M 3857.484564401511,1836.2268405152747 3701.9094302941,1911.3349740067342 "/>
<path class="sewinguide" stroke="#ff008c" d="M 3176.9202571196565,1714.6656269063762 3315.6001866674123,1817.6837543888973 "/>
<path class="sewinguide" stroke="#51ff00" d="M 3176.9202571196565,1714.6656269063762 3315.6001866674123,1817.6837543888973 "/>
<path class="sewinguide" stroke="#11ff00" d="M 3266.2041316408136,2428.226891587209 3409.6823961405876,2332.0040361497586 "/>
<path class="sewinguide" stroke="#ff00e4" d="M 3266.2041316408136,2428.226891587209 3409.6823961405876,2332.0040361497586 "/>
</g>
<g><path class="seam" d="M 322.00801081550645,1155.2138975311814 373.6884045883875,1115.5165260783454 425.12099226693636,1075.0633476467174 475.79027539235506,1033.1315059704777 525.0606977811407,989.733872421881 573.2622170610407,944.8719915655976 620.4697767970076,899.1240454433056 666.9197919189284,852.9822353300219 675.231030054326,797.9648417648364 683.6286994544135,743.1137463291807 692.254449570853,688.3424534015037 701.1247557601305,633.8327067580408 618.3118912385191,642.409159518745 536.1502859745613,647.561827259718 456.8246623378965,647.4084005024429 381.14054298265,642.5862696009688 308.87499574137166,636.1006425493064 241.75831918625119,633.7904886570456 182.8131459314891,640.5314837342397 135.20654147719804,659.2891919483554 100.08187786536439,692.1451716204112 75.44677929547879,738.6859942735883 60.27064705802462,795.4157952035297 52.83253041491205,857.3188580700514 50.959017714870406,919.5303190157941 52.837280755734774,980.5416532125151 57.14248125824771,1039.763866665843 62.561477802688145,1096.6913718736153 67.97600958987776,1150.5982234406715 73.1240034138008,1202.2144856012937 78.00045150618949,1252.2048360187116 82.69140703517365,1301.2499128577492 129.3900005337619,1274.7482722403586 176.37882738747675,1248.099383124375 223.36591660593717,1221.421147279651 270.3464092461171,1194.6373661824389 322.00801081550645,1155.2138975311814 "/><path class="sewinguide" stroke="#00ff00" d="M 742.882021405559,894.1034259147535 590.9575624322977,811.8610447452903 "/>
<path class="sewinguide" stroke="#65ff00" d="M 746.7046258946,560.4590791685767 655.544885625661,707.2063343475047 "/>
<path class="sewinguide" stroke="#51ff00" d="M 746.7046258946,560.4590791685767 655.544885625661,707.2063343475047 "/>
<path class="sewinguide" stroke="#00ff29" d="M 89.48560914742545,586.0033873407064 180.92747380697065,732.5749965560046 "/>
<path class="sewinguide" stroke="#19ff00" d="M 47.9911930126517,1380.351799866198 117.39162105769562,1222.1480258493004 "/>
<path class="sewinguide" stroke="#00ffb3" d="M 47.9911930126517,1380.351799866198 117.39162105769562,1222.1480258493004 "/>
</g>
<g><path class="seam" d="M 3408.7528015025355,850.1366323519686 3347.2492660307976,885.0978536699914 3300.454619916759,927.5980951449955 3271.0033756334974,973.080376143952 3255.285370691035,1021.158555499222 3246.4913917392278,1075.7892930418784 3243.6496501728507,1136.943756898071 3247.409892863318,1200.8614469498873 3257.267562018248,1263.2021364730663 3271.8588070335404,1322.8645508575023 3289.896233256287,1379.6056785950277 3310.0795746613253,1432.8699912591328 3331.4151613105983,1482.6384392188806 3353.2918604494553,1529.6446906927852 3375.311689247784,1574.8994058302799 3397.1078135963276,1619.2078176796142 3434.106573142258,1616.3359571021613 3471.5916131319686,1612.2902273750865 3510.543732131262,1605.440083061173 3551.77640086663,1593.9902251583453 3595.6495029063126,1576.3075339549362 3639.085493144228,1551.8215502326204 3678.8673007990546,1519.9602702084026 3712.730851491203,1479.4061802182982 3740.351786639856,1428.2733667995597 3762.978886781158,1367.115813814026 3781.057243967675,1297.539868519075 3794.4674118648823,1221.1472444780725 3803.050557739159,1139.001631894141 3807.0339900245217,1051.3223589504996 3807.0363068715274,959.5649204217015 3804.4221311666124,865.4695258365726 3720.833122898047,843.5186875935286 3638.43703341004,827.0953314515124 3557.6442020500704,820.4640004659276 3480.3701464370706,827.5653939662515 3408.7528015025355,850.1366323519686 "/><path class="sewinguide" stroke="#5200ff" d="M 3193.2159372935143,935.5260519707771 3348.7908139734805,1010.6347003171268 "/>
<path class="sewinguide" stroke="#00ffc8" d="M 3347.3475832033037,1689.8132877289595 3446.868043989352,1548.602347630269 "/>
<path class="sewinguide" stroke="#00c0ff" d="M 3347.3475832033037,1689.8132877289595 3446.868043989352,1548.602347630269 "/>
<path class="sewinguide" stroke="#4300ff" d="M 3784.4717213763442,1527.5150215956612 3640.9899816060615,1431.2973388409355 "/>
<path class="sewinguide" stroke="#ff0085" d="M 3784.4717213763442,1527.5150215956612 3640.9899816060615,1431.2973388409355 "/>
<path class="sewinguide" stroke="#87ff00" d="M 3873.7625303493037,813.9610614185827 3735.0817319839207,916.9779902545625 "/>
<path class="sewinguide" stroke="#ff00e5" d="M 3873.7625303493037,813.9610614185827 3735.0817319839207,916.9779902545625 "/>
</g>
</svg>