<svg xmlns="http://www.w3.org/2000/svg"
 viewBox="0 0 4158.518825796219 4158.518825796219"
width="4158.518825796219mm" height="4158.518825796219mm">
<defs><style>.seam{stroke: #000; stroke-width:1px; fill:white} .sewinguide{stroke-width:1px;}</style></defs>
<g><path class="seam" d="M 2298.950164824641,4098.585331371966 2314.602968236663,4098.892554818984 2330.2756010116773,4099.267748055163 2345.9690546178335,4099.708161305559 2361.684072656244,4100.208717168827 2377.423629531357,4100.770569775862 2393.1959048554077,4101.391558035929 2409.0132919802654,4102.078839109734 2424.8866970555764,4102.804446624197 2440.8128978098543,4103.560421723665 2456.7906549079125,4104.34061033435 2472.8184811475257,4105.141817295222 2488.8943935923953,4105.960797097259 2505.0166571732593,4106.794408800349 2521.184280421968,4107.638647802667 2537.3957761362976,4108.491364632249 2553.649409246985,4109.347110087195 2569.9431968177323,4110.203231215618 2586.2761473803894,4111.055134731484 2602.644790796432,4111.899424081794 2619.047144129562,4112.730681048029 2635.439582781196,4113.547205417227 2651.8969625966292,4114.348815162034 2668.4195314429,4115.13573103903 2684.920535856916,4115.900970169021 2701.4369080272513,4116.649470528143 2717.9661692835316,4117.381158530868 2734.5043537531587,4118.100139475003 2751.048487031683,4118.808094208896 2767.5965861828063,4119.509023461449 2784.1454289350413,4120.204948898183 2800.693280219127,4120.899081171819 2817.2379092317265,4121.591199525776 2833.7770851695027,4122.283650951064 2850.3095686972692,4122.974897897468 2866.832385410577,4123.6636468088855 2883.344543841277,4124.350052602214 2899.7843250970545,4125.031365502509 2916.262277876592,4125.713929356759 2932.7194098249884,4126.394270153517 2949.2132260949197,4127.079996248955 2965.6190495665733,4127.767778866218 2981.994137525589,4128.467745697539 2998.3342762323305,4129.187408276027 3014.638226351611,4129.93369138704 3030.902517744907,4130.71810729259 3047.1254153429572,4131.548374727135 3063.3056798105736,4132.437899811772 3079.4398410092326,4133.397255624813 3095.5281468059725,4134.439799875821 3111.568366397456,4135.578038231418 3127.5592604484964,4136.82512894566 3143.499589623906,4138.1936125414695 3159.388114588499,4139.699712691031 3175.2218609378256,4141.358477634559 3190.998350001512,4143.188815947731 3206.7138637739968,4145.211185375209 3222.2172033624647,4147.4286910325745 3230.7019399198193,4124.862966961051 3239.213941851288,4102.111801552786 3247.56334300622,4079.3162214697563 3255.6904074286012,4056.4603012548087 3263.528211018333,4033.528944256196 3270.9986756586327,4010.5123209967173 3277.999927997128,3987.401213920918 3284.3649056506088,3964.276024899056 3284.1638854832745,3955.2346564341433 3283.8141450934986,3946.171924928944 3283.2425637052465,3937.034771345764 3282.3675930632126,3927.7677974017447 3281.106197709867,3918.293931939942 3279.3711284480432,3908.5104340733537 3277.0716659420523,3898.2839668275456 3274.112381382494,3887.455771365061 3270.422880530745,3875.8116595822044 3266.0400955753785,3863.0324407015587 3261.0423525002147,3848.88081301819 3255.4294034382156,3832.92146004766 3249.3100620188015,3815.017187384764 3242.7229954998074,3794.7792465647153 3235.7331450450324,3771.8252407155605 3228.418340904222,3745.7262049456926 3220.8400541026517,3716.062469377408 3212.934582811709,3682.578266211487 3204.632524260921,3645.055162621217 3195.8999206661633,3603.2593580235675 3186.73925069781,3556.9401349102054 3177.186702943322,3505.8319967006914 3172.252909563808,3477.767437290974 3167.3119280402098,3449.659129349155 3162.260397817929,3418.921323941043 3157.201679451564,3388.140141801385 3152.1241231903564,3354.7189898131032 3147.0403702532135,3321.2534696251264 3142.188125129005,3285.66583579642 3137.3301790629366,3250.0347632694097 3132.9523514483185,3212.956271177482 3128.569070758878,3175.8348980880833 3124.870398826745,3137.9618682077594 3121.1665216868264,3100.048374033579 3118.3128284852014,3062.0910073937785 3115.455169410978,3024.0955931637363 3113.5810467411716,2986.7679327324586 3111.7049411350654,2949.4055709159447 3110.91697182316,2913.4207301598003 3110.129002511255,2877.4060214256483 3110.502786003659,2843.4709171353106 3110.8768173631006,2809.5118936758636 3112.4111143246273,2778.1371319483837 3113.946650621341,2746.7470024645854 3116.481834679903,2717.7039259579587 3119.018505940689,2688.6531655731733 3122.3686768182324,2661.526968800306 3125.7188476957763,2634.398789091139 3133.711320316848,2583.1377788863065 3142.5926441340475,2534.0540327380254 3152.0453014724617,2486.3896971794343 3161.7844931061145,2439.4149277188994 3171.559873327228,2392.393683188852 3181.1808323840396,2344.734304971009 3190.589121522759,2296.396514671793 3199.775073928927,2247.485407915063 3208.7530658907144,2198.1073196598654 3217.5565594581694,2148.3736661395124 3226.2376067091473,2098.393756717499 3234.8636274778214,2048.2690929456426 3243.5853249229335,1997.51112889322 3252.146404527808,1947.383738583952 3260.3599745462434,1897.4571205749805 3267.843328272488,1847.9018073880395 3274.1532794436653,1799.3867921570802 3279.05832024684,1751.1345159857683 3282.2714206527,1703.901964806334 3283.7439987219136,1657.9940150747834 3283.9192407173578,1613.5769855732137 3284.3530080328132,1570.6255938638103 3282.1903681314693,1529.6261550739582 3277.215428823746,1490.3865722496698 3269.53749947314,1452.95988893695 3259.3132320472887,1417.2298554952558 3246.7696727524544,1382.9974346935528 3232.10412375041,1350.0177338988865 3215.450928975428,1318.0285097856838 3196.8956025554126,1286.8500587518276 3176.5219235490063,1256.6390327649567 3154.435979048217,1227.6299140424546 3130.764924843234,1200.0425606464983 3105.655002486124,1174.0804714147957 3079.262863944527,1149.9258286198385 3051.7543322664646,1127.7357799633403 3023.296469835148,1107.6392163047508 2994.026842856335,1089.7181816334505 2963.9962640726935,1073.9573081931208 2933.2235713790665,1060.3238775348236 2901.7139699832396,1048.7859148107348 2869.4639897466886,1039.3186333171136 2836.463220253843,1031.8979899513317 2802.697285216533,1026.493992801864 2768.137184191383,1023.0533504556678 2732.6104017203593,1021.3534783131555 2696.069595199319,1021.7622110578337 2658.7871705023676,1024.5140309070857 2621.062303143651,1029.7869063937674 2583.2013567814006,1037.7198909258618 2545.506233467173,1048.4190715953778 2508.2642110973184,1061.9694667961446 2471.7417467370456,1078.439735697523 2436.171339667439,1097.8653232858615 2401.7535143217588,1120.1398946021143 2368.7071372940304,1145.0884555178745 2337.262477062003,1172.49263517319 2307.645588363788,1202.0934125139736 2280.06889325044,1233.5940906964543 2254.7200270692733,1266.669220300521 2231.756881123114,1300.9690609363977 2211.290499844719,1336.2192237936788 2193.375661849354,1372.5077016706427 2178.108291680494,1410.0072578923593 2165.645289172816,1448.8683477505326 2156.1713152691846,1489.1893744590118 2149.7951835990207,1530.9762868266941 2146.5602708938695,1574.0756551574275 2146.18029072553,1618.547959008338 2145.7343779252415,1663.8270700659966 2146.659665575868,1710.0208104916735 2149.298210189027,1757.078367542701 2153.5337621241756,1804.801695456194 2159.0096407144906,1852.5426219293424 2165.4583974266134,1901.17140813047 2172.3942128672343,1950.118951341698 2179.4859366743817,1999.8708230893 2186.237586906212,2049.2278426463185 2192.6275991304706,2098.634683477855 2198.6423406601,2147.967040264652 2204.2533067858003,2197.089949404843 2209.4337278675303,2245.8781141110207 2214.1432015781943,2294.2069811968904 2218.335376781797,2341.9513778085625 2221.960184336784,2388.9863789591864 2225.003495822022,2435.340861158619 2227.5919712936256,2481.648124687427 2229.8852371236812,2528.6981217938137 2232.039449545754,2577.27931752376 2234.205063851547,2628.171501576936 2235.3643379854825,2655.196444665024 2236.5223727842313,2682.1982121851147 2237.819460990963,2711.1829160044326 2239.11605346362,2740.14667505909 2240.6027599539652,2771.4923124096745 2242.0887228431984,2802.819855466529 2243.776449500878,2836.722860975523 2245.4624410892957,2870.612109863941 2247.2396477474776,2906.4431491233768 2249.016110804547,2942.2624146985363 2250.7487013959967,2979.174154241051 2252.4807962533714,3016.0772184372563 2254.0440936582745,3053.2202179256683 2255.60714319614,3090.3564010705513 2256.906710073246,3126.8708097521085 2258.205781216277,3163.3811286275486 2259.168744656589,3198.4014567743975 2260.1319559639383,3233.4199259184657 2260.7189051085097,3266.0919617529553 2261.3061021201183,3298.7659185569846 2261.5428151408382,3328.2555894982524 2261.780519629708,3357.7515190822146 2261.7135955296094,3409.201651836586 2261.2257931999993,3453.7819637490447 2260.3832931398656,3492.61231809458 2259.202454573676,3526.8053900040954 2257.6456017117453,3557.4524141097586 2255.6247417557956,3585.6102954590583 2253.0104881123025,3612.288968295894 2249.6437101432525,3638.4451993846424 2245.4101411444035,3664.8108471366177 2240.4431335818776,3691.3853848343642 2234.9437076230092,3717.972129983703 2229.132960665162,3744.3637418078456 2223.2067076678854,3770.3442971338345 2217.3456437014456,3795.69898819038 2211.7237714261,3820.195222746259 2206.488819596141,3843.6498580442094 2201.75331984655,3865.89790758746 2197.4957077450727,3887.040067359956 2193.662939745704,3907.2436166285647 2190.2051945739277,3926.6698858512564 2187.0748817585604,3945.506572342104 2184.2457273936384,3963.865944377362 2181.6936883765334,3981.9294561201 2179.4366111339386,3999.8303051195417 2180.521525156653,4012.272006553693 2181.7199622824983,4024.716310591737 2183.0061443395844,4037.158438047359 2184.3617291671435,4049.599302930259 2185.771844742931,4062.03864188171 2187.22285837989,4074.476423918333 2188.7378217124997,4086.9086754216833 2190.2180836598723,4099.176505874941 2205.46562446574,4098.694110145085 2220.985571145714,4098.375295041147 2236.5347661361016,4098.200908961567 2252.1067648939297,4098.149856097706 2267.701815286237,4098.204692806809 2283.3161993074614,4098.353746100583 2298.950164824641,4098.585331371966 "/><path class="sewinguide" stroke="#fff000" d="M 3249.1178082114543,4179.141301341419 3195.3165985134756,4115.716216276017 "/>
<path class="sewinguide" stroke="#ff2f00" d="M 3249.1178082114543,4179.141301341419 3195.3165985134756,4115.716216276017 "/>
<path class="sewinguide" stroke="#ff5a00" d="M 3325.2069798550892,3972.10250164294 3243.5228314461283,3956.4496720886914 "/>
<path class="sewinguide" stroke="#00ff5b" d="M 3309.9308336439367,1443.0752274310291 3229.1441653023435,1462.8445504428705 "/>
<path class="sewinguide" stroke="#ff0070" d="M 2948.8057607641167,1021.7684193525362 2917.6413819940167,1098.8793357171114 "/>
<path class="sewinguide" stroke="#ff7800" d="M 2733.35530885464,979.7749640300923 2731.865494586079,1062.9319925962188 "/>
<path class="sewinguide" stroke="#007cff" d="M 2453.206514975211,1041.2137627183404 2490.2769784988805,1115.6657086767057 "/>
<path class="sewinguide" stroke="#00ffce" d="M 2125.5696469584436,1437.7656075925138 2205.720931387188,1459.9710879085515 "/>
<path class="sewinguide" stroke="#0086ff" d="M 2137.8824188039207,3998.22510245157 2220.9908034639566,4001.4356627044117 "/>
<path class="sewinguide" stroke="#9f00ff" d="M 2166.2670326527623,4133.171702430159 2214.1691346669827,4065.1812628446532 "/>
<path class="sewinguide" stroke="#ffa400" d="M 2166.2670326527623,4133.171702430159 2214.1691346669827,4065.1812628446532 "/>
</g>
<g><path class="seam" d="M 1198.5502771478114,4143.8046996959965 1215.679748435164,4144.336437426216 1232.7675780602328,4144.811477508092 1249.811163419125,4145.232338309452 1266.8070343733173,4145.600061646438 1283.7515968507669,4145.915826823939 1300.6416285799878,4146.181409576902 1317.4730397548628,4146.399460920751 1334.242112369831,4146.572935895324 1350.9446326852562,4146.705669662084 1367.5751476263158,4146.803246975218 1384.1299391874488,4146.872415433882 1400.603554293832,4146.922951262594 1417.0046682917748,4147.0030607272065 1433.364884228546,4147.087949378133 1449.689903046006,4147.173296970372 1465.983814550272,4147.253582652956 1482.2497170793113,4147.326322914358 1498.4909568381288,4147.386570096137 1514.708277427837,4147.4300213814395 1530.9031660506603,4147.45260342407 1547.075870573636,4147.4521551332955 1563.2268867308387,4147.425548155999 1579.357329923937,4147.369384970953 1595.467200152931,4147.282707998082 1611.5576128194887,4147.164385375792 1627.6298072587972,4147.01229377435 1643.6860142741932,4146.824594523815 1659.7280928684572,4146.597760360058 1675.7579020443698,4146.331433037752 1691.7781683393423,4146.021632160839 1707.7911225567116,4145.668010134527 1723.7998630344448,4145.26786075425 1739.8084795786594,4144.818982263588 1755.8209380619537,4144.321382408386 1771.8414522239636,4143.771203757876 1787.8755990730308,4143.163470574926 1803.9289556174967,4142.495569605107 1820.0072227992216,4141.760084201912 1836.1174648287715,4140.952314573932 1852.2671177172688,4140.057169878807 1868.4612627389797,4139.0579558842755 1884.6412793395587,4137.843676569109 1900.746440094842,4136.54224487984 1916.7927324287418,4135.181098535629 1932.7905667568293,4133.778899213348 1948.7491141594885,4132.350706771981 1964.6770499830282,4130.912229785023 1980.581686305052,4129.4776818779 1996.4699634026074,4128.062469536156 2012.3484497521852,4126.682700244299 2028.224457431389,4125.357178977331 2044.1035634485604,4124.105392344607 2059.9925841472277,4122.950572071501 2075.8979640703637,4121.916834846164 2091.826767428535,4121.03362649806 2107.7856866317497,4120.3261481336285 2123.5708510417453,4119.827342831311 2122.211300341588,4107.15823500911 2120.819031192493,4094.2664186538013 2119.4037104089202,4081.3747804529257 2117.9474915641754,4068.4826581367433 2116.4288102260048,4055.58963730255 2114.822631823631,4042.6955397959127 2113.095246439967,4029.798119321805 2111.1998072049437,4016.8900173275547 2111.3693482585277,3997.9850124845225 2111.1628750163704,3978.9518139080833 2110.652516786357,3959.5999512716826 2109.874957890023,3939.7886670814546 2108.84333528035,3919.3036647918743 2107.5653328354983,3897.9980831832804 2106.0409505554676,3875.700677116207 2104.2704363072953,3852.232502081338 2102.248337016159,3827.4854260836073 2099.942182100158,3801.619788112834 2097.3326379303753,3774.919148059809 2094.407311154941,3747.613061784546 2091.162979502368,3719.9405660612415 2087.5914633604234,3692.137289492327 2083.6506253327475,3664.4409365666725 2079.3355080785923,3637.1166320641605 2074.6513168057436,3610.223740140249 2069.640436777597,3582.9634473001465 2064.3880103215015,3554.291241848235 2059.0210692941255,3523.108762975021 2053.7170864942495,3488.2714226685353 2048.7069500672155,3448.611209481773 2044.2681471613962,3402.9558362613366 2040.708280770209,3350.1462147735674 2039.5145531180744,3319.829163661447 2038.3210733329774,3289.5074650423758 2037.7792359892137,3255.896137069646 2037.237770446006,3222.2840654958045 2037.344972939683,3186.2482880634734 2037.4526711674348,3150.2151752017944 2038.1186898969374,3112.639399866076 2038.784832559959,3075.0687058046246 2039.9032086327231,3036.8448820996155 2041.0218325725243,2998.628122605172 2042.4683846028104,2960.6345673779106 2043.9145648325402,2922.6499353639956 2045.5632524318287,2885.755174713543 2047.211568230561,2848.8716920132924 2048.955064971656,2813.9387989638876 2050.697570244602,2779.0200343356146 2052.4612681492454,2746.6974290571047 2054.224098519258,2714.392050537694 2055.958176312932,2684.480200064969 2057.6907669043817,2654.5901618915354 2059.3590359996247,2626.6821924826977 2061.0266854272745,2598.786368558693 2064.1724899324795,2546.1935687618925 2067.0720385360237,2495.992314075478 2069.6611336752208,2447.3729468217716 2071.8651673718114,2399.5285358605074 2073.5971382956673,2351.6500431816 2074.767938246842,2303.090659750945 2075.341254704356,2253.845304294277 2075.2848649533466,2204.0703809121965 2074.559482068386,2153.928242514203 2073.1216053844087,2103.5865711510996 2070.968384430486,2053.2090830010916 2068.0177752172362,2002.9037241589676 2064.1757122039658,1952.8179755119834 2059.360275334812,1903.1084890277773 2053.588071701281,1853.9497631006814 2046.8828965389641,1805.5192705294767 2039.2536730612076,1757.9947319799812 2030.6820591072433,1711.538500361694 2021.079318277681,1666.3441598308277 2010.2885507378446,1622.5862087817136 1997.7876245734437,1580.515984390279 1982.062320052981,1540.5248687085839 1965.965462843451,1502.298814200238 1949.6488715052626,1465.3981047408877 1933.0780925202173,1429.6551822132487 1916.1003158597555,1394.8640691092385 1898.431981633088,1360.8616689182459 1879.741071943613,1327.5297490634293 1859.6737565954372,1294.7956845028295 1837.924043730886,1262.6907064831596 1814.4716082528923,1231.4641692440473 1789.3979984167622,1201.3775725099529 1762.802237103938,1172.6547402156516 1734.7974756169945,1145.4830598414208 1705.5046730701843,1120.0102601415524 1675.0497459185085,1096.3382144684194 1643.5587345504866,1074.508068750231 1611.117896695135,1054.5158571143882 1577.7318178926457,1036.4431278161971 1543.444866342714,1020.395720080629 1508.3472656469546,1006.4631139081862 1472.549316637012,994.7201651441648 1436.151281529516,985.2444561712717 1399.2151270838172,978.1780148019394 1362.2144032748747,974.4337353349242 1326.0304013541763,973.430121700478 1290.746280712771,974.7757918465409 1256.2911513779611,978.2196564642231 1222.5744179475757,983.6147304003447 1189.5113098948232,990.8762431281134 1157.0294500447812,999.9561084422733 1125.0667477045808,1010.8248301653731 1093.5656977215442,1023.4732372170291 1062.4986629210007,1037.9025689324283 1031.9523967660418,1054.1006798267376 1002.0452557670275,1072.0192358276638 972.8973315035796,1091.5851161591727 944.6278480206892,1112.6984304051907 917.3541703605667,1135.237475850353 891.1895117925463,1159.056506676666 866.2390918740056,1183.9792894205364 842.5156757573708,1209.8295906183698 819.7159361556197,1236.558332596761 797.4708610168179,1264.2086442202178 775.4227162392331,1292.885373245562 753.25795002055,1322.754342720816 730.7809952682574,1354.0805225089648 707.9550437273008,1387.0537787606588 684.8339445115562,1422.2999757453415 664.2407792435291,1460.7810854351753 644.8169267244523,1501.744583504604 626.1692078662448,1544.7599249096577 608.2419145522503,1589.5579260477161 591.0445896634085,1635.853044091691 574.6436615657437,1683.4127797604976 559.1293538608708,1731.9902574848827 544.6026103997722,1781.3333964878066 531.1433063352512,1831.201765742988 518.6997923733887,1881.4238412605444 507.19739856916715,1931.8466890783973 496.5643983986379,1982.3220847081798 486.72587404974576,2032.6993249911504 477.59342994027674,2082.8289461037552 469.0574158895596,2132.560244887253 460.975525234745,2181.745492587351 453.18664440152094,2230.3771292594083 445.5827653283388,2278.999594851082 438.0615499121306,2328.2984895878294 430.5034642741087,2378.997089484794 422.7789978872298,2431.830568174913 418.7582847067506,2459.6890881097884 414.7371687423356,2487.549838848001 410.4040501445891,2517.234890981502 406.06953729475725,2546.928246660756 401.2587479325548,2578.8833890563155 396.44547989997835,2610.8541470752316 390.982521378988,2645.3509180723254 385.51553501863987,2679.871608238528 379.26813929102724,2716.416380632167 373.01572425590723,2752.990153469182 365.94451144610485,2790.8715488620187 358.86707097698775,2828.7865302384234 351.0097478580606,2867.2761913410477 343.14508167815046,2905.803404299839 334.597448860055,2944.169751551355 326.04132659592847,2982.5761293294117 316.9446682899846,3020.090433639854 307.83812628592426,3057.6468753466547 298.36737465377934,3093.5914377092213 288.8857478553683,3129.5786332022217 279.24350321672,3163.24926336365 269.5894539104153,3196.963022389586 259.9884791334946,3227.813545332958 250.37492510442567,3258.705895838891 240.98412608353317,3286.7640726723953 231.57943101685626,3314.864386902258 213.48930455097747,3365.7860051661255 196.3628076680737,3411.8271214635215 180.43175801487655,3453.337104383665 165.90007270471972,3490.663649413274 152.9524126804687,3524.1389603492285 141.74905496518448,3554.084644672559 132.3746151687606,3580.8244787008744 124.66700374042513,3604.7263590844395 118.40458881951486,3626.1339534706144 113.36942556754796,3645.3430911685405 109.3583094889232,3662.5524376086964 106.12182437725345,3678.1289599399574 103.47017379449198,3692.113711140394 101.1467843735467,3704.777950699064 98.9095055105643,3716.4007149333247 96.66820655406903,3727.2249445232105 94.39043241385087,3737.457298611157 92.0643009638043,3747.2788130846075 89.70113662920069,3756.835295728314 87.32963776546438,3766.245660753472 84.99654280083575,3775.60248649855 82.76791604662773,3784.969970526237 71.77983085332833,3808.3331428873857 61.78623856208317,3832.0748701814086 52.492731226293955,3856.0641236956585 43.709551137138575,3880.2079223077294 35.287830901121566,3904.445662526976 27.105544413852517,3928.738708078943 19.059323374889296,3953.0599175230354 11.147625392862448,3977.1398284062157 27.443052178040553,3978.996120141019 43.89189607237334,3981.1415022998845 60.27301029873566,3983.5327995432335 76.58901682563256,3986.1501825080736 92.8435252167962,3988.9698094837454 109.0415354151217,3991.970270954893 125.19013486870983,3995.1287786457647 141.29627934629772,3998.4239540243843 157.3688920612319,4001.8361536280386 173.41828273309935,4005.3448044926217 189.4558067705511,4008.930247663731 205.492168931265,4012.576232358726 221.54053715160316,4016.264447400218 237.6147764939703,4019.977263245173 253.73138560804355,4023.697701001528 269.90542241634523,4027.403049851981 286.1316042526406,4030.93602266961 302.32921941287526,4034.4087870346843 318.50750094419243,4037.828074086439 334.6745045253078,4041.1985778068947 350.83831681831657,4044.5211037639233 367.0051035157742,4047.7983010364865 383.181030310236,4051.0293408191783 399.3730684621291,4054.2161363356936 415.58629924572017,4057.3576418969683 431.8263616361101,4060.452974476682 448.0980580571487,4063.500770806128 464.405292414675,4066.4998225335003 480.75184468100935,4069.4481854517235 497.13988369272914,4072.347269304573 513.5727246714596,4075.1950524265244 530.0519477695641,4077.9924023522094 546.5799077238981,4080.7377544209544 563.1575650192315,4083.431674079438 579.7862209575105,4086.07231781657 596.4656276716979,4088.659662394815 613.1962189291091,4091.191252381334 629.9765075275197,4093.669252739782 646.8066793672078,4096.09138231883 663.6851233124302,4098.459837065514 680.6111577288339,4100.7742839085 697.5834193477134,4103.033626810734 714.5998012992507,4105.237753457463 731.6588163812213,4107.386791655131 748.757738056214,4109.478847544652 765.8942115873732,4111.515725907893 783.065758304325,4113.495513521161 800.2701474037327,4115.4205380108515 817.5052720157785,4117.290388847186 834.7679718357354,4119.104632262847 852.0555822929513,4120.862087016487 869.3658106173302,4122.562330959555 886.6950627368299,4124.206382670659 904.0404881805201,4125.791534977001 921.3996082780269,4127.320138742512 938.7687669905486,4128.79092752155 956.1457335147484,4130.204983795939 973.527595412937,4131.561108896181 990.9114402474247,4132.857658766691 1008.2942316470035,4134.096110927388 1025.672375539631,4135.275038206343 1043.0430834211363,4136.394942147018 1060.4034428538303,4137.45489324802 1077.7506653335417,4138.455472447719 1095.0810328547097,4139.396877265161 1112.3923146139975,4140.279465945672 1129.6811644064005,4141.10179969856 1146.9446078274696,4141.865849841356 1164.1794226057186,4142.570179519827 1181.3826343366986,4143.216548009002 1198.5502771478114,4143.8046996959965 "/><path class="sewinguide" stroke="#ceff00" d="M 1741.037117148699,4186.386001712792 1738.5798420086196,4103.251931831004 "/>
<path class="sewinguide" stroke="#ff0f00" d="M 1805.743507535638,4184.041040113747 1802.1144036993555,4100.949882212811 "/>
<path class="sewinguide" stroke="#ff1c00" d="M 1838.3095844476463,4182.479609457469 1833.9253452098967,4099.424872519342 "/>
<path class="sewinguide" stroke="#f300ff" d="M 1871.297911692976,4180.5463666263195 1865.6246137849835,4097.569715550819 "/>
<path class="sewinguide" stroke="#00ff9d" d="M 1936.459423963639,4175.202000863959 1929.1217095500197,4092.3559369879454 "/>
<path class="sewinguide" stroke="#ff0072" d="M 2000.114733452296,4169.4875696147565 1992.8251933529189,4086.6372532698815 "/>
<path class="sewinguide" stroke="#9f00ff" d="M 2151.6066365740503,4150.540830159302 2095.5350655094403,4089.113723823958 "/>
<path class="sewinguide" stroke="#ff4b00" d="M 2151.6066365740503,4150.540830159302 2095.5350655094403,4089.113723823958 "/>
<path class="sewinguide" stroke="#0086ff" d="M 2152.723934037909,4014.6373469866035 2069.675680371978,4019.142811602025 "/>
<path class="sewinguide" stroke="#00ffce" d="M 1970.6317883249942,1411.7932773855978 1895.5243967154402,1447.5170870408997 "/>
<path class="sewinguide" stroke="#007cff" d="M 1666.3241193935614,1039.7077071073877 1620.7933497074118,1109.308430393074 "/>
<path class="sewinguide" stroke="#ff7800" d="M 1405.2315557552934,937.0303476507977 1393.198698412341,1019.3256819530811 "/>
<path class="sewinguide" stroke="#ff0070" d="M 1179.4514180122255,950.5262004845683 1199.5712017774206,1031.2262857716585 "/>
<path class="sewinguide" stroke="#00ff5b" d="M 742.237363261971,1267.8242458385184 808.6080692164951,1317.9465006526054 "/>
<path class="sewinguide" stroke="#ff5a00" d="M 44.207802611543926,3769.3994037814878 121.32802948171155,3800.5407231712643 "/>
<path class="sewinguide" stroke="#fff000" d="M -28.42167481208668,3989.9304385200453 50.716925597811574,3964.3493422259053 "/>
<path class="sewinguide" stroke="#00a2ff" d="M -28.42167481208668,3989.9304385200453 50.716925597811574,3964.3493422259053 "/>
<path class="sewinguide" stroke="#00ffe0" d="M 132.8105997323245,4039.1341900754237 149.78195896027094,3957.7137799401044 "/>
<path class="sewinguide" stroke="#ffc100" d="M 196.22530149261297,4053.1157228772963 214.75903636991706,3972.036679873396 "/>
<path class="sewinguide" stroke="#00b5ff" d="M 228.25845906996472,4060.4962350205533 246.9710939179759,3979.4582914697926 "/>
<path class="sewinguide" stroke="#ff00e0" d="M 260.8386495165595,4067.987857436249 278.9721953161309,3986.8183662012316 "/>
<path class="sewinguide" stroke="#3400ff" d="M 326.24440812624164,4081.9204016419326 343.1046009243739,4000.4768933970654 "/>
<path class="sewinguide" stroke="#0009ff" d="M 391.40261776227743,4095.0303371172336 407.34351916198074,4013.4019200624634 "/>
</g>
<g><path class="seam" d="M 3048.8250396184317,626.2710192518583 3052.207433210838,610.6358143994919 3055.148871343704,594.6855705425858 3057.592344598426,578.7368138879041 3059.5485112576134,562.7094833823655 3061.0183627894153,546.6201861174761 3061.9991726564203,530.4870163869664 3062.494163130115,514.219502722184 3062.4939152630773,498.15747083140894 3062.0046257312433,482.1026270847186 3061.0136533157047,465.85717358626516 3059.541570980566,449.7614317784033 3057.58242991693,433.7249301924808 3055.137469459983,417.7645237870412 3052.209911881212,401.89781112174 3048.7833979561483,386.0442354094212 3044.9263389871144,370.5195792557367 3040.5983326470146,355.1386859837461 3035.738651511684,339.70722783612524 3030.4528869390574,324.5608167815182 3024.710055549459,309.6074941490484 3018.5183369551232,294.86361916318447 3011.882936363835,280.3448074472828 3004.7706395925834,265.9853742364314 2997.3185171130513,252.0549988673253 2989.4465078721582,238.39504643602623 2981.0482769108576,224.8330014845015 2972.3087330390526,211.66828739393435 2963.174336976664,198.81811657383204 2953.656242740375,186.29587384421438 2943.764612878719,174.11420042398893 2933.454335590889,162.22253143752542 2922.9145334264235,150.83601547328996 2912.033170484416,139.82824034220684 2900.668962553547,129.06337490777898 2889.072007474556,118.77813219072664 2877.168688737335,108.90633169206309 2864.9736304970893,99.45813596032188 2852.499969706803,90.44420327811136 2839.6929277512086,81.82735358982102 2826.781781639905,73.76151232567834 2813.633178906769,66.1564558840685 2800.0822879719276,58.923695732638514 2786.4178739339554,52.218396636802865 2772.5571492023596,45.997925466128194 2758.5159772675343,40.26847889654957 2744.3099737528355,35.036501471039486 2729.8744453615013,30.27993302326904 2715.473122621329,26.085031282254608 2700.952575836165,22.40222284051551 2686.0889810712356,19.18243002464589 2671.3403966116607,16.524799649607083 2656.4668871652348,14.379510440881017 2641.5371119013184,12.758460016263054 2626.6113025100003,11.666357849463859 2611.483481483199,11.094280727136908 2596.5732877152373,11.057348538563808 2581.6715214265473,11.548868873734667 2566.5679913694107,12.581482951557057 2551.6825843051897,14.128173264954013 2536.8095705928386,16.203811836169734 2522.0071989861476,18.801954122231734 2507.3475987930005,21.907480233858408 2492.5890996519297,25.579134658914352 2478.1872811776825,29.70265069315662 2463.920302371783,34.33454202111317 2449.6359728732646,39.52859578990054 2435.5965360077007,45.192109727529875 2421.7372984783296,51.34689613329266 2408.0723887062823,57.98675833125382 2394.6186616501027,65.10599537955308 2381.2940733204105,72.747984009736 2368.3831750761447,80.75061917934083 2355.7243576089177,89.20635529331899 2343.185755654831,98.20938182588377 2330.992432483848,107.59932880383518 2319.0915924170004,117.41461561797077 2307.494885205047,127.64433611864476 2296.2164392691193,138.27882349139844 2285.185860370595,149.3854975704055 2274.645810339092,160.71971358974886 2264.457235766627,172.42226002667363 2254.514545295266,184.62277134174172 2244.998681862314,197.09965440351456 2235.866764470299,209.90719209318348 2227.1284599336814,223.02927305331727 2218.7946744021056,236.45424753315794 2210.8133557977176,250.26614245838527 2203.361481185223,264.1598335059557 2196.3374250792867,278.31056267131345 2189.6668273686873,292.88068286395765 2183.4770917106507,307.59506167237055 2177.7369868584638,322.521118930726 2172.452461621024,337.6417518134431 2167.6311998764913,352.94233616531494 2163.244201181489,368.51458279018095 2159.386894345418,384.0204010490228 2156.0052443541244,399.6556059013892 2153.0630626201464,415.6060976253327 2150.620828700611,431.5548542800144 2148.6639184403116,447.58218478555295 2147.193819041472,463.67148205044236 2146.2137527755795,479.8041560468773 2145.71826656781,496.0721654457345 2145.7185144348477,512.1344452035469 2146.2078039666817,528.1890410831999 2147.199024249258,544.4344945816533 2148.6706108503217,560.5297406554404 2150.6312391161823,576.5667379754377 2153.074960237942,592.5273922479147 2156.0022699496753,608.3941049132159 2159.4292796088143,624.2471848914598 2163.2865864448854,639.7720889121817 2167.6145927849852,655.1532300512098 2172.474026053278,670.5846881988307 2177.7595427588676,685.7308513864002 2183.502374148466,700.6834304177578 2189.694340609839,715.4273054036217 2196.3307326692766,729.9458692524861 2203.4417901053416,744.3065417985244 2210.8944083189485,758.2366693005932 2218.7661696928044,771.8963738648548 2227.1648963881794,785.4589145504544 2235.9044402599848,798.6233807739842 2245.0388363223733,811.4735515940864 2254.556434824587,823.9957943237041 2264.4483125532806,836.1772198768922 2274.758341974073,848.0688888633556 2285.2983920055763,859.4554048275911 2296.1797549475837,870.4631799586742 2307.543467144378,881.2282932601395 2319.1406700904063,891.5140317112666 2331.04374096059,901.385088608818 2343.2387992008357,910.8332843405592 2355.71270785816,919.8472170227698 2368.5197498137536,928.46406671106 2381.4304001909823,936.5299079752027 2394.579498658193,944.1347165497751 2408.130637460072,951.3672288341678 2421.795299365082,958.0730236640782 2435.6565198307526,964.2932469677155 2449.6967002974284,970.0229414043315 2463.9022080780524,975.2549188298416 2478.3382322034613,980.0117351446495 2492.739802810671,984.2061411515891 2507.260101728797,987.8891974603656 2522.1234486266894,991.1089902762352 2536.86955441589,993.7661249171992 2551.7475254689894,995.91190986 2566.676061397719,997.5334560186928 2581.6018707890366,998.6250624514172 2596.729443948801,999.1976353078189 2611.6388941156506,999.2343196293547 2626.5414040054525,998.7427992941838 2641.644438328514,997.7096894822866 2656.5293496586605,996.163247035927 2671.4028591050865,994.0878563317488 2686.207213648077,991.4892183116119 2700.8653266389992,988.3839400670226 2715.6240736471073,984.7125335090042 2730.0253963872797,980.5887696077244 2744.29237519318,975.9568782797679 2758.5769525587352,970.7623287769057 2772.6161415572615,965.099806307426 2786.4751312195954,958.9447720346258 2800.139793124605,952.3049098366647 2813.5945116489343,945.1856727883654 2826.9188521115893,937.5434362911451 2839.8292546217804,929.5410489885777 2852.488567823082,921.0853128745995 2865.0264261760562,912.0820384749973 2877.21974934704,902.6920914970459 2889.1215808820366,892.876556815873 2900.7177923599156,882.6468363151989 2911.995742561768,872.0125968094826 2923.027312928442,860.906170597513 2933.567362959945,849.5717067111323 2943.755441798335,837.8694081412449 2953.698628003771,825.6686489591393 2963.214243569686,813.1917658973665 2972.3461609617007,800.3842282076976 2981.083474030169,787.2618993805264 2989.4177552958195,773.8371727677231 2997.399569634282,760.0252778424958 3004.850700645665,746.1318346619628 3011.875500352713,731.9808576295677 3018.5456023292377,717.4107374369235 3024.7355858543115,702.6966064955479 3030.4756907064984,687.7705492371925 3035.759968076901,672.6494206204006 3040.5812298214337,657.3488362685288 3044.9687242505106,641.7768375107001 3048.8250396184317,626.2710192518583 "/><path class="sewinguide" stroke="#0009ff" d="M 2726.4019036894683,-14.038398922344483 2704.5443415531895,66.2084614868537 "/>
<path class="sewinguide" stroke="#3400ff" d="M 2661.680676378645,-26.87753965928233 2651.253097951825,55.63656054104437 "/>
<path class="sewinguide" stroke="#ff00e0" d="M 2595.9392489772845,-30.523005382667627 2597.2073264531896,52.63770245979524 "/>
<path class="sewinguide" stroke="#00b5ff" d="M 2563.004466760903,-28.850739431446197 2570.1315159779183,54.01370533456031 "/>
<path class="sewinguide" stroke="#ffc100" d="M 2530.3397839117606,-24.875010245333222 2543.2793572739165,57.28263391767269 "/>
<path class="sewinguide" stroke="#00ffe0" d="M 2466.041032410963,-10.069153008428591 2490.333529944402,69.47445439474183 "/>
<path class="sewinguide" stroke="#00a2ff" d="M 2345.8756436010344,45.78293566748291 2390.8907065512544,115.71830269119874 "/>
<path class="sewinguide" stroke="#ff2f00" d="M 2345.8756436010344,45.78293566748291 2390.8907065512544,115.71830269119874 "/>
<path class="sewinguide" stroke="#ffa400" d="M 2360.0000155925945,972.1678975417261 2402.86078478937,900.8919184086794 "/>
<path class="sewinguide" stroke="#ff4b00" d="M 2360.0000155925945,972.1678975417261 2402.86078478937,900.8919184086794 "/>
<path class="sewinguide" stroke="#ff0072" d="M 2481.8113431950956,1024.3296565604824 2503.668262426246,944.0826257426959 "/>
<path class="sewinguide" stroke="#00ff9d" d="M 2546.532938917668,1037.1688631371019 2556.9621120203105,954.6549565828982 "/>
<path class="sewinguide" stroke="#f300ff" d="M 2612.2732783909037,1040.8146658047413 2611.004509840397,957.6539734539682 "/>
<path class="sewinguide" stroke="#ff1c00" d="M 2645.208419941872,1039.1418731360652 2638.0804567151563,956.277505828508 "/>
<path class="sewinguide" stroke="#ff0f00" d="M 2677.872453108272,1035.1667093966314 2664.933265101901,953.0090032668661 "/>
<path class="sewinguide" stroke="#ceff00" d="M 2742.172152506842,1020.3604222653338 2717.878640267718,940.8171169501152 "/>
</g>
</svg>